<svg width="427" height="29" viewBox="0 0 427 29" fill="none" xmlns="http://www.w3.org/2000/svg">
<path fill-rule="evenodd" clip-rule="evenodd" d="M418.996 8.41948C418.996 7.78057 419.221 7.49692 419.866 7.57696C420.038 7.59943 420.8 7.52501 421.764 7.64296C422.185 7.69492 421.978 8.16533 422.099 8.56693C422.296 9.22409 422.24 9.32238 422.845 8.98819C424.389 7.9561 424.337 7.89853 425.523 7.12622C425.987 6.91278 426.166 7.02511 426.375 7.45339C427.029 8.79019 427.428 9.34204 426.228 10.1663C425.209 10.8684 424.158 11.6449 423.084 12.392C422.863 12.5287 422.683 12.723 422.564 12.9541C422.445 13.1851 422.391 13.4442 422.408 13.7035C422.432 15.2944 422.549 16.1749 422.355 18.4778C422.301 19.1139 422.137 19.2599 421.632 19.302H421.546C418.555 19.4031 419.079 19.8047 418.878 16.8573C418.84 16.1987 419.004 9.8995 418.996 8.41948Z" fill="black"/>
<path fill-rule="evenodd" clip-rule="evenodd" d="M400.218 10.3157C402.103 10.6495 403.843 11.5418 405.214 12.8769C408.364 15.91 407.917 21.7234 402.728 23.1276C399.951 23.8788 397.143 24.2973 394.255 24.0628C393.472 23.9996 393.131 23.7272 393.047 22.8819C392.436 17.1148 391.453 11.3857 391.125 5.57512C390.972 2.86361 390.949 2.86502 393.641 2.34546C396.183 1.85961 399.878 3.23011 400.978 5.06539C401.983 6.75043 401.92 7.79094 400.718 9.36365C400.552 9.57989 400.381 9.79473 400.228 10.0208C400.193 10.084 400.221 10.1795 400.218 10.3157ZM398.071 14.1548C397.577 14.1814 397.041 14.1548 396.604 14.2713C396.06 14.4117 396.084 15.6755 396.183 16.3032C396.281 16.9309 396.341 18.8097 397.025 18.915C398.69 19.0428 400.543 18.9599 402.08 17.9784C402.999 17.3928 402.782 15.7808 401.917 15.0366C400.755 14.0424 399.532 14.1618 398.071 14.1548ZM394.542 6.47521C394.683 8.40036 394.787 8.15323 395.509 8.20799C396.271 8.26556 397.747 8.04229 397.578 6.77852C397.501 5.84192 396.059 5.39257 395.131 5.49789C394.634 5.55406 394.523 5.90651 394.542 6.47521Z" fill="black"/>
<path fill-rule="evenodd" clip-rule="evenodd" d="M375.113 23.5679C374.165 23.6943 373.875 23.2955 373.88 22.3519C373.887 21.1878 373.684 20.0252 373.592 18.8611C373.56 18.4496 373.583 17.7855 372.584 17.8388C371.657 17.8037 371.639 17.6478 371.298 18.7375C370.854 20.1586 370.287 21.5459 370.009 23.0105C369.901 23.5834 369.7 23.978 369.026 23.985C368.605 23.985 366.98 23.999 366.559 24.0664C364.605 24.381 365.258 24.0664 365.716 21.991C366.314 19.2739 367.237 16.613 368.22 14.0025C369.364 10.9667 370.301 7.84514 371.827 4.9567C372.984 2.70999 375.73 3.72663 376.1 5.28248C377.301 9.04292 377.841 12.9396 378.487 16.8138C378.702 18.0986 378.882 19.0506 379.255 20.6444C379.665 23.0779 379.879 23.0063 377.812 23.2562C377.169 23.2871 375.748 23.5005 375.113 23.5679ZM373.568 11.9229C373.564 11.8742 373.542 11.8288 373.507 11.7944C373.473 11.76 373.427 11.7389 373.378 11.7347C373.329 11.7305 373.281 11.7435 373.241 11.7715C373.2 11.7995 373.171 11.8407 373.158 11.8878C373.033 12.4495 372.791 13.5153 372.698 14.0629C372.645 14.3648 372.511 14.6246 372.798 14.6443C373.06 14.667 373.324 14.6708 373.587 14.6555C373.88 14.6246 373.75 14.2651 373.72 14.0503C373.644 13.5378 373.605 12.4425 373.564 11.9243L373.568 11.9229Z" fill="black"/>
<path fill-rule="evenodd" clip-rule="evenodd" d="M336.674 23.1738C336.761 25.4205 336.091 25.7014 334.506 25.9246C332.481 26.2055 331.635 25.7632 331.47 23.9911C331.163 20.6856 331.782 7.18844 332.726 2.41697C332.918 1.44246 333.13 0.293827 334.349 0.0171998C335.141 -0.162538 336.427 1.09562 336.531 2.4254C336.826 6.19707 336.697 21.4762 336.674 23.1738Z" fill="black"/>
<path fill-rule="evenodd" clip-rule="evenodd" d="M306.931 21.6789C307.289 22.5888 306.729 22.982 305.728 23.0536C305.558 23.0801 305.391 23.121 305.228 23.1757C303.109 23.6925 302.992 23.649 303.064 21.3938C302.879 18.8663 302.745 17.4887 302.185 15.5945C301.699 13.9516 299.306 13.0796 297.93 14.0499C297.565 14.3096 297.704 14.693 297.776 15.0033C298.057 18.7862 298.356 20.7437 298.549 23.6223C298.583 24.1208 298.229 24.2752 297.847 24.3805C296.76 24.6796 295.648 24.5322 294.547 24.5322C293.956 24.5322 293.861 24 293.845 23.5493C293.765 20.4039 293.352 17.2837 293.133 14.1496C293.066 13.1863 292.919 12.23 292.795 11.2724C292.73 10.7711 292.795 10.6503 293.435 10.5703C294.151 10.4818 294.639 10.413 295.57 10.3091C296.342 10.222 296.808 10.1153 296.918 10.941C297.015 11.6613 297.387 11.5111 297.774 11.2906C301.098 9.40056 305.537 11.4128 306.235 15.1887C306.619 17.333 306.852 19.5018 306.931 21.6789V21.6789Z" fill="black"/>
<path fill-rule="evenodd" clip-rule="evenodd" d="M254.761 11.432C254.791 10.8226 255.022 10.7004 255.604 10.6934C255.957 10.6934 256.025 10.6723 256.439 10.6849C257.329 10.7074 257.3 10.7692 257.422 11.3702C257.633 12.4009 257.782 12.4276 258.575 11.7212C259.281 11.0904 260.116 10.6212 261.022 10.3465C262.098 10.0137 262.89 10.2665 263.372 11.2873C263.674 11.9277 263.946 11.967 264.412 11.4278C265.193 10.5249 266.174 9.91685 267.386 9.83821C269.625 9.69779 271.252 11.2424 271.356 13.7377C271.44 15.7358 271.356 17.741 271.342 19.7434C271.321 20.3393 271.359 20.9358 271.457 21.524C271.663 22.5813 271.402 22.9029 270.32 23.0882C268.789 23.3522 268.145 22.7498 267.888 21.2768C267.534 19.2393 268.175 17.2229 267.83 15.1994C267.742 14.6841 267.83 14.0424 267.242 13.8683C266.54 13.6604 266.155 14.2123 265.887 14.7726C264.928 16.775 264.665 18.9739 264.147 21.0999C264.023 21.6068 263.952 22.1292 263.834 22.6445C263.733 23.077 263.561 23.3129 262.991 23.3087C260.452 23.289 260.399 23.3087 260.789 20.8471C261.018 19.412 261.48 18.0163 261.779 16.591C261.908 15.9802 262.29 15.1784 261.531 14.7992C260.855 14.4622 260.267 15.0253 259.827 15.5168C258.652 16.8269 258.423 18.5218 258.053 20.1506C257.855 21.0382 257.725 21.9395 257.664 22.8467C257.623 23.4379 257.306 23.6668 256.821 23.7342C256.334 23.7909 255.843 23.8082 255.354 23.7861C254.511 23.7665 254.049 23.4154 254.183 22.476C254.261 21.948 254.607 14.5844 254.761 11.432Z" fill="black"/>
<path fill-rule="evenodd" clip-rule="evenodd" d="M245.988 11.232C246.521 10.1086 247.545 9.56241 248.738 9.43743C250.185 9.28578 251.312 9.71125 252.29 10.9821C254.336 13.65 253.812 16.3321 252.773 19.1053C252.601 19.5162 252.406 19.9166 252.187 20.3045C251.395 21.8421 250.081 22.467 248.314 22.1496C246.348 21.7972 245.385 20.7707 244.804 18.8708C244.206 16.259 245.114 13.0575 245.988 11.232ZM247.251 17.1563C247.284 18.3639 247.813 19.2795 248.375 19.3792C248.936 19.4789 249.279 19.2809 249.45 18.8287C250.144 16.985 250.225 15.5626 249.793 13.5166C249.706 13.2569 249.306 12.7078 248.95 12.6741C248.546 12.6432 248.108 13.1375 247.956 13.4141C247.306 14.6456 247.247 15.8897 247.247 17.1549L247.251 17.1563Z" fill="black"/>
<path fill-rule="evenodd" clip-rule="evenodd" d="M284.884 11.9341C285.417 10.8107 286.441 10.2645 287.635 10.1395C289.081 9.98788 290.209 10.4134 291.186 11.6842C293.232 14.3521 292.708 17.0342 291.669 19.8074C291.497 20.2183 291.302 20.6187 291.083 21.0066C290.291 22.5442 288.977 23.1691 287.211 22.8517C285.245 22.4993 284.281 21.4728 283.7 19.5729C283.102 16.9611 284.01 13.7596 284.884 11.9341ZM286.148 17.8584C286.18 19.066 286.709 19.9816 287.271 20.0813C287.833 20.181 288.175 19.983 288.347 19.5308C289.04 17.6871 289.122 16.2647 288.689 14.2187C288.602 13.959 288.202 13.4099 287.847 13.3762C287.442 13.3453 287.004 13.8396 286.852 14.1162C286.202 15.3477 286.143 16.5918 286.143 17.857L286.148 17.8584Z" fill="black"/>
<path fill-rule="evenodd" clip-rule="evenodd" d="M238.863 2.82622C241.752 2.82622 244.004 5.24144 243.836 7.97682C243.8 8.5385 243.824 8.62556 242.993 8.89657C242.291 9.0089 241.833 9.08192 241.255 9.19566C240.676 9.3094 240.395 9.05524 240.253 8.53569C240.231 8.45424 240.211 8.3714 240.186 8.29136C239.433 5.84384 238.059 6.41535 236.876 7.67211C236.045 8.55535 234.937 10.4314 236.792 12.0251C238.237 12.9792 239.732 13.8548 241.271 14.6482C249.58 19.81 240.652 26.5838 235.485 24.4635C234.116 23.774 232.894 22.9484 232.349 21.3939C231.872 20.0305 232.068 19.5685 233.429 19.1823C233.779 19.0826 234.163 19.084 234.499 18.9506C235.459 18.5687 236.125 18.8102 236.69 19.6949C237.111 20.3422 238.462 20.6258 239.182 20.3661C240.144 20.0192 240.446 19.1458 239.863 18.2415C239.336 17.4201 238.505 16.9777 237.63 16.6253C236.125 16.0159 234.718 15.2941 233.619 14.0247C231.89 12.0335 230.616 7.01635 236.326 3.43845C237.175 2.96664 238.046 2.74057 238.863 2.82622Z" fill="black"/>
<path fill-rule="evenodd" clip-rule="evenodd" d="M197.731 10.4405C198.907 11.9627 199.668 12.933 198.319 13.7629C196.85 14.6279 195.588 15.5406 193.444 16.7693C192.98 17.0347 192.999 17.2088 193.282 17.5542C194.39 19.2856 195.964 18.2872 196.005 17.0206C195.883 15.7751 196.979 15.7372 197.742 15.4072C198.777 15.1039 198.801 15.5729 198.855 16.3508C198.941 17.5725 198.266 20.0537 196.645 20.892C193.435 22.5335 190.37 20.6448 189.709 17.022C189.338 14.9915 189.686 13.1857 190.849 11.5597C192.676 8.67546 196.214 8.76393 197.731 10.4405ZM192.417 15.0309C192.601 15.2275 195.216 13.4385 195.518 13.0215C195.775 12.6676 194.883 11.7212 193.633 12.1944C192.254 13.0397 191.79 14.3554 192.421 15.0309H192.417Z" fill="black"/>
<path fill-rule="evenodd" clip-rule="evenodd" d="M208.122 10.0193C209.298 11.5414 210.06 12.5117 208.71 13.3416C207.241 14.2066 205.979 15.1193 203.835 16.348C203.371 16.6134 203.39 16.7875 203.673 17.133C204.781 18.8643 206.355 17.8659 206.396 16.5994C206.274 15.3538 207.37 15.3159 208.133 14.9859C209.168 14.6826 209.192 15.1516 209.247 15.9296C209.332 17.1512 208.657 19.6324 207.036 20.4707C203.826 22.1122 200.761 20.2236 200.1 16.6008C199.729 14.5703 200.077 12.7645 201.24 11.1384C203.067 8.25421 206.605 8.34267 208.122 10.0193ZM202.808 14.6096C202.992 14.8062 205.607 13.0172 205.909 12.6002C206.166 12.2463 205.274 11.2999 204.024 11.7731C202.645 12.6185 202.181 13.9342 202.812 14.6096H202.808Z" fill="black"/>
<path fill-rule="evenodd" clip-rule="evenodd" d="M280.859 11.8447C282.036 13.3669 282.797 14.3372 281.448 15.1671C279.979 16.0321 278.716 16.9448 276.572 18.1735C276.109 18.4389 276.127 18.613 276.411 18.9584C277.519 20.6898 279.093 19.6914 279.133 18.4248C279.011 17.1793 280.108 17.1414 280.87 16.8114C281.905 16.5081 281.929 16.9771 281.984 17.755C282.07 18.9767 281.394 21.4579 279.774 22.2962C276.564 23.9377 273.498 22.049 272.837 18.4262C272.466 16.3957 272.815 14.5899 273.977 12.9639C275.804 10.0797 279.343 10.1681 280.859 11.8447ZM275.546 16.4351C275.73 16.6316 278.344 14.8427 278.646 14.4257C278.903 14.0718 278.011 13.1254 276.762 13.5986C275.383 14.4439 274.918 15.7596 275.55 16.4351H275.546Z" fill="black"/>
<path fill-rule="evenodd" clip-rule="evenodd" d="M317.146 12.7128C317.971 14.4505 318.509 15.5606 317.013 16.0842C315.394 16.6168 313.967 17.24 311.61 17.9842C311.101 18.1449 311.081 18.3189 311.285 18.7168C311.999 20.6443 313.75 20.0038 314.059 18.7749C314.205 17.5319 315.284 17.7282 316.1 17.5681C317.175 17.492 317.099 17.9553 316.987 18.727C316.811 19.9389 315.623 22.2196 313.861 22.6938C310.375 23.6146 307.782 21.1168 307.907 17.4362C307.976 15.3734 308.701 13.6831 310.183 12.3417C312.582 9.91233 316.021 10.7519 317.146 12.7128ZM310.977 16.0672C311.115 16.2984 314.05 15.1069 314.434 14.7636C314.76 14.4726 314.091 13.358 312.769 13.5544C311.242 14.0869 310.507 15.2736 310.981 16.068L310.977 16.0672Z" fill="black"/>
<path fill-rule="evenodd" clip-rule="evenodd" d="M182.142 12.8207C181.562 13.0328 181.069 18.9416 179.012 19.0989C177.539 19.2126 176.952 17.3324 176.796 16.9364C176.143 15.2795 175.751 13.2855 175.415 13.1886C175.144 13.7419 173.704 20.7179 173.436 23.6597C173.399 24.0712 173.179 24.1751 172.863 24.2832C171.327 24.7903 169.742 25.1312 168.133 25.2998C167.478 25.3757 167.431 25.1173 167.612 24.571C168.333 22.351 171.308 10.918 172.387 7.4988C172.726 6.42319 173.152 5.91066 174.493 5.69863C175.312 5.62 176.446 5.22401 177.044 6.17605C177.466 7.09861 177.711 10.0783 178.635 9.94633C179.559 9.81433 180.236 6.9259 180.824 5.81237C181.22 5.06534 183.709 4.61038 185.008 4.82943C185.871 4.96985 185.968 5.93313 186.131 6.67595C187.162 11.1918 189.98 22.5574 190.112 23.7819C190.161 24.2383 190.065 24.4152 189.507 24.484C188.15 24.6623 187.541 24.8477 186.187 24.9895C185.249 25.0316 185.111 24.88 185.016 24.1652C184.61 21.0268 182.986 12.7154 182.142 12.8207Z" fill="black"/>
<path fill-rule="evenodd" clip-rule="evenodd" d="M147.132 13.7596C147.666 12.6362 148.689 12.09 149.883 11.965C151.329 11.8133 152.457 12.2388 153.434 13.5096C155.48 16.1776 154.956 18.8596 153.917 21.6329C153.746 22.0437 153.55 22.4441 153.332 22.8321C152.54 24.3697 151.225 24.9945 149.459 24.6772C147.493 24.3247 146.53 23.2983 145.948 21.3984C145.35 18.7866 146.259 15.585 147.132 13.7596ZM148.396 19.6839C148.428 20.8915 148.957 21.807 149.519 21.9067C150.081 22.0064 150.423 21.8084 150.595 21.3563C151.288 19.5126 151.37 18.0901 150.937 16.0442C150.85 15.7844 150.45 15.2354 150.095 15.2017C149.69 15.1708 149.252 15.6651 149.101 15.9417C148.451 17.1732 148.392 18.4173 148.392 19.6825L148.396 19.6839Z" fill="black"/>
<path fill-rule="evenodd" clip-rule="evenodd" d="M145.401 5.61884C146.009 5.61884 146.151 5.72135 146.141 6.46136C146.124 7.78833 146.054 7.95121 146.055 8.97066C146.069 9.58991 145.79 9.77105 145.213 9.79211C143.271 9.86232 143.387 9.86934 143.491 11.8984C143.608 14.3136 143.08 23.1179 143.191 25.1091C143.213 25.5304 143.029 25.6708 142.654 25.6595C141.671 25.6371 140.673 25.6272 139.683 25.5837C139.21 25.5627 138.999 25.3029 138.981 24.7932C138.93 23.8271 139.172 14.2813 139.262 10.4703C139.276 9.83845 139.217 9.52251 138.626 9.53795C137.571 9.56744 136.366 9.63343 135.317 9.46493C134.809 9.38349 134.594 9.23605 134.572 8.53676C134.494 7.90768 134.525 7.76726 134.546 6.82645C134.525 6.18332 134.584 5.9432 135.268 5.85053C137.119 5.60198 143.88 5.61322 145.401 5.61884Z" fill="black"/>
<path fill-rule="evenodd" clip-rule="evenodd" d="M118.039 16.2338C118.063 15.7339 118.055 15.4221 117.233 15.4109C117.153 15.4179 115.97 15.4418 115.897 15.4376C114.721 15.4025 115.004 14.9686 115.117 13.3313C115.143 12.9578 115.704 12.9423 116.1 12.91C116.538 12.8693 117.549 12.8216 117.992 12.8061C118.487 12.8454 118.392 12.5913 118.351 12.0282C118.289 11.1618 118.402 10.287 118.317 9.4234C118.28 9.02882 118.472 8.89121 118.857 8.87436C119.663 8.83644 120.474 8.84768 121.285 8.84908C121.836 8.84908 121.783 9.16363 121.783 9.44306C121.783 10.3403 121.807 11.239 121.766 12.1363C121.741 12.6896 121.766 12.8511 122.206 12.8833C124.719 13.0476 124.601 12.778 124.642 14.032C124.528 15.5949 124.9 15.4207 122.745 15.526C122.016 15.526 122.016 15.6945 121.991 16.7042C121.86 19.0028 121.692 21.3029 121.832 23.5988C121.887 24.482 121.335 24.7404 120.418 24.8626C120.218 24.8837 120.016 24.8935 119.814 24.8921C117.936 24.9314 117.848 24.8583 117.889 23.4064C117.919 22.2901 117.98 17.506 118.039 16.2338Z" fill="black"/>
<path fill-rule="evenodd" clip-rule="evenodd" d="M212.823 12.4424C212.847 11.9425 212.838 11.6308 212.017 11.6196C211.937 11.6266 210.753 11.6505 210.68 11.6462C209.505 11.6111 209.787 11.1772 209.901 9.53995C209.926 9.16644 210.488 9.15099 210.884 9.11869C211.322 9.07797 212.333 9.03022 212.775 9.01477C213.271 9.05409 213.175 8.79994 213.135 8.23685C213.073 7.37046 213.185 6.49565 213.101 5.63207C213.063 5.23749 213.255 5.09987 213.64 5.08302C214.446 5.04511 215.258 5.05634 216.068 5.05775C216.62 5.05775 216.566 5.37229 216.566 5.65173C216.566 6.54901 216.59 7.4477 216.55 8.34498C216.524 8.89823 216.55 9.05972 216.989 9.09201C219.503 9.2563 219.385 8.9867 219.425 10.2406C219.312 11.8035 219.684 11.6294 217.528 11.7347C216.8 11.7347 216.8 11.9032 216.774 12.9128C216.644 15.2115 216.475 17.5116 216.616 19.8074C216.67 20.6907 216.118 20.9491 215.202 21.0712C215.001 21.0923 214.799 21.1022 214.598 21.1007C212.719 21.14 212.632 21.067 212.673 19.6151C212.702 18.4987 212.764 13.7146 212.823 12.4424Z" fill="black"/>
<path fill-rule="evenodd" clip-rule="evenodd" d="M115.181 22.9479C115.523 23.8135 114.988 24.1875 114.032 24.2556C113.87 24.2809 113.71 24.3198 113.555 24.3718C111.531 24.8634 111.42 24.822 111.488 22.6767C111.311 20.2722 111.184 18.9618 110.649 17.1597C110.185 15.5968 107.9 14.7673 106.586 15.6903C106.238 15.9375 106.37 16.3021 106.439 16.5973C106.707 20.1961 106.993 22.0582 107.178 24.7966C107.21 25.2709 106.872 25.4178 106.507 25.518C105.469 25.8025 104.407 25.6623 103.356 25.6623C102.792 25.6623 102.7 25.156 102.686 24.7272C102.609 21.7349 102.215 18.7667 102.006 15.7852C101.942 14.8688 101.801 13.9591 101.683 13.0481C101.621 12.5712 101.683 12.4563 102.294 12.3802C102.978 12.296 103.443 12.2305 104.332 12.1317C105.07 12.0489 105.515 11.9473 105.62 12.7328C105.712 13.4181 106.067 13.2752 106.437 13.0654C109.611 11.2674 113.85 13.1816 114.516 16.7737C114.883 18.8136 115.106 20.8768 115.181 22.9479V22.9479Z" fill="black"/>
<path fill-rule="evenodd" clip-rule="evenodd" d="M353.614 21.8245C353.956 22.6901 353.421 23.0641 352.465 23.1323C352.303 23.1575 352.143 23.1964 351.987 23.2485C349.964 23.7401 349.853 23.6987 349.921 21.5533C349.744 19.1488 349.617 17.8384 349.082 16.0364C348.618 14.4735 346.333 13.6439 345.019 14.567C344.67 14.8141 344.803 15.1788 344.872 15.474C345.14 19.0727 345.425 20.9348 345.61 23.6733C345.643 24.1475 345.305 24.2944 344.94 24.3946C343.902 24.6792 342.84 24.5389 341.789 24.5389C341.224 24.5389 341.133 24.0326 341.119 23.6038C341.042 20.6116 340.648 17.6434 340.439 14.6618C340.374 13.7454 340.234 12.8357 340.116 11.9247C340.054 11.4478 340.116 11.3329 340.727 11.2568C341.411 11.1726 341.876 11.1072 342.765 11.0083C343.503 10.9255 343.948 10.824 344.052 11.6095C344.145 12.2947 344.5 12.1518 344.87 11.9421C348.044 10.1441 352.282 12.0583 352.949 15.6503C353.316 17.6902 353.538 19.7534 353.614 21.8245V21.8245Z" fill="black"/>
<path fill-rule="evenodd" clip-rule="evenodd" d="M90.2916 19.6851C90.5542 17.3092 91.7126 15.5904 93.5858 13.991C94.6727 13.0615 96.0712 13.1752 97.2086 14.0275C97.3926 14.168 97.4825 14.3674 97.8237 14.1932C98.7462 13.7214 99.3121 13.9728 99.5157 15.0568C99.937 17.3162 100.249 19.6078 100.575 21.8728C100.702 22.6718 100.944 23.1857 100.391 23.8148C99.7699 24.5169 98.926 24.6236 98.1059 24.7977C97.6987 24.8876 97.6285 24.5001 97.592 24.2571C97.4684 23.4483 97.0542 23.5227 96.5192 23.8359C96.4279 23.8892 96.3254 23.9257 96.2313 23.9763C93.187 25.5167 90.2101 23.5901 90.2916 19.6851ZM96.47 19.0026C96.4251 18.1461 96.741 17.1772 95.9477 16.9862C94.9746 16.7517 94.1531 17.5043 93.9186 19.3551C93.8021 20.595 94.6516 21.1707 95.8143 20.7185C96.5922 20.4124 96.4265 19.8508 96.4714 19.0082L96.47 19.0026Z" fill="black"/>
<path fill-rule="evenodd" clip-rule="evenodd" d="M407.219 13.7874C407.482 11.4115 408.64 9.69278 410.513 8.0934C411.6 7.16382 412.999 7.27756 414.136 8.12991C414.32 8.27033 414.41 8.46972 414.751 8.2956C415.674 7.82379 416.24 8.07514 416.443 9.15918C416.864 11.4185 417.176 13.7102 417.502 15.9752C417.63 16.7742 417.871 17.2881 417.318 17.9172C416.697 18.6193 415.853 18.726 415.033 18.9001C414.626 18.99 414.556 18.6024 414.519 18.3595C414.396 17.5507 413.982 17.6251 413.447 17.9382C413.355 17.9916 413.253 18.0281 413.159 18.0787C410.114 19.6191 407.138 17.6925 407.219 13.7874ZM413.398 13.105C413.353 12.2484 413.669 11.2795 412.875 11.0886C411.902 10.8541 411.081 11.6067 410.846 13.4574C410.73 14.6973 411.579 15.2731 412.742 14.8209C413.52 14.5148 413.354 13.9531 413.399 13.1106L413.398 13.105Z" fill="black"/>
<path fill-rule="evenodd" clip-rule="evenodd" d="M81.7713 20.5659C81.1127 21.6233 80.8234 22.6554 80.5075 23.6706C80.0497 25.1563 80.0722 25.152 78.4967 25.1029C77.6275 25.0748 76.7541 25.0523 75.8877 25.1029C75.2137 25.1394 74.9637 24.8122 74.8402 24.2211C74.6028 23.0809 73.7912 9.76766 74.0524 7.72174C74.1633 6.85255 74.5383 6.52536 75.4412 6.42847C77.9912 6.14763 78.0403 6.32034 78.1962 8.95602C78.3577 11.6788 78.4686 12.489 78.5739 14.2569C78.5739 14.3257 78.6708 15.2707 79.0485 15.2482C79.4263 15.2258 79.4122 14.9576 79.5372 14.6023C80.1789 12.7769 80.6409 11.3221 81.2784 10.5147C82.0016 9.67218 84.2764 8.942 85.3801 13.2009C85.5317 13.8061 85.5317 13.8328 85.7409 14.6697C86.0948 13.4691 88.1646 6.71492 88.9706 4.76028C89.2725 4.0301 89.7584 3.76049 90.5293 4.03992C91.0797 4.23932 91.6456 4.39239 92.2003 4.58055C93.8221 5.131 93.8502 5.14223 93.2394 6.75706C91.2735 11.9315 89.6376 17.2141 88.0186 22.4995C87.6422 23.7282 87.221 24.2421 85.9305 24.4064C83.6838 24.6873 83.5167 24.7083 82.5604 22.581C82.295 21.9715 82.0816 21.3537 81.7713 20.5659Z" fill="black"/>
<path fill-rule="evenodd" clip-rule="evenodd" d="M53.5873 14.958C53.6134 14.4114 53.6042 14.0706 52.7066 14.0583C52.6191 14.066 51.3257 14.0921 51.2459 14.0875C49.9616 14.0491 50.27 13.5746 50.3943 11.7844C50.4219 11.376 51.0357 11.3591 51.4684 11.3238C51.9471 11.2792 53.0518 11.227 53.5351 11.2101C54.0768 11.2531 53.9724 10.9752 53.9279 10.3595C53.8604 9.41222 53.9831 8.45568 53.8911 7.51142C53.8497 7.07998 54.0599 6.92951 54.4803 6.91108C55.361 6.86963 56.2478 6.88191 57.1332 6.88345C57.7362 6.88345 57.6779 7.22738 57.6779 7.53292C57.6779 8.51402 57.7039 9.49667 57.6594 10.4778C57.6318 11.0827 57.6594 11.2593 58.1397 11.2946C60.8862 11.4742 60.7573 11.1794 60.8018 12.5505C60.6775 14.2594 61.0841 14.069 58.7289 14.1842C57.9326 14.1842 57.9326 14.3684 57.9049 15.4724C57.7622 17.9858 57.5781 20.5007 57.7316 23.0111C57.7914 23.9768 57.1884 24.2593 56.1865 24.3929C55.9673 24.416 55.7471 24.4267 55.5267 24.4252C53.4738 24.4681 53.3786 24.3883 53.4231 22.8007C53.4553 21.5801 53.5228 16.3491 53.5873 14.958Z" fill="black"/>
<path fill-rule="evenodd" clip-rule="evenodd" d="M46.7353 25.2691C44.8397 25.3635 43.5997 24.4177 42.6963 22.8848C42.5185 22.5822 42.4778 22.3487 42.7205 22.0564C43.1016 21.602 43.343 20.891 43.8093 20.7021C44.4445 20.5949 44.7152 21.1374 45.2424 21.5024C46.7467 22.4942 47.9181 21.5637 46.2207 20.2081C42.3609 16.9124 39.4756 10.0837 46.7607 10.5547C48.4187 10.5929 49.2267 12.0863 49.3017 12.3544C49.7794 13.9473 49.5672 14.366 48.0464 15.0348C47.6983 15.1893 47.5382 15.1267 47.4391 14.7796C47.2981 14.3162 47.2308 12.6914 46.1762 12.9505C44.3975 13.5963 45.8675 14.5013 46.5218 15.2774C47.1571 15.9743 48.0032 17.0848 48.749 17.8468C50.7094 20.0652 51.4552 24.7164 46.7353 25.2691Z" fill="black"/>
<path fill-rule="evenodd" clip-rule="evenodd" d="M37.3152 12.4943C37.3475 10.2138 37.3475 10.2138 39.5984 9.93439C41.466 9.7013 41.5067 9.70552 41.341 11.5787C40.6066 33.2315 32.9635 26.0841 32.437 12.1404C32.5521 11.5001 33.9058 11.062 34.4815 11.2979C34.9252 11.4818 34.9027 11.7191 35.1358 12.7217C35.6737 15.9795 38.131 26.4885 37.3152 12.4943Z" fill="black"/>
<path fill-rule="evenodd" clip-rule="evenodd" d="M26.9871 7.3192C26.9787 6.64098 26.6375 6.26464 25.9101 6.35592C25.6911 6.3826 25.472 6.4163 25.2529 6.43596C24.5031 6.50476 23.7659 6.55251 23.5272 5.58081C23.2239 4.34511 23.4303 3.8747 24.5579 3.47451C26.2906 2.85947 28.1077 2.72186 29.9219 2.57161C30.1101 2.55616 30.2954 2.56318 30.4836 2.54914C32.0127 2.4354 31.9369 2.7696 32.2585 3.59106C32.7724 4.89837 32.5211 5.46706 31.1787 5.70999C30.3249 5.86445 30.2392 6.22392 30.3656 7.04257C30.9273 10.7244 31.239 14.4427 31.0677 18.1624C31.3387 28.8048 21.4672 24.6667 20.6121 23.7343C19.7569 22.8019 19.7218 22.1995 20.4815 21.2474C20.6767 21.0003 20.8634 20.7475 21.0628 20.5046C21.3254 20.1845 21.5683 20.0188 22.0163 20.3122C23.2239 21.1014 23.6845 22.111 25.9003 21.5325C27.355 21.1534 27.3438 20.1606 27.4168 19.1173C27.4898 18.074 27.0264 10.2203 26.9871 7.3192Z" fill="black"/>
<path fill-rule="evenodd" clip-rule="evenodd" d="M5.28349 25.7014C5.37055 27.9481 4.70075 28.2289 3.11541 28.4522C1.09055 28.733 0.243823 28.2907 0.0795314 26.5186C-0.227988 23.2131 0.391264 9.716 1.33488 4.94453C1.52726 3.97002 1.73929 2.82138 2.95814 2.54476C3.7501 2.36502 5.03636 3.62318 5.14027 4.95296C5.43515 8.72463 5.30596 24.0037 5.28349 25.7014Z" fill="black"/>
</svg>
