<svg width="28" height="28" viewBox="0 0 28 28" fill="none" xmlns="http://www.w3.org/2000/svg">
<path fill-rule="evenodd" clip-rule="evenodd" d="M8.70917 1.24375C10.0777 1.18075 10.514 1.16675 14 1.16675C17.486 1.16675 17.9223 1.18191 19.2897 1.24375C20.657 1.30558 21.5903 1.52375 22.407 1.83991C23.2622 2.16308 24.038 2.66825 24.6797 3.32158C25.333 3.96208 25.837 4.73675 26.159 5.59308C26.4763 6.40975 26.6933 7.34308 26.7563 8.70808C26.8193 10.0789 26.8333 10.5152 26.8333 14.0001C26.8333 17.4861 26.8182 17.9224 26.7563 19.2909C26.6945 20.6559 26.4763 21.5892 26.159 22.4059C25.837 23.2624 25.3322 24.0383 24.6797 24.6797C24.038 25.3331 23.2622 25.8371 22.407 26.1591C21.5903 26.4764 20.657 26.6934 19.292 26.7564C17.9223 26.8194 17.486 26.8334 14 26.8334C10.514 26.8334 10.0777 26.8182 8.70917 26.7564C7.34417 26.6946 6.41084 26.4764 5.59417 26.1591C4.73775 25.837 3.9618 25.3322 3.32034 24.6797C2.66745 24.0389 2.16221 23.2633 1.83984 22.4071C1.52367 21.5904 1.30667 20.6571 1.24367 19.2921C1.18067 17.9212 1.16667 17.4849 1.16667 14.0001C1.16667 10.5141 1.18184 10.0777 1.24367 8.71041C1.30551 7.34308 1.52367 6.40975 1.83984 5.59308C2.16268 4.73684 2.66831 3.96128 3.3215 3.32041C3.96205 2.66767 4.73722 2.16243 5.593 1.83991C6.40967 1.52375 7.343 1.30675 8.708 1.24375H8.70917ZM19.1858 3.55375C17.8325 3.49191 17.4265 3.47908 14 3.47908C10.5735 3.47908 10.1675 3.49191 8.81417 3.55375C7.56234 3.61091 6.88334 3.81975 6.43067 3.99591C5.83217 4.22925 5.404 4.50575 4.95484 4.95491C4.52906 5.36914 4.20138 5.87341 3.99584 6.43075C3.81967 6.88341 3.61084 7.56241 3.55367 8.81425C3.49184 10.1676 3.479 10.5736 3.479 14.0001C3.479 17.4266 3.49184 17.8326 3.55367 19.1859C3.61084 20.4377 3.81967 21.1167 3.99584 21.5694C4.20117 22.1259 4.529 22.6311 4.95484 23.0452C5.369 23.4711 5.87417 23.7989 6.43067 24.0042C6.88334 24.1804 7.56234 24.3892 8.81417 24.4464C10.1675 24.5082 10.5723 24.5211 14 24.5211C17.4277 24.5211 17.8325 24.5082 19.1858 24.4464C20.4377 24.3892 21.1167 24.1804 21.5693 24.0042C22.1678 23.7709 22.596 23.4944 23.0452 23.0452C23.471 22.6311 23.7988 22.1259 24.0042 21.5694C24.1803 21.1167 24.3892 20.4377 24.4463 19.1859C24.5082 17.8326 24.521 17.4266 24.521 14.0001C24.521 10.5736 24.5082 10.1676 24.4463 8.81425C24.3892 7.56241 24.1803 6.88341 24.0042 6.43075C23.7708 5.83225 23.4943 5.40408 23.0452 4.95491C22.6309 4.52916 22.1267 4.20149 21.5693 3.99591C21.1167 3.81975 20.4377 3.61091 19.1858 3.55375ZM12.3608 17.9562C13.2763 18.3373 14.2956 18.3887 15.2448 18.1018C16.1939 17.8148 17.014 17.2071 17.5649 16.3827C18.1158 15.5582 18.3634 14.5681 18.2654 13.5814C18.1674 12.5946 17.7298 11.6725 17.0275 10.9726C16.5798 10.5251 16.0384 10.1825 15.4424 9.96942C14.8464 9.75631 14.2105 9.678 13.5806 9.74013C12.9507 9.80226 12.3423 10.0033 11.7994 10.3287C11.2565 10.6542 10.7925 11.0959 10.4409 11.6222C10.0892 12.1485 9.85856 12.7463 9.76561 13.3724C9.67265 13.9985 9.71968 14.6374 9.9033 15.2432C10.0869 15.8489 10.4026 16.4065 10.8275 16.8756C11.2525 17.3447 11.7761 17.7138 12.3608 17.9562ZM9.33567 9.33575C9.9482 8.72322 10.6754 8.23733 11.4757 7.90584C12.276 7.57434 13.1338 7.40372 14 7.40372C14.8663 7.40372 15.724 7.57434 16.5243 7.90584C17.3246 8.23733 18.0518 8.72322 18.6643 9.33575C19.2769 9.94828 19.7627 10.6755 20.0942 11.4758C20.4257 12.2761 20.5964 13.1338 20.5964 14.0001C20.5964 14.8663 20.4257 15.7241 20.0942 16.5244C19.7627 17.3247 19.2769 18.0519 18.6643 18.6644C17.4273 19.9015 15.7495 20.5964 14 20.5964C12.2505 20.5964 10.5727 19.9015 9.33567 18.6644C8.09861 17.4274 7.40364 15.7495 7.40364 14.0001C7.40364 12.2506 8.09861 10.5728 9.33567 9.33575ZM22.0593 8.38608C22.2111 8.2429 22.3326 8.07071 22.4167 7.87972C22.5007 7.68873 22.5456 7.48281 22.5487 7.27417C22.5517 7.06552 22.5128 6.85839 22.4344 6.66503C22.356 6.47167 22.2395 6.29601 22.092 6.14846C21.9444 6.00091 21.7688 5.88446 21.5754 5.80602C21.382 5.72757 21.1749 5.68872 20.9662 5.69176C20.7576 5.6948 20.5517 5.73968 20.3607 5.82373C20.1697 5.90778 19.9975 6.02929 19.8543 6.18108C19.5759 6.47628 19.4234 6.86839 19.4293 7.27417C19.4352 7.67994 19.5991 8.06744 19.886 8.3544C20.173 8.64136 20.5605 8.80518 20.9662 8.8111C21.372 8.81701 21.7641 8.66455 22.0593 8.38608Z" fill="#303030"/>
</svg>
