<svg width="28" height="28" viewBox="0 0 28 28" fill="none" xmlns="http://www.w3.org/2000/svg">
<path d="M27.5835 5.75976C26.6093 6.19143 25.5628 6.48309 24.4626 6.61493C25.5978 5.93568 26.4471 4.86664 26.852 3.60726C25.7855 4.24075 24.6182 4.68665 23.401 4.92559C22.5824 4.0516 21.4982 3.47231 20.3167 3.27765C19.1352 3.08299 17.9224 3.28385 16.8668 3.84906C15.8111 4.41426 14.9715 5.31218 14.4785 6.40341C13.9854 7.49465 13.8664 8.71814 14.14 9.88393C11.9789 9.77542 9.86487 9.21374 7.93497 8.23532C6.00506 7.2569 4.30245 5.88362 2.93764 4.20459C2.47097 5.00959 2.20264 5.94293 2.20264 6.93693C2.20212 7.83176 2.42248 8.71288 2.84416 9.50212C3.26585 10.2914 3.87583 10.9643 4.61997 11.4613C3.75696 11.4338 2.91299 11.2006 2.15831 10.7811V10.8511C2.15822 12.1061 2.59234 13.3225 3.38702 14.2939C4.1817 15.2653 5.28797 15.9318 6.51814 16.1804C5.71755 16.3971 4.8782 16.429 4.06347 16.2738C4.41055 17.3536 5.08663 18.298 5.99707 18.9745C6.9075 19.6511 8.00671 20.026 9.14081 20.0468C7.21561 21.5581 4.83801 22.3779 2.39047 22.3743C1.95692 22.3744 1.52373 22.3491 1.09314 22.2984C3.57753 23.8958 6.46954 24.7436 9.42314 24.7403C19.4215 24.7403 24.8873 16.4593 24.8873 9.27726C24.8873 9.04393 24.8815 8.80826 24.871 8.57493C25.9341 7.80606 26.8519 6.85397 27.5811 5.76326L27.5835 5.75976Z" fill="#303030"/>
</svg>
