<svg width="512" height="32" viewBox="0 0 512 32" fill="none" xmlns="http://www.w3.org/2000/svg">
<path fill-rule="evenodd" clip-rule="evenodd" d="M511.9 17.6073C512.23 18.4476 511.713 18.8107 510.788 18.8768C510.632 18.9013 510.477 18.9391 510.327 18.9896C508.37 19.4668 508.262 19.4266 508.329 17.3441C508.157 15.0099 508.034 13.7379 507.517 11.9886C507.068 10.4714 504.858 9.66612 503.588 10.5622C503.251 10.8021 503.379 11.1561 503.445 11.4426C503.704 14.936 503.981 16.7437 504.16 19.402C504.191 19.8623 503.864 20.005 503.511 20.1022C502.508 20.3784 501.481 20.2423 500.464 20.2423C499.918 20.2423 499.83 19.7508 499.816 19.3345C499.742 16.4299 499.36 13.5485 499.158 10.6542C499.096 9.76468 498.96 8.8816 498.846 7.99723C498.786 7.5343 498.846 7.42278 499.437 7.34887C500.098 7.26718 500.548 7.20363 501.408 7.10767C502.121 7.02727 502.552 6.92872 502.653 7.6912C502.742 8.35642 503.086 8.21768 503.444 8.01409C506.513 6.26869 510.612 8.1269 511.257 11.6138C511.612 13.594 511.827 15.5968 511.9 17.6073V17.6073Z" fill="black"/>
<path fill-rule="evenodd" clip-rule="evenodd" d="M487.286 12.419C487.948 4.79548 492.533 2.04511 493.511 1.61848C494.89 1.0168 495.877 1.48882 496.861 2.35244C498.582 3.85794 499.24 5.85361 499.377 8.03471C499.605 11.264 499.036 14.4999 497.721 17.458C497.051 18.9571 496.094 20.2901 494.656 21.1654C492.59 22.4232 490.247 21.8384 488.925 19.8194C487.594 17.7757 487.285 15.4922 487.286 12.419ZM491.566 13.6431C491.627 15.229 491.738 15.8644 492.038 16.951C492.217 17.5994 492.655 17.8756 493.248 17.908C493.84 17.9404 493.924 17.4386 494.026 17.0003C494.127 16.562 494.227 16.1445 494.297 15.7126C494.776 12.7496 495.552 9.80085 495.121 6.77558C495.06 6.34377 494.919 5.7797 494.431 5.62668C493.885 5.45422 493.513 5.90937 493.193 6.30228C492.873 6.69519 491.267 8.82701 491.562 13.6431H491.566Z" fill="black"/>
<path fill-rule="evenodd" clip-rule="evenodd" d="M469.106 9.71263C469.13 9.21307 469.122 8.90155 468.301 8.89033C468.221 8.89734 467.038 8.9212 466.965 8.91699C465.79 8.88191 466.072 8.4483 466.186 6.81212C466.211 6.43886 466.773 6.42342 467.168 6.39114C467.606 6.35045 468.617 6.30273 469.059 6.2873C469.554 6.32659 469.459 6.0726 469.418 5.5099C469.356 4.6441 469.468 3.76988 469.384 2.90688C469.346 2.51257 469.539 2.37505 469.923 2.35821C470.728 2.32032 471.54 2.33155 472.349 2.33295C472.901 2.33295 472.847 2.64728 472.847 2.92653C472.847 3.8232 472.871 4.72128 472.831 5.61795C472.805 6.17083 472.831 6.33221 473.27 6.36448C475.782 6.52866 475.664 6.25924 475.704 7.51234C475.591 9.07415 475.963 8.90014 473.809 9.00538C473.08 9.00538 473.08 9.17378 473.055 10.1827C472.925 12.4798 472.756 14.7783 472.896 17.0726C472.951 17.9553 472.4 18.2135 471.483 18.3356C471.283 18.3566 471.082 18.3665 470.88 18.365C469.002 18.4043 468.915 18.3314 468.956 16.8804C468.986 15.7648 469.047 10.984 469.106 9.71263Z" fill="black"/>
<path fill-rule="evenodd" clip-rule="evenodd" d="M463.426 6.5894C464.602 8.11051 465.363 9.08016 464.014 9.90948C462.546 10.7739 461.285 11.686 459.142 12.9138C458.679 13.179 458.697 13.353 458.981 13.6982C460.088 15.4284 461.661 14.4307 461.702 13.165C461.579 11.9203 462.675 11.8824 463.437 11.5527C464.472 11.2496 464.495 11.7183 464.55 12.4957C464.636 13.7165 463.961 16.196 462.341 17.0338C459.134 18.6742 456.07 16.7868 455.409 13.1664C455.039 11.1373 455.387 9.33274 456.549 7.70778C458.374 4.82552 461.911 4.91392 463.426 6.5894ZM458.116 11.1766C458.3 11.3731 460.913 9.58533 461.215 9.16856C461.471 8.81494 460.58 7.86916 459.331 8.34205C457.953 9.18681 457.489 10.5016 458.12 11.1766H458.116Z" fill="black"/>
<path fill-rule="evenodd" clip-rule="evenodd" d="M447.848 9.38913C447.268 9.60102 446.776 15.5059 444.72 15.6631C443.248 15.7767 442.661 13.8978 442.505 13.502C441.853 11.8462 441.461 9.85361 441.126 9.75678C440.855 10.3097 439.415 17.281 439.147 20.2208C439.111 20.6319 438.891 20.7358 438.575 20.8438C437.04 21.3506 435.456 21.6912 433.849 21.8598C433.194 21.9356 433.147 21.6774 433.328 21.1315C434.048 18.913 437.022 7.48773 438.099 4.07083C438.439 2.99594 438.864 2.48377 440.204 2.27188C441.022 2.19329 442.156 1.79757 442.754 2.74897C443.175 3.67091 443.42 6.6486 444.344 6.51669C445.267 6.38479 445.943 3.49831 446.531 2.38554C446.927 1.63901 449.414 1.18436 450.712 1.40327C451.575 1.54359 451.671 2.50621 451.834 3.24853C452.864 7.76137 455.681 19.1192 455.812 20.3429C455.862 20.7989 455.766 20.9757 455.208 21.0445C453.852 21.2227 453.243 21.4079 451.89 21.5497C450.953 21.5918 450.815 21.4402 450.72 20.726C450.315 17.5897 448.691 9.28389 447.848 9.38913Z" fill="black"/>
<path fill-rule="evenodd" clip-rule="evenodd" d="M420.362 11.0364C420.393 8.81693 420.393 8.81691 422.584 8.54495C424.402 8.31809 424.441 8.3222 424.28 10.1453C423.565 31.2191 416.126 24.2629 415.614 10.692C415.726 10.0688 417.043 9.64239 417.604 9.87198C418.036 10.051 418.014 10.282 418.241 11.2578C418.764 14.4284 421.156 24.6565 420.362 11.0364Z" fill="black"/>
<path fill-rule="evenodd" clip-rule="evenodd" d="M406.84 11.448C407.359 10.3546 408.356 9.82301 409.517 9.70137C410.925 9.55378 412.022 9.96787 412.974 11.2047C414.965 13.8013 414.455 16.4117 413.444 19.1108C413.277 19.5106 413.087 19.9003 412.874 20.2779C412.103 21.7744 410.824 22.3826 409.105 22.0737C407.191 21.7307 406.254 20.7316 405.688 18.8826C405.106 16.3406 405.99 13.2246 406.84 11.448ZM408.07 17.2139C408.102 18.3892 408.617 19.2803 409.163 19.3773C409.71 19.4743 410.044 19.2816 410.21 18.8416C410.885 17.0471 410.965 15.6627 410.544 13.6715C410.459 13.4187 410.07 12.8843 409.724 12.8515C409.33 12.8215 408.904 13.3025 408.756 13.5717C408.123 14.7703 408.066 15.9812 408.066 17.2125L408.07 17.2139Z" fill="black"/>
<path fill-rule="evenodd" clip-rule="evenodd" d="M397.302 2.02084C397.969 1.99624 398.346 2.32012 398.547 2.93102C399.035 4.4152 399.863 5.74223 400.566 7.12529C401.112 8.19538 401.45 8.194 402.042 7.16764C402.837 5.78596 403.595 4.38378 404.348 2.97886C404.693 2.34063 404.999 2.05364 405.818 2.465C407.682 3.40252 407.687 3.33555 407.255 5.45114C406.685 8.23501 402.003 17.5064 401.053 19.6985C400.643 20.6552 399.687 22.2869 398.648 22.1147C396.706 21.6241 396.416 21.0515 396.847 19.0835C398.015 15.8664 398.127 15.4195 398.999 13.4092C399.237 12.9185 399.236 12.5892 398.816 12.1696C396.425 9.81077 394.99 6.94351 394.36 3.64988C394.211 2.86815 394.243 2.65633 395.244 2.40896C396.062 2.2067 396.616 2.15887 397.302 2.02084Z" fill="black"/>
<path fill-rule="evenodd" clip-rule="evenodd" d="M377.63 22.5973C378.469 22.6357 378.558 22.5125 378.558 23.7198C378.494 24.6766 378.62 24.9827 379.367 25.1179C380.115 25.2531 380.693 24.8422 380.984 24.1902C381.55 22.9061 381.59 21.5252 381.88 20.1906C382.013 19.5837 382.054 18.9608 382.125 18.3446C382.178 17.8874 382.06 17.6819 381.443 17.837C379.223 18.3976 377.254 17.0419 377.43 15.0142C377.586 13.2053 378.179 11.4997 379.659 10.1599C380.87 9.06387 381.7 8.83461 382.848 9.55554C383.378 9.8842 383.921 9.50385 384.516 9.65095C385.318 9.84974 385.519 10.2049 385.334 10.7549C385.155 13.4743 385.193 14.2946 385.168 16.8775C385.049 19.9574 384.924 23.0505 383.352 25.913C381.532 29.6635 377.588 28.651 376.66 27.5444C375.699 26.3981 375.486 25.0742 375.799 23.7131C376.057 22.5681 376.158 22.5549 377.63 22.5973ZM382.695 12.1755C382.632 11.7925 382.848 11.3963 382.321 11.1922C381.994 11.0597 381.717 11.008 381.394 11.2028C380.466 11.766 379.936 14.0428 380.543 14.9002C380.653 15.0641 380.807 15.1934 380.988 15.2729C381.169 15.3524 381.368 15.379 381.563 15.3495C381.973 15.3071 382.168 15.107 382.226 14.7081C382.343 13.8361 382.54 12.9786 382.695 12.1689V12.1755Z" fill="black"/>
<path fill-rule="evenodd" clip-rule="evenodd" d="M376.772 17.761C377.052 18.4684 376.615 18.7741 375.833 18.8298C375.701 18.8505 375.57 18.8822 375.443 18.9248C373.79 19.3266 373.699 19.2927 373.754 17.5393C373.61 15.5742 373.506 14.5032 373.068 13.0304C372.689 11.7531 370.822 11.0751 369.748 11.8295C369.463 12.0315 369.572 12.3295 369.627 12.5708C369.847 15.512 370.08 17.0339 370.231 19.272C370.258 19.6595 369.981 19.7796 369.683 19.8615C368.835 20.0941 367.967 19.9794 367.108 19.9794C366.647 19.9794 366.572 19.5656 366.56 19.2152C366.498 16.7697 366.176 14.3438 366.005 11.907C365.952 11.158 365.837 10.4146 365.741 9.66999C365.69 9.28023 365.741 9.18634 366.24 9.12411C366.799 9.05533 367.179 9.00183 367.906 8.92104C368.509 8.85335 368.872 8.77038 368.958 9.41233C369.034 9.9724 369.324 9.85559 369.626 9.68418C372.22 8.21468 375.684 9.77916 376.229 12.7149C376.529 14.3821 376.711 16.0683 376.772 17.761V17.761Z" fill="black"/>
<path fill-rule="evenodd" clip-rule="evenodd" d="M361.067 20.0647C359.202 19.8303 360.28 11.122 360.272 10.9333C360.221 9.77603 360.578 9.30913 361.597 9.21891C362.514 9.13831 363.49 9.89333 363.513 10.8161C363.551 12.2469 363.375 17.5488 363.467 18.7568C363.527 19.5575 363.297 19.9079 362.526 20.0234C362.035 20.0973 361.556 20.1431 361.067 20.0647Z" fill="black"/>
<path fill-rule="evenodd" clip-rule="evenodd" d="M363.874 7.20635C363.709 8.23619 363.167 8.57449 361.98 8.38788C360.941 8.22502 360.398 7.67605 360.516 6.90876C360.687 5.81435 361.539 4.88936 362.285 4.98738C363.141 5.09901 364.017 6.32248 363.874 7.20635Z" fill="black"/>
<path fill-rule="evenodd" clip-rule="evenodd" d="M353.648 19.2768C351.312 19.7963 349.583 18.5095 349.485 16.2632C349.387 14.0395 349.883 11.8899 350.691 9.82782C350.88 9.34146 351.079 8.52113 351.963 9.04327C352.676 9.4647 354.183 9.12146 353.538 10.8509C353.119 11.9747 352.752 13.1515 352.721 14.3827C352.711 14.7882 352.5 15.3554 353.08 15.476C353.539 15.5701 353.98 15.2918 354.243 14.8505C354.542 14.3224 354.774 13.7587 354.933 13.1727C355.103 12.5936 355.429 12.0529 355.547 11.4672C355.756 10.4321 356.148 10.1167 357.256 10.4918C358.494 10.9119 358.864 11.1239 358.685 12.4253C357.963 17.6826 356.721 22.7967 354.08 27.4616C353.152 29.0982 352.092 30.6289 349.987 30.992C347.28 31.4585 344.844 29.3301 345.065 26.5895C345.102 26.123 345.19 25.4379 345.717 25.5121C346.42 25.6115 347.374 25.467 347.728 26.3563C347.92 26.84 347.815 27.4708 348.523 27.5954C348.829 27.6518 349.145 27.6135 349.43 27.4857C349.714 27.3578 349.952 27.1465 350.113 26.8798C351.631 24.5175 352.82 21.9597 353.648 19.2768Z" fill="black"/>
<path fill-rule="evenodd" clip-rule="evenodd" d="M338.559 15.129C338.807 12.8867 339.9 11.2646 341.668 9.75517C342.694 8.87785 344.014 8.9852 345.087 9.78962C345.261 9.92215 345.346 10.1103 345.668 9.946C346.538 9.50072 347.072 9.73794 347.265 10.761C347.662 12.8933 347.956 15.0561 348.264 17.1938C348.384 17.9478 348.612 18.4329 348.09 19.0266C347.504 19.6892 346.708 19.7899 345.934 19.9543C345.55 20.0391 345.483 19.6733 345.449 19.444C345.332 18.6807 344.941 18.7509 344.437 19.0465C344.35 19.0968 344.254 19.1313 344.165 19.179C341.292 20.6328 338.482 18.8145 338.559 15.129ZM344.39 14.485C344.348 13.6766 344.646 12.7622 343.897 12.5819C342.979 12.3606 342.204 13.0709 341.982 14.8176C341.872 15.9878 342.674 16.5311 343.771 16.1044C344.505 15.8155 344.349 15.2854 344.391 14.4903L344.39 14.485Z" fill="black"/>
<path fill-rule="evenodd" clip-rule="evenodd" d="M334.193 1.86851C336.919 1.86851 339.045 4.14793 338.886 6.72951C338.852 7.25961 338.875 7.34177 338.09 7.59754C337.428 7.70356 336.996 7.77248 336.45 7.87982C335.904 7.98717 335.639 7.7473 335.505 7.25696C335.484 7.18009 335.465 7.1019 335.441 7.02636C334.731 4.71646 333.434 5.25584 332.318 6.44193C331.533 7.27551 330.487 9.04604 332.238 10.5502C333.602 11.4506 335.013 12.277 336.466 13.0258C344.307 17.8974 335.881 24.2903 331.004 22.2892C329.712 21.6385 328.559 20.8593 328.045 19.3922C327.594 18.1054 327.78 17.6694 329.064 17.305C329.394 17.2109 329.757 17.2122 330.074 17.0863C330.98 16.7258 331.609 16.9538 332.141 17.7887C332.539 18.3996 333.814 18.6673 334.494 18.4222C335.401 18.0948 335.686 17.2705 335.136 16.4171C334.639 15.6418 333.855 15.2243 333.029 14.8917C331.609 14.3165 330.281 13.6354 329.243 12.4373C327.612 10.5581 326.41 5.82304 331.798 2.44631C332.6 2.00103 333.422 1.78767 334.193 1.86851Z" fill="black"/>
<path fill-rule="evenodd" clip-rule="evenodd" d="M251.406 5.46901C251.437 3.4334 252.48 2.6664 254.506 3.15421C255.206 3.32142 255.445 3.78315 255.448 4.43203C255.483 10.1416 255.448 15.7207 255.477 21.5622C255.457 22.0423 255.377 22.3169 254.824 22.3813C252.345 22.6713 249.884 23.0057 247.49 21.8751C244.328 20.3825 242.802 11.8704 250.711 10.9577C251.306 10.8902 251.421 10.6999 251.427 10.2229C251.433 9.22117 251.397 6.05347 251.406 5.46901ZM250.858 14.3171C248.711 13.4351 247.778 16.2208 248.307 17.2747C248.809 18.2779 249.895 18.6553 250.874 18.4635C251.691 18.3101 251.702 14.7221 250.858 14.3171V14.3171Z" fill="black"/>
<path fill-rule="evenodd" clip-rule="evenodd" d="M236.162 11.7498C236.162 11.0518 236.407 10.742 237.113 10.8294C237.3 10.854 238.133 10.7727 239.185 10.9015C239.646 10.9583 239.42 11.4722 239.552 11.9109C239.767 12.6288 239.705 12.7362 240.366 12.3711C242.054 11.2436 241.997 11.1807 243.292 10.337C243.8 10.1038 243.994 10.2265 244.223 10.6944C244.938 12.1548 245.373 12.7576 244.062 13.6581C242.95 14.4251 241.801 15.2734 240.627 16.0895C240.386 16.2389 240.19 16.4512 240.06 16.7036C239.93 16.956 239.871 17.239 239.889 17.5223C239.915 19.2603 240.043 20.2221 239.831 22.7378C239.773 23.4327 239.593 23.5923 239.041 23.6383H238.948C235.68 23.7487 236.252 24.1875 236.033 20.9676C235.992 20.2482 236.171 13.3666 236.162 11.7498Z" fill="black"/>
<path fill-rule="evenodd" clip-rule="evenodd" d="M223.143 17.614C223.43 15.0184 224.695 13.1408 226.742 11.3936C227.929 10.3781 229.457 10.5023 230.699 11.4335C230.9 11.5869 230.998 11.8047 231.371 11.6145C232.379 11.0991 232.997 11.3737 233.22 12.5579C233.68 15.0261 234.02 17.5296 234.376 20.0039C234.516 20.8768 234.78 21.4382 234.175 22.1254C233.497 22.8924 232.575 23.009 231.68 23.1992C231.235 23.2974 231.158 22.874 231.118 22.6087C230.983 21.7251 230.531 21.8064 229.946 22.1485C229.846 22.2067 229.734 22.2466 229.632 22.3019C226.306 23.9846 223.054 21.88 223.143 17.614ZM229.892 16.8684C229.843 15.9327 230.189 14.8742 229.322 14.6656C228.259 14.4094 227.361 15.2317 227.105 17.2535C226.978 18.608 227.906 19.2369 229.176 18.743C230.026 18.4086 229.845 17.795 229.894 16.8746L229.892 16.8684Z" fill="black"/>
<path fill-rule="evenodd" clip-rule="evenodd" d="M216.529 19.7145C216.101 20.3959 215.913 21.061 215.708 21.7153C215.411 22.6727 215.425 22.67 214.402 22.6383C213.838 22.6202 213.27 22.6057 212.708 22.6383C212.27 22.6618 212.108 22.451 212.028 22.07C211.873 21.3352 211.346 12.7557 211.516 11.4373C211.588 10.8771 211.831 10.6663 212.418 10.6038C214.074 10.4229 214.106 10.5342 214.207 12.2327C214.312 13.9873 214.384 14.5094 214.452 15.6487C214.452 15.6931 214.515 16.3021 214.761 16.2876C215.006 16.2731 214.997 16.1003 215.078 15.8713C215.495 14.695 215.795 13.7575 216.209 13.2371C216.678 12.6942 218.156 12.2236 218.872 14.9682C218.971 15.3583 218.971 15.3755 219.107 15.9148C219.337 15.1411 220.681 10.7884 221.204 9.5288C221.4 9.05825 221.716 8.8845 222.216 9.06458C222.574 9.19308 222.941 9.29172 223.302 9.41298C224.355 9.76771 224.373 9.77495 223.976 10.8156C222.7 14.1502 221.637 17.5545 220.586 20.9606C220.341 21.7524 220.068 22.0836 219.23 22.1894C217.771 22.3704 217.662 22.384 217.041 21.0131C216.869 20.6203 216.73 20.2222 216.529 19.7145Z" fill="black"/>
<path fill-rule="evenodd" clip-rule="evenodd" d="M203.796 12.5511C204.604 11.4773 205.42 10.4158 206.218 9.33739C206.895 8.41699 207.077 8.41699 207.701 9.33739C208.743 10.8714 208.415 10.5953 207.442 12.2765C206.783 13.1969 206.385 13.8949 205.861 14.7064C205.494 15.2786 205.848 15.6268 206.286 15.9535C207.786 17.0529 209.225 18.2338 210.596 19.4909C211.079 19.9419 210.954 20.1045 210.634 20.692C210.078 21.4176 209.665 22.1954 208.996 22.4454C208.383 22.6433 207.249 21.5051 206.344 20.6598C205.56 19.925 204.055 18.4401 203.664 18.5889C203.664 18.5889 203.583 20.2687 203.58 20.6568C203.554 23.4287 203.555 23.418 200.759 23.2646C200.145 23.2323 199.826 23.0621 199.824 22.3978C199.824 18.8697 200.189 7.29871 200.142 4.9517C200.248 2.8041 199.989 3.00965 201.843 2.86086C203.661 2.83478 203.363 3.03573 203.377 4.424C203.389 6.59921 203.455 12.4008 203.497 12.8993C203.603 12.7889 203.703 12.6726 203.796 12.5511V12.5511Z" fill="black"/>
<path fill-rule="evenodd" clip-rule="evenodd" d="M189.655 18.2002C188.888 19.2356 188.535 19.6038 187.597 21.0089C185.879 22.8896 184.7 22.9141 182.982 23.2992C182.534 23.3989 182.264 23.132 182.114 22.7423C181.069 19.9991 180.282 17.1643 179.764 14.2747C179.651 13.6611 179.778 13.1717 180.671 13.0613C181.62 12.9447 182.626 12.7545 183.489 12.9692C184.093 13.0751 184.065 14.0752 184.213 15.3561C184.246 15.6337 184.297 15.9088 184.366 16.1799C185.328 14.9328 185.398 14.5631 185.9 13.747C186.871 12.147 187.867 11.5411 189.735 11.2588C191.906 10.9321 192.13 11.4291 192.995 12.822C193.233 13.207 193.455 13.6043 193.777 14.1703C194.535 12.7729 195.222 11.4997 195.915 10.2295C196.724 8.7492 196.727 8.74921 198.229 9.44871C198.982 9.79846 199.712 10.2157 200.491 10.4918C201.271 10.7679 201.432 11.1959 201.054 11.9184C199.545 14.8131 198.14 17.7645 196.475 20.5748C196.101 21.2037 195.724 21.2605 194.9 21.3663C193.961 21.4598 193.017 21.4931 192.074 21.466C191.097 21.4476 190.622 21.3817 190.347 20.5288C190.129 19.8124 189.922 19.0868 189.655 18.2002Z" fill="black"/>
<path fill-rule="evenodd" clip-rule="evenodd" d="M175.184 23.5592C174.207 23.6896 173.907 23.2782 173.913 22.3047C173.921 21.1038 173.711 19.9044 173.617 18.7035C173.583 18.279 173.607 17.5938 172.578 17.6489C171.623 17.6126 171.604 17.4518 171.253 18.576C170.795 20.042 170.211 21.4732 169.924 22.9841C169.813 23.5752 169.606 23.9822 168.912 23.9895C168.478 23.9895 166.804 24.004 166.37 24.0735C164.357 24.398 165.03 24.0735 165.502 21.9324C166.118 19.1293 167.068 16.3842 168.081 13.6912C169.26 10.5593 170.225 7.339 171.798 4.35919C172.99 2.04139 175.819 3.09019 176.201 4.69527C177.438 8.57468 177.995 12.5946 178.66 16.5914C178.882 17.9168 179.067 18.899 179.452 20.5432C179.874 23.0537 180.094 22.9798 177.964 23.2376C177.302 23.2695 175.838 23.4897 175.184 23.5592ZM173.592 11.5458C173.587 11.4956 173.565 11.4487 173.529 11.4132C173.493 11.3777 173.446 11.3559 173.396 11.3516C173.346 11.3473 173.296 11.3607 173.254 11.3896C173.213 11.4185 173.183 11.4609 173.17 11.5096C173.041 12.089 172.791 13.1885 172.695 13.7535C172.64 14.065 172.503 14.333 172.798 14.3532C173.068 14.3767 173.34 14.3806 173.611 14.3648C173.913 14.333 173.779 13.9621 173.748 13.7405C173.67 13.2117 173.63 12.0818 173.588 11.5473L173.592 11.5458Z" fill="black"/>
<path fill-rule="evenodd" clip-rule="evenodd" d="M312.375 11.272C312.399 10.7759 312.391 10.4666 311.575 10.4555C311.496 10.4624 310.321 10.4861 310.249 10.482C309.083 10.4471 309.363 10.0166 309.476 8.39194C309.501 8.02131 310.058 8.00599 310.451 7.97394C310.886 7.93353 311.889 7.88615 312.328 7.87082C312.82 7.90984 312.725 7.65765 312.685 7.09891C312.623 6.23922 312.735 5.37117 312.651 4.51426C312.613 4.12273 312.804 3.98618 313.186 3.96946C313.986 3.93184 314.791 3.94299 315.595 3.94438C316.143 3.94438 316.09 4.2565 316.09 4.53377C316.09 5.42412 316.114 6.31586 316.073 7.2062C316.048 7.75518 316.073 7.91542 316.509 7.94746C319.003 8.11049 318.886 7.84296 318.927 9.08722C318.814 10.638 319.183 10.4652 317.044 10.5697C316.321 10.5697 316.321 10.7369 316.296 11.7387C316.167 14.0197 315.999 16.3019 316.139 18.5801C316.193 19.4565 315.645 19.7128 314.736 19.8341C314.537 19.855 314.337 19.8648 314.136 19.8633C312.272 19.9024 312.186 19.8299 312.226 18.3892C312.255 17.2815 312.317 12.5343 312.375 11.272Z" fill="black"/>
<path fill-rule="evenodd" clip-rule="evenodd" d="M306.174 10.2506C306.198 8.54813 306.198 8.54811 307.877 8.3395C309.271 8.16548 309.301 8.16864 309.177 9.56707C308.63 25.7319 302.928 20.396 302.536 9.98639C302.622 9.50837 303.631 9.1813 304.061 9.35741C304.392 9.49474 304.375 9.6719 304.549 10.4204C304.95 12.8524 306.783 20.6979 306.174 10.2506Z" fill="black"/>
<path fill-rule="evenodd" clip-rule="evenodd" d="M293.869 10.0709C294.399 8.95621 295.414 8.4142 296.599 8.29019C298.034 8.13971 299.153 8.56189 300.122 9.82287C302.153 12.4702 301.633 15.1315 300.602 17.8834C300.432 18.291 300.238 18.6883 300.021 19.0733C299.235 20.599 297.931 21.219 296.178 20.9041C294.227 20.5544 293.271 19.5359 292.695 17.6507C292.101 15.0591 293.003 11.8822 293.869 10.0709ZM295.123 15.9494C295.155 17.1477 295.681 18.0561 296.238 18.1551C296.795 18.254 297.135 18.0575 297.305 17.6089C297.993 15.7794 298.074 14.368 297.645 12.3379C297.559 12.0801 297.162 11.5353 296.809 11.5019C296.408 11.4712 295.973 11.9616 295.823 12.2361C295.178 13.4581 295.119 14.6926 295.119 15.948L295.123 15.9494Z" fill="black"/>
<path fill-rule="evenodd" clip-rule="evenodd" d="M287.246 9.79091C291.831 9.37291 297.951 17.7135 285.967 20.9377C284.703 21.1299 283.512 20.1602 283.297 18.7376C282.854 15.7962 281.816 6.19747 281.51 4.37359C281.48 4.19663 281.494 3.89846 281.599 3.83437C282.242 3.43726 283.012 3.4512 283.721 3.3871C284.278 3.33694 284.367 3.99599 284.458 4.43072C284.716 5.6471 284.915 6.87743 285.138 8.10218C285.457 9.8564 285.457 9.8564 287.246 9.79091ZM286.932 12.5037C286.383 12.4424 286.042 12.5037 286.213 13.4247C286.436 14.6328 286.7 15.5148 286.91 16.5695C287.02 17.1394 287.328 17.1046 287.756 16.9485C288.677 16.6099 289.585 15.6945 289.428 14.5352C289.262 13.4415 288.351 12.7253 286.932 12.4968V12.5037Z" fill="black"/>
<path fill-rule="evenodd" clip-rule="evenodd" d="M277.368 21.7542C276.427 21.8796 276.139 21.4839 276.144 20.5475C276.151 19.3924 275.949 18.2388 275.859 17.0837C275.826 16.6754 275.849 16.0164 274.858 16.0693C273.938 16.0345 273.92 15.8798 273.582 16.9611C273.142 18.3711 272.579 19.7477 272.303 21.201C272.195 21.7695 271.996 22.161 271.327 22.168C270.909 22.168 269.297 22.1819 268.879 22.2488C266.941 22.5609 267.589 22.2488 268.043 20.1894C268.637 17.4933 269.552 14.8529 270.528 12.2627C271.663 9.2503 272.593 6.15289 274.107 3.28678C275.255 1.05744 277.979 2.06622 278.347 3.61004C279.538 7.34142 280.075 11.2079 280.716 15.0522C280.929 16.3271 281.107 17.2718 281.478 18.8532C281.885 21.2679 282.097 21.1968 280.046 21.4448C279.407 21.4755 277.997 21.6873 277.368 21.7542ZM275.835 10.1992C275.83 10.1509 275.809 10.1057 275.774 10.0716C275.74 10.0375 275.694 10.0165 275.646 10.0124C275.598 10.0082 275.549 10.0212 275.509 10.0489C275.47 10.0767 275.441 10.1175 275.428 10.1643C275.304 10.7217 275.063 11.7792 274.971 12.3226C274.918 12.6222 274.786 12.88 275.07 12.8995C275.33 12.9221 275.592 12.9258 275.853 12.9106C276.144 12.88 276.015 12.5233 275.985 12.3101C275.91 11.8015 275.871 10.7147 275.831 10.2006L275.835 10.1992Z" fill="black"/>
<path fill-rule="evenodd" clip-rule="evenodd" d="M147.465 25.2089C148.398 25.2517 148.497 25.1146 148.497 26.4576C148.426 27.5221 148.566 27.8626 149.398 28.013C150.229 28.1634 150.872 27.7064 151.196 26.981C151.826 25.5524 151.87 24.0162 152.193 22.5317C152.34 21.8564 152.386 21.1635 152.466 20.478C152.525 19.9694 152.393 19.7408 151.706 19.9133C149.237 20.537 147.046 19.0288 147.242 16.7731C147.416 14.7607 148.075 12.8633 149.722 11.3729C151.07 10.1536 151.992 9.89858 153.269 10.7006C153.859 11.0662 154.463 10.6431 155.125 10.8067C156.017 11.0279 156.241 11.423 156.035 12.0348C155.836 15.06 155.879 15.9726 155.851 18.846C155.718 22.2722 155.579 25.7131 153.831 28.8976C151.805 33.0698 147.418 31.9434 146.386 30.7124C145.317 29.4372 145.08 27.9644 145.428 26.4503C145.715 25.1765 145.827 25.1618 147.465 25.2089ZM153.1 13.6152C153.029 13.1892 153.269 12.7484 152.684 12.5213C152.32 12.3739 152.012 12.3164 151.652 12.5331C150.62 13.1597 150.03 15.6925 150.705 16.6463C150.828 16.8286 151 16.9724 151.201 17.0609C151.402 17.1494 151.624 17.1789 151.841 17.1461C152.296 17.0989 152.513 16.8763 152.578 16.4326C152.708 15.4625 152.927 14.5086 153.1 13.6079V13.6152Z" fill="black"/>
<path fill-rule="evenodd" clip-rule="evenodd" d="M146.961 18.7103C147.246 19.4317 146.8 19.7434 146.003 19.8002C145.868 19.8213 145.735 19.8537 145.606 19.8971C143.919 20.3068 143.827 20.2722 143.884 18.4843C143.736 16.4803 143.63 15.3881 143.184 13.8863C142.797 12.5837 140.893 11.8923 139.798 12.6616C139.507 12.8676 139.618 13.1715 139.675 13.4176C139.899 16.4168 140.137 17.9688 140.291 20.2511C140.318 20.6463 140.036 20.7688 139.732 20.8523C138.867 21.0894 137.982 20.9725 137.106 20.9725C136.635 20.9725 136.559 20.5506 136.547 20.1932C136.484 17.6994 136.155 15.2256 135.981 12.7407C135.927 11.9769 135.81 11.2188 135.711 10.4595C135.66 10.062 135.711 9.96628 136.221 9.90282C136.791 9.83269 137.179 9.77813 137.919 9.69574C138.534 9.62672 138.905 9.5421 138.992 10.1967C139.069 10.7679 139.366 10.6487 139.674 10.474C142.319 8.97543 145.851 10.5708 146.407 13.5645C146.713 15.2646 146.898 16.9842 146.961 18.7103V18.7103Z" fill="black"/>
<path fill-rule="evenodd" clip-rule="evenodd" d="M132.349 23.9493C130.349 23.9814 130.18 14.6444 130.144 14.4468C129.917 13.2351 130.223 12.6896 131.283 12.442C132.237 12.2199 133.379 12.8692 133.542 13.8381C133.795 15.3401 134.404 20.9529 134.682 22.212C134.865 23.0466 134.675 23.4502 133.879 23.6875C133.373 23.8387 132.875 23.9588 132.349 23.9493Z" fill="black"/>
<path fill-rule="evenodd" clip-rule="evenodd" d="M133.381 9.98063C133.362 11.0903 132.841 11.528 131.562 11.5091C130.443 11.493 129.789 10.9958 129.799 10.1697C129.815 8.99097 130.574 7.88883 131.375 7.88032C132.293 7.86992 133.4 9.02783 133.381 9.98063Z" fill="black"/>
<path fill-rule="evenodd" clip-rule="evenodd" d="M122.608 9.62791C125.113 8.54793 127.061 9.10436 127.739 11.1352C128.375 14.3825 127.786 19.1626 127.655 21.644C127.634 22.0677 127.506 22.2065 127.079 22.2528C124.886 22.4646 124.833 22.3636 124.806 20.1367C124.782 18.0132 125.254 15.9215 125.123 13.7968C125.08 13.1211 125.245 12.1799 124.215 12.2432C123.421 12.2931 122.753 12.6889 122.792 13.8114C122.885 16.1114 122.772 18.4175 122.836 20.7174C122.864 21.7231 122.284 21.8132 121.578 21.8132C120.897 21.8132 120.132 21.9435 120.077 20.8392C119.931 17.9171 119.589 7.41316 119.487 5.08154C119.416 3.48775 119.766 3.10666 121.089 3.16876C121.646 3.19433 121.843 3.41227 121.981 3.92365C122.48 5.7646 122.218 7.6859 122.608 9.62791Z" fill="black"/>
<path fill-rule="evenodd" clip-rule="evenodd" d="M110.724 12.8351C110.749 12.3102 110.74 11.983 109.878 11.9712C109.794 11.9785 108.551 12.0036 108.474 11.9992C107.24 11.9623 107.537 11.5068 107.656 9.78776C107.683 9.3956 108.272 9.37938 108.688 9.34548C109.148 9.30272 110.21 9.25259 110.674 9.23637C111.194 9.27765 111.094 9.01081 111.051 8.41963C110.986 7.51 111.104 6.59153 111.016 5.68485C110.976 5.27057 111.178 5.12609 111.582 5.1084C112.428 5.06859 113.28 5.08039 114.131 5.08186C114.71 5.08186 114.654 5.41211 114.654 5.70549C114.654 6.64755 114.68 7.59109 114.637 8.53315C114.61 9.11401 114.637 9.28356 115.098 9.31746C117.737 9.48995 117.613 9.20689 117.656 10.5234C117.537 12.1643 117.927 11.9815 115.664 12.092C114.899 12.092 114.899 12.269 114.873 13.329C114.736 15.7424 114.559 18.1572 114.706 20.5677C114.764 21.495 114.184 21.7662 113.221 21.8945C113.011 21.9167 112.799 21.927 112.588 21.9255C110.615 21.9668 110.524 21.8901 110.566 20.3657C110.597 19.1936 110.662 14.1708 110.724 12.8351Z" fill="black"/>
<path fill-rule="evenodd" clip-rule="evenodd" d="M99.3991 10.3849C99.9593 9.20545 101.034 8.63195 102.287 8.50074C103.806 8.34152 104.99 8.78822 106.016 10.1224C108.164 12.9236 107.614 15.7394 106.523 18.6511C106.343 19.0825 106.137 19.5029 105.908 19.9102C105.077 21.5245 103.697 22.1805 101.842 21.8474C99.778 21.4773 98.7666 20.3996 98.1563 18.4049C97.5282 15.6628 98.4821 12.3014 99.3991 10.3849ZM100.726 16.6048C100.76 17.8727 101.316 18.8339 101.905 18.9386C102.495 19.0433 102.855 18.8354 103.035 18.3607C103.763 16.425 103.848 14.9315 103.394 12.7835C103.303 12.5108 102.883 11.9343 102.51 11.899C102.085 11.8665 101.625 12.3855 101.466 12.6759C100.783 13.9688 100.722 15.275 100.722 16.6034L100.726 16.6048Z" fill="black"/>
<path fill-rule="evenodd" clip-rule="evenodd" d="M92.5437 12.0703C93.4179 12.1175 94.018 4.04439 94.186 1.00001C94.214 0.495805 94.5045 0.447154 94.9482 0.557725C95.8933 0.796557 96.8545 0.974938 97.8039 1.19608C98.6413 1.39216 99.06 1.8138 99.0054 2.80009C98.858 5.45379 96.3975 24.3245 96.0893 24.3452C94.5576 24.4174 94.2303 24.4926 93.2292 24.5648C92.6395 24.6076 92.4582 24.6356 92.153 24.1225C91.0561 22.3136 89.6762 18.3581 88.9922 17.4706C88.7607 20.2983 88.7165 22.0733 88.6575 24.3584C88.6369 25.1177 88.2934 25.215 87.7007 25.0646C86.0613 24.9481 86.0613 24.8936 84.9217 24.6371C84.2877 24.6282 84.0283 24.3422 84.1108 23.7731C84.7168 19.5287 85.6013 7.44849 85.7782 5.68083C85.8755 4.69012 86.1439 4.03111 87.3616 3.93529C89.545 3.76427 89.7028 3.79818 90.403 5.87101C91.1033 7.94384 91.8169 9.9695 92.5437 12.0703Z" fill="black"/>
<path fill-rule="evenodd" clip-rule="evenodd" d="M70.0758 25.1768C68.0484 25.2779 66.7221 24.2657 65.756 22.6252C65.5657 22.3015 65.5222 22.0515 65.7818 21.7387C66.1894 21.2524 66.4476 20.4916 66.9463 20.2894C67.6258 20.1747 67.9152 20.7552 68.4792 21.1459C70.0881 22.2072 71.3409 21.2114 69.5255 19.7608C65.3972 16.2339 62.3112 8.92603 70.103 9.43007C71.8763 9.47105 72.7406 11.0692 72.8208 11.3561C73.3317 13.0608 73.1048 13.5088 71.4782 14.2246C71.1059 14.3899 70.9346 14.3229 70.8286 13.9514C70.6778 13.4555 70.6058 11.7167 69.4779 11.994C67.5755 12.6851 69.1477 13.6536 69.8475 14.4841C70.527 15.2299 71.432 16.4183 72.2296 17.2338C74.3264 19.6078 75.1241 24.5854 70.0758 25.1768Z" fill="black"/>
<path fill-rule="evenodd" clip-rule="evenodd" d="M61.2909 11.143C62.6976 12.9625 63.6074 14.1224 61.9943 15.1144C60.2385 16.1484 58.7295 17.2395 56.1663 18.7082C55.6124 19.0255 55.6342 19.2336 55.9733 19.6466C57.2976 21.7162 59.1793 20.5228 59.228 19.0087C59.082 17.5198 60.3929 17.4745 61.3044 17.08C62.5415 16.7175 62.57 17.2781 62.6355 18.208C62.7379 19.6684 61.9305 22.6344 59.9934 23.6365C56.1562 25.5987 52.4919 23.3411 51.7013 19.0104C51.2582 16.5832 51.6745 14.4245 53.0643 12.4808C55.2481 9.03301 59.4781 9.13875 61.2909 11.143ZM54.9393 16.6302C55.1592 16.8652 58.2846 14.7267 58.6455 14.2282C58.9527 13.8052 57.8868 12.6738 56.3929 13.2395C54.7445 14.25 54.1889 15.8228 54.9443 16.6302H54.9393Z" fill="black"/>
<path fill-rule="evenodd" clip-rule="evenodd" d="M41.944 11.4127C41.944 10.649 42.2126 10.3099 42.9847 10.4056C43.1895 10.4324 44.101 10.3435 45.2524 10.4845C45.756 10.5466 45.5093 11.1089 45.6536 11.589C45.8886 12.3745 45.8215 12.492 46.5449 12.0925C48.3914 10.8588 48.3293 10.79 49.746 9.86676C50.3016 9.61161 50.5147 9.74589 50.7648 10.2579C51.5471 11.8558 52.0238 12.5155 50.5886 13.5008C49.3716 14.3401 48.1144 15.2684 46.8303 16.1614C46.5662 16.3249 46.3515 16.5571 46.2092 16.8333C46.067 17.1095 46.0026 17.4192 46.0229 17.7291C46.0514 19.631 46.1908 20.6834 45.9591 23.4363C45.8953 24.1966 45.6989 24.3712 45.0947 24.4216H44.9923C41.4169 24.5424 42.043 25.0225 41.803 21.4992C41.7577 20.7119 41.9541 13.1819 41.944 11.4127Z" fill="black"/>
<path fill-rule="evenodd" clip-rule="evenodd" d="M38.2947 11.3109C39.7013 13.1305 40.6111 14.2904 38.998 15.2824C37.2422 16.3164 35.7332 17.4075 33.17 18.8762C32.6161 19.1935 32.6379 19.4016 32.977 19.8145C34.3014 21.8842 36.183 20.6907 36.2317 19.1767C36.0857 17.6878 37.3966 17.6425 38.3081 17.248C39.5452 16.8854 39.5737 17.4461 39.6392 18.376C39.7416 19.8363 38.9342 22.8024 36.9971 23.8045C33.16 25.7667 29.4956 23.509 28.705 19.1783C28.2619 16.7511 28.6782 14.5925 30.068 12.6487C32.2518 9.20097 36.4818 9.30672 38.2947 11.3109ZM31.943 16.7981C32.1629 17.0331 35.2884 14.8947 35.6493 14.3961C35.9564 13.9731 34.8905 12.8418 33.3966 13.4075C31.7483 14.4179 31.1927 15.9908 31.948 16.7981H31.943Z" fill="black"/>
<path fill-rule="evenodd" clip-rule="evenodd" d="M19.8169 9.83589C22.9146 8.50222 25.3236 9.18936 26.1628 11.6973C26.9493 15.7073 26.2201 21.6104 26.0589 24.6746C26.0318 25.1979 25.8736 25.3693 25.3462 25.4264C22.6343 25.6881 22.568 25.5633 22.5349 22.8132C22.5048 20.191 23.0893 17.6079 22.9266 14.9841C22.8739 14.1496 23.0773 12.9874 21.8042 13.0656C20.8219 13.1272 19.9962 13.6159 20.0445 15.0022C20.159 17.8424 20.0188 20.6902 20.0987 23.5304C20.1333 24.7724 19.4162 24.8836 18.5424 24.8836C17.7002 24.8836 16.754 25.0445 16.6862 23.6808C16.5054 20.0722 16.0835 7.10089 15.957 4.22155C15.8696 2.25337 16.302 1.78276 17.9382 1.85944C18.6267 1.89102 18.8708 2.16016 19.041 2.79166C19.6588 5.06506 19.3348 7.43769 19.8169 9.83589Z" fill="black"/>
<path fill-rule="evenodd" clip-rule="evenodd" d="M13.0043 1.85413C13.7311 1.85413 13.9006 1.97667 13.8889 2.86127C13.8687 4.44751 13.7848 4.64222 13.7865 5.86086C13.8033 6.6011 13.4692 6.81763 12.7793 6.84281C10.4579 6.92674 10.5972 6.93513 10.7214 9.36066C10.8607 12.2478 10.2296 22.7724 10.3622 25.1526C10.3891 25.6561 10.1692 25.824 9.721 25.8106C8.54601 25.7837 7.35255 25.7719 6.16916 25.7199C5.60349 25.6947 5.3517 25.3842 5.32988 24.7749C5.26945 23.62 5.55817 12.2092 5.66559 7.65356C5.68238 6.89821 5.61189 6.52053 4.90521 6.53899C3.64461 6.57424 2.20441 6.65313 0.95052 6.45171C0.342881 6.35435 0.0860613 6.1781 0.0592043 5.34218C-0.0331166 4.59018 0.00381297 4.42233 0.0289914 3.29769C0.00381297 2.52891 0.0743048 2.24187 0.891764 2.13109C3.10411 1.83398 11.1864 1.84742 13.0043 1.85413Z" fill="black"/>
<path d="M64.4521 6.95177C64.0163 7.45845 63.3393 8.01278 62.7377 7.47922C62.6534 6.86855 62.7267 6.24228 62.951 5.65788C63.1754 5.07347 63.5435 4.5496 64.0218 4.13416C66.1846 3.66892 64.8185 5.92379 64.4521 6.95177Z" fill="black"/>
</svg>
