<svg width="64" height="39" viewBox="0 0 64 39" fill="none" xmlns="http://www.w3.org/2000/svg">
<g clip-path="url(#clip0_621_10772)">
<path fill-rule="evenodd" clip-rule="evenodd" d="M51.2575 0.949219V28.8439H44.6386V2.34423L51.2575 0.949219ZM32.4128 31.4874C34.24 31.4874 35.7222 32.9566 35.7222 34.769C35.7222 36.5815 34.24 38.0507 32.4128 38.0507C30.5855 38.0507 29.1033 36.5815 29.1033 34.769C29.1033 32.9566 30.5846 31.4874 32.4128 31.4874ZM32.4128 8.87131C38.0475 8.87131 42.6249 13.4014 42.6249 18.9981C42.6249 24.5958 38.0475 29.1268 32.4128 29.1268C26.7687 29.1268 22.2006 24.5958 22.2006 18.9981C22.2006 13.4014 26.778 8.87131 32.4128 8.87131ZM32.4128 22.2798C34.2419 22.2798 35.7222 20.8124 35.7222 18.9981C35.7222 17.1848 34.2419 15.7165 32.4128 15.7165C30.5837 15.7165 29.1033 17.1848 29.1033 18.9981C29.1033 20.8124 30.5837 22.2798 32.4128 22.2798ZM11.5914 22.2798C12.7323 22.2798 13.6598 21.3597 13.6598 20.2299C13.6569 19.6838 13.4375 19.1611 13.0497 18.7765C12.662 18.3919 12.1376 18.1767 11.5914 18.1782H6.62817V22.2798H11.5914ZM6.62817 7.51339V11.615H10.3049C11.4449 11.615 12.3733 10.6939 12.3733 9.56325C12.3699 9.01744 12.1503 8.49523 11.7626 8.11102C11.3749 7.72681 10.8507 7.51191 10.3049 7.51339H6.62817ZM17.6863 14.0943C19.2853 15.6618 20.2787 17.8322 20.2695 20.229C20.2695 24.9872 16.3812 28.8439 11.5821 28.8439H0V0.949219H10.2957C15.0938 0.949219 18.982 4.80499 18.982 9.56325C18.982 11.2235 18.5136 12.7818 17.6863 14.0943ZM63.7588 15.8083H60.4587V20.959C60.4587 22.5172 60.9642 23.6655 62.2878 23.6655C63.143 23.6655 63.7681 23.4744 63.7681 23.4744V28.306C63.7681 28.306 62.3982 29.1259 60.5412 29.1259H60.4587C60.3752 29.1259 60.3028 29.1166 60.2194 29.1166H60.1554C60.1183 29.1166 60.0719 29.1074 60.0357 29.1074C56.3404 28.9163 53.8305 26.6104 53.8305 22.6081V5.62493L60.4494 4.23084V9.24417H63.7588V15.8083Z" fill="#303030"/>
</g>
<defs>
<clipPath id="clip0_621_10772">
<rect width="64" height="37.1014" fill="white" transform="translate(0 0.949219)"/>
</clipPath>
</defs>
</svg>
