<svg width="120" height="37" viewBox="0 0 120 37" fill="none" xmlns="http://www.w3.org/2000/svg">
<g clip-path="url(#clip0_621_10768)">
<path d="M117.299 35.8976H120V17.8732H113.098V21.6765H115.649V29.5366C115.649 31.2893 114.949 32.1894 113.499 32.1894C112.049 32.1894 111.349 31.2893 111.349 29.5366V7.20966C111.349 5.45697 112.049 4.55527 113.448 4.55527C114.848 4.55527 115.55 5.45697 115.55 7.20966V12.566H119.896V7.35862C119.896 3.1528 117.601 0.5 113.448 0.5C109.198 0.5 106.644 3.1528 106.644 7.35862V29.5889C106.644 33.7947 108.944 36.2447 112.495 36.2447C114.295 36.2447 115.597 35.595 116.397 34.343L117.299 35.8976ZM94.4338 7.20966C94.4338 5.45697 95.1342 4.55527 96.5351 4.55527C97.936 4.55527 98.6349 5.45697 98.6349 7.20966V29.5398C98.6349 31.2925 97.936 32.1926 96.5351 32.1926C95.1342 32.1926 94.4338 31.2925 94.4338 29.5398V7.20966ZM101.533 34.3953C102.737 33.145 103.331 31.4921 103.331 29.3892V7.36179C103.331 3.1528 100.787 0.5 96.5351 0.5C92.2835 0.5 89.7326 3.1528 89.7326 7.35862V29.3861C89.7326 31.489 90.3337 33.1418 91.5342 34.3922C92.7347 35.6425 94.3849 36.2447 96.5351 36.2447C98.6854 36.2447 100.336 35.6441 101.536 34.3922L101.533 34.3953ZM77.9229 4.90549H78.9719C80.9234 4.90549 81.9236 6.20812 81.9236 8.86726V27.8869C81.9236 30.5413 80.9234 31.8487 78.9719 31.8487H77.9229V4.90549ZM79.6235 35.8976C83.7741 35.8976 86.5743 33.294 86.5743 28.0375V8.70404C86.5743 3.44756 83.7741 0.843882 79.6235 0.843882H73.2706V35.8976H79.6235ZM66.771 35.8976L70.4231 0.850221H65.9711L64.078 22.9807L61.7196 0.850221H57.1698L54.8192 22.9807L53.1186 0.850221H48.3165L52.0175 35.8976H57.1193L59.369 14.6198L61.4703 35.8976H66.771ZM46.0495 35.8976V31.8424H38.3982V18.9254H43.3503V14.9208H38.3982V4.90549H45.8491V0.850221H33.746V35.8976H46.0495ZM30.4472 35.8976C30.2313 34.3874 30.0981 32.8664 30.0481 31.3416L29.8478 24.0329C29.6979 21.022 28.6472 19.1758 26.6926 18.5245C28.9948 17.5736 30.1455 15.4206 30.1444 12.0652V7.9101C30.1444 2.95313 27.3441 0.850221 23.1431 0.850221H16.7949V35.8976H21.4456V20.3279H22.1949C24.1464 20.3279 25.0961 21.4784 25.1466 23.7825L25.2965 30.741C25.2965 33.0436 25.4542 34.7471 25.7965 35.8976H30.4472ZM21.4456 4.80565H22.8954C24.6465 4.80565 25.5457 5.90702 25.5457 8.06064V13.1174C25.5457 15.2695 24.4966 16.4723 22.8465 16.4723H21.4456V4.80565ZM4.6507 19.526H6.10207C7.8516 19.526 8.90227 20.6781 8.90227 22.7303V28.4352C8.90227 30.7885 8.05196 31.939 6.30242 31.939H4.6507V19.526ZM4.6507 4.80565H5.99479C7.79639 4.80565 8.69561 5.90702 8.69561 8.16048V12.6658C8.69561 14.6198 7.69542 15.7703 5.94589 15.7703H4.6507V4.80565ZM6.60216 35.8976C10.8033 35.8976 13.553 33.3938 13.553 28.4384V23.2311C13.553 20.2772 12.5039 18.3185 10.453 17.3676C12.3461 16.4675 13.3037 14.5152 13.3037 11.5597V7.81026C13.3037 2.85329 10.554 0.850221 6.55168 0.850221H0V35.8976H6.60216Z" fill="#303030"/>
</g>
<defs>
<clipPath id="clip0_621_10768">
<rect width="120" height="36" fill="white" transform="translate(0 0.5)"/>
</clipPath>
</defs>
</svg>
