<svg width="264" height="387" viewBox="0 0 264 387" fill="none" xmlns="http://www.w3.org/2000/svg">
<g clip-path="url(#clip0_413_3973)">
<path d="M27.3516 323.257C27.3947 322.842 27.6284 322.24 27.4378 322.016C26.7957 321.421 26.1178 320.865 25.4078 320.354C6.67109 304.507 -1.76231 284.193 0.322968 259.71C1.89154 241.369 9.82053 226.105 24.2083 214.571C34.3646 206.305 47.0325 201.818 60.0825 201.864C60.5623 201.864 61.0482 201.827 61.528 201.796C61.6142 201.796 61.6941 201.709 61.9525 201.566C62.3523 198.898 62.7214 196.1 63.1827 193.308C66.6336 172.678 73.2155 153.04 82.1533 134.221C104.402 87.358 135.522 47.5804 176.169 15.5523C181.982 10.9733 188.164 6.86568 194.297 2.70859C200.43 -1.44849 204.68 -0.883753 209.675 4.69419C211.951 7.24428 214.166 9.85643 214.971 13.3806C215.654 16.334 214.916 18.9647 212.751 20.8633C201.229 30.7907 193.682 43.5226 187.9 57.3899C181.625 72.3802 177.818 88.0407 175.474 104.111C173.286 119.167 172.54 134.402 173.247 149.603C174.324 172.963 178.254 195.759 187.254 217.475C188.109 219.529 189.099 221.527 190.089 223.68C191.111 222.954 191.898 222.439 192.673 221.849C199.223 217.003 207.057 214.236 215.174 213.901C222.808 213.619 230.345 215.688 236.784 219.833C246.626 226.006 253.288 234.916 257.79 245.52C262.89 257.551 264.655 270.152 263.812 283.188C263.254 293.396 260.876 303.42 256.794 312.778C253.607 320.169 249.134 326.925 243.587 332.726C243.236 333.092 243.298 333.861 243.169 334.444C242.4 334.767 241.465 334.897 240.88 335.425C235.882 340.103 229.887 343.563 223.356 345.538C218.127 347.064 212.843 348.107 207.362 346.891C206.218 346.673 205.036 346.805 203.967 347.269C198.332 349.875 192.327 351.577 186.171 352.313C181.452 352.788 176.691 352.6 172.023 351.755C165.128 350.617 158.502 348.2 152.481 344.626C147.229 341.676 142.375 338.058 138.037 333.861C134.753 330.585 132.003 326.751 129.112 323.09C127.55 321.104 127.039 321.08 125.421 322.978C124.09 324.643 122.58 326.154 120.918 327.483C114.239 332.638 105.824 334.95 97.476 333.923C93.6223 333.584 89.8393 332.673 86.25 331.218C85.4681 330.851 84.6221 330.644 83.7606 330.609C82.8991 330.574 82.0392 330.711 81.2306 331.013C72.8525 333.936 64.2592 334.482 55.4691 333.327C46.6262 332.112 38.1486 328.982 30.6179 324.151C29.7014 323.574 28.4404 323.543 27.3516 323.257ZM174.158 225.696C165.042 224.852 156.178 225.448 147.83 229.419C130.053 237.832 121.38 252.717 118.956 271.74C117.351 284.485 119.571 296.788 124.8 308.466C131.702 323.909 142.263 336.039 157.574 343.422C172.282 350.52 187.235 351.526 202.22 344.043C203.805 343.262 205.6 343.025 207.331 343.366C216.294 344.887 224.493 342.69 232.14 338.037C241.699 332.211 248.311 323.766 253.109 313.746C260.491 298.358 262.619 282.102 260.079 265.306C258.172 252.68 253.595 241.108 245.069 231.386C231.709 216.184 212.345 212.586 194.986 224.319C193.873 225.069 192.814 225.901 191.572 226.801C192.845 228.935 193.989 230.858 195.14 232.776C196.591 235.195 196.561 237.075 194.654 239.197C193.558 240.436 192.268 241.485 190.834 242.3C186.842 244.496 182.45 244.552 178.045 244.242C177.67 244.242 177.147 244.155 176.963 243.9C176.519 243.225 176.124 242.518 175.782 241.785C176.44 241.549 177.104 241.102 177.769 241.102C179.897 241.102 182.037 241.412 184.147 241.27C185.568 241.177 187.186 241.096 188.367 239.582C187.326 239.519 186.283 239.519 185.242 239.582C182.081 239.985 180.149 238.676 178.919 235.698C177.492 232.31 175.739 229.022 174.145 225.696H174.158ZM121.872 249.46C119.983 249.924 118.072 250.288 116.145 250.552C114.316 250.684 112.478 250.636 110.658 250.409C110.24 250.366 109.594 249.447 109.625 248.97C109.656 248.492 110.418 248.089 110.923 247.729C111.12 247.592 111.495 247.729 111.778 247.685C114.275 247.356 116.791 247.127 119.258 246.662C122.544 246.031 125.459 244.135 127.383 241.375C128.743 239.463 130.309 237.708 132.052 236.145C134.051 234.426 134.667 232.335 134.605 229.94C134.65 228.473 134.471 227.009 134.076 225.597C131.991 219.696 128.995 214.366 123.828 210.575C115.973 204.818 107.066 203.75 97.7221 204.6C90.3898 205.277 83.0944 206.822 75.6821 205.463C75.5345 205.463 75.3499 205.624 74.9378 205.841C74.7471 207.498 74.5441 209.316 74.3227 211.469C75.0191 211.106 75.7536 210.823 76.5125 210.625C77.0907 210.557 77.9335 210.625 78.2656 210.96C78.9607 211.723 78.3149 212.387 77.6874 212.908C77.4598 213.088 77.1892 213.219 76.9493 213.386C70.6565 217.729 62.9982 216.619 57.4682 212.939C56.9823 212.617 56.3672 212.238 56.238 211.761C56.0203 211.074 56.0464 210.333 56.3118 209.663C56.4287 209.409 57.542 209.403 58.071 209.626C59.1695 210.177 60.2317 210.799 61.2512 211.487C61.4112 209.272 61.5342 207.486 61.6757 205.481C60.6607 205.481 59.9902 205.481 59.3259 205.481C44.7843 205.953 32.1373 211.227 21.8647 221.527C7.50766 235.909 1.71316 253.573 3.8292 273.8C5.63152 290.938 12.9884 305.369 26.0968 316.426C41.8071 329.679 59.7565 333.731 79.5697 327.942C82.3747 327.123 84.7183 327.123 87.3818 328.289C93.8427 331.158 101.043 331.869 107.933 330.318C114.761 328.823 120.359 325.404 124.062 319.2C124.473 318.609 124.709 317.914 124.744 317.193C124.779 316.473 124.611 315.757 124.259 315.129C122.235 310.786 120.34 306.387 118.722 301.889C118.527 301.201 118.145 300.581 117.619 300.101C117.092 299.621 116.444 299.299 115.745 299.171C112.811 298.505 109.916 297.677 107.072 296.689C103.333 295.254 100.12 292.696 97.8687 289.361C95.6169 286.025 94.4342 282.073 94.4804 278.038C94.5068 275.175 95.3975 272.387 97.0338 270.048C98.6701 267.708 100.974 265.926 103.64 264.94C106.478 263.844 109.623 263.873 112.442 265.021C114.287 263.215 115.973 261.608 117.621 259.977C117.888 259.698 118.097 259.369 118.237 259.009C119.325 255.937 120.488 252.959 121.829 249.46H121.872ZM181.084 32.6396L180.573 32.348C179.958 32.7885 179.269 33.1919 178.679 33.6821C172.398 38.9436 165.866 43.9382 159.905 49.5472C137.607 70.5498 119.713 95.0208 104.944 121.862C92.5366 144.416 82.7991 168.062 77.2138 193.308C76.5986 196.125 76.1004 198.973 75.5468 201.839C81.3659 203.248 86.7851 202.317 92.1552 201.597C99.4444 200.623 106.648 200.356 113.888 201.92C127.765 204.898 137.976 218.313 138.197 229.735C138.197 229.959 138.382 230.182 138.542 230.554C143.502 227.189 148.996 224.704 154.787 223.208C160.625 221.7 166.598 221.769 172.798 222.035C161.412 190.882 158.072 158.978 159.61 126.484C161.148 93.9908 167.238 62.3907 181.041 32.6396H181.084ZM197.994 6.43757C198.043 11.1593 202.54 16.3961 207.657 17.5688C208.931 17.8604 210.419 18.4311 211.484 17.1902C212.548 15.9493 212.049 14.4105 211.662 12.9959C211.569 12.6147 211.402 12.2562 211.17 11.9411C209.208 9.55236 207.319 7.08917 205.197 4.84931C204.615 4.25263 203.899 3.80455 203.111 3.54234C202.323 3.28013 201.484 3.21125 200.664 3.34148C198.732 3.57725 197.932 4.47691 197.951 6.43757H197.994ZM114.835 280.433C109.366 280.166 104.655 285.254 105.608 290.547C105.749 291.322 106.223 292.358 106.838 292.681C109.879 294.31 113.205 295.326 116.631 295.672C115.961 290.429 115.376 285.434 114.792 280.433H114.835ZM189.8 239.309C189.727 239.253 189.647 239.135 189.579 239.141C189.405 239.185 189.234 239.241 189.068 239.309C189.136 239.371 189.216 239.501 189.278 239.489C189.457 239.447 189.633 239.386 189.8 239.309Z" fill="#303030"/>
<path d="M27.3485 323.26C28.4496 323.546 29.7106 323.577 30.6333 324.154C38.164 328.984 46.6415 332.115 55.4844 333.33C64.2746 334.484 72.8679 333.951 81.2459 331.016C82.0546 330.714 82.9144 330.577 83.7759 330.612C84.6374 330.647 85.4835 330.854 86.2653 331.221C89.8547 332.676 93.6376 333.587 97.4914 333.926C105.836 334.949 114.246 332.637 120.922 327.486C122.583 326.157 124.093 324.646 125.424 322.981C127.036 321.082 127.546 321.12 129.115 323.093C132.006 326.753 134.756 330.588 138.041 333.864C142.378 338.061 147.232 341.679 152.484 344.629C158.505 348.202 165.131 350.62 172.026 351.758C176.694 352.603 181.455 352.791 186.174 352.316C192.33 351.58 198.335 349.878 203.97 347.272C205.039 346.808 206.221 346.676 207.365 346.893C212.865 348.134 218.148 347.067 223.359 345.541C229.89 343.565 235.885 340.106 240.884 335.427C241.468 334.9 242.403 334.77 243.172 334.447C248.093 340.224 248.991 347.539 245.632 354.153C243.776 357.621 241.229 360.665 238.152 363.094C232.001 368.2 224.915 371.638 217.527 374.492C205.575 379.114 193.156 381.881 180.54 383.799C161.277 386.657 141.783 387.609 122.336 386.64C100.512 385.666 78.9638 382.725 57.9941 376.266C49.6099 373.679 41.4595 370.508 33.8135 366.134C29.437 363.759 25.4255 360.756 21.9047 357.218C20.5469 355.816 19.3121 354.299 18.2139 352.682C13.5635 345.733 13.6681 338.368 18.5091 331.587C20.8219 328.197 23.8381 325.356 27.3485 323.26Z" fill="#303030"/>
<path d="M174.142 225.699C175.735 229.025 177.488 232.313 178.903 235.738C180.134 238.716 182.065 240.025 185.227 239.622C186.267 239.559 187.311 239.559 188.352 239.622C187.171 241.136 185.553 241.217 184.132 241.31C182.022 241.452 179.881 241.13 177.753 241.142C177.089 241.142 176.424 241.589 175.766 241.825C176.109 242.558 176.503 243.265 176.947 243.94C177.132 244.195 177.655 244.257 178.03 244.282C182.434 244.592 186.826 244.536 190.818 242.34C192.252 241.525 193.543 240.476 194.638 239.237C196.545 237.115 196.576 235.235 195.124 232.816C193.974 230.898 192.83 228.975 191.556 226.841C192.787 225.928 193.857 225.097 194.97 224.359C212.329 212.626 231.693 216.225 245.054 231.426C253.58 241.117 258.156 252.72 260.063 265.346C262.604 282.148 260.488 298.398 253.094 313.786C248.296 323.781 241.683 332.25 232.124 338.077C224.478 342.73 216.278 344.902 207.316 343.406C205.585 343.065 203.79 343.302 202.204 344.083C187.22 351.528 172.266 350.529 157.558 343.462C142.248 336.079 131.686 323.949 124.784 308.506C119.568 296.828 117.335 284.525 118.941 271.781C121.346 252.757 130.013 237.872 147.815 229.459C156.162 225.451 165.026 224.855 174.142 225.699ZM248.794 269.336C248.406 266.854 248.105 264.006 247.533 261.27C245.804 252.943 241.173 246.218 235.63 240.069C233.782 237.927 231.7 236.001 229.424 234.33C227.516 233.004 225.364 232.079 223.094 231.612C219.662 230.936 217.306 233.393 217.558 236.867C217.712 239.349 218.917 241.347 220.363 243.202C221.501 244.66 222.823 245.994 224.054 247.359C228.015 251.634 230.562 256.617 231.128 262.48C231.484 266.172 231.527 269.894 231.804 273.598C232.056 276.968 232.715 280.2 235.378 282.626C238.042 285.052 241.136 285.158 243.848 283.005C245.961 281.38 247.403 279.024 247.896 276.391C248.253 274.163 248.431 271.917 248.794 269.336Z" fill="#E31A3E"/>
<path d="M121.826 249.463C120.485 252.937 119.322 255.94 118.135 258.937C117.996 259.298 117.787 259.627 117.52 259.905C115.871 261.537 114.198 263.144 112.34 264.949C109.522 263.801 106.377 263.772 103.538 264.869C100.873 265.854 98.5685 267.636 96.9322 269.976C95.2959 272.316 94.4052 275.103 94.3788 277.967C94.3326 282.002 95.5153 285.954 97.7671 289.289C100.019 292.625 103.231 295.183 106.97 296.618C109.814 297.605 112.71 298.434 115.644 299.1C116.342 299.227 116.991 299.549 117.517 300.029C118.043 300.51 118.426 301.129 118.621 301.817C120.269 306.315 122.164 310.727 124.157 315.058C124.509 315.686 124.677 316.401 124.642 317.121C124.608 317.842 124.371 318.538 123.96 319.128C120.269 325.332 114.66 328.751 107.832 330.247C100.942 331.797 93.7411 331.086 87.2802 328.218C84.6167 327.051 82.2731 327.051 79.4681 327.87C59.6549 333.659 41.7055 329.607 25.9952 316.354C12.8868 305.298 5.52992 290.866 3.7276 273.729C1.61157 253.502 7.41835 235.837 21.7631 221.455C32.0357 211.155 44.6827 205.881 59.2243 205.41C59.8886 205.41 60.5591 205.41 61.5741 205.41C61.4326 207.414 61.3096 209.201 61.1497 211.416C60.1301 210.728 59.0679 210.106 57.9695 209.555C57.4466 209.331 56.327 209.337 56.2102 209.592C55.9448 210.261 55.9187 211.002 56.1364 211.689C56.2901 212.167 56.9053 212.545 57.3666 212.868C62.9028 216.547 70.5549 217.633 76.8477 213.315C77.0876 213.147 77.3582 213.017 77.5858 212.837C78.2009 212.316 78.8591 211.652 78.164 210.888C77.8319 210.529 76.9892 210.485 76.4109 210.553C75.652 210.751 74.9175 211.034 74.2211 211.397C74.461 209.244 74.664 207.426 74.8362 205.77C75.2484 205.552 75.4513 205.36 75.5805 205.391C82.962 206.75 90.2882 205.205 97.6205 204.529C106.964 203.66 115.871 204.746 123.726 210.504C128.894 214.295 131.889 219.625 133.974 225.525C134.37 226.937 134.548 228.402 134.503 229.868C134.565 232.288 133.95 234.379 131.951 236.073C130.207 237.637 128.641 239.391 127.282 241.303C125.357 244.064 122.443 245.96 119.156 246.59C116.696 247.055 114.174 247.285 111.676 247.613C111.393 247.651 111.018 247.52 110.821 247.657C110.317 248.011 109.554 248.445 109.523 248.898C109.492 249.351 110.138 250.294 110.557 250.337C112.377 250.565 114.214 250.612 116.044 250.48C117.987 250.243 119.917 249.904 121.826 249.463ZM16.35 254.73C16.35 258.267 16.9959 261.636 18.0969 263.559C20.256 267.313 24.2851 267.692 26.924 264.316C27.7687 263.243 28.4813 262.07 29.0462 260.823C30.0919 258.509 30.9961 256.133 31.9065 253.762C34.2071 247.75 37.6272 242.675 43.4094 239.492C44.4275 238.916 45.384 238.236 46.2636 237.463C48.8041 235.285 48.9271 232.586 46.7618 230.017C44.3936 227.207 41.4226 226.76 38.0455 227.486C25.1648 230.278 16.4238 241.229 16.35 254.73ZM80.5446 262.306C87.5017 262.021 93.413 259.359 98.7954 255.251C99.2059 254.989 99.5393 254.62 99.7611 254.184C99.8662 253.934 99.9203 253.665 99.9203 253.393C99.9203 253.121 99.8662 252.852 99.7611 252.602C99.5705 252.404 99.3387 252.251 99.0823 252.154C98.8259 252.058 98.5514 252.02 98.2787 252.044C97.7169 252.175 97.1992 252.453 96.7778 252.85C89.4947 258.658 81.4673 260.488 72.5233 257.566C71.9891 257.341 71.4053 257.264 70.8317 257.342C70.5656 257.407 70.3171 257.531 70.1043 257.705C69.8915 257.879 69.7198 258.098 69.6015 258.348C69.5824 258.621 69.6219 258.896 69.7174 259.153C69.813 259.41 69.9622 259.643 70.1551 259.837C70.6043 260.207 71.1439 260.449 71.7175 260.538C74.6763 261.152 77.6104 261.723 80.5446 262.306Z" fill="#E31A3E"/>
<path d="M197.948 6.44044C197.948 4.47978 198.729 3.58011 200.617 3.33813C201.437 3.2079 202.276 3.27679 203.065 3.539C203.853 3.8012 204.568 4.24929 205.151 4.84596C207.273 7.08583 209.161 9.54901 211.124 11.9378C211.356 12.2528 211.523 12.6114 211.616 12.9925C212.003 14.4072 212.514 15.9211 211.437 17.1869C210.361 18.4526 208.884 17.857 207.611 17.5654C202.493 16.3989 197.997 11.1621 197.948 6.44044Z" fill="white"/>
<path d="M114.789 280.436C115.404 285.437 115.957 290.432 116.573 295.675C113.147 295.328 109.821 294.313 106.78 292.684C106.165 292.361 105.691 291.325 105.549 290.55C104.608 285.257 109.32 280.169 114.789 280.436Z" fill="white"/>
<path d="M189.799 239.312C189.63 239.39 189.455 239.45 189.275 239.493C189.213 239.493 189.133 239.374 189.065 239.312C189.232 239.244 189.402 239.188 189.577 239.144C189.644 239.163 189.743 239.312 189.799 239.312Z" fill="#E31A3E"/>
<path d="M248.794 269.336C248.462 271.917 248.284 274.163 247.865 276.359C247.373 278.993 245.931 281.349 243.818 282.974C241.105 285.127 237.925 284.94 235.347 282.595C232.77 280.25 232.026 276.936 231.774 273.567C231.497 269.845 231.454 266.122 231.097 262.449C230.531 256.585 227.984 251.603 224.023 247.328C222.793 245.963 221.47 244.629 220.332 243.171C218.887 241.31 217.681 239.299 217.527 236.836C217.306 233.362 219.662 230.905 223.063 231.581C225.333 232.048 227.486 232.972 229.393 234.298C231.669 235.97 233.751 237.895 235.6 240.038C241.136 246.186 245.774 252.912 247.502 261.239C248.074 264.006 248.376 266.823 248.794 269.336ZM245.657 269.987C245.337 267.505 245.196 264.949 244.642 262.486C242.292 251.938 235.901 244.046 228.077 237.177C226.64 236.034 224.953 235.255 223.156 234.906C220.775 234.379 219.742 235.725 220.824 237.959C221.77 239.995 223.049 241.855 224.607 243.463C231.663 250.406 234.591 258.906 234.603 268.666C234.624 271.116 234.829 273.562 235.218 275.981C235.667 278.835 237.771 281.187 239.616 281.292C241.283 281.391 243.664 279.319 244.421 276.707C244.968 274.566 245.202 272.308 245.626 269.987H245.657Z" fill="#303030"/>
<path d="M16.35 254.73C16.4238 241.229 25.1648 230.278 38.0455 227.504C41.4226 226.778 44.3936 227.225 46.7619 230.036C48.9271 232.605 48.8041 235.304 46.2636 237.481C45.384 238.255 44.4275 238.935 43.4094 239.51C37.6272 242.675 34.1825 247.75 31.9065 253.781C30.9961 256.151 30.0919 258.527 29.0462 260.842C28.4813 262.088 27.7687 263.261 26.924 264.335C24.2851 267.71 20.256 267.332 18.0969 263.578C16.9959 261.648 16.3254 258.267 16.35 254.73ZM19.6102 254.829C19.5455 255.707 19.5455 256.589 19.6102 257.466C19.7843 258.818 20.0787 260.151 20.4898 261.45C21.1603 263.41 23.5654 264.316 24.8387 261.841C25.337 260.891 25.9706 259.979 26.3827 259.017C27.2131 257.038 27.9759 255.028 28.7017 253.011C31.2299 245.988 35.1667 240.118 41.8962 236.507C42.6483 236.057 43.366 235.551 44.043 234.993C45.1379 234.162 45.0641 233.213 44.2583 232.22C43.4525 231.227 42.579 230.557 41.2934 230.656C40.04 230.686 38.792 230.834 37.5657 231.097C26.5918 234.094 19.727 243.165 19.6102 254.823V254.829Z" fill="#303030"/>
<path d="M80.5446 262.306C77.6104 261.723 74.6763 261.152 71.7483 260.538C71.1747 260.449 70.6351 260.207 70.1859 259.837C69.993 259.643 69.8437 259.41 69.7482 259.153C69.6527 258.896 69.6131 258.621 69.6323 258.347C69.7505 258.098 69.9223 257.879 70.1351 257.705C70.3479 257.531 70.5964 257.407 70.8625 257.342C71.436 257.264 72.0198 257.341 72.5541 257.566C81.498 260.488 89.5254 258.658 96.8085 252.85C97.23 252.453 97.7476 252.175 98.3095 252.044C98.5821 252.02 98.8567 252.058 99.1131 252.154C99.3695 252.251 99.6013 252.404 99.7919 252.602C99.897 252.852 99.9511 253.121 99.9511 253.393C99.9511 253.665 99.897 253.934 99.7919 254.184C99.5701 254.62 99.2367 254.989 98.8262 255.251C93.4131 259.359 87.5017 262.021 80.5446 262.306Z" fill="#303030"/>
<path d="M245.626 269.987C245.202 272.308 244.968 274.566 244.353 276.707C243.596 279.319 241.216 281.391 239.549 281.292C237.703 281.187 235.6 278.81 235.151 275.981C234.762 273.562 234.556 271.116 234.535 268.666C234.535 258.906 231.595 250.406 224.54 243.463C222.981 241.855 221.703 239.995 220.757 237.959C219.674 235.726 220.707 234.379 223.088 234.906C224.885 235.255 226.572 236.034 228.009 237.177C235.833 244.046 242.225 251.963 244.574 262.486C245.165 264.949 245.306 267.512 245.626 269.987Z" fill="white"/>
<path d="M19.6102 254.824C19.7271 243.159 26.5919 234.088 37.5904 231.091C38.8167 230.828 40.0646 230.681 41.318 230.651C42.6037 230.551 43.5141 231.271 44.283 232.214C45.0519 233.157 45.1626 234.156 44.0676 234.988C43.3906 235.546 42.673 236.052 41.9209 236.501C35.1914 240.113 31.2546 245.982 28.7264 253.006C28.0005 255.022 27.2378 257.033 26.4073 259.012C25.9952 259.998 25.3617 260.873 24.8634 261.835C23.5839 264.317 21.1726 263.405 20.5145 261.444C20.1033 260.145 19.8089 258.812 19.6348 257.461C19.5619 256.583 19.5537 255.702 19.6102 254.824Z" fill="white"/>
</g>
<defs>
<clipPath id="clip0_413_3973">
<rect width="264" height="387" fill="white"/>
</clipPath>
</defs>
</svg>
