<svg width="14" height="16" viewBox="0 0 14 16" fill="none" xmlns="http://www.w3.org/2000/svg">
<path fill-rule="evenodd" clip-rule="evenodd" d="M3.23582 11.8388C3.09436 12.068 2.96385 12.2984 2.84389 12.5332C2.66383 12.8854 2.52969 13.2599 2.36841 13.6199C2.29987 13.7725 2.11517 14.1681 2.09829 14.229C1.95378 14.7608 2.31234 15 2.42086 15.0611C2.4727 15.0923 3.01276 15.3937 3.40741 14.7877C3.89043 14.047 4.27367 13.2584 4.54876 12.4444C4.95185 11.8225 5.44186 11.2399 5.97352 10.7489C8.08865 8.79625 10.3094 9.44182 12.6009 10.4175C12.9524 10.5696 13.3663 10.4017 13.537 10.0423C13.7087 9.68025 13.578 9.25099 13.2395 9.07188C12.0073 8.40918 10.1716 6.38729 9.84715 4.94C9.77935 4.63706 9.91782 4.03158 10.0208 3.42432C10.1627 2.58099 10.2676 1.73204 10.1641 1.31407C10.1493 1.24971 9.92892 0.563414 9.83128 0.43564C9.5956 0.131017 9.30603 0.130657 9.12672 0.166278C8.94741 0.201898 8.71185 0.320905 8.52143 0.600898C8.32238 0.893483 8.10624 1.57348 8.03759 1.70994C7.78845 2.20487 7.27545 3.16599 6.71896 3.94419C6.41918 4.36317 6.12713 4.74331 5.84919 4.87709C4.82034 5.3722 3.74448 4.79047 2.85178 4.2685C2.74881 4.20965 2.64699 4.14804 2.54428 4.0893C2.20816 3.81095 1.83565 3.5531 1.42501 3.32146C0.805254 2.97082 0.438273 3.55272 0.415299 3.5917C0.365392 3.67772 0.12574 4.12807 0.540104 4.51969C0.58578 4.56126 0.94418 4.81652 1.0819 4.91563C1.27393 5.05343 1.47291 5.18115 1.67383 5.30646C3.6032 6.95331 3.97206 9.48606 3.23582 11.8388ZM5.04051 9.64756C6.63454 8.1806 8.27525 7.8324 9.95364 8.06242L9.95338 8.06231C9.22212 7.15457 8.63003 6.15251 8.44316 5.31519C8.372 4.99792 8.41806 4.43823 8.50488 3.82428C8.21352 4.30819 7.8812 4.81393 7.54846 5.22571C7.16924 5.69583 6.77328 6.05227 6.42707 6.21919C5.75904 6.54051 5.06845 6.58733 4.39422 6.47279C4.849 7.45995 5.05579 8.54157 5.04051 9.64756Z" fill="#303030"/>
</svg>
