<svg width="33" height="32" viewBox="0 0 33 32" fill="none" xmlns="http://www.w3.org/2000/svg">
<path fill-rule="evenodd" clip-rule="evenodd" d="M16.6592 14.0291C14.6889 10.3339 13.48 6.4049 13.073 2.2424C12.9904 1.41269 12.2509 0.802765 11.4142 0.882422C10.5845 0.964979 9.97456 1.70448 10.0542 2.54118C10.5097 7.10103 11.8267 11.4029 13.9853 15.4549C14.3771 16.1913 15.3007 16.4757 16.0372 16.0839C16.7765 15.6851 17.051 14.7655 16.6592 14.0291Z" fill="#303030"/>
<path fill-rule="evenodd" clip-rule="evenodd" d="M19.0309 3.80151C18.0129 6.69276 16.981 9.57821 15.9841 12.4782C15.714 13.2683 16.1352 14.1318 16.9254 14.4018C17.7155 14.6719 18.579 14.2507 18.8491 13.4606C19.8431 10.5676 20.8721 7.68919 21.89 4.79794C22.1662 4.01279 21.7465 3.14584 20.9586 2.87015C20.1708 2.59446 19.3018 3.00926 19.0309 3.80151Z" fill="#303030"/>
<path fill-rule="evenodd" clip-rule="evenodd" d="M29.1832 8.68186C26.2719 10.6407 23.2097 12.291 20.1219 13.9635C19.3825 14.3623 19.1079 15.2819 19.5096 16.0143C19.9085 16.7536 20.828 17.0281 21.5604 16.6264C24.7304 14.9141 27.8805 13.21 30.8797 11.1974C31.5735 10.7305 31.7512 9.78723 31.2842 9.09345C30.8243 8.40257 29.877 8.21494 29.1832 8.68186Z" fill="#303030"/>
<path fill-rule="evenodd" clip-rule="evenodd" d="M31.961 21.6014C27.0141 19.8052 21.8532 17.6744 17.1238 15.3534C16.3714 14.9923 15.4657 15.2976 15.0948 16.0542C14.7267 16.8037 15.039 17.7122 15.7885 18.0803C20.6159 20.4419 25.8818 22.6163 30.9267 24.4531C31.7111 24.7371 32.5856 24.3287 32.8696 23.5444C33.1537 22.76 32.7453 21.8855 31.961 21.6014Z" fill="#303030"/>
<path fill-rule="evenodd" clip-rule="evenodd" d="M14.0746 15.2294C15.55 20.1382 17.1595 25.0205 18.3483 30.0073C18.5451 30.8188 19.3619 31.3213 20.1804 31.1274C20.9918 30.9307 21.4943 30.1138 21.2976 29.3024C20.0911 24.2591 18.4642 19.3203 16.9711 14.3551C16.7278 13.5571 15.8836 13.1007 15.0857 13.344C14.2808 13.5845 13.8313 14.4315 14.0746 15.2294Z" fill="#303030"/>
<path fill-rule="evenodd" clip-rule="evenodd" d="M14.5406 16.6695C13.7407 20.8156 12.4435 24.5588 10.8954 28.4522C10.5833 29.225 10.9649 30.1048 11.7377 30.4169C12.5203 30.7249 13.3972 30.3502 13.7052 29.5676C15.3287 25.4922 16.6787 21.5823 17.5191 17.2397C17.6714 16.4171 17.1396 15.6226 16.31 15.4674C15.4904 15.3081 14.6929 15.8469 14.5406 16.6695Z" fill="#303030"/>
<path fill-rule="evenodd" clip-rule="evenodd" d="M14.7945 16.414C10.6473 20.0093 7.39004 24.5639 3.12247 27.9944C2.47307 28.5125 2.3711 29.4707 2.89622 30.123C3.42135 30.7753 4.37267 30.8744 5.02207 30.3562C9.31524 26.9035 12.5981 22.3267 16.7808 18.7052C17.4109 18.1545 17.479 17.1986 16.9382 16.5644C16.3875 15.9343 15.4316 15.8662 14.7945 16.414Z" fill="#303030"/>
<path fill-rule="evenodd" clip-rule="evenodd" d="M16.469 15.9021C11.6242 14.8289 6.96629 13.3248 2.20085 11.9811C1.3933 11.753 0.560226 12.2197 0.332129 13.0272C0.104032 13.8348 0.570702 14.6679 1.37826 14.896C6.19269 16.2599 10.9124 17.7733 15.8161 18.8626C16.6299 19.0359 17.4425 18.5198 17.6228 17.7088C17.799 16.888 17.2899 16.0783 16.469 15.9021Z" fill="#303030"/>
<path fill-rule="evenodd" clip-rule="evenodd" d="M20.4918 15.0768C19.5784 14.649 18.7226 14.2205 17.8679 13.7104C17.1445 13.2793 16.2172 13.5183 15.789 14.2347C15.3609 14.9511 15.5968 15.8854 16.3133 16.3136C17.2601 16.8783 18.204 17.3515 19.2084 17.817C19.9637 18.171 20.8681 17.8488 21.2181 17.0835C21.5722 16.3282 21.2471 15.4308 20.4918 15.0768Z" fill="#303030"/>
</svg>
