<svg width="19" height="18" viewBox="0 0 19 18" fill="none" xmlns="http://www.w3.org/2000/svg">
<path fill-rule="evenodd" clip-rule="evenodd" d="M2.41345 7.57219C3.10325 8.18193 3.79743 8.90007 4.22974 9.70239C4.74316 10.6553 4.72127 11.5995 4.57808 12.5435C4.39392 13.7563 4.0168 14.9733 3.88969 16.2118C3.84212 16.6716 4.01287 16.9236 4.08519 17.034C4.26803 17.313 4.50628 17.466 4.75571 17.549C5.05109 17.648 5.48884 17.7066 5.9405 17.3501C6.00501 17.299 6.09501 17.2177 6.18483 17.0925C6.25052 17.0007 6.39751 16.6892 6.47679 16.5685C6.67295 16.2716 6.85896 15.9705 7.04246 15.6663C7.6533 14.6539 8.12736 13.7754 9.05405 12.9968C10.3118 11.9396 11.3542 11.4059 12.4559 11.4347C13.5212 11.4626 14.5925 11.9844 15.8817 12.8431C16.0023 12.9296 16.1235 13.0112 16.2452 13.0873C16.821 13.4481 17.5751 13.3015 17.9431 12.7573C18.311 12.2135 18.1576 11.4714 17.5983 11.0866C17.4815 11.0063 17.366 10.9281 17.251 10.8528C15.5416 9.61357 14.0152 7.08697 13.3255 5.1427C13.113 4.54325 13.0427 3.0845 12.7777 2.06269C12.5821 1.30884 12.2517 0.728445 11.898 0.425155C11.6612 0.221495 11.4244 0.139506 11.2146 0.105843C10.9099 0.0568567 10.6197 0.10634 10.3476 0.263606C10.1991 0.349904 10.0399 0.481857 9.90792 0.679976C9.84454 0.775409 9.73287 1.03832 9.68382 1.15798C9.39948 1.50552 9.09219 1.83261 8.81932 2.18909C8.16831 3.03966 7.4177 3.43788 6.4927 3.99156C5.62732 4.50988 4.8361 4.733 3.8064 4.74602C3.68159 4.72563 2.6742 4.56195 2.29861 4.55201C1.74968 4.53813 1.39752 4.74997 1.24753 4.88055C0.992732 5.10192 0.87736 5.3398 0.820848 5.55456C0.737651 5.87161 0.77084 6.18622 0.932705 6.49619C1.03278 6.68863 1.21015 6.90893 1.49178 7.09722C1.70916 7.2432 2.32682 7.53158 2.41345 7.57219ZM7.15064 11.3617C7.23105 11.288 7.31442 11.2149 7.40092 11.1421C9.24302 9.59377 10.845 8.96707 12.4589 9.0097L12.5128 9.01167C11.8577 7.95875 11.3234 6.86397 10.9752 5.88233C10.8318 5.47816 10.7338 4.72141 10.614 3.93738C9.82116 4.87541 8.94053 5.40569 7.83512 6.06793C6.9909 6.57308 6.19563 6.88697 5.31258 7.04539C5.74285 7.53765 6.12913 8.06547 6.42705 8.61831C6.92299 9.53894 7.12505 10.4511 7.15064 11.3617Z" fill="#303030"/>
</svg>
