<svg width="538" height="47" viewBox="0 0 538 47" fill="none" xmlns="http://www.w3.org/2000/svg">
<path fill-rule="evenodd" clip-rule="evenodd" d="M503.695 12.618C502.845 12.9288 502.122 21.5902 499.107 21.8208C496.947 21.9875 496.087 19.2314 495.859 18.651C494.902 16.2221 494.327 13.2993 493.835 13.1573C493.438 13.9683 491.326 24.194 490.933 28.5062C490.88 29.1092 490.556 29.2616 490.093 29.4201C487.842 30.1634 485.518 30.663 483.161 30.9103C482.2 31.0214 482.132 30.6427 482.397 29.842C483.453 26.5878 487.815 9.82901 489.396 4.81702C489.894 3.24035 490.517 2.48907 492.483 2.17827C493.683 2.063 495.346 1.48255 496.223 2.87809C496.84 4.2304 497.201 8.59815 498.555 8.40467C499.909 8.21119 500.901 3.97723 501.764 2.34499C502.344 1.24997 505.992 0.583074 507.896 0.904171C509.162 1.11 509.304 2.522 509.542 3.61085C511.053 10.2304 515.184 26.8904 515.378 28.6852C515.45 29.3542 515.31 29.6135 514.49 29.7144C512.502 29.9758 511.609 30.2475 509.625 30.4554C508.25 30.5171 508.048 30.2948 507.908 29.2472C507.313 24.6468 504.932 12.4637 503.695 12.618Z" fill="black"/>
<path fill-rule="evenodd" clip-rule="evenodd" d="M470.354 15.304C472.078 17.5353 473.194 18.9576 471.216 20.174C469.063 21.4419 467.213 22.7798 464.07 24.5809C463.39 24.9699 463.417 25.2251 463.833 25.7315C465.457 28.2694 467.764 26.8059 467.824 24.9493C467.645 23.1236 469.252 23.068 470.37 22.5843C471.887 22.1397 471.922 22.8272 472.002 23.9675C472.128 25.7582 471.138 29.3953 468.763 30.6241C464.057 33.0303 459.564 30.2618 458.594 24.9514C458.051 21.975 458.562 19.328 460.266 16.9445C462.944 12.7167 468.131 12.8464 470.354 15.304ZM462.565 22.0327C462.835 22.3208 466.667 19.6985 467.11 19.0872C467.486 18.5685 466.179 17.1812 464.347 17.8749C462.326 19.114 461.645 21.0426 462.571 22.0327H462.565Z" fill="black"/>
<path fill-rule="evenodd" clip-rule="evenodd" d="M528.604 13.4516C530.329 15.6828 531.444 17.1051 529.466 18.3215C527.313 19.5895 525.463 20.9274 522.32 22.7284C521.641 23.1174 521.667 23.3726 522.083 23.879C523.707 26.4169 526.015 24.9534 526.074 23.0968C525.895 21.2711 527.503 21.2155 528.62 20.7318C530.137 20.2872 530.172 20.9747 530.253 22.115C530.378 23.9057 529.388 27.5428 527.013 28.7716C522.308 31.1778 517.814 28.4093 516.845 23.0989C516.301 20.1226 516.812 17.4756 518.516 15.092C521.194 10.8643 526.381 10.9939 528.604 13.4516ZM520.815 20.1802C521.085 20.4684 524.917 17.8461 525.36 17.2347C525.737 16.7161 524.43 15.3288 522.598 16.0224C520.576 17.2615 519.895 19.1901 520.821 20.1802H520.815Z" fill="black"/>
<path fill-rule="evenodd" clip-rule="evenodd" d="M446.63 15.0173C446.63 14.0808 446.959 13.665 447.906 13.7823C448.157 13.8153 449.275 13.7062 450.687 13.8791C451.304 13.9552 451.002 14.6448 451.179 15.2335C451.467 16.1967 451.384 16.3408 452.272 15.851C454.536 14.3381 454.459 14.2537 456.197 13.1216C456.878 12.8088 457.139 12.9734 457.446 13.6012C458.405 15.5607 458.99 16.3696 457.23 17.5779C455.738 18.607 454.196 19.7453 452.621 20.8403C452.298 21.0408 452.034 21.3256 451.86 21.6643C451.685 22.0029 451.606 22.3827 451.631 22.7628C451.666 25.0948 451.837 26.3854 451.553 29.761C451.475 30.6935 451.234 30.9075 450.493 30.9693H450.368C445.983 31.1175 446.751 31.7061 446.457 27.3857C446.401 26.4204 446.642 17.1868 446.63 15.0173Z" fill="black"/>
<path fill-rule="evenodd" clip-rule="evenodd" d="M431.793 15.0234C432.576 13.3767 434.076 12.576 435.826 12.3928C437.946 12.1705 439.599 12.7942 441.031 14.657C444.03 18.5678 443.262 22.4992 441.739 26.5643C441.488 27.1666 441.201 27.7535 440.881 28.3221C439.72 30.576 437.793 31.4919 435.204 31.0268C432.322 30.5101 430.91 29.0055 430.058 26.2206C429.181 22.3921 430.513 17.6992 431.793 15.0234ZM433.646 23.7074C433.693 25.4776 434.469 26.8196 435.293 26.9657C436.116 27.1119 436.618 26.8216 436.869 26.1589C437.886 23.4563 438.005 21.3712 437.371 18.3723C437.244 17.9915 436.657 17.1867 436.136 17.1373C435.544 17.092 434.901 17.8165 434.679 18.222C433.726 20.0271 433.64 21.8508 433.64 23.7053L433.646 23.7074Z" fill="black"/>
<path fill-rule="evenodd" clip-rule="evenodd" d="M417.458 12.0336C420.22 12.5229 422.772 13.8309 424.782 15.7879C429.398 20.2339 428.744 28.7553 421.136 30.8136C417.067 31.9148 412.95 32.5282 408.716 32.1845C407.57 32.0918 407.07 31.6925 406.946 30.4534C406.051 21.9999 404.61 13.602 404.129 5.0847C403.904 1.1101 403.871 1.11216 407.817 0.350582C411.543 -0.361595 416.96 1.64732 418.572 4.33754C420.045 6.80751 419.953 8.33273 418.191 10.638C417.948 10.955 417.697 11.2699 417.473 11.6013C417.421 11.694 417.462 11.8339 417.458 12.0336ZM414.311 17.661C413.586 17.7001 412.8 17.661 412.16 17.8318C411.363 18.0377 411.398 19.8902 411.543 20.8102C411.687 21.7303 411.775 24.4843 412.778 24.6387C415.219 24.826 417.934 24.7046 420.187 23.2658C421.534 22.4075 421.217 20.0445 419.949 18.9536C418.244 17.4963 416.452 17.6713 414.311 17.661ZM409.138 6.40408C409.344 9.22603 409.497 8.86377 410.555 8.94404C411.672 9.02843 413.836 8.70116 413.589 6.84868C413.475 5.47579 411.361 4.81713 410.001 4.9715C409.272 5.05383 409.11 5.57047 409.138 6.40408Z" fill="black"/>
<path fill-rule="evenodd" clip-rule="evenodd" d="M379.5 15.6386C379.547 12.2959 379.547 12.2959 382.846 11.8863C385.584 11.5446 385.644 11.5508 385.401 14.2966C384.324 46.0358 373.121 35.559 372.349 15.1199C372.518 14.1814 374.502 13.5392 375.346 13.885C375.996 14.1546 375.963 14.5025 376.305 15.9721C377.094 20.7474 380.696 36.1518 379.5 15.6386Z" fill="black"/>
<path fill-rule="evenodd" clip-rule="evenodd" d="M359.752 16.0525C360.535 14.4059 362.035 13.6052 363.785 13.422C365.905 13.1997 367.558 13.8234 368.99 15.6861C371.989 19.5969 371.221 23.5283 369.698 27.5935C369.447 28.1957 369.16 28.7826 368.84 29.3513C367.679 31.6052 365.752 32.5211 363.163 32.0559C360.281 31.5393 358.869 30.0347 358.017 27.2498C357.14 23.4213 358.472 18.7283 359.752 16.0525ZM361.605 24.7366C361.652 26.5067 362.428 27.8487 363.252 27.9949C364.075 28.141 364.577 27.8508 364.828 27.188C365.845 24.4854 365.964 22.4004 365.33 19.4014C365.203 19.0206 364.616 18.2158 364.095 18.1664C363.503 18.1211 362.86 18.8457 362.638 19.2511C361.685 21.0563 361.599 22.88 361.599 24.7345L361.605 24.7366Z" fill="black"/>
<path fill-rule="evenodd" clip-rule="evenodd" d="M346.21 0.825284C347.215 0.788234 347.783 1.27604 348.086 2.1961C348.82 4.43143 350.068 6.43007 351.126 8.51308C351.949 10.1247 352.457 10.1227 353.349 8.57688C354.547 6.49592 355.689 4.38411 356.823 2.26816C357.342 1.30693 357.803 0.874684 359.036 1.49424C361.843 2.90624 361.852 2.80538 361.201 5.99165C360.343 10.1844 353.291 24.148 351.861 27.4496C351.243 28.8904 349.802 31.348 348.238 31.0887C345.313 30.3497 344.877 29.4873 345.525 26.5233C347.285 21.6781 347.454 21.005 348.767 17.9772C349.125 17.2383 349.123 16.7422 348.491 16.1103C344.889 12.5577 342.728 8.23932 341.779 3.27878C341.555 2.10142 341.604 1.78239 343.111 1.40984C344.344 1.10521 345.177 1.03317 346.21 0.825284Z" fill="black"/>
<path fill-rule="evenodd" clip-rule="evenodd" d="M314.28 13.1648C314.28 12.2283 314.609 11.8125 315.556 11.9299C315.807 11.9628 316.925 11.8537 318.337 12.0266C318.954 12.1028 318.652 12.7923 318.829 13.381C319.117 14.3443 319.035 14.4884 319.922 13.9985C322.186 12.4856 322.11 12.4012 323.847 11.2691C324.528 10.9563 324.79 11.1209 325.096 11.7487C326.056 13.7082 326.64 14.5172 324.88 15.7254C323.388 16.7545 321.846 17.8928 320.272 18.9878C319.948 19.1883 319.685 19.4731 319.51 19.8118C319.336 20.1505 319.257 20.5302 319.282 20.9103C319.317 23.2424 319.488 24.5329 319.204 27.9086C319.125 28.841 318.884 29.055 318.143 29.1168H318.018C313.634 29.265 314.401 29.8537 314.107 25.5333C314.052 24.5679 314.292 15.3343 314.28 13.1648Z" fill="black"/>
<path fill-rule="evenodd" clip-rule="evenodd" d="M309.805 13.2457C311.53 15.477 312.646 16.8992 310.667 18.1157C308.514 19.3836 306.664 20.7215 303.521 22.5226C302.842 22.9116 302.869 23.1668 303.284 23.6732C304.908 26.2111 307.216 24.7476 307.275 22.891C307.096 21.0653 308.704 21.0097 309.822 20.526C311.338 20.0814 311.373 20.7689 311.454 21.9092C311.579 23.6999 310.589 27.337 308.214 28.5658C303.509 30.9719 299.015 28.2035 298.046 22.8931C297.503 19.9167 298.013 17.2697 299.717 14.8862C302.395 10.6584 307.582 10.7881 309.805 13.2457ZM302.016 19.9744C302.286 20.2625 306.119 17.6402 306.561 17.0289C306.938 16.5102 305.631 15.1229 303.799 15.8166C301.778 17.0557 301.096 18.9843 302.023 19.9744H302.016Z" fill="black"/>
<path fill-rule="evenodd" clip-rule="evenodd" d="M290.069 8.85415C290.11 6.12277 291.51 5.09361 294.229 5.74816C295.168 5.97251 295.489 6.59206 295.493 7.46273C295.54 15.1238 295.493 22.6099 295.532 30.4479C295.505 31.0922 295.398 31.4606 294.655 31.5471C291.329 31.9361 288.027 32.3848 284.814 30.8678C280.572 28.8651 278.524 17.4435 289.137 16.2188C289.935 16.1282 290.09 15.873 290.098 15.2329C290.106 13.8888 290.057 9.63837 290.069 8.85415ZM289.334 20.7265C286.453 19.543 285.201 23.2809 285.911 24.6949C286.584 26.0411 288.042 26.5474 289.355 26.2901C290.452 26.0843 290.466 21.2699 289.334 20.7265V20.7265Z" fill="black"/>
<path fill-rule="evenodd" clip-rule="evenodd" d="M278.704 30.6923C278.87 31.9188 278.06 32.2313 276.804 32.0147C276.587 31.9957 276.368 31.995 276.151 32.0127C273.382 32.0029 273.251 31.914 274.023 29.1659C274.561 26.0051 274.814 24.2726 274.697 21.7755C274.596 19.6099 271.91 17.811 269.919 18.5842C269.391 18.7922 269.446 19.3054 269.44 19.7083C268.64 24.44 268.416 26.9352 267.782 30.5298C267.673 31.1523 267.19 31.2344 266.687 31.2476C265.256 31.2844 263.93 30.765 262.573 30.4301C261.844 30.2503 261.887 29.5676 262.005 29.0093C262.859 25.1216 263.296 21.1638 263.976 17.2476C264.184 16.044 264.292 14.8246 264.43 13.6108C264.503 12.9755 264.619 12.8468 265.432 12.9432C266.342 13.0524 266.964 13.1161 268.143 13.2716C269.121 13.3996 269.729 13.4103 269.613 14.4578C269.515 15.372 270.019 15.3007 270.563 15.1478C275.234 13.8373 280.096 17.6589 279.812 22.5089C279.637 25.2596 279.267 27.9942 278.704 30.6923V30.6923Z" fill="black"/>
<path fill-rule="evenodd" clip-rule="evenodd" d="M255.489 31.0811C252.542 31.1284 252.295 17.3741 252.24 17.0831C251.906 15.2981 252.357 14.4946 253.919 14.1298C255.324 13.8026 257.006 14.7592 257.246 16.1864C257.619 18.399 258.516 26.6671 258.925 28.5218C259.195 29.7513 258.915 30.3459 257.743 30.6954C256.998 30.9182 256.264 31.095 255.489 31.0811Z" fill="black"/>
<path fill-rule="evenodd" clip-rule="evenodd" d="M257.009 10.504C256.981 12.1387 256.214 12.7834 254.33 12.7555C252.682 12.7318 251.718 11.9994 251.732 10.7825C251.756 9.04612 252.874 7.42256 254.055 7.41003C255.407 7.39471 257.037 9.10042 257.009 10.504Z" fill="black"/>
<path fill-rule="evenodd" clip-rule="evenodd" d="M249.359 2.88464C250.25 2.88464 250.458 3.0349 250.444 4.11963C250.419 6.06474 250.316 6.3035 250.318 7.79784C250.339 8.70555 249.929 8.97107 249.083 9.00194C246.237 9.10486 246.408 9.11515 246.56 12.0894C246.731 15.6297 245.957 28.5353 246.119 31.454C246.152 32.0715 245.883 32.2774 245.333 32.2609C243.892 32.228 242.429 32.2135 240.978 32.1497C240.284 32.1189 239.975 31.7381 239.949 30.9909C239.875 29.5748 240.229 15.5824 240.36 9.99611C240.381 9.06987 240.294 8.60675 239.428 8.62939C237.882 8.67262 236.116 8.76935 234.578 8.52235C233.833 8.40297 233.518 8.18685 233.486 7.16181C233.372 6.23969 233.418 6.03386 233.448 4.65479C233.418 3.71208 233.504 3.3601 234.506 3.22425C237.219 2.85993 247.13 2.87641 249.359 2.88464Z" fill="black"/>
<path fill-rule="evenodd" clip-rule="evenodd" d="M212.241 13.0399C213.966 15.2711 215.081 16.6934 213.103 17.9099C210.95 19.1778 209.1 20.5157 205.957 22.3167C205.278 22.7057 205.304 22.961 205.72 23.4673C207.344 26.0052 209.652 24.5418 209.711 22.6852C209.532 20.8594 211.14 20.8039 212.257 20.3202C213.774 19.8756 213.809 20.563 213.89 21.7033C214.015 23.4941 213.025 27.1311 210.65 28.3599C205.945 30.7661 201.451 27.9977 200.482 22.6872C199.938 19.7109 200.449 17.0639 202.153 14.6804C204.831 10.4526 210.018 10.5823 212.241 13.0399ZM204.452 19.7685C204.722 20.0567 208.554 17.4344 208.997 16.8231C209.374 16.3044 208.067 14.9171 206.235 15.6107C204.214 16.8498 203.532 18.7785 204.458 19.7685H204.452Z" fill="black"/>
<path fill-rule="evenodd" clip-rule="evenodd" d="M196.962 31.7641C194.869 31.8423 194.947 31.8156 194.262 29.7717C192.879 25.6551 191.928 21.4458 190.981 17.216C190.306 14.1964 189.657 11.1707 189.015 8.14291C188.838 7.31958 188.997 6.98614 190.067 6.805C191.413 6.57653 191.58 6.55183 192.743 6.41598C193.906 6.28013 194.274 6.51272 194.468 7.54805C195.332 12.1834 195.851 16.8805 197.094 21.4458C197.917 24.4427 198.844 27.3943 199.947 30.2965C200.499 31.7374 200.418 31.865 198.829 31.8218C198.399 31.8197 197.154 31.7559 196.962 31.7641Z" fill="black"/>
<path fill-rule="evenodd" clip-rule="evenodd" d="M180.569 14.404C187.343 13.7865 196.383 26.1075 178.679 30.8705C176.813 31.1545 175.053 29.7219 174.736 27.6204C174.081 23.2753 172.548 9.09557 172.095 6.40123C172.052 6.13983 172.072 5.69935 172.227 5.60467C173.178 5.01805 174.314 5.03863 175.361 4.94395C176.185 4.86985 176.317 5.84343 176.45 6.48563C176.831 8.28253 177.125 10.1 177.455 11.9093C177.926 14.5007 177.926 14.5007 180.569 14.404ZM180.106 18.4115C179.295 18.3209 178.791 18.4115 179.044 19.772C179.373 21.5566 179.762 22.8595 180.073 24.4177C180.236 25.2595 180.69 25.2081 181.322 24.9775C182.683 24.4774 184.025 23.125 183.792 21.4125C183.547 19.7967 182.201 18.7388 180.106 18.4012V18.4115Z" fill="black"/>
<path fill-rule="evenodd" clip-rule="evenodd" d="M145.169 14.699C145.212 13.8057 145.552 13.6266 146.404 13.6163C146.923 13.6163 147.022 13.5855 147.629 13.604C148.934 13.6369 148.891 13.7275 149.07 14.6085C149.378 16.1193 149.597 16.1584 150.76 15.123C151.795 14.1983 153.019 13.5105 154.347 13.1079C155.924 12.6201 157.085 12.9906 157.791 14.487C158.233 15.4256 158.633 15.4832 159.316 14.6928C160.46 13.3693 161.899 12.4781 163.675 12.3628C166.956 12.157 169.342 14.4211 169.494 18.0788C169.618 21.0078 169.494 23.947 169.474 26.8822C169.443 27.7556 169.499 28.63 169.643 29.4921C169.945 31.042 169.562 31.5134 167.975 31.7851C165.732 32.1721 164.787 31.289 164.41 29.1299C163.892 26.1432 164.832 23.1875 164.326 20.2215C164.196 19.4661 164.326 18.5254 163.463 18.2702C162.434 17.9656 161.87 18.7745 161.477 19.5957C160.071 22.5309 159.686 25.7542 158.927 28.8705C158.746 29.6136 158.641 30.3793 158.468 31.1347C158.32 31.7686 158.069 32.1144 157.233 32.1082C153.512 32.0794 153.433 32.1082 154.006 28.5C154.341 26.3964 155.018 24.3505 155.457 22.2613C155.646 21.3659 156.206 20.1906 155.092 19.6349C154.102 19.1409 153.24 19.9662 152.596 20.6867C150.873 22.6071 150.537 25.0914 149.994 27.4791C149.704 28.7801 149.514 30.1012 149.424 31.4311C149.364 32.2976 148.899 32.6331 148.189 32.7319C147.475 32.815 146.756 32.8405 146.038 32.8081C144.803 32.7793 144.126 32.2647 144.321 30.8877C144.436 30.1137 144.943 19.3199 145.169 14.699Z" fill="black"/>
<path fill-rule="evenodd" clip-rule="evenodd" d="M136.001 16.2561C136.048 12.9134 136.048 12.9134 139.348 12.5038C142.085 12.1621 142.145 12.1683 141.902 14.9141C140.826 46.6533 129.622 36.1765 128.851 15.7374C129.019 14.7988 131.004 14.1567 131.847 14.5025C132.498 14.7721 132.465 15.1199 132.807 16.5896C133.595 21.3649 137.197 36.7693 136.001 16.2561Z" fill="black"/>
<path fill-rule="evenodd" clip-rule="evenodd" d="M116.533 14.9152C119.295 15.4045 121.846 16.7125 123.856 18.6696C128.473 23.1155 127.818 31.637 120.211 33.6953C116.142 34.7965 112.025 35.4098 107.791 35.0661C106.644 34.9735 106.144 34.5742 106.021 33.3351C105.125 24.8816 103.685 16.4836 103.203 7.96634C102.979 3.99174 102.946 3.9938 106.891 3.23222C110.617 2.52004 116.034 4.52896 117.646 7.21917C119.12 9.68915 119.027 11.2144 117.265 13.5197C117.022 13.8367 116.771 14.1516 116.547 14.483C116.496 14.5756 116.537 14.7156 116.533 14.9152ZM113.385 20.5426C112.661 20.5818 111.875 20.5426 111.234 20.7135C110.438 20.9193 110.473 22.7718 110.617 23.6919C110.761 24.6119 110.85 27.366 111.852 27.5203C114.293 27.7076 117.008 27.5862 119.262 26.1474C120.608 25.2891 120.291 22.9262 119.023 21.8353C117.319 20.378 115.526 20.5529 113.385 20.5426ZM108.213 9.28572C108.419 12.1077 108.571 11.7454 109.629 11.8257C110.747 11.9101 112.91 11.5828 112.663 9.73032C112.55 8.35742 110.436 7.69876 109.075 7.85314C108.347 7.93547 108.184 8.4521 108.213 9.28572Z" fill="black"/>
<path fill-rule="evenodd" clip-rule="evenodd" d="M82.773 14.0691C84.4979 16.3003 85.6134 17.7226 83.6354 18.939C81.4824 20.207 79.632 21.5449 76.4889 23.3459C75.8097 23.7349 75.8365 23.9901 76.2522 24.4965C77.8762 27.0344 80.1836 25.5709 80.2433 23.7143C80.0642 21.8886 81.6718 21.833 82.7894 21.3493C84.3064 20.9047 84.3414 21.5922 84.4217 22.7325C84.5473 24.5232 83.5572 28.1603 81.1819 29.3891C76.4766 31.7953 71.9833 29.0268 71.0138 23.7164C70.4704 20.7401 70.9809 18.0931 72.6852 15.7095C75.3631 11.4818 80.55 11.6114 82.773 14.0691ZM74.9843 20.7977C75.254 21.0859 79.0865 18.4636 79.5291 17.8522C79.9058 17.3335 78.5987 15.9462 76.7668 16.6399C74.7455 17.879 74.0642 19.8076 74.9905 20.7977H74.9843Z" fill="black"/>
<path fill-rule="evenodd" clip-rule="evenodd" d="M55.7312 36.1721C57.2037 36.2401 57.3595 36.0219 57.3595 38.1592C57.2479 39.8531 57.4688 40.395 58.7807 40.6343C60.0927 40.8736 61.1068 40.1464 61.6186 38.9921C62.6118 36.7187 62.6816 34.2741 63.191 31.9116C63.4236 30.8371 63.4957 29.7345 63.6213 28.6435C63.7144 27.8342 63.5074 27.4705 62.4234 27.745C58.5272 28.7374 55.0706 26.3374 55.38 22.7479C55.6545 19.5455 56.6942 16.5261 59.2925 14.1542C61.4185 12.214 62.8747 11.8081 64.8891 13.0844C65.8195 13.6662 66.7732 12.9929 67.8176 13.2533C69.2249 13.6052 69.5785 14.234 69.2528 15.2076C68.9388 20.0217 69.0062 21.474 68.962 26.0465C68.7527 31.4987 68.534 36.9745 65.7753 42.042C62.5792 48.6814 55.6568 46.889 54.0285 44.93C52.3421 42.9006 51.9676 40.5569 52.5166 38.1475C52.9702 36.1205 53.147 36.097 55.7312 36.1721ZM64.6216 17.7226C64.5099 17.0446 64.8891 16.3431 63.9656 15.9818C63.3911 15.7472 62.9049 15.6557 62.3373 16.0006C60.7091 16.9977 59.7786 21.0282 60.844 22.5461C61.0371 22.8362 61.308 23.065 61.6251 23.2058C61.9423 23.3466 62.2925 23.3937 62.6351 23.3414C63.3538 23.2664 63.6958 22.9121 63.7981 22.2059C64.0028 20.6622 64.3494 19.1443 64.6216 17.7109V17.7226Z" fill="black"/>
<path fill-rule="evenodd" clip-rule="evenodd" d="M52.3366 27.0926C52.8326 28.3483 52.0565 28.8909 50.6696 28.9898C50.4344 29.0264 50.2028 29.0828 49.9771 29.1584C47.0419 29.8715 46.8804 29.8114 46.9796 26.6992C46.7228 23.2109 46.5381 21.3099 45.7619 18.6956C45.0889 16.4283 41.7743 15.2249 39.868 16.5639C39.3623 16.9225 39.5549 17.4515 39.6541 17.8798C40.0431 23.1005 40.4574 25.8019 40.7259 29.7746C40.7726 30.4626 40.2824 30.6758 39.7533 30.8211C38.2477 31.2339 36.7071 31.0304 35.1821 31.0304C34.3632 31.0304 34.2309 30.2959 34.2095 29.6739C34.0987 25.333 33.5268 21.0269 33.2233 16.7015C33.13 15.3721 32.9257 14.0524 32.7546 12.7308C32.6651 12.0389 32.7546 11.8723 33.6416 11.7618C34.6336 11.6397 35.3086 11.5448 36.5982 11.4014C37.6681 11.2812 38.3139 11.1339 38.4656 12.2734C38.5998 13.2676 39.1153 13.0602 39.6521 12.756C44.2564 10.1476 50.4051 12.9246 51.3718 18.1356C51.9048 21.0949 52.2272 24.088 52.3366 27.0926V27.0926Z" fill="black"/>
<path fill-rule="evenodd" clip-rule="evenodd" d="M26.1532 32.7276C22.592 32.7848 22.2924 16.1602 22.2268 15.8085C21.8229 13.6509 22.3682 12.6798 24.2565 12.2389C25.9546 11.8434 27.9877 12.9996 28.2771 14.7246C28.7282 17.3989 29.812 27.3925 30.3068 29.6342C30.6333 31.1203 30.295 31.839 28.878 32.2614C27.9776 32.5307 27.0906 32.7444 26.1532 32.7276Z" fill="black"/>
<path fill-rule="evenodd" clip-rule="evenodd" d="M27.9911 7.85635C27.9574 9.83218 27.0301 10.6114 24.753 10.5777C22.7603 10.5491 21.5957 9.66388 21.6125 8.19295C21.6412 6.09426 22.9926 4.13189 24.4198 4.11675C26.054 4.09823 28.0247 6.1599 27.9911 7.85635Z" fill="black"/>
<path fill-rule="evenodd" clip-rule="evenodd" d="M0.159299 2.64487C0.38983 -0.0844501 2.24437 -0.302634 4.83784 0.236644C5.55414 0.384843 6.02549 1.11554 6.20045 1.60748C6.57712 4.39032 6.64916 10.6105 6.81794 11.9752C6.81794 13.7803 6.68004 13.733 8.89891 13.6857C10.1586 13.6589 10.737 14.0335 10.5764 12.0267C10.4488 10.4623 10.3891 5.71793 10.3706 4.90284C10.2492 0.551563 10.315 0.518626 14.6931 0.615367C15.6646 0.638009 16.1133 0.771798 16.4447 1.92651C17.3112 4.944 18.5977 22.2647 18.2581 27.923C18.1366 29.9566 16.7781 31.1114 14.022 31.311C12.044 31.4572 11.3956 30.815 11.0272 28.4294C10.6464 25.9558 10.4284 23.4598 10.3747 20.9577C10.3562 20.0706 10.3088 18.8644 8.76511 18.8809C7.42515 18.8953 7.34076 19.628 7.4725 20.8857C7.53836 25.346 7.82035 26.8074 8.02412 31.9367C8.21555 33.0771 7.74419 33.4249 6.82206 33.7707C5.31823 34.3714 3.73926 34.7633 2.12911 34.9357C0.552438 35.0798 0.0707874 34.3779 0.0522625 33.0359C0.0234461 31.523 -0.0938738 5.6459 0.159299 2.64487Z" fill="black"/>
<path d="M217.649 29.4544C216.842 29.5964 215.769 29.5962 215.613 28.6225C216.007 27.9777 216.563 27.4406 217.23 27.0606C217.897 26.6806 218.653 26.4698 219.43 26.4473C221.843 27.6867 218.795 28.764 217.649 29.4544Z" fill="black"/>
<path d="M325.916 29.2486C325.109 29.3906 324.036 29.3903 323.88 28.4167C324.274 27.7719 324.831 27.2348 325.498 26.8548C326.164 26.4747 326.921 26.2639 327.697 26.2415C330.11 27.4809 327.062 28.5582 325.916 29.2486Z" fill="black"/>
<path d="M534.129 28.8745C533.361 28.5886 532.436 28.0454 532.794 27.1266C533.461 26.7701 534.212 26.5884 534.98 26.5981C535.747 26.6078 536.506 26.8087 537.187 27.1822C538.642 29.4724 535.467 28.8592 534.129 28.8745Z" fill="black"/>
<path d="M88.4596 29.0436C89.0097 28.7547 89.6139 28.2429 89.0477 27.5099C88.3922 27.262 87.7181 27.164 87.0871 27.225C86.456 27.286 85.8883 27.5041 85.4359 27.8592C84.9092 29.8483 87.35 29.1234 88.4596 29.0436Z" fill="black"/>
</svg>
