<svg width="480" height="59" viewBox="0 0 480 59" fill="none" xmlns="http://www.w3.org/2000/svg">
<g clip-path="url(#clip0_691_5662)">
<path fill-rule="evenodd" clip-rule="evenodd" d="M280.334 10.2634C278.304 6.67437 271.499 6.92193 269.235 7.84615C265.599 9.55002 264.272 10.6112 261.344 15.9083C260.623 17.2127 259.874 20.2742 259.645 21.7251C259.081 28.0656 259.169 25.1586 259.439 29.5581C259.773 30.3684 259.851 31.2983 260.257 32.1594C260.846 33.4281 262.691 35.1917 263.843 35.9843C265.329 37.0055 268.771 36.6433 270.621 36.3996C271.913 36.2277 272.207 35.6358 273.038 35.0586C275.501 33.352 278.002 30.8363 277.967 27.5672C277.949 24.6027 277.707 23.4574 277.309 23.0788C277.195 22.1085 276.578 21.2033 276.061 20.5859C274.319 17.9484 271.894 18.3673 269.211 18.2287L265.884 18.2461C266.044 12.8047 273.568 8.80974 278.491 11.7173C278.998 12.0145 279.478 12.356 279.925 12.7377C280.554 12.6475 280.296 11.1023 280.334 10.2634ZM268.135 22.8517C270.82 22.1859 272.568 22.5505 274.901 23.1699C275.009 23.1936 275.118 23.2119 275.228 23.2246C275.117 23.2177 275.006 23.1981 274.899 23.1662C276.536 26.4981 273.617 30.2125 270.577 31.1496C268.256 31.8656 265.631 32.0362 263.329 31.1392C260.852 27.5112 264.916 23.6469 268.135 22.8517Z" fill="black"/>
</g>
<path d="M28.0498 31.7343C28.3369 31.4019 28.7592 31.3484 28.627 30.8768C26.3945 30.1836 23.9478 29.873 22.1113 28.2372C23.0533 26.6602 24.8222 25.8215 26.2522 24.575C26.2422 24.1082 25.8473 23.7682 25.5084 23.3604C23.6936 23.0659 22.4603 25.1162 21.1752 26.0928C21.1207 25.2266 21.2829 24.0964 20.6698 23.2867C20.2563 23.0806 19.6303 22.6716 19.1968 23.1998C19.0331 24.2634 19.3704 25.2643 18.852 26.5209L14.1097 24.918L13.6862 25.2459C14.0608 27.6471 17.3128 27.0285 18.6711 28.4522C16.941 30.7578 14.0478 31.7097 12.8777 34.3591C13.0758 34.896 13.7019 34.9715 14.1203 35.0736C15.6293 33.5552 17.2831 32.1982 19.0567 31.0236C19.6553 32.4933 20.0331 34.7091 21.8535 34.9293C21.3955 33.3231 20.3373 31.1739 20.9806 29.3883C23.1639 30.4607 25.2414 31.9579 28.0498 31.7343Z" fill="black"/>
<path fill-rule="evenodd" clip-rule="evenodd" d="M468.295 17.733C469.455 16.4136 470.624 15.1109 471.771 13.7845C472.744 12.6519 472.982 12.6701 473.705 13.9318C474.91 16.0348 474.509 15.6423 473.075 17.7372C472.124 18.8714 471.536 19.7417 470.772 20.7474C470.237 21.4568 470.665 21.9459 471.202 22.4152C473.049 23.9972 474.807 25.6794 476.469 27.4542C477.054 28.0901 476.874 28.2896 476.4 29.0237C475.602 29.9142 474.987 30.887 474.09 31.1465C473.271 31.3435 471.906 29.7472 470.811 28.5556C469.862 27.52 468.048 25.435 467.523 25.5901C467.523 25.5901 467.25 27.7715 467.208 28.2771C466.898 31.8877 466.901 31.8738 463.272 31.3962C462.475 31.2932 462.076 31.0396 462.14 30.1736C462.49 25.5747 464.115 10.5284 464.286 7.46435C464.638 4.6755 464.279 4.91769 466.712 4.90792C469.084 5.05446 468.676 5.28684 468.556 7.0978C468.356 9.93437 467.866 17.5032 467.87 18.1572C468.019 18.0237 468.161 17.8821 468.295 17.733Z" fill="black"/>
<path fill-rule="evenodd" clip-rule="evenodd" d="M443.163 16.2989C444.89 18.436 446.006 19.7979 444.105 21.0243C442.035 22.3045 440.26 23.6465 437.237 25.4667C436.583 25.8598 436.615 26.1079 437.03 26.5924C438.665 29.0303 440.882 27.5564 440.901 25.7468C440.689 23.9722 442.253 23.8844 443.332 23.3898C444.8 22.9249 444.848 23.5938 444.951 24.7028C445.11 26.4444 444.222 30.0078 441.935 31.2545C437.402 33.6969 432.967 31.0946 431.911 25.9424C431.32 23.0547 431.761 20.4658 433.371 18.1084C435.891 13.9342 440.946 13.9517 443.163 16.2989ZM435.718 23.0162C435.986 23.2912 439.664 20.6566 440.083 20.0519C440.439 19.5388 439.136 18.2149 437.367 18.929C435.424 20.1783 434.801 22.0711 435.724 23.0161L435.718 23.0162Z" fill="black"/>
<path fill-rule="evenodd" clip-rule="evenodd" d="M459.607 14.9747C460.905 17.396 461.748 18.9421 459.652 19.7929C457.379 20.665 455.386 21.6531 452.076 22.8782C451.361 23.1428 451.346 23.3924 451.664 23.9458C452.816 26.6456 455.269 25.6104 455.625 23.836C455.746 22.0529 457.3 22.258 458.452 21.9729C459.981 21.7897 459.904 22.4559 459.798 23.5645C459.63 25.3054 458.094 28.641 455.614 29.4398C450.706 30.9953 446.833 27.6125 446.756 22.3538C446.712 19.4065 447.628 16.9451 449.649 14.9288C452.902 11.297 457.866 12.2557 459.607 14.9747ZM451.04 20.1877C451.253 20.508 455.358 18.6045 455.881 18.0883C456.326 17.6504 455.294 16.1072 453.422 16.4791C451.28 17.3448 450.316 19.0884 451.046 20.1887L451.04 20.1877Z" fill="black"/>
<path fill-rule="evenodd" clip-rule="evenodd" d="M419.556 26.6574C418.648 28.1873 418.267 29.6698 417.847 31.129C417.239 33.2643 417.271 33.2575 415.02 33.2358C413.778 33.2224 412.531 33.2172 411.295 33.316C410.334 33.3889 409.967 32.9295 409.772 32.0892C409.398 30.4685 407.83 11.4853 408.14 8.55615C408.272 7.31172 408.797 6.83304 410.083 6.66694C413.716 6.18756 413.791 6.43265 414.095 10.191C414.409 14.0735 414.592 15.2269 414.797 17.7478C414.799 17.846 414.966 19.1923 415.505 19.1486C416.044 19.105 416.015 18.7225 416.183 18.2114C417.043 15.5853 417.658 13.4941 418.543 12.3217C419.55 11.0965 422.775 9.98402 424.482 16.0309C424.717 16.8903 424.718 16.9284 425.042 18.1169C425.511 16.3918 428.258 6.68471 429.349 3.86914C429.758 2.81733 430.443 2.41745 431.552 2.79272C432.344 3.06048 433.157 3.26163 433.955 3.51323C436.287 4.24927 436.328 4.26445 435.505 6.58884C432.858 14.0372 430.684 21.6299 428.535 29.226C428.036 30.9918 427.45 31.7386 425.613 32.0128C422.413 32.4829 422.175 32.5181 420.745 29.5101C420.347 28.6482 420.023 27.7726 419.556 26.6574Z" fill="black"/>
<path fill-rule="evenodd" clip-rule="evenodd" d="M336.573 33.6646C333.057 34.5266 330.399 32.6362 330.177 29.2411C329.956 25.8801 330.636 22.6121 331.792 19.4661C332.063 18.7242 332.337 17.4767 333.691 18.2378C334.783 18.8521 337.052 18.2838 336.132 20.9212C335.535 22.6349 335.018 24.4272 335.012 26.2908C335.009 26.9046 334.709 27.7695 335.591 27.9331C336.287 28.0605 336.946 27.6251 337.329 26.9489C337.764 26.1402 338.097 25.2799 338.318 24.3882C338.556 23.5066 339.032 22.678 339.191 21.788C339.474 20.2153 340.057 19.7254 341.746 20.2567C343.632 20.8519 344.198 21.1606 343.97 23.1353C343.049 31.1121 341.337 38.8894 337.493 46.0326C336.143 48.5389 334.589 50.889 331.417 51.5069C327.336 52.3008 323.582 49.1604 323.827 45.0071C323.868 44.3002 323.978 43.2608 324.779 43.3559C325.844 43.4834 327.283 43.2337 327.847 44.5675C328.154 45.293 328.016 46.2507 329.091 46.4161C329.556 46.4915 330.033 46.4233 330.459 46.2206C330.885 46.0179 331.238 45.6904 331.473 45.2817C333.692 41.6586 335.408 37.7503 336.573 33.6646Z" fill="black"/>
<path fill-rule="evenodd" clip-rule="evenodd" d="M230.518 39.6189C228.021 39.5912 226.468 38.2517 225.404 36.1691C225.194 35.7581 225.16 35.4486 225.502 35.0847C226.039 34.5192 226.412 33.6062 227.04 33.3957C227.883 33.3059 228.195 34.039 228.858 34.5599C230.755 35.9808 232.368 34.8542 230.246 32.9408C225.44 28.3101 222.196 19.1241 231.727 20.3244C233.901 20.5072 234.843 22.5303 234.92 22.8878C235.42 25.015 235.108 25.5471 233.058 26.3026C232.588 26.4773 232.383 26.3824 232.28 25.9192C232.132 25.3003 232.173 23.1641 230.768 23.4195C228.38 24.1243 230.238 25.4286 231.036 26.4987C231.814 27.4634 232.837 28.9874 233.756 30.0463C236.153 33.1123 236.762 39.2716 230.518 39.6189Z" fill="black"/>
<path fill-rule="evenodd" clip-rule="evenodd" d="M351.393 33.1324C348.91 33.393 347.212 32.2416 345.915 30.2957C345.66 29.9117 345.589 29.6082 345.887 29.2072C346.355 28.5837 346.621 27.6336 347.22 27.3521C348.047 27.1657 348.442 27.8578 349.161 28.2987C351.209 29.4913 352.681 28.1862 350.353 26.5303C345.044 22.4851 340.762 13.7347 350.367 13.8273C352.549 13.758 353.718 15.6589 353.836 16.0051C354.578 18.0604 354.329 18.625 352.379 19.612C351.933 19.8397 351.718 19.7692 351.563 19.3209C351.344 18.7233 351.139 16.5965 349.772 17.0125C347.482 17.988 349.478 19.0692 350.394 20.0401C351.278 20.9086 352.47 22.3043 353.505 23.2502C356.24 26.0191 357.555 32.0671 351.393 33.1324Z" fill="black"/>
<path fill-rule="evenodd" clip-rule="evenodd" d="M195.017 24.0272C194.812 22.8863 195.355 22.3009 196.268 21.9804C199.878 20.7152 206.19 21.6464 207.953 27.1284C209.242 31.1303 207.262 34.9358 202.706 36.0669C201.648 36.3324 201.296 36.7311 201.339 37.8314C201.419 40.1143 201.372 42.4059 201.297 44.6921C201.242 46.3681 200.451 47.0491 198.817 47.0101C196.658 46.9583 195.996 46.3809 196.023 44.1919C196.043 41.2951 195.241 27.6529 195.017 24.0272ZM200.937 25.9255C200.324 25.9066 199.974 26.1308 200.123 26.8076C200.581 28.8817 200.696 30.3936 201.116 32.4767C201.224 33.0179 201.348 33.1857 201.853 32.884C205.542 28.6225 202.717 25.9835 200.937 25.9255Z" fill="black"/>
<path fill-rule="evenodd" clip-rule="evenodd" d="M210.83 22.0662C210.786 20.9078 211.405 20.404 212.355 20.214C216.105 19.4648 222.226 21.2675 223.206 26.9419C223.925 31.0846 221.433 34.5766 216.763 35.0609C215.679 35.1763 215.275 35.5219 215.164 36.6175C214.924 38.8891 214.558 41.1518 214.165 43.4052C213.877 45.0573 212.998 45.6211 211.386 45.3545C209.255 45.002 208.68 44.3378 209.012 42.1741C209.436 39.3084 210.546 25.6877 210.83 22.0662ZM216.427 24.7719C215.823 24.6678 215.445 24.8409 215.498 25.5318C215.662 27.6496 215.565 29.1627 215.69 31.284C215.721 31.835 215.821 32.0185 216.363 31.7901C220.611 28.085 218.182 25.0777 216.427 24.7719Z" fill="black"/>
<path fill-rule="evenodd" clip-rule="evenodd" d="M187.726 37.5429C186.376 37.7525 185.949 37.1921 185.928 35.8446C185.902 34.1824 185.576 32.5286 185.41 30.8694C185.351 30.2829 185.363 29.3339 183.939 29.4408C182.615 29.4192 182.584 29.1972 182.13 30.7635C181.54 32.8061 180.773 34.8043 180.421 36.9039C180.284 37.7253 180.01 38.2948 179.048 38.3256C178.446 38.3385 176.127 38.4085 175.527 38.5177C172.748 39.0268 173.671 38.5577 174.261 35.5804C175.031 31.6826 176.267 27.855 177.59 24.0977C179.13 19.728 180.372 15.2423 182.462 11.0714C184.045 7.82799 187.996 9.19511 188.573 11.4051C190.403 16.7372 191.294 22.2841 192.336 27.7957C192.682 29.6236 192.968 30.9774 193.55 33.2414C194.211 36.7033 194.513 36.5944 191.57 37.0149C190.652 37.0788 188.63 37.4272 187.726 37.5429ZM185.162 20.964C185.154 20.8946 185.122 20.8304 185.071 20.7823C185.02 20.7343 184.954 20.7055 184.885 20.7011C184.815 20.6966 184.746 20.7167 184.69 20.7579C184.633 20.7991 184.593 20.8587 184.576 20.9265C184.415 21.7323 184.101 23.2615 183.985 24.0462C183.918 24.4789 183.736 24.8539 184.145 24.8732C184.521 24.8976 184.897 24.8948 185.272 24.8649C185.691 24.8118 185.493 24.3026 185.444 23.9967C185.32 23.2673 185.23 21.7047 185.156 20.9661L185.162 20.964Z" fill="black"/>
<path fill-rule="evenodd" clip-rule="evenodd" d="M382.483 33.6924C381.119 33.7536 380.755 33.1498 380.881 31.8081C381.037 30.153 380.893 28.4735 380.909 26.806C380.914 26.2167 381.03 25.2746 379.603 25.2256C378.289 25.0596 378.282 24.8356 377.66 26.343C376.851 28.3091 375.87 30.2117 375.292 32.2604C375.066 33.0619 374.731 33.5981 373.771 33.5238C373.172 33.471 370.859 33.2876 370.251 33.3308C367.433 33.5338 368.401 33.168 369.312 30.2729C370.504 26.4823 372.149 22.8123 373.874 19.2218C375.882 15.0462 377.605 10.7227 380.138 6.80464C382.066 3.75328 385.844 5.54318 386.176 7.80294C387.414 13.3029 387.695 18.9139 388.129 24.5062C388.274 26.3609 388.41 27.7378 388.742 30.0519C389.021 33.5651 389.333 33.4899 386.362 33.5868C385.443 33.5502 383.395 33.676 382.483 33.6924ZM381.743 16.9328C381.743 16.8629 381.718 16.7955 381.673 16.7422C381.627 16.689 381.565 16.6532 381.496 16.6412C381.427 16.6291 381.356 16.6416 381.296 16.6764C381.235 16.7111 381.189 16.766 381.164 16.8315C380.916 17.6149 380.437 19.1007 380.237 19.8682C380.123 20.291 379.901 20.6439 380.306 20.7077C380.677 20.7729 381.051 20.8113 381.427 20.8224C381.849 20.8152 381.708 20.2875 381.693 19.9782C381.649 19.2395 381.73 17.6765 381.737 16.9343L381.743 16.9328Z" fill="black"/>
<path fill-rule="evenodd" clip-rule="evenodd" d="M146.442 44.189C147.712 44.2198 147.842 44.0305 147.882 45.8569C147.817 47.3065 148.017 47.7655 149.152 47.9457C150.287 48.1258 151.148 47.4855 151.568 46.4896C152.382 44.5284 152.397 42.4381 152.793 40.4097C152.974 39.4871 153.016 38.5435 153.104 37.6089C153.169 36.9155 152.984 36.6086 152.055 36.8633C148.715 37.7837 145.691 35.7968 145.892 32.7236C146.07 29.9819 146.91 27.3823 149.106 25.3072C150.903 23.6097 152.15 23.2358 153.91 24.2891C154.723 24.769 155.532 24.1759 156.437 24.379C157.657 24.6537 157.973 25.1844 157.71 26.0225C157.528 30.1423 157.613 31.3821 157.659 35.2904C157.579 39.9536 157.491 44.637 155.207 49.0188C152.574 54.7519 146.575 53.3487 145.135 51.7048C143.644 50.0019 143.279 48.006 143.707 45.9368C144.061 44.1961 144.213 44.1728 146.442 44.189ZM153.765 28.2576C153.656 27.6803 153.97 27.0738 153.167 26.7822C152.668 26.5924 152.247 26.5232 151.764 26.8285C150.379 27.7108 149.651 31.1724 150.598 32.4498C150.769 32.6941 151.007 32.8846 151.283 32.999C151.559 33.1135 151.862 33.1472 152.156 33.0962C152.774 33.0187 153.062 32.7096 153.138 32.1042C153.286 30.7812 153.556 29.4777 153.765 28.2476L153.765 28.2576Z" fill="black"/>
<path fill-rule="evenodd" clip-rule="evenodd" d="M144.553 34.8266C144.956 35.7867 144.367 36.218 143.299 36.3172C143.118 36.3494 142.941 36.3967 142.768 36.4587C140.516 37.0574 140.391 37.0137 140.416 34.6122C140.16 31.9266 139.986 30.4638 139.344 28.4608C138.787 26.7236 136.211 25.8506 134.764 26.9149C134.38 27.1997 134.537 27.6045 134.62 27.9331C135.007 31.9524 135.371 34.0286 135.644 37.0876C135.692 37.6173 135.317 37.7898 134.912 37.9107C133.758 38.254 132.566 38.1226 131.39 38.148C130.759 38.1616 130.645 37.5974 130.618 37.1181C130.46 33.7726 129.948 30.4617 129.642 27.1313C129.548 26.1078 129.369 25.0935 129.215 24.0772C129.134 23.5452 129.2 23.4152 129.883 23.3153C130.645 23.2047 131.164 23.1203 132.156 22.9883C132.979 22.8778 133.475 22.7535 133.611 23.6297C133.731 24.3941 134.125 24.2256 134.534 23.9821C138.041 21.8942 142.828 23.9335 143.66 27.9358C144.121 30.2089 144.419 32.5115 144.553 34.8266Z" fill="black"/>
<path fill-rule="evenodd" clip-rule="evenodd" d="M124.131 38.5444C121.611 38.5982 121.336 26.8305 121.289 26.5817C120.995 25.0558 121.377 24.3663 122.712 24.0471C123.913 23.7608 125.356 24.5717 125.568 25.7918C125.897 27.6833 126.702 34.7539 127.06 36.339C127.297 37.3898 127.06 37.8998 126.059 38.2042C125.422 38.3982 124.795 38.5528 124.131 38.5444Z" fill="black"/>
<path fill-rule="evenodd" clip-rule="evenodd" d="M125.34 20.9307C125.323 22.3296 124.67 22.8847 123.057 22.8693C121.647 22.8565 120.819 22.2342 120.825 21.1928C120.838 19.707 121.787 18.3128 122.797 18.2967C123.954 18.2775 125.357 19.7296 125.34 20.9307Z" fill="black"/>
<path fill-rule="evenodd" clip-rule="evenodd" d="M110.115 26.5316C110.133 25.8171 110.112 25.3723 108.939 25.3815C108.825 25.394 107.135 25.4645 107.031 25.4607C105.352 25.4467 105.741 24.8185 105.853 22.4773C105.878 21.9433 106.679 21.9039 107.244 21.8457C107.868 21.774 109.31 21.6748 109.941 21.6391C110.65 21.68 110.506 21.3201 110.43 20.5174C110.316 19.2823 110.449 18.0298 110.302 16.7994C110.236 16.2372 110.506 16.0348 111.055 15.9989C112.205 15.92 113.364 15.9111 114.521 15.8881C115.309 15.8712 115.242 16.3219 115.251 16.7209C115.278 18.002 115.34 19.2844 115.31 20.5668C115.291 21.3575 115.332 21.5872 115.96 21.6198C119.554 21.7771 119.377 21.3958 119.474 23.1849C119.36 25.4198 119.886 25.1598 116.811 25.3764C115.771 25.3988 115.776 25.6394 115.771 27.0817C115.655 30.3677 115.485 33.6569 115.756 36.9305C115.862 38.1899 115.082 38.5757 113.776 38.7784C113.491 38.8147 113.203 38.8349 112.915 38.8391C110.234 38.953 110.107 38.8514 110.121 36.7771C110.129 35.1823 110.07 28.3498 110.115 26.5316Z" fill="black"/>
<path fill-rule="evenodd" clip-rule="evenodd" d="M91.0615 32.2729C91.3634 28.8726 92.9645 26.383 95.5899 24.0419C97.1131 22.6812 99.1134 22.8006 100.764 23.9826C101.031 24.1774 101.165 24.4593 101.647 24.2003C102.949 23.4982 103.765 23.8397 104.089 25.3812C104.76 28.5941 105.276 31.8565 105.81 35.0803C106.017 36.2172 106.378 36.9435 105.608 37.8587C104.743 38.8802 103.541 39.0586 102.376 39.3324C101.797 39.4732 101.685 38.922 101.625 38.5763C101.424 37.4253 100.835 37.5443 100.081 38.0078C99.9521 38.0868 99.8068 38.1421 99.6741 38.2172C95.3749 40.5101 91.0653 37.851 91.0615 32.2729ZM99.862 31.1086C99.7715 29.887 100.193 28.4939 99.0542 28.2456C97.6576 27.9407 96.5079 29.0406 96.23 31.6902C96.1017 33.4641 97.3323 34.26 98.9785 33.5787C100.08 33.1177 99.8259 32.3209 99.8641 31.1165L99.862 31.1086Z" fill="black"/>
<path fill-rule="evenodd" clip-rule="evenodd" d="M313.803 27.476C314.105 24.0757 315.706 21.5861 318.331 19.245C319.855 17.8843 321.855 18.0037 323.505 19.1857C323.772 19.3805 323.907 19.6625 324.388 19.4034C325.691 18.7014 326.507 19.0428 326.831 20.5843C327.502 23.7972 328.017 27.0596 328.552 30.2835C328.759 31.4203 329.12 32.1467 328.349 33.0619C327.485 34.0834 326.283 34.2617 325.117 34.5355C324.539 34.6763 324.427 34.1252 324.367 33.7794C324.166 32.6284 323.577 32.7474 322.822 33.211C322.694 33.29 322.548 33.3452 322.416 33.4203C318.116 35.7133 313.807 33.0541 313.803 27.476ZM322.604 26.3117C322.513 25.0901 322.934 23.697 321.796 23.4488C320.399 23.1439 319.249 24.2437 318.971 26.8934C318.843 28.6673 320.074 29.4631 321.72 28.7818C322.821 28.3208 322.567 27.524 322.606 26.3197L322.604 26.3117Z" fill="black"/>
<path fill-rule="evenodd" clip-rule="evenodd" d="M74.4626 13.9068C74.4898 11.3528 74.7272 11.2936 77.2878 11.0699C98.3202 13.8423 92.1804 37.8697 77.1409 41.1321C76.0847 41.3554 75.5392 41.2649 75.5392 39.9631C75.5393 38.6613 74.3813 21.308 74.4626 13.9068ZM79.1535 15.8316C79.1535 15.8316 80.7666 32.6176 81.0971 32.5964C87.8016 32.1792 85.946 15.1257 79.1535 15.8316Z" fill="black"/>
<path fill-rule="evenodd" clip-rule="evenodd" d="M297.204 9.10982C297.231 6.55584 297.469 6.49657 300.029 6.27294C321.062 9.04532 314.922 33.0727 299.882 36.3351C298.826 36.5584 298.281 36.4679 298.281 35.1661C298.281 33.8643 297.123 16.511 297.204 9.10982ZM301.895 11.0346C301.895 11.0346 303.508 27.8206 303.839 27.7994C310.543 27.3823 308.688 10.3287 301.895 11.0346Z" fill="black"/>
<path fill-rule="evenodd" clip-rule="evenodd" d="M49.6158 27.5485C50.6422 26.1224 51.6789 24.712 52.6911 23.2801C53.5493 22.0582 53.7879 22.053 54.6298 23.2384C56.0343 25.2139 55.5975 24.8623 54.3737 27.087C53.5375 28.3085 53.0379 29.2319 52.3751 30.3073C51.912 31.0654 52.3849 31.5105 52.9655 31.9253C54.9575 33.3199 56.8715 34.8228 58.6988 36.4272C59.343 37.003 59.1832 37.2191 58.7827 37.9959C58.0754 38.9599 57.5579 39.988 56.6908 40.3336C55.8945 40.6095 54.3808 39.1538 53.1742 38.0746C52.129 37.1363 50.1204 35.2379 49.6134 35.4434C49.6134 35.4434 49.5544 37.6411 49.5613 38.1484C49.6052 41.7719 49.6069 41.7578 45.9477 41.6361C45.1449 41.6112 44.7231 41.3977 44.7024 40.5296C44.6031 35.9184 44.7545 20.7854 44.6263 17.7192C44.7042 14.9094 44.3712 15.1854 46.7909 14.9387C49.1659 14.8535 48.7826 15.1245 48.8398 16.9385C48.917 19.7811 49.1665 27.3616 49.2347 28.0121C49.3702 27.8647 49.4974 27.71 49.6158 27.5485Z" fill="black"/>
<path fill-rule="evenodd" clip-rule="evenodd" d="M35.8621 37.2146C36.3748 38.2968 37.305 39.0209 38.2277 37.7173C39.0863 36.5114 39.8157 36.943 40.6958 37.4816C41.7854 38.1542 41.9092 39.0601 41.4078 40.1801C39.7201 43.9633 34.8016 44.6931 32.0069 41.4076C29.0168 37.8936 28.8358 28.9296 34.2977 23.6229C35.673 22.2875 37.9312 22.273 39.6538 23.2809C41.5268 24.3779 42.6062 26.2541 42.3481 27.9606C42.0389 29.9951 40.6553 30.759 39.0081 29.8077C36.6703 28.4539 35.4284 29.1847 35.3122 31.9873C35.1998 34.1259 35.3262 36.0809 35.8621 37.2146Z" fill="black"/>
<path fill-rule="evenodd" clip-rule="evenodd" d="M1.33601 16.3603C1.3044 15.6427 1.34333 14.9237 1.45225 14.2136C1.66535 12.8391 2.33988 12.307 3.72803 12.1267C6.6023 11.7519 9.47417 11.3591 12.3389 10.9123C13.2124 10.7751 13.5938 10.787 13.7639 11.8845C13.9847 12.8265 14.0741 13.3461 14.2224 14.081C14.4605 15.2653 14.1186 15.7842 12.7743 16.134C11.3501 16.5037 9.8796 16.6798 8.42363 16.8776C7.82368 16.9607 7.65032 17.1069 7.69608 17.7417C7.77924 20.1128 7.90305 21.0188 7.9324 22.6609C7.94695 23.3365 7.95118 23.533 8.85522 23.4133C9.09921 23.3799 10.2559 23.2547 10.5086 23.2553C11.5538 23.2649 11.7906 22.8025 11.789 25.057C11.8123 25.8372 11.8745 26.6158 11.9756 27.3898C12.063 28.467 12.0709 28.6454 11.3052 28.8544C10.4955 29.0724 9.4269 29.0954 8.60789 29.1592C7.15216 29.2748 7.25522 29.5895 7.21446 30.6775C7.07896 34.351 7.56079 39.0282 7.55773 42.7049C7.55565 44.3778 7.05043 44.9483 5.34963 45.0471C4.80261 45.0877 4.25265 45.0584 3.71303 44.96C1.5755 44.5247 1.22064 44.067 1.20775 41.8849C1.20096 39.8933 1.495 20.0175 1.33601 16.3603Z" fill="black"/>
<path d="M242.738 37.1011C241.603 37.505 240.047 37.7704 239.578 36.4103C239.989 35.3861 240.662 34.4767 241.534 33.7655C242.407 33.0543 243.451 32.564 244.572 32.3394C248.381 33.5222 244.229 35.8252 242.738 37.1011Z" fill="black"/>
<defs>
<clipPath id="clip0_691_5662">
<rect width="21.4571" height="29.278" fill="white" transform="translate(258.814 7.56177) rotate(-1.23372)"/>
</clipPath>
</defs>
</svg>
