<svg width="452" height="491" viewBox="0 0 452 491" fill="none" xmlns="http://www.w3.org/2000/svg">
<g clip-path="url(#clip0_412_3691)">
<path d="M262.898 343.343L258.181 338.426C257.938 338.539 257.851 338.549 257.824 338.6C255.652 342.275 251.99 343.255 248.195 343.282C244.4 343.308 240.874 343.329 237.682 345.567C232.5 347.113 226.993 347.199 221.765 345.818C215.061 344.093 209.014 340.431 204.38 335.289C203.084 333.905 201.89 332.416 200.694 330.939C200.252 330.509 199.938 329.965 199.787 329.368C199.648 327.724 198.598 327.581 197.336 327.433C194.487 327.076 191.72 326.238 189.151 324.954C177.469 319.517 166.899 311.956 157.98 302.657C151.18 295.504 145.194 287.621 140.129 279.151C135.744 271.819 131.992 264.228 129.751 255.952C127.932 249.637 127.879 242.944 129.599 236.602C130.214 234.45 131.109 232.388 132.262 230.47C134.353 226.928 137.631 225.637 141.669 226.264C144.826 226.839 147.808 228.136 150.381 230.054C154.575 232.943 157.889 236.722 161.15 240.572C166.217 246.612 171.215 252.702 176.296 258.732C180.456 263.664 184.622 268.591 188.901 273.426C193.201 278.272 198.349 282.292 204.092 285.291C205.447 286.002 206.916 286.493 208.656 287.24C208.35 286.295 208.21 285.798 208.038 285.313C202.723 270.457 197.428 255.598 193.897 240.186C193.176 237.073 192.657 233.918 191.981 230.793C191.66 228.931 191.193 227.098 190.585 225.31C189.834 223.399 189.724 221.296 190.27 219.317C191.037 216.429 191.882 213.547 192.829 210.718C194.146 206.424 195.071 202.019 195.593 197.557C195.64 197.221 195.653 196.88 195.634 196.54C195.558 193.737 195.558 193.737 192.797 193.13C180.933 190.64 170.093 184.639 161.685 175.907C155.063 169.259 150.525 160.823 148.626 151.633C146.204 139.422 149.112 128.563 158.066 119.684C160.732 117.039 164.165 115.656 167.611 114.349C168.051 114.188 168.492 113.984 168.943 113.867C169.474 113.773 169.968 113.529 170.367 113.166C170.766 112.803 171.054 112.334 171.197 111.814C171.544 110.922 172.074 110.113 172.754 109.439C173.434 108.766 174.249 108.243 175.145 107.906C178.313 106.439 181.862 106.005 185.29 106.664C185.609 106.762 185.952 106.745 186.26 106.616C186.568 106.487 186.821 106.255 186.975 105.959C189.971 101.593 190.585 96.8095 189.427 91.7424C189.245 91.1608 188.923 90.6323 188.491 90.203C187.156 88.7523 185.8 87.3285 184.372 85.9664C183.979 85.6266 183.473 85.4457 182.954 85.4592C178.348 85.7155 173.743 86.0452 169.135 86.3134C167.783 86.4268 166.424 86.4193 165.073 86.2912C162.968 86.0397 162.156 84.9041 162.243 82.8031C162.487 76.5525 162.729 70.3036 162.969 64.0563C162.99 62.2888 163.116 60.5241 163.346 58.7715C164.761 49.4187 166.972 40.2038 169.954 31.2268C171.324 27.238 173.481 23.5645 176.296 20.424C180.887 15.2712 186.568 13.5535 193.212 14.6899C196.188 15.2612 198.842 16.9276 200.65 19.3602C200.914 19.7255 201.179 20.0909 201.473 20.4976C201.691 20.3739 201.895 20.2266 202.08 20.0583C204.523 16.9447 207.715 16.4927 211.253 17.6195C214.313 18.6105 217.027 20.455 219.075 22.9362C222.237 26.6359 223.885 31.1171 225.536 35.5745C227 39.4608 227.948 43.522 228.357 47.6545C229.005 54.7611 229.831 61.8655 229.241 69.0176C229.063 71.3218 228.694 73.607 228.136 75.8496C227.284 79.1142 225.99 80.0407 222.684 80.3649C221.601 80.4659 220.516 80.5787 219.442 80.7054C216.942 81.1258 214.384 81.0458 211.916 80.4702C211.185 80.274 210.727 80.28 210.283 81.1169C208.543 84.5086 207.405 88.1767 206.921 91.9576C206.34 97.5267 208.15 102.363 211.298 106.956C214.086 105.221 217.204 104.708 220.402 104.567C221.354 104.499 222.309 104.645 223.197 104.994C224.085 105.344 224.883 105.889 225.533 106.589C226.026 107.032 226.592 107.387 227.206 107.637C232.363 110.102 237.474 112.632 241.905 116.327C247.402 121.004 252.1 126.546 255.814 132.736C257.043 134.767 258.183 136.863 259.213 138.996C260.612 141.958 261.339 145.192 261.342 148.467C261.308 148.901 261.371 149.338 261.524 149.746C261.678 150.154 261.92 150.523 262.232 150.828C268.812 157.012 273.617 164.461 277.715 172.442C281.065 178.97 284.559 185.434 287.927 191.958C293.287 202.263 296.906 213.24 299.779 224.462C300.13 225.847 300.277 227.254 300.556 228.67C302.151 236.794 299.907 243.998 295.387 250.686C292.117 255.637 287.928 259.916 283.046 263.289C280.683 264.757 278.241 266.094 275.732 267.293C275.146 267.602 274.524 267.832 273.665 268.212L281.494 275.846C281.866 275.156 282.157 274.672 282.374 274.158C285.662 267.181 290.438 261.008 296.366 256.072C298.408 254.365 300.79 253.113 303.353 252.399C304.403 252.112 305.481 251.941 306.567 251.89C310.487 251.731 312.637 253.8 312.033 257.61C311.43 261.42 312.322 264.756 313.67 268.141C314.295 269.716 314.902 271.294 315.519 272.886C319.095 281.772 317.111 289.597 311.336 296.931C308.801 300.09 305.514 302.197 301.985 304.028C300.11 304.992 298.289 306.058 296.531 307.22C294.714 308.441 294.732 308.596 295.736 310.476C297.207 313.319 298.765 316.11 300.197 318.972C302.69 323.955 305.236 328.921 307.525 333.998C308.541 336.299 309.274 338.714 309.708 341.192C310.665 346.562 308.794 350.827 304.05 353.695C302.663 354.521 301.202 355.232 299.603 356.085C299.813 356.574 300.053 357.05 300.319 357.51C301.895 359.748 302.911 362.331 303.283 365.042C303.891 370.612 306.471 375.249 309.65 379.64C313.553 384.957 317.454 390.287 321.552 395.452C323.951 398.475 326.759 401.192 329.355 404.051C330.747 405.554 332.524 405.875 334.535 405.953C337.79 406.102 341.036 406.414 344.259 406.887C347.072 407.289 348.846 409.114 349.81 411.737C350.303 412.873 350.384 414.146 350.039 415.336C349.694 416.526 348.944 417.558 347.919 418.254C345.177 420.446 341.761 421.62 338.252 421.577C334.32 421.503 330.391 421.038 326.459 420.659C325.727 420.509 325.014 420.278 324.333 419.971L323.978 420.585C324.3 421.277 324.609 421.978 324.943 422.671C325.493 423.838 326.137 424.959 326.602 426.167C327.384 428.249 326.939 429.884 325.395 431.118C323.614 432.533 321.404 432.862 319.719 431.624C318.493 430.674 317.435 429.526 316.588 428.228C312.166 421.541 309.19 414.166 306.457 406.677C303.586 398.837 299.416 391.685 294.935 384.684C292.297 380.563 289.985 376.237 287.462 372.042C286.228 370.004 284.824 368.079 283.562 366.061C282.99 365.141 282.329 365.157 281.342 365.273C270.764 366.628 260.891 370.204 251.19 374.423C245.333 376.972 239.464 379.489 233.529 381.958C227.352 384.486 222.689 388.756 218.647 393.984C215.363 397.978 212.657 402.414 210.608 407.161C209.541 410.039 207.89 412.665 205.76 414.875C203.317 417.306 200.327 417.821 197.087 417.046C196.308 416.892 195.59 416.517 195.018 415.966C194.446 415.416 194.044 414.712 193.86 413.94C192.52 408.374 192.477 403.004 196.593 398.384C198.533 396.202 200.539 394.067 202.343 391.814C203.418 390.334 204.407 388.793 205.306 387.199C205.476 386.887 205.629 386.565 205.765 386.237L203.154 386.404C201.047 386.512 198.939 386.735 196.844 386.686C194.489 386.626 193.195 385.304 193.095 382.96C193.047 381.739 193.167 380.518 193.45 379.329C193.606 378.485 193.99 377.699 194.56 377.057C195.13 376.414 195.865 375.94 196.685 375.684C198.236 375.187 199.816 374.787 201.417 374.485C203.557 374.102 205.73 373.926 207.878 373.569C213.442 372.692 218.691 371.088 223.452 367.882C224.865 366.932 226.364 366.099 227.867 365.273C231.807 363.124 234.937 360.017 237.987 356.8C243.284 351.199 249.509 347.07 257.077 345.215C258.916 344.766 260.782 344.528 262.67 344.16L263.139 343.967L262.898 343.343ZM255.143 168.77C254.681 169.336 254.168 169.875 253.754 170.479C250.039 176.099 245.323 180.988 239.842 184.904C237.739 186.353 235.642 187.651 233.503 188.978C232.008 189.903 231.887 189.939 232.847 191.439C234.37 193.847 235.916 196.258 237.632 198.483C241.488 203.488 245.821 208.136 248.881 213.727C249.725 215.027 250.367 216.447 250.785 217.939C252.164 225.44 254.665 232.69 258.205 239.446C259.134 241.423 260.753 242.993 262.758 243.862C265.813 245.179 265.371 245.048 266.089 242.353C269.363 230.616 269.526 218.229 266.563 206.409C263.387 193.998 259.341 181.765 255.661 169.456C255.527 169.178 255.344 168.926 255.122 168.711L255.356 168.542L255.205 168.42L255.143 168.77ZM232.52 284.282C231.784 285.151 231.25 285.749 230.761 286.365C229.361 288.22 227.534 289.709 225.434 290.705C217.674 294.223 209.863 294.814 202.016 290.913C197.347 288.702 193.039 285.8 189.236 282.304C185.731 278.916 182.372 275.337 179.136 271.68C174.677 266.64 170.371 261.477 166.038 256.335C161.705 251.192 157.557 246.073 153.223 241.016C150.99 238.279 148.282 235.968 145.227 234.196C143.863 233.441 142.41 232.862 140.901 232.474C138.978 231.996 138.11 232.393 137.182 234.116C136.449 235.495 135.859 236.947 135.423 238.448C133.699 244.382 134.187 250.281 135.963 256.13C138.442 263.914 141.973 271.324 146.457 278.153C150.31 284.245 154.629 290.031 159.376 295.457C167.606 304.792 177.565 312.446 188.705 317.995C190.924 319.183 193.257 320.145 195.669 320.865C198.155 321.623 200.787 321.771 203.342 321.297C205.898 320.822 208.301 319.738 210.349 318.137C212.25 316.585 213.814 314.662 214.946 312.486C216.27 309.953 217.987 307.646 220.032 305.651C221.982 303.86 223.955 302.085 225.93 300.329C230.55 296.101 232.352 290.74 232.52 284.282ZM235.57 257.149C235.627 257.591 235.628 257.853 235.69 258.113C237.8 267.696 238.472 277.54 237.684 287.321C237.476 291.134 236.475 294.862 234.744 298.265C234.448 298.704 234.31 299.23 234.35 299.758C234.391 300.285 234.608 300.783 234.968 301.172C239.235 307.066 243.315 313.106 247.814 318.812C251.68 323.715 255.869 328.383 260.203 332.874C266.376 339.28 272.983 345.255 278.699 352.118C283.239 357.544 287.424 363.256 291.229 369.22C295.009 375.194 298.417 381.396 302.446 387.221C302.597 387.522 302.796 387.797 303.035 388.034C303.307 388.236 303.809 388.451 304.044 388.354C305.617 387.478 307.136 386.515 308.803 385.508C306.976 382.985 305.269 380.627 303.556 378.263C301.323 375.157 299.892 371.546 299.393 367.753C298.954 364.579 297.951 361.508 296.432 358.686C294.999 355.982 293.44 353.35 291.913 350.704C287.096 342.175 282.874 333.323 279.276 324.212C275.902 315.895 272.574 307.555 268.09 299.737C264.748 293.888 261.223 288.15 257.872 282.317C254.282 276.059 250.102 270.16 245.387 264.699C245.061 264.266 244.686 263.87 244.271 263.521C241.407 261.423 238.553 259.339 235.57 257.149ZM198.381 230.866C198.54 231.928 198.642 232.779 198.808 233.646C200.856 245.182 204.151 256.394 207.71 267.519C209.763 273.924 212.144 280.217 214.314 286.579C214.345 286.812 214.431 287.034 214.564 287.228C214.697 287.422 214.873 287.582 215.079 287.695C215.284 287.809 215.514 287.872 215.748 287.881C215.983 287.89 216.217 287.844 216.431 287.747C218.078 287.352 219.761 287.079 221.395 286.622C223.423 286.014 225.23 284.826 226.592 283.205C228.154 281.447 229.35 279.396 230.111 277.17C230.872 274.945 231.183 272.591 231.024 270.244C230.765 263.297 229.456 256.469 228.114 249.697C227.92 248.703 227.78 247.784 228.536 247.058C228.889 246.723 229.34 246.511 229.822 246.453C230.305 246.395 230.793 246.495 231.215 246.737C233.144 247.704 235.026 248.779 236.91 249.842C237.495 250.298 238.111 250.712 238.753 251.082C242.104 252.386 245.458 253.709 248.845 254.861C251.061 255.571 253.42 255.709 255.704 255.263C257.094 255.027 258.414 254.48 259.563 253.662C260.712 252.845 261.662 251.778 262.341 250.542C262.216 250.369 262.221 250.26 262.141 250.266C261.582 250.024 261.009 249.818 260.424 249.65C256.894 248.738 254.542 246.49 252.842 243.329C249.873 237.821 247.542 231.993 245.894 225.957C245.724 225.345 245.518 224.727 245.284 223.982C230.748 234.15 215.05 235.094 198.381 230.866ZM222.62 154.953C218.105 155.974 213.827 154.869 209.637 153.363C208.501 152.926 207.44 152.316 206.489 151.555C206.125 151.239 205.883 150.804 205.807 150.327C205.731 149.85 205.824 149.362 206.071 148.947C206.316 148.544 206.682 148.228 207.118 148.047C207.554 147.866 208.035 147.828 208.494 147.939C208.889 148.021 209.252 148.231 209.641 148.348C212.823 149.354 216.132 149.902 219.468 149.976C220.352 149.997 221.228 149.805 222.021 149.413C222.813 149.022 223.5 148.445 224.02 147.73C224.729 146.9 225.264 145.937 225.593 144.896C225.923 143.856 226.041 142.761 225.94 141.674C225.338 135.459 224.73 129.236 224.039 123.086C223.636 119.511 223.267 115.911 222.589 112.377C221.911 108.844 221.971 108.622 217.941 109.281C214.87 109.771 214.918 109.851 215.652 112.882C216.549 116.646 217.456 120.424 217.195 124.374C216.779 130.213 213.736 134.108 208.299 136.133C202.505 138.29 197.088 137.746 192.186 133.762C191.447 133.162 190.706 132.574 189.945 132.001C188.503 130.965 187.335 129.596 186.538 128.01C185.741 126.425 185.339 124.67 185.368 122.895C185.291 120.452 185.081 118.016 184.738 115.596C184.116 110.95 183.561 110.648 179.041 112.082C178.463 112.28 177.897 112.511 177.346 112.774C176.786 112.952 176.316 113.339 176.036 113.856C175.755 114.372 175.686 114.978 175.842 115.544C176.296 117.95 176.888 120.328 177.616 122.666C178.822 125.927 179.467 129.368 179.522 132.844C179.636 136.653 180.288 140.426 181.458 144.052C181.985 145.81 182.982 147.392 184.34 148.627C186.605 150.738 189.214 151.802 192.374 150.869C193.997 150.398 195.65 150.01 197.292 149.578C197.745 149.416 198.24 149.412 198.696 149.566C199.153 149.719 199.544 150.022 199.807 150.425C200.076 150.87 200.174 151.397 200.082 151.909C199.99 152.42 199.715 152.881 199.308 153.204C198.687 153.725 197.98 154.134 197.219 154.411C194.248 155.575 191.274 156.794 187.959 156.294C187.548 156.234 187.12 156.239 186.612 156.218C186.855 156.757 187.002 157.134 187.193 157.5C189.688 162.397 192.188 167.301 193.641 172.659C193.885 173.533 194.516 173.592 195.164 173.732C200.073 174.891 205.148 175.175 210.156 174.571C213.999 174.085 217.757 173.081 221.33 171.587C222.124 171.232 222.887 170.995 222.854 169.758C222.676 164.811 222.647 159.967 222.62 154.953ZM231.079 115.96C231.257 118.122 231.379 119.946 231.579 121.745C231.714 122.099 231.969 122.394 232.299 122.579C233.989 123.723 235.687 124.844 237.392 125.942C239.981 127.623 241.953 130.102 243.009 133.002C247.049 143.443 245.278 153.143 239.08 162.201C237.785 163.945 236.366 165.594 234.835 167.135C230.513 171.788 225.523 175.475 219.35 177.297C210.586 179.961 201.268 180.22 192.371 178.045C186.041 176.611 180.205 173.523 175.458 169.097C172.882 166.686 170.532 164.037 168.195 161.39C166.449 159.578 164.894 157.591 163.555 155.46C160.304 149.723 159.833 143.718 162.834 137.689C164.9 133.534 167.287 129.589 171.063 126.707C171.269 126.594 171.45 126.442 171.596 126.258C171.741 126.075 171.849 125.864 171.912 125.638C171.975 125.413 171.991 125.176 171.961 124.944C171.932 124.712 171.855 124.488 171.737 124.285C171.151 122.924 170.82 121.451 170.315 119.84C168.682 120.487 167.014 121.085 165.431 121.801C164.358 122.21 163.362 122.797 162.484 123.536C159.354 126.379 156.944 129.924 155.453 133.881C153.015 140.379 152.978 147.534 155.351 154.056C156.584 157.435 158.134 160.689 159.982 163.775C165.527 172.884 173.426 179.353 183.142 183.613C194.708 188.688 206.773 189.619 219.119 187.573C224.151 186.693 228.961 184.838 233.28 182.111C237.176 179.722 240.72 176.802 243.81 173.435C248.876 167.907 252.827 161.725 254.816 154.401C255.58 151.844 255.796 149.154 255.45 146.508C255.104 143.861 254.203 141.318 252.806 139.044C250.566 135.327 248.109 131.716 245.508 128.24C241.693 123.105 236.758 118.905 231.079 115.96ZM202.666 32.317C202.071 33.4834 201.622 34.3867 201.144 35.2792C196.948 43.4737 189.803 49.7738 181.148 52.911C180.671 53.0329 180.252 53.319 179.965 53.7189C179.678 54.1188 179.541 54.607 179.579 55.0978C179.197 60.3757 180.136 65.5174 181.444 70.5598C182.209 73.668 183.677 76.5592 185.735 79.0111C187.809 81.4395 189.919 83.831 192.095 86.1538C193.376 87.3886 194.258 88.9799 194.624 90.7214C195.888 98.0238 195.111 104.817 189.469 110.332C189.314 110.483 189.192 110.666 189.112 110.867C189.031 111.068 188.994 111.284 189.002 111.5C189.743 115.511 190.122 119.579 190.134 123.658C190.13 124.341 190.274 125.018 190.558 125.64C190.841 126.262 191.257 126.815 191.776 127.26C193.011 128.327 194.265 129.367 195.537 130.379C196.931 131.534 198.593 132.319 200.369 132.663C202.146 133.007 203.981 132.898 205.705 132.348C210.26 131.151 212.952 127.961 212.906 123.224C212.745 120.52 212.408 117.83 211.897 115.17C211.72 113.953 211.429 112.84 209.93 112.454C209.312 112.166 208.789 111.705 208.424 111.128C207.195 109.591 206.023 108.002 204.843 106.429C203.084 104.073 201.995 101.285 201.691 98.3613C200.991 92.563 201.446 86.9799 204.084 81.6547C204.292 81.1873 204.471 80.7069 204.619 80.2166C203.375 80.2554 202.292 80.3564 201.207 80.3229C199.096 80.2758 197.06 79.5344 195.413 78.2133C194.743 77.7371 194.212 77.0903 193.875 76.34C193.539 75.5896 193.409 74.763 193.5 73.9456C193.621 73.2118 193.453 72.4594 193.031 71.8471C191.734 69.8327 191.043 67.4883 191.04 65.0926C190.958 62.6721 191.489 60.3861 193.776 59.1188C196.063 57.8514 198.244 58.7733 200.229 60.1516C200.956 60.6762 201.601 61.1755 202.314 61.7101C202.885 60.6557 203.309 59.718 203.875 58.8882C204.456 58.0534 205.111 57.273 205.833 56.5564C206.757 55.5902 207.972 54.9542 209.293 54.746C210.613 54.5378 211.965 54.7689 213.142 55.4039C213.795 55.74 214.39 56.1705 215.216 56.6866C215.309 55.4948 215.389 54.4593 215.462 53.3557C215.544 52.8265 215.467 52.2851 215.241 51.7998C215.015 51.3145 214.65 50.9071 214.192 50.6292C212.087 49.1071 210.371 47.1098 209.183 44.7995C207.043 40.7272 204.91 36.6499 202.7 32.2921L202.666 32.317ZM200.292 194.47C199.921 198.006 199.608 201.449 199.183 204.867C198.991 206.418 198.67 207.951 198.225 209.449C197.247 212.699 196.124 215.908 195.135 219.157C194.775 220.327 194.538 221.53 194.426 222.749C194.271 224.479 194.334 224.508 195.992 224.999C202.715 226.986 209.679 228.039 216.689 228.128C223.33 228.215 229.567 226.41 235.7 224.155C239.029 222.952 242.137 221.209 244.899 218.996C246.308 217.85 246.366 217.829 245.281 216.418C243.209 213.716 241.109 211.033 238.961 208.386C234.839 203.332 230.474 198.465 227.515 192.579C227.072 191.691 226.465 191.942 225.828 192.151C220.496 193.791 214.948 194.621 209.369 194.612C206.358 194.691 203.306 194.526 200.327 194.445L200.292 194.47ZM260.217 157.855C259.882 158.231 259.649 158.686 259.54 159.178C259.43 159.669 259.448 160.18 259.591 160.662C261.94 168.419 264.226 176.147 266.571 183.885C268.167 189.15 269.944 194.347 271.427 199.661C275.283 212.766 275.866 226.616 273.127 239.999C272.149 245.225 270.094 250.191 267.094 254.581C264.86 257.97 261.405 260.367 257.449 261.272C257.055 261.39 256.67 261.538 256.299 261.715C256.526 261.867 256.766 261.999 257.016 262.11C264.975 264.207 272.387 263.022 279.156 258.309C283.748 255.123 287.689 251.089 290.767 246.424C293.909 241.679 295.589 236.554 294.621 230.792C294.334 229.046 294.163 227.257 293.682 225.577C291.02 215.1 287.244 204.938 282.419 195.264C279.487 189.517 276.455 183.821 273.437 178.115C270.537 172.659 267.82 167.093 263.937 162.223C262.77 160.757 261.511 159.367 260.217 157.855ZM253.662 267.796C253.674 268.061 253.626 268.211 253.686 268.294C257.901 273.984 261.464 280.094 265.109 286.145C271.027 295.838 276.203 305.965 280.593 316.439C284.598 326.148 288.644 335.901 292.82 345.571C293.808 347.85 295.412 349.862 296.742 351.989C297.199 352.708 297.656 352.787 298.377 352.202C299.649 351.186 301.018 350.29 302.341 349.332C303.411 348.648 304.27 347.682 304.823 346.539C305.376 345.397 305.601 344.123 305.473 342.861C305.337 340.623 304.904 338.414 304.184 336.291C302.978 332.971 301.54 329.739 299.881 326.619C296.466 320.234 292.819 313.964 289.285 307.633C287.261 304.024 285.143 300.461 283.141 296.825C279.744 290.784 276.448 284.68 272.008 279.289C269.563 276.289 267.34 273.118 264.959 270.061C264.596 269.7 264.119 269.477 263.609 269.431C261.663 269.138 259.698 268.963 257.781 268.638C256.388 268.47 255.037 268.114 253.653 267.813L253.662 267.796ZM279.931 360.452C276.86 356.371 274.244 352.076 269.934 349.345C269.314 348.953 268.826 348.424 267.933 348.555C265.92 348.836 263.883 348.955 261.861 349.211C255.595 349.876 249.689 352.468 244.956 356.629C242.175 359.115 239.602 361.83 236.938 364.421C236.412 364.928 236.685 365.392 236.933 365.864C237.874 367.978 238.791 370.099 239.789 372.203C240.64 374.003 240.67 373.971 242.412 373.214C245.609 371.824 248.858 370.332 252.125 368.996C260.871 365.416 269.675 362.004 279.13 360.738C279.398 360.663 279.661 360.57 279.917 360.462L279.931 360.452ZM224.05 341.021C226.359 341.624 228.75 341.848 231.13 341.685C233.239 341.608 235.422 341.445 237.273 340.388C240.21 338.64 243.228 338.367 246.463 338.568C248.296 338.632 250.129 338.437 251.907 337.988C254.337 337.426 254.961 335.052 253.332 333.237C251.463 331.164 249.503 329.169 247.765 327.001C243.669 321.75 239.651 316.439 235.712 311.067C234.285 309.095 233.202 306.874 231.953 304.773C231.694 304.415 231.429 304.049 231.08 303.567C229.95 304.647 228.939 305.632 227.902 306.593C227.371 307.093 227.522 307.52 227.886 308.023C228.56 308.953 229.244 309.898 229.842 310.883C232.724 315.369 234.361 320.541 234.587 325.868C234.754 332.745 231.185 338.104 224.873 340.72C224.619 340.746 224.327 340.895 224.032 341.024L224.05 341.021ZM275.996 276.801L275.741 276.985C276.157 277.472 276.593 277.945 276.968 278.462C278.68 280.826 280.595 283.064 282.104 285.555C285.503 291.279 288.694 297.123 291.98 302.908C292.251 303.328 292.544 303.733 292.858 304.121C294.977 301.62 297.679 300.316 300.381 299.042C305.286 296.723 309.186 292.708 311.363 287.738C312.537 285.337 312.938 282.631 312.511 279.993C312.189 278.12 311.724 276.275 311.12 274.474C310.479 272.543 309.625 270.681 308.826 268.78C308.578 268.291 308.302 267.818 307.998 267.362C307.83 268.261 307.711 268.778 307.639 269.303C307.206 272.464 306.838 275.641 306.351 278.8C306.143 280.552 305.765 282.279 305.221 283.958C303.471 288.797 299.112 291.092 294.131 289.655C291.941 288.968 289.842 288.018 287.879 286.827C284.642 284.815 281.676 282.396 279.054 279.63C278.024 278.716 276.993 277.771 275.977 276.804L275.996 276.801ZM187.834 171.62L188.227 171.263C188.13 170.955 188.026 170.651 187.943 170.333C186.526 165.054 183.793 160.466 181.211 155.769C177.27 148.838 175.025 141.073 174.659 133.108C174.601 132.1 174.522 131.106 174.43 129.891C173.881 130.271 173.361 130.694 172.875 131.153C170.377 133.842 168.321 136.909 166.783 140.24C164.567 145.292 165.243 150.056 168.621 154.388C169.855 156.005 171.184 157.565 172.56 159.059C175.504 162.254 178.331 165.577 181.991 167.991C183.875 169.286 185.868 170.428 187.816 171.623L187.834 171.62ZM307.226 256.194C305.822 256.622 304.583 256.899 303.418 257.365C300.003 258.787 297.419 261.299 295.018 264.004C291.089 268.404 288.514 273.684 285.523 278.697C285.471 278.869 285.461 279.052 285.496 279.228C285.53 279.405 285.608 279.57 285.721 279.71C288.557 282.059 291.48 284.282 295.14 285.215C298.184 285.995 300.358 284.789 301.271 281.753C301.59 280.565 301.809 279.353 301.924 278.128C302.224 275.641 302.52 273.146 302.727 270.632C303.008 267.033 303.859 263.501 305.249 260.169C305.744 258.98 306.398 257.823 307.207 256.197L307.226 256.194ZM230.103 128.152C230.23 129.111 230.386 129.849 230.433 130.582C230.7 134.36 231.045 138.146 231.152 141.935C231.212 145.372 229.983 148.707 227.706 151.282C227.026 152.039 226.641 153.016 226.619 154.033C226.548 158.288 226.477 162.543 226.44 166.846C226.484 167.276 226.566 167.702 226.688 168.117C227.613 167.29 228.448 166.6 229.246 165.844C232.456 162.805 235.378 159.512 237.282 155.465C240.138 149.383 240.777 143.183 238.571 136.668C237.128 132.47 233.86 130.307 230.099 128.176L230.103 128.152ZM204.818 327.259C207.181 328.984 209.162 330.618 211.337 331.996C213.593 333.368 215.926 334.612 218.322 335.722C220.024 336.494 221.963 336.563 223.716 335.915C228.8 334.23 230.417 329.802 230.514 325.843C230.537 325.579 230.463 325.315 230.308 325.1C230.152 324.884 229.924 324.732 229.665 324.671C228.221 324.087 226.837 323.365 225.53 322.517C223.302 320.978 221.226 319.329 219.045 317.682C214.487 323.62 211.566 325.347 204.814 327.283L204.818 327.259ZM211.827 63.47C212.41 63.1216 212.961 62.7223 213.474 62.277C213.862 61.9274 214.097 61.4401 214.13 60.9193C213.812 58.7536 210.634 57.4405 208.807 58.6475C207.092 59.8982 205.847 61.6883 205.27 63.7311C204.304 66.4166 202.949 66.7667 200.666 64.963C199.685 64.1299 198.649 63.3636 197.565 62.6689C195.788 61.6653 194.869 62.1521 194.648 64.1402C194.515 66.1894 194.968 68.2342 195.954 70.0355C196.291 70.7477 196.811 70.581 197.32 70.37C202.271 68.3403 207.331 66.5049 211.823 63.4938L211.827 63.47ZM212.917 66.7893C207.72 69.6694 202.236 71.6442 197.005 74.5492C197.576 75.2763 198.312 75.8575 199.152 76.245C199.991 76.6326 200.911 76.8155 201.835 76.7787C204.714 76.7297 207.496 75.7309 209.749 73.9374C211.936 72.27 213.405 70.1342 212.913 66.8131L212.917 66.7893ZM229.238 319.99C228.16 316.063 226.2 313.153 223.928 310.175L222.109 312.364C221.911 312.594 221.813 312.894 221.835 313.196C221.857 313.499 221.999 313.781 222.228 313.98C224.289 316.284 226.646 318.305 229.238 319.99Z" fill="#303030"/>
<path d="M232.521 284.282C232.338 290.719 230.569 296.098 225.916 300.308C223.95 302.078 221.978 303.853 220.018 305.63C217.972 307.625 216.256 309.932 214.932 312.465C213.799 314.642 212.235 316.564 210.334 318.116C208.287 319.717 205.883 320.801 203.328 321.276C200.773 321.751 198.14 321.602 195.654 320.844C193.242 320.124 190.909 319.162 188.69 317.974C177.525 312.408 167.546 304.728 159.306 295.36C154.56 289.934 150.241 284.149 146.388 278.056C141.903 271.227 138.373 263.818 135.894 256.033C134.118 250.184 133.63 244.286 135.353 238.351C135.79 236.85 136.379 235.399 137.113 234.019C138.041 232.296 138.904 231.892 140.831 232.377C142.341 232.766 143.794 233.344 145.157 234.099C148.212 235.872 150.921 238.182 153.153 240.919C157.481 245.981 161.676 251.151 165.969 256.238C170.262 261.325 174.608 266.543 179.067 271.584C182.303 275.24 185.634 278.839 189.166 282.208C192.969 285.703 197.278 288.606 201.946 290.817C209.794 294.718 217.594 294.113 225.365 290.609C227.464 289.612 229.292 288.123 230.691 286.268C231.25 285.748 231.784 285.151 232.521 284.282ZM145.154 258.228C144.473 257.156 143.529 256.767 142.566 257.265C141.602 257.763 141.312 258.74 141.82 260.095C142.044 260.663 142.302 261.217 142.591 261.755C147.751 271.552 153.929 280.78 161.022 289.284C161.66 290.076 162.361 290.816 163.118 291.496C163.265 291.664 163.444 291.799 163.645 291.894C163.846 291.989 164.064 292.042 164.286 292.05C164.508 292.058 164.729 292.02 164.936 291.938C165.143 291.857 165.331 291.734 165.488 291.577C166.073 290.933 165.965 290.087 165.236 289.196C163.824 287.465 162.381 285.747 161.018 283.981C156.655 278.334 152.464 272.574 149.193 266.2C147.913 263.575 146.579 260.979 145.154 258.228ZM190.939 291.274C190.678 291.423 190.457 291.634 190.295 291.889C190.133 292.143 190.036 292.433 190.011 292.733C189.986 293.033 190.035 293.335 190.153 293.612C190.271 293.889 190.455 294.134 190.689 294.324C191.979 295.616 193.412 296.757 194.96 297.725C199.911 300.645 205.387 302.259 210.898 303.774C211.403 303.976 211.959 304.012 212.485 303.876C212.784 303.769 213.058 303.602 213.289 303.384C213.52 303.166 213.704 302.902 213.827 302.61C213.924 302.119 213.409 301.452 213.047 300.937C212.887 300.716 212.441 300.681 212.113 300.562C209.297 299.575 206.501 298.615 203.664 297.601C200 296.346 196.591 294.444 193.599 291.986C193.258 291.654 192.845 291.406 192.392 291.262C191.909 291.203 191.421 291.207 190.939 291.274Z" fill="#F8FE83"/>
<path d="M235.571 257.149C238.554 259.339 241.408 261.423 244.215 263.499C244.629 263.849 245.004 264.244 245.33 264.677C250.045 270.138 254.225 276.038 257.815 282.296C261.166 288.128 264.691 293.867 268.033 299.716C272.507 307.52 275.835 315.86 279.219 324.19C282.817 333.301 287.039 342.153 291.856 350.683C293.383 353.328 294.942 355.961 296.375 358.664C297.894 361.487 298.897 364.557 299.336 367.732C299.835 371.525 301.266 375.135 303.499 378.241C305.212 380.605 306.919 382.963 308.746 385.486C307.079 386.493 305.56 387.457 303.987 388.333C303.787 388.477 303.265 388.235 302.978 388.013C302.739 387.775 302.54 387.5 302.389 387.199C298.36 381.374 294.952 375.173 291.172 369.199C287.367 363.235 283.182 357.523 278.642 352.097C272.926 345.234 266.319 339.258 260.146 332.852C255.833 328.347 251.623 323.693 247.757 318.79C243.258 313.085 239.227 307.009 234.911 301.15C234.552 300.762 234.334 300.264 234.294 299.736C234.253 299.209 234.392 298.683 234.687 298.244C236.418 294.84 237.419 291.112 237.627 287.299C238.415 277.518 237.743 267.674 235.633 258.091C235.629 257.853 235.628 257.591 235.571 257.149Z" fill="#F1DBDF"/>
<path d="M198.381 230.866C215.023 235.114 230.749 234.15 245.34 223.942C245.574 224.686 245.78 225.304 245.95 225.917C247.598 231.953 249.929 237.781 252.897 243.289C254.598 246.45 256.95 248.698 260.479 249.61C261.064 249.778 261.638 249.984 262.197 250.226C262.197 250.226 262.272 250.329 262.397 250.502C261.717 251.738 260.768 252.805 259.619 253.622C258.469 254.44 257.15 254.987 255.76 255.223C253.476 255.669 251.116 255.531 248.9 254.821C245.493 253.684 242.139 252.361 238.809 251.042C238.166 250.672 237.55 250.258 236.966 249.803C235.082 248.739 233.2 247.664 231.27 246.697C230.849 246.455 230.361 246.355 229.878 246.413C229.395 246.471 228.944 246.683 228.592 247.018C227.802 247.769 227.976 248.663 228.17 249.657C229.484 256.449 230.821 263.257 231.08 270.204C231.238 272.551 230.928 274.905 230.167 277.13C229.406 279.356 228.21 281.407 226.648 283.165C225.285 284.786 223.479 285.974 221.451 286.582C219.817 287.039 218.134 287.312 216.486 287.707C216.272 287.804 216.039 287.85 215.804 287.841C215.569 287.832 215.34 287.769 215.134 287.655C214.929 287.542 214.752 287.382 214.619 287.188C214.487 286.994 214.401 286.772 214.369 286.539C212.2 280.177 209.818 273.884 207.765 267.479C204.227 256.381 200.909 245.124 198.863 233.606C198.666 232.783 198.541 231.928 198.381 230.866ZM212.716 259.659C212.635 259.939 212.327 260.456 212.388 260.948C212.673 263.511 213.451 265.995 214.679 268.262C215.229 269.283 216.118 269.553 216.87 269.125C217.233 268.927 217.505 268.595 217.625 268.199C217.745 267.803 217.705 267.376 217.513 267.009C217.033 265.665 216.5 264.348 216.037 263.013C215.731 262.11 215.571 261.165 215.237 260.282C215.164 260.028 215.026 259.797 214.835 259.613C214.645 259.429 214.41 259.298 214.154 259.233C213.897 259.168 213.628 259.171 213.373 259.242C213.118 259.313 212.887 259.45 212.701 259.639L212.716 259.659Z" fill="#F8FE83"/>
<path d="M222.621 154.953C222.674 159.99 222.677 164.811 222.814 169.63C222.848 170.866 222.064 171.119 221.29 171.458C217.718 172.953 213.959 173.957 210.117 174.442C205.109 175.047 200.033 174.763 195.124 173.603C194.476 173.463 193.85 173.412 193.601 172.531C192.114 167.197 189.635 162.278 187.153 157.371C186.962 157.005 186.815 156.628 186.572 156.09C187.091 156.124 187.518 156.119 187.919 156.165C191.234 156.665 194.208 155.447 197.179 154.283C197.941 154.005 198.648 153.596 199.268 153.075C199.675 152.752 199.95 152.292 200.042 151.78C200.134 151.269 200.037 150.741 199.768 150.297C199.504 149.894 199.113 149.591 198.657 149.437C198.2 149.283 197.706 149.288 197.252 149.449C195.61 149.881 193.958 150.269 192.334 150.741C189.174 151.673 186.565 150.61 184.301 148.498C182.942 147.264 181.945 145.682 181.419 143.923C180.249 140.297 179.597 136.524 179.482 132.716C179.427 129.24 178.782 125.798 177.576 122.537C176.848 120.2 176.256 117.822 175.802 115.415C175.646 114.849 175.715 114.244 175.996 113.727C176.276 113.211 176.746 112.823 177.306 112.645C177.857 112.382 178.424 112.151 179.001 111.954C183.528 110.514 184.083 110.817 184.698 115.468C185.041 117.887 185.251 120.324 185.328 122.766C185.3 124.541 185.701 126.296 186.498 127.882C187.295 129.468 188.464 130.837 189.905 131.873C190.666 132.446 191.407 133.034 192.146 133.633C197.049 137.617 202.472 138.156 208.259 136.004C213.696 133.98 216.739 130.084 217.156 124.245C217.452 120.301 216.524 116.538 215.612 112.754C214.878 109.723 214.83 109.642 217.901 109.152C221.974 108.494 221.836 108.782 222.549 112.249C223.262 115.715 223.623 119.362 223.999 122.957C224.681 129.167 225.288 135.39 225.9 141.545C226.001 142.632 225.883 143.728 225.554 144.768C225.224 145.808 224.689 146.771 223.98 147.601C223.46 148.316 222.774 148.894 221.981 149.285C221.188 149.676 220.312 149.869 219.428 149.847C216.092 149.773 212.783 149.225 209.602 148.22C209.212 148.102 208.849 147.892 208.454 147.811C207.996 147.7 207.514 147.737 207.078 147.919C206.643 148.1 206.276 148.415 206.032 148.819C205.785 149.233 205.691 149.722 205.767 150.198C205.844 150.675 206.085 151.11 206.449 151.427C207.4 152.187 208.461 152.797 209.597 153.235C213.828 154.869 218.099 155.979 222.621 154.953Z" fill="#F8FE83"/>
<path d="M231.079 115.96C236.759 118.922 241.689 123.139 245.494 128.292C248.095 131.768 250.552 135.379 252.792 139.096C254.189 141.37 255.09 143.914 255.436 146.56C255.782 149.206 255.566 151.896 254.802 154.453C252.813 161.778 248.834 167.979 243.796 173.487C240.706 176.854 237.162 179.774 233.266 182.163C228.947 184.89 224.137 186.745 219.105 187.625C206.754 189.665 194.694 188.741 183.128 183.666C173.413 179.405 165.485 172.956 159.968 163.827C158.116 160.73 156.563 157.463 155.331 154.071C152.958 147.549 152.994 140.393 155.433 133.896C156.924 129.939 159.333 126.393 162.463 123.551C163.342 122.812 164.338 122.225 165.41 121.816C166.994 121.1 168.667 120.509 170.295 119.855C170.799 121.465 171.131 122.938 171.717 124.3C171.835 124.502 171.911 124.726 171.941 124.959C171.971 125.191 171.954 125.427 171.891 125.653C171.829 125.879 171.721 126.09 171.576 126.273C171.43 126.457 171.249 126.609 171.043 126.721C167.267 129.603 164.88 133.548 162.813 137.703C159.82 143.727 160.284 149.738 163.535 155.475C164.874 157.606 166.428 159.593 168.175 161.404C170.512 164.052 172.861 166.701 175.437 169.112C180.185 173.538 186.021 176.625 192.351 178.06C201.248 180.234 210.566 179.976 219.329 177.312C225.487 175.469 230.478 171.782 234.815 167.15C236.346 165.609 237.765 163.96 239.06 162.216C245.257 153.157 247.029 143.458 242.989 133.017C241.933 130.116 239.961 127.638 237.372 125.957C235.662 124.862 233.964 123.741 232.279 122.594C231.948 122.409 231.694 122.113 231.559 121.76C231.375 119.938 231.237 118.137 231.079 115.96Z" fill="#F1DBDF"/>
<path d="M202.701 32.2919C204.945 36.6247 207.068 40.6883 209.181 44.8112C210.369 47.1215 212.086 49.1189 214.191 50.641C214.649 50.9188 215.013 51.3262 215.24 51.8115C215.466 52.2968 215.543 52.8383 215.461 53.3674C215.358 54.4297 215.298 55.4927 215.214 56.6983C214.389 56.1823 213.794 55.7517 213.14 55.4156C211.964 54.7806 210.612 54.5495 209.291 54.7577C207.971 54.9659 206.755 55.602 205.831 56.5681C205.11 57.2847 204.454 58.0651 203.874 58.8999C203.308 59.7297 202.884 60.6674 202.313 61.7219C201.6 61.1873 200.914 60.6327 200.228 60.1632C198.242 58.785 196.119 57.8845 193.774 59.1305C191.43 60.3765 190.957 62.6838 191.039 65.1043C191.042 67.5 191.733 69.8444 193.03 71.8589C193.452 72.4711 193.62 73.2236 193.498 73.9574C193.408 74.7747 193.538 75.6013 193.874 76.3517C194.21 77.1021 194.741 77.7488 195.412 78.225C197.058 79.5461 199.095 80.2875 201.205 80.3345C202.284 80.373 203.374 80.267 204.617 80.2283C204.47 80.7186 204.291 81.1989 204.082 81.6664C201.424 86.964 201.01 92.6022 201.689 98.3729C201.994 101.297 203.083 104.085 204.841 106.441C205.994 108.033 207.194 109.603 208.422 111.14C208.787 111.717 209.31 112.177 209.929 112.466C211.427 112.852 211.719 113.965 211.896 115.182C212.406 117.842 212.743 120.532 212.905 123.236C212.951 127.973 210.22 131.138 205.703 132.359C203.98 132.91 202.145 133.018 200.368 132.674C198.591 132.33 196.929 131.545 195.536 130.391C194.268 129.375 193.014 128.336 191.775 127.272C191.256 126.827 190.84 126.274 190.556 125.652C190.273 125.029 190.128 124.353 190.133 123.669C190.121 119.591 189.742 115.522 189 111.512C188.992 111.295 189.03 111.08 189.111 110.878C189.191 110.677 189.313 110.495 189.468 110.344C195.11 104.829 195.886 98.0355 194.623 90.7331C194.256 88.9916 193.375 87.4004 192.093 86.1656C189.917 83.8427 187.807 81.4512 185.734 79.0228C183.676 76.571 182.208 73.6797 181.442 70.5715C180.109 65.4947 179.15 60.3679 179.577 55.1095C179.54 54.6187 179.677 54.1306 179.964 53.7307C180.251 53.3307 180.669 53.0447 181.146 52.9227C189.801 49.7855 196.946 43.4854 201.142 35.291C201.622 34.3865 202.072 33.4832 202.701 32.2919Z" fill="#F1DBDF"/>
<path d="M200.327 194.445C203.341 194.5 206.393 194.666 209.445 194.599C215.023 194.608 220.572 193.778 225.904 192.138C226.541 191.929 227.148 191.679 227.591 192.566C230.529 198.467 234.894 203.334 239.036 208.373C241.185 211.021 243.285 213.703 245.357 216.406C246.442 217.816 246.39 217.833 244.975 218.983C242.213 221.196 239.105 222.939 235.776 224.142C229.643 226.397 223.406 228.203 216.764 228.115C209.755 228.026 202.791 226.973 196.068 224.986C194.409 224.495 194.347 224.467 194.502 222.736C194.613 221.518 194.851 220.314 195.211 219.144C196.2 215.896 197.323 212.687 198.3 209.436C198.746 207.938 199.067 206.405 199.259 204.854C199.609 201.448 199.922 198.006 200.327 194.445Z" fill="#F8FE83"/>
<path d="M260.218 157.855C261.512 159.367 262.77 160.756 263.937 162.223C267.821 167.092 270.552 172.649 273.438 178.115C276.456 183.821 279.477 189.503 282.42 195.264C287.244 204.938 291.02 215.1 293.683 225.577C294.129 227.282 294.335 229.046 294.622 230.792C295.624 236.529 293.91 241.679 290.768 246.424C287.689 251.088 283.748 255.123 279.157 258.309C272.374 263.032 264.976 264.207 257.016 262.11C256.766 261.999 256.527 261.867 256.299 261.715C256.671 261.538 257.055 261.39 257.449 261.271C261.406 260.366 264.861 257.97 267.095 254.581C270.095 250.191 272.149 245.225 273.128 239.999C275.867 226.616 275.283 212.766 271.428 199.661C269.917 194.366 268.167 189.15 266.572 183.885C264.216 176.133 261.925 168.398 259.592 160.662C259.448 160.18 259.431 159.669 259.54 159.177C259.65 158.686 259.883 158.231 260.218 157.855ZM279.995 202.378C279.455 201.488 278.824 201.125 278.002 201.352C277.631 201.441 277.308 201.666 277.097 201.982C276.886 202.299 276.802 202.684 276.863 203.06C276.918 203.599 277.023 204.131 277.175 204.652C277.766 207.166 278.458 209.659 278.948 212.194C280.351 219.427 281.223 226.698 280.074 234.065C279.991 234.669 280.006 235.283 280.119 235.882C280.18 236.292 280.374 236.67 280.672 236.958C280.97 237.246 281.354 237.427 281.766 237.475C282.17 237.572 282.594 237.531 282.972 237.359C283.35 237.186 283.659 236.891 283.85 236.522C284.223 235.803 284.458 235.02 284.543 234.213C284.716 231.913 284.879 229.599 284.851 227.296C284.777 219.112 282.637 211.309 280.408 203.529C280.258 203.06 280.078 202.623 279.985 202.365L279.995 202.378Z" fill="#F8FE83"/>
<path d="M253.653 267.813C255.043 268.121 256.394 268.477 257.772 268.698C259.723 268.998 261.688 269.172 263.6 269.49C264.11 269.536 264.587 269.759 264.949 270.12C267.331 273.177 269.554 276.349 271.999 279.348C276.404 284.765 279.734 290.844 283.132 296.885C285.161 300.501 287.279 304.063 289.276 307.692C292.81 314.023 296.443 320.303 299.872 326.679C301.531 329.798 302.969 333.03 304.175 336.351C304.895 338.473 305.328 340.683 305.464 342.92C305.592 344.183 305.367 345.456 304.814 346.599C304.261 347.741 303.402 348.708 302.332 349.391C301.009 350.349 299.62 351.218 298.369 352.261C297.647 352.847 297.175 352.747 296.733 352.048C295.403 349.922 293.779 347.882 292.811 345.631C288.635 335.961 284.604 326.228 280.584 316.498C276.194 306.024 271.018 295.897 265.1 286.204C261.455 280.154 257.892 274.044 253.677 268.353C253.613 268.221 253.647 268.08 253.653 267.813Z" fill="#F1DBDF"/>
<path d="M279.918 360.462C279.643 360.576 279.361 360.671 279.074 360.747C269.62 362.013 260.815 365.425 252.069 369.005C248.813 370.313 245.587 371.808 242.356 373.223C240.614 373.98 240.584 374.012 239.733 372.212C238.75 370.128 237.834 368.007 236.877 365.873C236.657 365.381 236.384 364.917 236.882 364.43C239.567 361.824 242.14 359.109 244.9 356.638C249.633 352.477 255.539 349.885 261.806 349.22C263.827 348.964 265.864 348.845 267.877 348.564C268.77 348.433 269.23 348.982 269.878 349.354C274.231 352.086 276.827 356.353 279.918 360.462Z" fill="#F1DBDF"/>
<path d="M224.032 341.024C224.327 340.894 224.619 340.746 224.919 340.623C231.231 338.007 234.801 332.648 234.634 325.771C234.408 320.444 232.77 315.273 229.889 310.787C229.29 309.801 228.607 308.857 227.933 307.926C227.568 307.423 227.39 307.017 227.948 306.497C228.986 305.535 229.997 304.551 231.126 303.47C231.476 303.953 231.74 304.318 232 304.677C233.248 306.778 234.324 309.004 235.759 310.97C239.69 316.341 243.707 321.652 247.812 326.905C249.522 329.092 251.482 331.088 253.378 333.14C255.007 334.955 254.384 337.33 251.953 337.892C250.175 338.34 248.342 338.535 246.509 338.471C243.233 338.3 240.188 338.593 237.32 340.292C235.494 341.383 233.31 341.546 231.176 341.588C228.78 341.791 226.367 341.601 224.032 341.024Z" fill="#F8FE83"/>
<path d="M275.978 276.804C276.993 277.771 278.025 278.716 279.017 279.71C281.64 282.475 284.606 284.894 287.843 286.906C289.805 288.097 291.904 289.047 294.094 289.735C299.075 291.172 303.407 288.897 305.184 284.037C305.728 282.359 306.107 280.631 306.314 278.879C306.801 275.721 307.17 272.543 307.602 269.382C307.674 268.858 307.793 268.34 307.962 267.441C308.265 267.897 308.542 268.371 308.789 268.859C309.573 270.74 310.441 272.591 311.084 274.553C311.687 276.355 312.152 278.2 312.474 280.072C312.902 282.71 312.501 285.416 311.326 287.817C309.15 292.787 305.249 296.802 300.345 299.121C297.642 300.395 294.941 301.7 292.822 304.201C292.508 303.812 292.215 303.407 291.943 302.987C288.657 297.202 285.466 291.359 282.067 285.634C280.579 283.129 278.643 280.905 276.931 278.541C276.557 278.024 276.12 277.552 275.705 277.065L275.978 276.804Z" fill="#F8FE83"/>
<path d="M307.207 256.197C306.404 257.83 305.744 258.98 305.251 260.199C303.861 263.531 303.009 267.063 302.729 270.662C302.542 273.162 302.233 275.666 301.926 278.158C301.81 279.383 301.592 280.596 301.272 281.784C300.332 284.839 298.186 286.025 295.142 285.246C291.482 284.313 288.559 282.09 285.723 279.74C285.609 279.601 285.532 279.435 285.497 279.259C285.463 279.082 285.473 278.9 285.525 278.728C288.515 273.715 291.071 268.407 295.019 264.035C297.421 261.329 299.98 258.783 303.42 257.395C304.565 256.902 305.804 256.625 307.207 256.197Z" fill="#F8FE83"/>
<path d="M204.814 327.283C211.566 325.347 214.488 323.62 219.006 317.7C221.152 319.299 223.273 321.01 225.492 322.535C226.798 323.383 228.183 324.104 229.626 324.689C229.885 324.75 230.113 324.902 230.269 325.118C230.424 325.333 230.498 325.597 230.475 325.861C230.378 329.82 228.754 334.253 223.677 335.933C221.924 336.581 219.986 336.512 218.283 335.74C215.887 334.63 213.554 333.386 211.298 332.014C209.159 330.642 207.177 329.008 204.814 327.283Z" fill="#F8FE83"/>
<path d="M211.823 63.4936C207.331 66.5047 202.257 68.3195 197.317 70.3936C196.808 70.6046 196.288 70.7712 195.951 70.0591C194.965 68.2577 194.512 66.213 194.645 64.1638C194.866 62.1757 195.819 61.6639 197.562 62.6925C198.646 63.3872 199.682 64.1535 200.663 64.9866C202.926 66.7627 204.28 66.4126 205.266 63.7547C205.843 61.7119 207.089 59.9218 208.804 58.6711C210.631 57.4641 213.809 58.7772 214.127 60.9429C214.094 61.4637 213.858 61.951 213.471 62.3006C212.958 62.7459 212.407 63.1451 211.823 63.4936Z" fill="#E31A3E"/>
<path d="M212.913 66.8129C213.406 70.1341 211.937 72.2698 209.746 73.961C207.493 75.7545 204.711 76.7534 201.832 76.8023C200.908 76.8391 199.988 76.6562 199.148 76.2687C198.309 75.8811 197.573 75.2999 197.002 74.5729C202.233 71.6678 207.717 69.693 212.913 66.8129Z" fill="#E31A3E"/>
<path d="M255.143 168.769L255.183 168.447L255.334 168.568L255.1 168.738L255.143 168.769Z" fill="white"/>
<path d="M145.154 258.228C146.565 260.989 147.918 263.582 149.228 266.175C152.464 272.574 156.655 278.334 161.052 283.956C162.415 285.722 163.859 287.44 165.27 289.171C165.999 290.062 166.094 290.918 165.523 291.552C165.365 291.709 165.177 291.832 164.971 291.913C164.764 291.995 164.542 292.033 164.32 292.025C164.098 292.018 163.88 291.965 163.679 291.869C163.478 291.774 163.299 291.639 163.153 291.471C162.396 290.791 161.695 290.051 161.057 289.259C153.964 280.755 147.786 271.527 142.625 261.73C142.336 261.192 142.079 260.638 141.855 260.07C141.346 258.715 141.618 257.741 142.6 257.24C143.582 256.739 144.473 257.156 145.154 258.228Z" fill="#303030"/>
<path d="M190.939 291.274C191.419 291.214 191.904 291.215 192.383 291.279C192.836 291.423 193.249 291.671 193.59 292.003C196.582 294.461 199.992 296.363 203.656 297.618C206.492 298.632 209.288 299.592 212.104 300.579C212.423 300.684 212.868 300.719 213.038 300.953C213.407 301.464 213.901 302.146 213.818 302.626C213.695 302.919 213.512 303.183 213.281 303.401C213.049 303.619 212.775 303.786 212.476 303.893C211.95 304.028 211.394 303.993 210.889 303.791C205.399 302.26 199.922 300.647 194.951 297.742C193.403 296.774 191.97 295.633 190.68 294.341C190.443 294.15 190.257 293.904 190.137 293.625C190.018 293.346 189.968 293.041 189.994 292.738C190.019 292.435 190.119 292.143 190.284 291.888C190.449 291.633 190.674 291.422 190.939 291.274Z" fill="#303030"/>
<path d="M212.701 259.639C212.883 259.45 213.111 259.313 213.363 259.239C213.614 259.165 213.88 259.158 214.136 259.218C214.391 259.278 214.626 259.403 214.818 259.58C215.011 259.758 215.153 259.983 215.233 260.233C215.567 261.115 215.727 262.061 216.033 262.963C216.496 264.299 217.029 265.615 217.509 266.96C217.701 267.326 217.741 267.753 217.621 268.149C217.5 268.545 217.229 268.878 216.865 269.075C216.121 269.499 215.215 269.22 214.675 268.213C213.447 265.945 212.669 263.461 212.384 260.898C212.327 260.456 212.635 259.939 212.701 259.639Z" fill="#303030"/>
<path d="M279.985 202.365C280.078 202.623 280.258 203.06 280.391 203.521C282.62 211.301 284.76 219.103 284.834 227.288C284.862 229.59 284.699 231.904 284.526 234.205C284.441 235.011 284.206 235.794 283.833 236.513C283.643 236.883 283.333 237.177 282.956 237.35C282.578 237.522 282.153 237.563 281.749 237.466C281.337 237.419 280.953 237.237 280.655 236.949C280.357 236.661 280.163 236.283 280.102 235.873C279.989 235.274 279.974 234.66 280.058 234.056C281.213 226.684 280.341 219.413 278.932 212.185C278.441 209.651 277.749 207.157 277.158 204.643C277.006 204.123 276.902 203.59 276.846 203.051C276.785 202.675 276.869 202.29 277.08 201.973C277.291 201.657 277.614 201.432 277.985 201.344C278.824 201.124 279.445 201.474 279.985 202.365Z" fill="#303030"/>
</g>
<defs>
<clipPath id="clip0_412_3691">
<rect width="249.999" height="423.348" fill="white" transform="translate(0.535278 147.158) rotate(-35.9085)"/>
</clipPath>
</defs>
</svg>
