<svg width="339" height="475" viewBox="0 0 339 475" fill="none" xmlns="http://www.w3.org/2000/svg">
<g clip-path="url(#clip0_413_3953)">
<path d="M201.314 291.736C215.128 286.533 227.879 278.848 238.939 269.059C242.621 272.31 245.578 275.84 246.978 280.482C247.891 283.524 248.844 286.547 249.757 289.589C249.943 290.187 250.066 290.804 250.124 291.428C250.392 295.136 252.377 297.681 255.989 298.546C258.301 299.1 260.649 299.485 263.016 299.699C266.484 300.08 269.969 300.283 273.457 300.306C290.508 300.18 307.562 299.968 324.619 299.67C327.387 299.536 330.139 299.173 332.847 298.586C335.566 298.089 338.395 294.937 338.881 292.154C339.152 290.654 338.939 289.107 338.271 287.737C337.603 286.367 336.517 285.247 335.169 284.539C332.688 283.093 329.881 282.302 327.011 282.242C323.448 282.113 319.875 282.123 316.302 282.083C307.877 281.925 299.579 279.994 291.947 276.416C285.535 273.539 279.98 269.041 275.829 263.363C272.415 258.69 269.249 253.839 265.984 249.047C264.693 247.148 263.443 245.229 262.063 243.162C262.046 243.122 262.037 243.08 262.037 243.037C262.037 242.994 262.046 242.952 262.063 242.913C263.512 240.01 262.579 237.664 260.624 235.318C255.533 229.223 250.501 223.08 245.588 216.846C236.844 205.751 228.567 194.269 219.099 183.751C210.703 174.425 202.21 165.19 193.622 156.043C190.6 152.892 187.342 149.977 183.876 147.324C176.29 141.383 167.383 137.365 157.913 135.613C155.749 135.206 153.516 135.176 151.035 134.957C151.341 134.491 151.689 134.055 152.077 133.655C156.853 129.303 160.585 123.927 162.994 117.927C165.485 111.833 168.056 105.769 170.349 99.6048C171.698 95.9761 172.482 92.1386 173.683 88.4404C174.775 85.0503 176.085 81.7298 177.296 78.3795C177.451 77.9342 177.706 77.5305 178.042 77.1996C178.377 76.8686 178.784 76.6193 179.231 76.4707C182.236 75.2954 184.945 73.4695 187.163 71.1236C189.382 68.7776 191.055 65.9696 192.064 62.9004C192.818 60.8226 193.503 58.715 194.218 56.6272L199.736 55.126C200.373 55.6918 201.126 56.1099 201.943 56.3505C202.759 56.5911 203.619 56.6482 204.46 56.5179C206.971 56.1898 209.522 55.9015 211.655 54.3605C212.41 53.8335 213.021 53.127 213.435 52.3044C213.849 51.4818 214.053 50.5691 214.028 49.6482C213.941 48.8683 214.158 48.085 214.633 47.4611C216.717 44.916 216.558 42.202 215 39.5078C214.365 38.4142 213.601 37.3902 212.896 36.3364C215.496 32.1808 215.109 29.1586 211.457 25.8182C210.513 24.9685 209.482 24.222 208.38 23.5913C207.345 23.0463 206.278 22.5649 205.184 22.1497C205.184 17.9743 205.184 13.8485 205.184 9.71279C205.115 5.32854 203.587 3.21098 199.369 1.7595C194.893 0.287141 190.17 -0.28057 185.474 0.0893034C181.683 0.357727 177.911 0.854822 174.13 1.22266C172.927 1.2862 171.78 1.74546 170.865 2.5292C169.949 3.31293 169.318 4.3773 169.068 5.55719C168.663 7.01066 168.39 8.49811 168.254 10.0011C167.748 14.9719 167.093 19.9427 166.954 24.9135C166.855 28.403 167.173 31.8726 165.217 34.9843C163.978 40.5899 161.427 45.8202 157.774 50.2447C156.603 51.8433 155.716 53.6326 155.154 55.5336C153.969 59.3234 153.268 63.2486 153.07 67.215C152.663 74.5221 152.008 81.7894 149.904 88.848C148.44 93.9005 146.551 98.8194 144.256 103.552C141.925 108.269 138.604 112.427 134.52 115.74C129.389 119.965 123.782 123.405 117.261 124.936C110.433 126.537 103.614 126.676 96.9847 123.783C92.8861 121.872 88.5448 120.534 84.0825 119.806C81.8036 119.487 79.5059 119.321 77.2047 119.309C73.7906 119.309 72.0338 119.915 68.9572 121.804C68.6396 120.999 68.2824 120.244 68.0342 119.448C67.7861 118.653 67.657 117.927 67.4585 117.112C71.2895 116.337 75.071 115.68 78.7928 114.766C83.1696 113.702 87.4967 112.429 91.8338 111.187C93.8502 110.608 95.606 109.351 96.8061 107.628C99.264 104.277 100.798 100.337 101.252 96.2048C103.515 76.4508 97.9673 59.053 84.6483 44.3792C77.2245 36.1972 67.6273 32.1808 56.5413 31.8527C52.1019 31.6767 47.6595 32.1184 43.3413 33.165C35.8072 35.0524 29.175 39.5319 24.6035 45.8207C19.522 52.5611 16.9416 60.3653 15.1551 68.4975C13.4877 76.0829 13.8846 83.6584 15.3138 91.2141C16.6834 98.4714 18.0929 105.719 19.4824 112.966C19.68 114.519 20.3483 115.974 21.3971 117.135C22.4459 118.296 23.8247 119.107 25.3478 119.458C26.8657 119.906 28.4199 120.218 29.9926 120.393C36.0764 120.86 42.1802 121.466 48.1748 119.607C48.4022 119.579 48.6322 119.579 48.8596 119.607C49.2096 122.178 48.7408 124.795 47.5198 127.083C47.031 128.004 46.2999 128.773 45.406 129.308C44.5121 129.842 43.4892 130.122 42.4482 130.116C40.5478 130.156 38.6471 130.056 36.7613 129.817C29.9827 128.883 24.6134 131.199 20.574 136.667C18.6074 139.578 17.4214 142.947 17.1301 146.45C16.1595 153.801 16.8584 161.278 19.1747 168.321C23.2339 180.728 21.6558 192.43 15.6116 203.713C12.5529 209.729 9.07739 215.522 5.21048 221.051C4.573 222.142 4.07297 223.307 3.72177 224.521C1.48157 230.23 0.245941 236.284 0.069519 242.416C-0.145721 249.752 1.34225 257.039 4.41644 263.701C7.6228 270.89 12.0148 277.488 17.4081 283.216C19.532 285.463 21.5069 287.889 23.8094 289.937C26.5884 292.402 29.6453 294.55 32.593 296.816C33.141 297.267 33.729 297.666 34.3497 298.009C35.5435 298.75 36.8147 299.356 38.1407 299.819C42.7061 301.022 47.4105 300.902 52.0354 300.982C65.9301 301.191 79.8248 301.419 93.7194 301.459C100.379 301.459 107.039 301.071 113.698 300.952C121.469 300.813 129.25 300.783 137.021 300.704C137.357 300.747 137.689 300.817 138.014 300.912C136.942 303.895 136.029 306.808 134.808 309.631C128.407 324.544 121.827 339.277 115.514 354.179C111.325 363.694 106.518 372.923 101.123 381.807C100.766 382.424 100.399 383.04 100.131 383.676C98.3843 387.205 99.1386 390.705 102.384 392.922C104.736 394.522 107.346 395.795 109.798 397.187C111.038 397.873 112.318 398.489 113.648 399.175C112.596 403.659 113.519 408.063 113.976 412.447C114.735 418.443 114.557 424.52 113.45 430.461C112.864 433.335 112.696 436.287 112.318 439.2C112.249 439.747 112.13 440.294 112.021 440.93C109.966 441.427 108.289 442.391 108.051 444.728C107.813 446.895 107.892 449.102 109.262 450.901C110.791 453.114 112.544 455.163 114.492 457.015C122.63 464.024 132.148 468.399 142.48 471.073C151.382 473.386 160.512 474.703 169.703 475C172.792 474.96 175.876 474.76 178.943 474.403C179.023 474.413 179.103 474.413 179.182 474.403C181.484 473.777 183.588 472.832 184.144 470.228C184.7 467.623 183.529 465.675 181.563 464.263C179.283 462.547 176.867 461.021 174.338 459.7C166.746 455.932 159.074 452.353 151.422 448.764C147.274 446.776 143.095 444.936 138.917 443.028C141.606 431.296 146.658 420.629 151.462 409.504C154.32 409.743 157.417 409.862 160.394 410.26C168.159 411.401 175.976 412.151 183.816 412.507C185.801 412.567 187.786 412.994 189.722 413.044C195.051 413.183 197.661 410.956 198.436 405.687C199.322 398.99 199.753 392.241 199.726 385.486C200.004 367.998 200.182 350.521 200.421 333.034C200.559 323.423 200.718 313.813 200.897 304.203C201.016 300.067 201.165 296.031 201.314 291.736ZM145.08 250.2L146.628 250.588C153.318 252.159 160.146 253.312 166.676 255.4C179.916 259.625 188.342 268.741 191.756 282.292C193.017 287.322 193.116 292.512 193.205 297.671C193.424 309.283 192.729 320.865 192.312 332.467C191.607 352.35 191.26 372.174 190.685 392.037C190.565 396.063 190.139 400.08 189.861 404.037C184.779 403.51 179.936 403.042 175.192 402.516C170.448 401.989 165.605 401.273 160.801 400.806C157.883 400.517 154.925 400.686 152.017 400.388C140.416 399.155 129.13 395.842 118.7 390.606C115.723 389.104 112.745 387.424 109.669 385.774L113.758 378.815C119.772 368.505 124.189 357.43 129.032 346.564C134.877 333.185 139.938 319.476 144.187 305.505C144.905 302.995 145.328 300.409 145.447 297.801C145.616 295.216 144.693 292.88 140.892 292.154C136.634 291.339 132.357 291.527 128.089 291.587C113.486 291.779 98.8902 291.995 84.3008 292.233C75.8946 292.382 67.4983 292.72 59.092 292.88C52.9883 292.989 46.8747 292.949 40.771 292.969C40.3479 293.023 39.9182 292.959 39.5294 292.783C39.1406 292.608 38.8077 292.328 38.5677 291.975C35.3893 287.403 31.7292 283.186 27.6505 279.399C22.9268 275.007 18.9094 269.909 15.7408 264.287C12.9645 259.633 11.1989 254.445 10.5593 249.061C9.91974 243.677 10.4205 238.218 12.0289 233.041C14.1835 226.146 16.9297 219.45 20.2367 213.029C21.5052 210.565 23.0144 208.234 24.7423 206.069C27.0746 203.037 26.3502 203.385 30.0323 204.379C32.9601 205.175 35.9078 205.851 38.9646 205.374C39.4895 205.241 40.0413 205.258 40.557 205.423C41.0727 205.588 41.5318 205.895 41.8824 206.308C44.7308 209.291 47.6092 212.273 50.5072 215.196C52.9586 217.691 55.3405 220.246 57.9309 222.582C62.2978 226.519 66.7374 230.363 71.2498 234.115C76.3115 238.33 81.4327 242.495 87.1891 245.736C88.6083 246.532 90.4344 246.661 91.7742 247.536C93.1317 248.612 94.3785 249.821 95.496 251.145C95.6733 251.302 95.8702 251.436 96.0816 251.542C103.218 255.996 110.433 260.291 118.521 262.826C124.109 264.576 129.717 266.236 135.324 267.926C138.11 268.602 140.665 270.009 142.728 272.002C143.273 272.524 143.707 273.15 144.005 273.844C144.304 274.537 144.46 275.283 144.465 276.038C144.465 277.709 144.465 279.379 144.624 281.009C144.951 284.807 145.993 288.336 148.742 291.17C149.394 291.924 150.221 292.506 151.151 292.863C152.081 293.221 153.084 293.342 154.072 293.218C154.538 293.158 155.005 293.138 155.501 293.098C155.68 293.317 155.838 293.486 155.987 293.675C157.625 295.822 159.233 297.99 160.95 300.107C161.737 301.204 162.628 302.223 163.61 303.149C166.518 305.664 170.071 304.402 170.696 300.604C170.845 299.025 170.875 297.436 170.785 295.852C170.785 295.385 170.835 294.918 170.874 294.351C172.512 296.588 173.912 298.725 175.539 300.654C177.167 302.583 179.34 303.954 182.04 302.96C184.739 301.966 185.355 299.53 185.514 296.995C185.669 293.891 185.241 290.785 184.253 287.839C179.718 273.692 170.736 263.194 157.814 256.115C154.151 254.127 150.142 252.755 146.291 251.145L145.11 250.836L141.636 249.842C142.2 249.638 142.803 249.563 143.399 249.625C143.996 249.687 144.57 249.884 145.08 250.2ZM181.295 34.6861C178.513 37.2935 176.039 40.2123 173.921 43.385C173.194 44.4244 172.686 45.6011 172.426 46.8436C172.167 48.086 172.162 49.3683 172.413 50.6125C173.058 54.0822 173.326 57.5717 171.321 60.753C171.168 61.0293 171.048 61.323 170.964 61.6278C170.764 62.1519 170.701 62.7183 170.78 63.2736C170.86 63.8289 171.079 64.3548 171.418 64.8015C171.757 65.2483 172.204 65.6012 172.716 65.8269C173.229 66.0526 173.791 66.1437 174.348 66.0916C175.59 65.9458 176.768 65.4609 177.753 64.6899C180.303 62.7015 182.169 60.1764 182.268 56.7366H187.697C186.705 59.2617 185.821 61.6378 184.769 63.9244C183.591 66.4821 181.529 68.5265 178.963 69.6805C176.611 70.7642 174.319 72.0467 171.52 71.6689C170.997 71.6073 170.469 71.7278 170.024 72.0102C169.58 72.2927 169.246 72.7197 169.078 73.2198C168.873 73.7006 168.825 74.2337 168.938 74.7439C169.052 75.2541 169.324 75.7155 169.713 76.0631C170.081 76.4408 170.487 76.7789 170.874 77.1368C169.743 80.4771 168.651 83.6684 167.55 86.9193L159.233 82.8631C159.239 82.467 159.273 82.0718 159.332 81.6801C160.237 76.5129 160.6 71.2649 160.414 66.022C160.281 61.5312 161.848 57.1561 164.801 53.774C166.867 51.3651 168.603 48.6903 169.961 45.8207C172.309 40.9325 176.031 36.8378 180.67 34.0399L182.755 32.7475L183.013 33.1451L181.295 34.6861ZM200.619 285.324C200.47 284.479 200.401 283.942 200.272 283.415C199.686 280.627 198.941 277.875 198.039 275.174C194.481 265.983 188.023 258.209 179.648 253.034C178.525 252.44 177.621 251.503 177.068 250.359C174.487 244.305 171.669 238.34 169.356 232.176C165.895 222.624 163.271 212.787 161.516 202.779C161.282 201.812 161.267 200.805 161.471 199.831C161.675 198.858 162.094 197.942 162.696 197.152C165.866 192.599 168.966 187.989 171.996 183.323C172.895 181.931 173.59 180.418 174.061 178.829C174.266 178.13 174.219 177.38 173.929 176.712C173.639 176.043 173.123 175.498 172.472 175.171C171.894 174.807 171.218 174.63 170.536 174.666C169.853 174.701 169.199 174.947 168.661 175.37C167.906 175.931 167.237 176.601 166.676 177.358C164.205 180.659 161.615 183.9 159.412 187.379C153.298 197.023 147.373 206.795 141.309 216.488C136.996 223.728 132.047 230.569 126.521 236.928C125.137 236.696 123.766 236.394 122.412 236.023C117.599 234.492 112.735 233.041 108.021 231.232C103.575 229.492 99.4362 227.146 97.2924 222.443C96.8623 221.677 96.3676 220.948 95.8136 220.266C91.0313 213.247 86.7498 205.898 83.0009 198.275C82.723 197.728 82.5046 197.152 82.2764 196.645C83.1001 195.591 83.8542 194.656 84.5589 193.722C90.9306 185.093 98.9002 178.044 106.9 171.025C110.661 167.735 114.472 164.504 118.174 161.153C124.175 155.476 130.717 150.401 137.706 146.002C138.367 145.578 139.095 145.268 139.86 145.088C142.182 144.61 144.524 144.093 146.876 143.875C155.809 142.881 164.166 144.869 172.086 149.024C177.489 151.888 182.415 155.578 186.685 159.96C199.825 173.322 212.43 187.17 224.309 201.715C233.708 213.208 243.434 224.422 253.091 235.735C254.252 237.107 255.592 238.33 256.932 239.712C242.7 260.559 224.836 276.536 200.619 285.324ZM30.5882 194.855C30.917 193.056 31.1555 191.241 31.3027 189.417C31.3912 187.673 31.2745 185.925 30.9552 184.208C29.1688 175.34 27.3527 166.482 25.3876 157.654C24.3734 153.726 23.9551 149.667 24.147 145.615C24.3712 143.579 24.8341 141.577 25.5264 139.65C25.896 138.786 26.5146 138.052 27.303 137.542C28.4434 136.731 29.8098 136.301 31.2082 136.311C32.6066 136.322 33.9661 136.774 35.094 137.602C37.2589 139.203 39.2305 141.052 40.9694 143.109C44.0659 147.026 46.9243 151.172 49.7032 155.298C55.6581 163.957 60.4616 173.272 65.4736 182.468C71.1009 192.777 76.4803 203.226 82.2267 213.466C85.9882 220.167 90.097 226.688 95.5357 232.285L91.3177 239.871C88.5388 238.012 85.8988 236.401 83.4375 234.562C75.9286 228.956 68.8093 222.844 62.1291 216.27C56.3727 210.593 50.5469 204.946 46.0212 198.156C45.4628 197.323 44.6879 196.659 43.7801 196.235C42.8723 195.811 41.866 195.643 40.8701 195.75C39.7585 195.8 38.657 195.969 37.5454 195.979C35.1707 196.132 32.7922 195.744 30.5882 194.845V194.855ZM165.853 92.6158C165.624 93.431 165.475 94.127 165.237 94.803C163.917 98.5311 162.716 102.319 161.208 105.987C157.238 115.73 152.643 125.095 144.098 131.895C139.016 135.941 133.091 138.029 127.126 140.147C126.896 140.206 126.659 140.236 126.422 140.236C121.836 140.594 117.261 141.051 112.666 141.3C106.181 141.78 99.6674 141.714 93.1936 141.101C89.7299 140.693 86.2463 140.405 82.7726 140.107C79.6066 139.838 78.4752 141.161 79.2791 144.183C79.686 145.714 80.1225 147.235 80.6287 148.736C81.8395 152.355 83.1694 155.924 84.3008 159.553C85.1345 162.207 83.9635 163.828 81.2243 163.808C79.4873 163.724 77.7607 163.491 76.0635 163.112C73.8006 162.684 72.5898 163.112 71.3691 164.971C70.4957 166.283 70.6543 167.615 71.9147 169.365C73.2259 171.248 75.0284 172.734 77.1252 173.66C76.2022 176.155 75.3191 178.521 74.3465 181.136C66.7342 166.104 57.4744 152.415 48.7406 138.665L53.4548 134.47C59.3303 138.576 65.8507 135.703 67.9647 130.951C68.3505 130.005 68.9803 129.179 69.7895 128.557C70.5986 127.935 71.5582 127.54 72.5699 127.411C74.4341 127.059 76.3307 126.909 78.227 126.964C83.9933 127.183 89.4321 128.952 94.851 130.712C96.6192 131.396 98.4333 131.954 100.28 132.382C108.299 133.804 116.239 133.555 123.881 130.464C138.173 124.678 148.643 114.984 154.052 100.281C155.253 97.0001 156.265 93.6597 157.377 90.3392C157.536 89.8521 157.764 89.345 157.992 88.8281L165.853 92.6158ZM54.8939 78.9958C62.7741 79.2245 69.7115 76.3017 76.6389 73.5777C80.1821 79.7116 81.1847 85.0602 79.7952 91.6018C78.9312 96.5767 76.2713 101.06 72.3218 104.198C67.0021 108.314 61.0868 108.93 54.7548 107.866C52.4637 107.577 50.3357 106.527 48.7108 104.884C44.8271 100.902 41.5829 96.3406 39.0938 91.3632C38.4108 89.8493 38.0718 88.2025 38.1013 86.5415C38.0801 85.7808 38.2683 85.0289 38.6455 84.3683C39.0226 83.7076 39.5739 83.1637 40.2391 82.7962C40.9043 82.4286 41.6579 82.2515 42.4169 82.2844C43.176 82.3172 43.9113 82.5587 44.5424 82.9824C45.3571 83.4739 46.1102 84.0613 46.7854 84.7321C47.19 85.1137 47.6739 85.4008 48.2024 85.5727C48.731 85.7446 49.2909 85.7971 49.8421 85.7263C50.9991 85.6376 52.0937 85.1652 52.9528 84.3838C53.8119 83.6025 54.3866 82.5567 54.5862 81.4117C54.7052 80.6859 54.7549 79.9602 54.8939 78.9859V78.9958ZM143.631 408.58C143.624 408.792 143.591 409.002 143.532 409.206C141.865 413.412 139.979 417.537 138.57 421.822C136.585 427.996 134.848 434.269 133.141 440.542C132.674 442.222 131.96 443.525 130.243 443.912C128.958 444.311 127.598 444.4 126.273 444.171C123.924 443.36 121.621 442.421 119.375 441.357C119.388 441.024 119.425 440.692 119.484 440.363C122.526 430.13 123.321 419.359 121.816 408.789C121.509 406.731 121.4 404.633 121.211 402.724L143.631 408.58ZM258.074 249.037C264.544 258.75 269.795 269.189 278.538 277.102C271.591 282.749 263.572 283.505 255.265 283.485C253.935 275.601 249.836 269.497 244.437 264.218L258.074 249.037ZM133.528 238.539C142.629 229.253 148.832 217.89 156.355 207.213C158.429 221.32 163.084 234.304 169.009 247.337C157.347 242.973 145.368 241.74 133.528 238.539ZM179.072 293.804L178.477 293.923L176.552 290.692C174.112 286.315 171.076 282.3 167.53 278.762C166.969 278.201 166.361 277.689 165.714 277.231C165.119 276.755 164.393 276.474 163.633 276.424C162.874 276.374 162.117 276.559 161.466 276.953C160.765 277.351 160.219 277.973 159.915 278.72C159.61 279.466 159.566 280.294 159.789 281.069C160.103 282.298 160.501 283.503 160.98 284.678C161.833 287.084 162.707 289.479 163.57 291.885C162.241 290.594 161.041 289.176 159.987 287.65C158.28 285.274 156.226 284.022 153.04 285.662C152.694 284.569 152.412 283.457 152.196 282.331C152.122 281.223 152.122 280.11 152.196 279.001C152.196 278.007 152.196 276.933 152.266 275.899C152.385 270.819 150.092 267.091 145.894 264.407C141.358 261.514 136.326 259.824 131.215 258.372C120.973 255.541 111.169 251.312 102.076 245.806C100.548 244.872 99.0987 243.818 97.5107 242.754C98.5826 240.875 99.5454 239.205 100.597 237.385C104.273 241.491 108.64 244.916 113.5 247.506C118.529 250.376 123.828 252.744 129.32 254.575C137.001 257.05 144.693 259.545 152.325 262.12C156.629 263.554 160.606 265.828 164.027 268.811C170.154 274.166 174.855 280.965 177.703 288.595C178.249 290.275 178.596 292.064 179.082 293.804H179.072ZM196.858 9.63325C197.016 12.6754 197.423 15.6778 197.284 18.6503C196.907 26.4147 196.292 34.1592 195.746 41.9136C195.637 43.6526 195.438 45.3848 195.151 47.1032C194.704 49.6482 194.605 49.7178 192.173 49.9166C189.563 50.1254 186.953 50.2646 184.342 50.4038C183.509 50.4038 182.655 50.4038 181.365 50.4038C181.549 49.3061 181.883 48.239 182.357 47.2324C183.454 45.685 184.661 44.2197 185.97 42.8482C187.27 41.4663 188.739 40.2435 190.059 38.8715C191.789 37.1094 193.066 34.9534 193.781 32.5884C195.26 27.6176 192.659 23.472 187.508 22.6468C184.154 22.1298 181.097 23.124 178.1 24.4462C177.107 24.8837 176.115 25.3609 174.914 25.9375L176.492 9.42449C183.439 8.92741 190.039 8.03265 196.868 9.63325H196.858ZM119.077 148.587C113.946 153.051 108.785 157.535 103.684 161.988C95.0593 169.594 86.6133 177.388 80.1126 187.021C79.8091 187.316 79.4766 187.579 79.1201 187.807C79.3429 186.328 79.6411 184.861 80.0135 183.413C81.393 179.138 83.5664 175.519 88.0524 173.769C88.9805 173.299 89.7861 172.618 90.4047 171.781C92.876 168.928 93.1835 165.627 92.0124 162.187C90.484 157.684 88.8267 153.24 87.2288 148.766C87.0105 148.15 86.7921 147.523 86.4646 146.639C97.4315 149.064 108.2 148.199 119.077 148.587ZM52.6807 110.381C55.7574 110.381 58.6356 110.381 61.4244 110.381C62.4169 110.381 63.171 110.839 63.2107 111.883C63.3794 116.068 63.6177 120.263 63.5582 124.439C63.5126 125.437 63.2403 126.411 62.7622 127.288C62.2841 128.165 61.6127 128.921 60.7991 129.499C60.5294 129.768 60.2037 129.975 59.8453 130.104C59.4869 130.232 59.1045 130.281 58.7254 130.244C58.3463 130.208 57.98 130.089 57.6523 129.895C57.3245 129.701 57.0434 129.437 56.8292 129.121C55.6587 127.926 54.8827 126.399 54.606 124.747C53.9609 120.065 53.3456 115.372 52.6807 110.381ZM209.641 43.2061C207.527 44.9558 206.663 46.8248 206.941 49.2505C205.343 49.678 203.964 50.6821 202.564 50.2447C203.14 43.1563 203.686 36.3265 204.281 28.91L207.963 31.5943C207.625 32.0543 207.243 32.4804 206.822 32.8668C204.291 34.706 203.994 38.0265 206.971 40.2733C207.946 41.1694 208.84 42.1509 209.641 43.2061Z" fill="#303030"/>
<path d="M146.291 250.996C150.142 252.656 154.151 253.978 157.814 255.966C170.716 263.045 179.718 273.543 184.253 287.69C185.241 290.636 185.669 293.742 185.513 296.846C185.355 299.411 184.749 301.817 182.04 302.811C179.33 303.806 177.207 302.463 175.539 300.505C173.872 298.546 172.562 296.439 170.874 294.202C170.874 294.769 170.795 295.196 170.785 295.703C170.875 297.287 170.845 298.876 170.696 300.455C170.071 304.253 166.518 305.515 163.61 303C162.628 302.074 161.737 301.055 160.95 299.958C159.282 297.841 157.674 295.673 155.987 293.526C155.838 293.337 155.68 293.168 155.501 292.949C155.005 292.949 154.509 293.009 154.072 293.069C153.084 293.193 152.08 293.072 151.151 292.715C150.221 292.357 149.394 291.775 148.742 291.021C145.993 288.187 144.951 284.658 144.623 280.86C144.485 279.2 144.475 277.53 144.465 275.889C144.46 275.134 144.304 274.388 144.005 273.695C143.707 273.001 143.273 272.375 142.728 271.853C140.665 269.86 138.11 268.453 135.324 267.777C129.717 266.087 124.109 264.427 118.521 262.677C110.433 260.142 103.217 255.847 96.0816 251.393C95.8702 251.287 95.6733 251.153 95.4959 250.996C94.3784 249.672 93.1316 248.463 91.7741 247.387C90.4343 246.512 88.6083 246.393 87.189 245.587C81.4327 242.346 76.2717 238.181 71.2498 233.966C66.744 230.208 62.3044 226.364 57.9309 222.433C55.3405 220.097 52.9685 217.542 50.5072 215.047C47.6091 212.064 44.7308 209.151 41.8824 206.159C41.5317 205.746 41.0727 205.439 40.557 205.274C40.0412 205.109 39.4895 205.092 38.9645 205.225C35.9375 205.722 33.0097 205.046 30.0323 204.23C26.3502 203.236 27.0547 202.888 24.7423 205.92C23.0143 208.085 21.5052 210.416 20.2366 212.88C16.9296 219.301 14.1835 225.997 12.0288 232.892C10.4205 238.069 9.91969 243.528 10.5593 248.912C11.1989 254.296 12.9644 259.484 15.7407 264.138C18.9094 269.76 22.9267 274.858 27.6504 279.25C31.7292 283.038 35.3893 287.254 38.5676 291.826C38.8077 292.179 39.1405 292.459 39.5293 292.634C39.9182 292.81 40.3479 292.874 40.7709 292.82C46.8746 292.82 52.9883 292.82 59.092 292.731C67.4982 292.571 75.8945 292.233 84.3008 292.084C98.9034 291.826 113.5 291.61 128.089 291.438C132.357 291.378 136.634 291.19 140.892 292.005C144.693 292.731 145.616 295.067 145.447 297.652C145.328 300.26 144.905 302.846 144.187 305.356C139.938 319.327 134.877 333.036 129.032 346.415C124.188 357.281 119.772 368.356 113.758 378.666L109.669 385.625C112.745 387.275 115.683 388.955 118.7 390.457C129.13 395.693 140.416 399.006 152.017 400.239C154.925 400.537 157.883 400.368 160.801 400.657C165.604 401.124 170.388 401.83 175.192 402.367C179.995 402.903 184.779 403.361 189.861 403.888C190.139 399.911 190.565 395.934 190.684 391.888C191.26 372.005 191.607 352.171 192.312 332.318C192.729 320.726 193.423 309.144 193.205 297.522C193.116 292.363 193.017 287.173 191.756 282.143C188.342 268.592 179.916 259.476 166.676 255.251C160.146 253.163 153.318 252.01 146.628 250.439L146.291 250.996Z" fill="#37B8F0"/>
<path d="M200.619 285.324C224.836 276.536 242.7 260.56 256.863 239.682C255.523 238.32 254.183 237.097 253.022 235.706C243.415 224.392 233.688 213.178 224.24 201.685C212.33 187.171 199.756 173.322 186.615 159.931C182.345 155.548 177.42 151.859 172.016 148.995C164.076 144.829 155.759 142.821 146.807 143.845C144.455 144.114 142.113 144.581 139.79 145.058C139.026 145.239 138.298 145.548 137.636 145.973C130.647 150.372 124.106 155.446 118.105 161.124C114.403 164.474 110.592 167.705 106.83 170.996C98.8309 178.014 90.8613 185.063 84.4896 193.692C83.7849 194.687 83.0306 195.561 82.2069 196.615C82.4351 197.122 82.6535 197.699 82.9314 198.246C86.7014 205.881 91.0063 213.24 95.8137 220.266C96.3608 220.949 96.8488 221.678 97.2726 222.443C99.4163 227.146 103.555 229.492 108.001 231.232C112.716 233.061 117.579 234.493 122.392 236.024C123.746 236.394 125.117 236.696 126.501 236.928C132.027 230.569 136.976 223.729 141.289 216.488C147.353 206.795 153.278 197.023 159.392 187.379C161.595 183.9 164.185 180.659 166.656 177.358C167.217 176.602 167.886 175.932 168.641 175.37C169.179 174.948 169.833 174.702 170.516 174.666C171.198 174.631 171.874 174.807 172.453 175.171C173.103 175.498 173.619 176.043 173.909 176.712C174.199 177.381 174.246 178.13 174.041 178.83C173.57 180.418 172.875 181.932 171.976 183.323C168.946 187.963 165.846 192.572 162.677 197.152C162.074 197.943 161.655 198.858 161.451 199.832C161.247 200.805 161.262 201.812 161.496 202.779C163.252 212.788 165.875 222.624 169.336 232.176C171.649 238.34 174.467 244.305 177.048 250.36C177.602 251.504 178.506 252.441 179.628 253.034C188.011 258.206 194.476 265.98 198.039 275.174C198.941 277.876 199.686 280.627 200.272 283.415C200.401 283.942 200.47 284.489 200.619 285.324Z" fill="#37B8F0"/>
<path d="M30.5882 194.846C32.7907 195.736 35.1656 196.117 37.5355 195.959C38.6471 195.959 39.7486 195.78 40.8601 195.73C41.856 195.623 42.8624 195.791 43.7702 196.215C44.678 196.639 45.4529 197.303 46.0113 198.136C50.537 204.926 56.3628 210.573 62.1191 216.25C68.7994 222.825 75.9186 228.936 83.4275 234.542C85.8889 236.382 88.5288 237.992 91.3077 239.851L95.5258 232.266C90.087 226.669 85.9782 220.147 82.2167 213.446C76.4703 203.206 71.091 192.758 65.4636 182.448C60.5013 173.252 55.6184 163.937 49.6933 155.278C46.8747 151.152 44.056 147.007 40.9595 143.09C39.2206 141.032 37.249 139.184 35.0841 137.582C33.9562 136.754 32.5967 136.302 31.1983 136.292C29.7999 136.281 28.4335 136.712 27.2931 137.522C26.5047 138.032 25.8861 138.766 25.5165 139.63C24.8242 141.557 24.3613 143.559 24.1371 145.595C23.9345 149.649 24.3427 153.711 25.3479 157.644C27.3328 166.472 29.1293 175.33 30.9158 184.198C31.2351 185.915 31.3515 187.663 31.263 189.407C31.1289 191.23 30.9037 193.045 30.5882 194.846Z" fill="#F8FE83"/>
<path d="M165.853 92.616L157.992 88.868C157.764 89.4248 157.536 89.8622 157.377 90.3792C156.265 93.6897 155.253 97.0301 154.052 100.321C148.643 115.024 138.173 124.717 123.881 130.503C116.239 133.595 108.299 133.844 100.28 132.422C98.4325 131.984 96.6184 131.416 94.851 130.722C89.432 128.933 83.9933 127.193 78.227 126.974C76.3307 126.92 74.4341 127.07 72.5699 127.422C71.5582 127.55 70.5986 127.945 69.7895 128.567C68.9803 129.189 68.3505 130.015 67.9647 130.961C65.8507 135.713 59.3303 138.586 53.4548 134.48L48.7406 138.675C57.4347 152.425 66.7342 166.114 74.3465 181.146C75.339 178.531 76.2022 176.175 77.1252 173.67C75.0283 172.744 73.2259 171.258 71.9147 169.375C70.6543 167.625 70.4957 166.293 71.3691 164.981C72.5898 163.142 73.8006 162.694 76.0635 163.122C77.7607 163.501 79.4873 163.734 81.2243 163.818C83.9635 163.818 85.1345 162.217 84.3008 159.563C83.1694 155.934 81.8395 152.365 80.6287 148.746C80.1225 147.245 79.686 145.764 79.2791 144.193C78.4752 141.211 79.6066 139.849 82.7726 140.117C86.2463 140.415 89.7199 140.704 93.1936 141.111C99.6734 141.732 106.194 141.805 112.686 141.33C117.281 141.081 121.856 140.624 126.442 140.266C126.679 140.266 126.916 140.236 127.146 140.177C133.101 138.059 139.056 135.971 144.117 131.925C152.663 125.125 157.238 115.76 161.228 106.017C162.736 102.349 163.937 98.5611 165.257 94.833C165.475 94.1172 165.624 93.4213 165.853 92.616Z" fill="#F8FE83"/>
<path d="M54.8937 78.986C54.7548 79.9802 54.7051 80.6661 54.5463 81.3521C54.3467 82.4971 53.772 83.5429 52.9129 84.3243C52.0538 85.1057 50.9592 85.578 49.8022 85.6668C49.251 85.7375 48.6911 85.6851 48.1625 85.5132C47.634 85.3413 47.1501 85.0542 46.7455 84.6726C46.0703 84.0017 45.3173 83.4143 44.5025 82.9229C43.8714 82.4992 43.1361 82.2577 42.377 82.2248C41.618 82.192 40.8647 82.369 40.1995 82.7366C39.5342 83.1042 38.9827 83.6481 38.6056 84.3087C38.2285 84.9694 38.0402 85.7213 38.0614 86.482C38.0319 88.143 38.3709 89.7898 39.0538 91.3037C41.543 96.2811 44.7872 100.842 48.6709 104.824C50.2958 106.468 52.4241 107.518 54.7152 107.807C61.0472 108.87 66.9623 108.254 72.2819 104.138C76.2297 101.027 78.9026 96.5737 79.7951 91.6218C81.1845 85.0802 80.1819 79.6919 76.6388 73.5977C69.7113 76.2918 62.774 79.2147 54.8937 78.986ZM70.0091 100.49C71.0711 104.049 69.3939 106.077 65.9004 105.779C65.0185 105.747 64.1643 105.46 63.4408 104.954C62.7172 104.448 62.1549 103.744 61.8212 102.925C61.0988 101.178 60.0927 99.5621 58.8438 98.1435C58.2362 97.5129 57.7811 96.751 57.5138 95.9166C57.1137 94.6488 56.9786 93.312 57.1169 91.9896C57.2047 91.4011 57.441 90.8447 57.8033 90.3731C58.1656 89.9015 58.6419 89.5302 59.1874 89.2943C59.7328 89.0585 60.3292 88.9658 60.9203 89.0252C61.5114 89.0845 62.0777 89.2939 62.5656 89.6335C63.706 90.4816 64.7568 91.4443 65.7017 92.5066C66.0928 92.9407 66.4606 93.3953 66.8034 93.8686C68.0341 92.0294 69.1061 90.2498 70.3665 88.6393C71.0761 87.7959 71.9465 87.103 72.927 86.6013C73.1665 86.4519 73.4372 86.3601 73.7181 86.3331C73.9989 86.3062 74.2823 86.3448 74.5458 86.4459C74.8093 86.5471 75.0459 86.708 75.2368 86.916C75.4278 87.1241 75.5678 87.3737 75.6463 87.6451C75.8784 88.231 76.0029 88.8541 76.0137 89.4843C76.0197 92.3775 74.9061 95.1605 72.9071 97.2487C71.994 98.3423 71.0016 99.3762 70.0091 100.49Z" fill="#F1DBDF"/>
<path d="M143.631 408.57L121.261 402.675C121.449 404.584 121.558 406.651 121.866 408.739C123.371 419.309 122.575 430.081 119.534 440.314C119.474 440.642 119.438 440.974 119.425 441.308C121.671 442.372 123.973 443.311 126.322 444.121C127.647 444.35 129.008 444.262 130.292 443.863C132.009 443.485 132.724 442.173 133.19 440.493C134.897 434.22 136.604 427.946 138.619 421.773C140.008 417.488 141.894 413.362 143.581 409.157C143.62 408.964 143.637 408.767 143.631 408.57Z" fill="#F1DBDF"/>
<path d="M258.074 249.037L244.437 264.218C249.836 269.497 253.935 275.601 255.265 283.485C263.572 283.485 271.621 282.749 278.538 277.102C269.795 269.189 264.535 258.75 258.074 249.037Z" fill="#F1DBDF"/>
<path d="M179.082 293.804C178.596 292.064 178.249 290.275 177.613 288.595C174.765 280.965 170.065 274.166 163.937 268.811C160.517 265.828 156.54 263.554 152.236 262.12C144.604 259.506 136.912 257.05 129.23 254.575C123.738 252.744 118.439 250.377 113.41 247.506C108.551 244.916 104.183 241.491 100.508 237.386C99.456 239.205 98.5232 240.875 97.4216 242.754C98.9996 243.818 100.458 244.872 101.987 245.806C111.079 251.313 120.884 255.541 131.126 258.372C136.237 259.824 141.269 261.514 145.805 264.407C150.003 267.091 152.295 270.819 152.176 275.899C152.176 276.894 152.117 277.967 152.107 279.001C152.033 280.11 152.033 281.223 152.107 282.332C152.323 283.457 152.604 284.569 152.951 285.662C156.156 284.022 158.211 285.274 159.898 287.65C160.951 289.176 162.151 290.594 163.481 291.885C162.617 289.48 161.744 287.084 160.89 284.678C160.412 283.503 160.014 282.298 159.699 281.069C159.477 280.294 159.521 279.466 159.825 278.72C160.129 277.973 160.676 277.351 161.377 276.953C162.028 276.559 162.785 276.374 163.544 276.424C164.304 276.474 165.03 276.756 165.624 277.232C166.272 277.689 166.88 278.202 167.441 278.763C170.986 282.3 174.023 286.316 176.462 290.692L178.388 293.924L179.082 293.804Z" fill="#F1DBDF"/>
<path d="M196.868 9.63347C190.039 8.03288 183.44 8.92762 176.552 9.46447L174.974 25.9775C176.204 25.4009 177.177 24.9237 178.159 24.4862C181.137 23.164 184.213 22.1698 187.568 22.6868C192.719 23.4821 195.319 27.598 193.841 32.6284C193.123 35.0025 191.838 37.1658 190.099 38.9314C188.779 40.3033 187.31 41.5261 186.01 42.908C184.701 44.2796 183.494 45.7449 182.397 47.2923C181.923 48.2988 181.589 49.3659 181.405 50.4636C182.665 50.4636 183.519 50.4636 184.382 50.4636C186.992 50.3245 189.603 50.1853 192.213 49.9765C194.644 49.7777 194.744 49.7081 195.19 47.163C195.478 45.4446 195.677 43.7125 195.786 41.9735C196.342 34.2191 196.947 26.4746 197.324 18.7102C197.433 15.678 197.046 12.6756 196.868 9.63347Z" fill="white"/>
<path d="M180.67 34.0798C176.027 36.8857 172.304 40.9913 169.961 45.8905C168.603 48.7601 166.867 51.4349 164.801 53.8438C161.848 57.2258 160.281 61.601 160.414 66.0918C160.595 71.3115 160.232 76.5359 159.332 81.6802C159.275 82.0522 159.242 82.4275 159.233 82.8036L167.55 86.8598C168.651 83.6089 169.743 80.4177 170.874 77.0773C170.487 76.7194 170.081 76.3814 169.713 76.0036C169.323 75.656 169.052 75.1946 168.938 74.6844C168.824 74.1743 168.873 73.6411 169.078 73.1603C169.246 72.6603 169.58 72.2332 170.024 71.9508C170.469 71.6684 170.997 71.5478 171.52 71.6094C174.319 71.9872 176.611 70.7047 178.963 69.6211C181.529 68.4671 183.591 66.4226 184.769 63.8649C185.821 61.5783 186.675 59.2023 187.697 56.6771H182.268C182.169 60.1467 180.283 62.6421 177.753 64.6304C176.768 65.4014 175.59 65.8863 174.348 66.0322C173.791 66.0843 173.229 65.9932 172.716 65.7674C172.204 65.5417 171.757 65.1888 171.418 64.7421C171.079 64.2953 170.86 63.7695 170.78 63.2142C170.701 62.6589 170.764 62.0924 170.964 61.5684C171.048 61.2636 171.168 60.9699 171.321 60.6935C173.306 57.4824 173.058 54.0227 172.413 50.5531C172.162 49.3088 172.167 48.0266 172.426 46.7841C172.686 45.5416 173.194 44.365 173.921 43.3255C176.039 40.1528 178.513 37.234 181.295 34.6266L180.67 34.0798Z" fill="#F1DBDF"/>
<path d="M52.6808 110.382C53.3457 115.352 53.961 120.065 54.6161 124.747C54.8927 126.399 55.6687 127.926 56.8392 129.122C57.0535 129.437 57.3345 129.701 57.6623 129.895C57.9901 130.089 58.3564 130.209 58.7355 130.245C59.1145 130.281 59.497 130.233 59.8554 130.104C60.2138 129.975 60.5394 129.769 60.8091 129.499C61.6222 128.919 62.2925 128.161 62.7689 127.283C63.2453 126.404 63.5153 125.428 63.5583 124.429C63.6178 120.254 63.3795 116.058 63.2108 111.873C63.2108 110.879 62.417 110.382 61.4246 110.372C58.596 110.372 55.7575 110.382 52.6808 110.382Z" fill="#F1DBDF"/>
<path d="M209.641 43.2062C208.839 42.1579 207.945 41.1831 206.971 40.2933C203.993 38.0465 204.291 34.726 206.822 32.8868C207.243 32.5005 207.625 32.0743 207.963 31.6143L204.281 28.9301C203.686 36.3067 203.14 43.1764 202.564 50.2647C203.974 50.6823 205.343 49.6782 206.941 49.2706C206.663 46.8249 207.527 44.9559 209.641 43.2062Z" fill="#F1DBDF"/>
<path d="M145.08 250.2C144.585 249.854 144.017 249.626 143.42 249.533C142.823 249.44 142.213 249.485 141.636 249.664L145.11 250.658L145.08 250.2Z" fill="#37B8F0"/>
<path d="M180.67 34.0799L181.295 34.6863L183.013 33.1851L182.755 32.7875L180.67 34.0799Z" fill="#A69DA2"/>
<path d="M145.08 250.2V250.688L146.261 250.996L146.599 250.588L145.08 250.2Z" fill="#37B8F0"/>
<path d="M70.0092 100.49C71.0017 99.3763 71.9942 98.3424 72.9867 97.2588C74.9857 95.1705 76.099 92.3876 76.093 89.4944C76.0822 88.8641 75.958 88.2411 75.7259 87.6552C75.6474 87.3837 75.5071 87.1341 75.3162 86.9261C75.1252 86.718 74.8888 86.5571 74.6254 86.456C74.3619 86.3548 74.0785 86.3162 73.7976 86.3432C73.5168 86.3701 73.246 86.4619 73.0065 86.6113C72.026 87.1131 71.1554 87.806 70.4459 88.6493C69.1854 90.2599 68.1137 92.0394 66.883 93.8786C66.5402 93.4054 66.1723 92.9507 65.7813 92.5166C64.8119 91.4467 63.7342 90.4805 62.5657 89.6336C62.0779 89.2821 61.5079 89.0627 60.9107 88.9963C60.3136 88.93 59.7095 89.0191 59.1567 89.255C58.6039 89.4909 58.1212 89.8655 57.7552 90.3429C57.3892 90.8202 57.1522 91.384 57.0673 91.9798C56.9291 93.3022 57.0644 94.6389 57.4644 95.9067C57.7318 96.7412 58.1866 97.503 58.7942 98.1336C60.0431 99.5522 61.0492 101.168 61.7716 102.916C62.1053 103.734 62.6676 104.438 63.3912 104.945C64.1147 105.451 64.9689 105.737 65.8508 105.769C69.3543 106.077 71.0017 104.049 70.0092 100.49ZM73.7906 87.5657C74.4605 89.2525 74.4354 91.1365 73.7211 92.8049C72.8973 95.0318 71.2499 96.6424 69.6223 98.2629C68.5107 99.3763 63.6672 100.351 62.4961 99.4559C60.4905 98.1286 59.0861 96.0648 58.5858 93.7096C58.4601 93.2027 58.5026 92.6685 58.7067 92.1879C58.9108 91.7072 59.2654 91.3061 59.7171 91.0453C60.1474 90.8288 60.6356 90.7554 61.1104 90.8359C61.5852 90.9163 62.022 91.1464 62.3573 91.4926C63.9406 92.5736 65.0573 94.2143 65.4835 96.0857C65.553 96.543 66.0195 96.9307 66.3073 97.3383C66.7341 97.04 67.2998 96.8213 67.5578 96.4137C68.6496 94.6739 69.5427 92.8149 70.7039 91.1149C71.6532 89.9015 72.6706 88.7431 73.7509 87.6452L73.7906 87.5657ZM69.0168 102.558C68.8013 103.146 68.3822 103.637 67.8358 103.942C67.2893 104.246 66.6519 104.344 66.0393 104.218C65.3471 104.152 64.6955 103.861 64.1845 103.389C63.6735 102.916 63.3314 102.289 63.2107 101.603C65.2056 101.703 67.1608 100.917 69.0168 102.558Z" fill="#303030"/>
<path d="M73.7509 87.6453C72.6546 88.7678 71.6239 89.9528 70.6642 91.1944C69.5228 92.8944 68.6098 94.7535 67.5181 96.4933C67.26 96.9009 66.6943 97.1196 66.2676 97.4179C65.9797 97.0103 65.5132 96.6225 65.4437 96.1652C65.0176 94.2939 63.9009 92.6532 62.3175 91.5722C61.9823 91.2259 61.5454 90.9959 61.0706 90.9154C60.5958 90.835 60.1079 90.9083 59.6776 91.1248C59.2259 91.3857 58.8711 91.7868 58.667 92.2674C58.4629 92.7481 58.4203 93.2822 58.5461 93.7892C59.0464 96.1443 60.4507 98.2081 62.4564 99.5354C63.6672 100.43 68.4709 99.4559 69.5825 98.3424C71.2102 96.7219 72.8576 95.1114 73.6813 92.8845C74.3957 91.2161 74.4207 89.3321 73.7509 87.6453Z" fill="#E31A3E"/>
<path d="M69.0168 102.558C67.1807 100.967 65.2254 101.752 63.1908 101.563C63.3116 102.249 63.6539 102.877 64.1649 103.349C64.6759 103.821 65.3273 104.112 66.0195 104.178C66.63 104.312 67.2683 104.222 67.8183 103.925C68.3684 103.628 68.7936 103.142 69.0168 102.558Z" fill="#E31A3E"/>
</g>
<defs>
<clipPath id="clip0_413_3953">
<rect width="339" height="475" fill="white" transform="matrix(-1 0 0 1 339 0)"/>
</clipPath>
</defs>
</svg>
