<svg width="84" height="107" viewBox="0 0 84 107" fill="none" xmlns="http://www.w3.org/2000/svg">
<path fill-rule="evenodd" clip-rule="evenodd" d="M44.5448 67.8454C45.1383 68.5459 45.7404 69.2438 46.2804 69.8024C55.8609 79.8157 68.8527 87.9776 82.3128 90.9346C82.802 91.038 83.293 90.7501 83.3972 90.2534C83.5014 89.7566 83.1944 89.2915 82.7045 89.1883C69.5646 86.2236 56.92 78.2815 47.5807 68.5161C47.2753 68.2073 46.9424 67.8275 46.6067 67.4486C47.6582 67.0887 48.4426 66.488 49.0169 65.7871C49.8565 64.7026 50.2406 63.2715 50.2473 61.7069C50.2491 59.5185 49.544 57.1292 48.456 55.0765C47.6042 53.5076 46.5059 52.1608 45.4031 51.4405C44.5038 50.8219 43.5875 50.5987 42.7256 50.7515C41.819 50.9163 40.9314 51.5444 40.2349 52.9031C39.0061 55.1859 39.1605 57.8017 40.1011 60.4408C40.7901 62.3659 41.901 64.2559 43.1099 65.9636C42.4657 65.9018 41.755 65.7795 40.975 65.5978C35.068 64.055 28.3636 58.3505 22.1534 51.1848C12.7151 40.2739 4.45412 25.9217 2.1079 17.33C1.98853 16.8931 1.47605 16.5614 0.9914 16.6913C0.506747 16.8212 0.232385 17.3637 0.351757 17.8005C2.7573 26.6108 11.1483 41.2404 20.7917 52.4089C27.2834 59.8899 34.3712 65.8049 40.5344 67.3572C42.0784 67.7249 43.4181 67.9129 44.5448 67.8454ZM45.336 65.9142C46.3429 65.7225 47.0798 65.2908 47.5915 64.6849C48.1961 63.8978 48.4239 62.8209 48.4367 61.7235C48.4439 59.8463 47.8074 57.7505 46.8638 55.9717C46.1999 54.7431 45.3703 53.6373 44.5085 53.0087C44.0256 52.6692 43.55 52.4837 43.0718 52.5337C42.6037 52.6591 42.2059 53.0787 41.8205 53.7289C40.8547 55.6286 41.0713 57.7583 41.8124 59.8258C42.5801 61.9643 43.9619 64.1726 45.336 65.9142Z" fill="#303030"/>
<path fill-rule="evenodd" clip-rule="evenodd" d="M82.626 89.2307C77.4 88.6776 71.7432 89.8021 66.9066 91.8014C66.4451 92.0032 66.2204 92.5321 66.3982 92.9532C66.5948 93.4475 67.1318 93.6948 67.5926 93.4932C72.1725 91.6409 77.5046 90.5247 82.45 91.0749C82.942 91.0994 83.3911 90.7445 83.4469 90.2607C83.4826 89.7042 83.118 89.2552 82.626 89.2307Z" fill="#303030"/>
<path fill-rule="evenodd" clip-rule="evenodd" d="M82.8838 89.1888C78.3022 87.0565 75.3464 82.1439 73.4895 77.5624C73.3117 77.1412 72.7741 76.8945 72.3126 77.0963C71.8518 77.2979 71.628 77.8271 71.8253 78.3212C73.8332 83.2529 77.1419 88.539 82.1413 90.872C82.5945 91.0631 83.1281 90.8418 83.3377 90.395C83.5479 89.9479 83.3363 89.3802 82.8838 89.1888Z" fill="#303030"/>
</svg>
