<svg width="315" height="101" viewBox="0 0 315 101" fill="none" xmlns="http://www.w3.org/2000/svg">
<path fill-rule="evenodd" clip-rule="evenodd" d="M304.349 21.8043C304.826 22.7393 304.268 23.2173 303.205 23.3974C303.027 23.4434 302.852 23.5043 302.684 23.5796C300.474 24.3509 300.345 24.3164 300.188 21.8998C299.728 19.2187 299.443 17.7609 298.649 15.7952C297.96 14.0902 295.314 13.4062 293.944 14.5851C293.581 14.9004 293.769 15.2956 293.877 15.6197C294.569 19.632 295.091 21.6923 295.596 24.7475C295.683 25.2766 295.321 25.4782 294.924 25.6302C293.794 26.0622 292.59 26.0197 291.414 26.1336C290.783 26.1947 290.626 25.6361 290.563 25.1561C290.152 21.8041 289.388 18.5135 288.83 15.1878C288.658 14.1657 288.402 13.1594 288.17 12.1491C288.05 11.6202 288.106 11.4845 288.782 11.3327C289.538 11.1642 290.051 11.0402 291.035 10.8329C291.851 10.66 292.338 10.4978 292.541 11.3685C292.719 12.1281 293.101 11.9291 293.492 11.6535C296.847 9.29047 301.797 10.981 302.933 14.9427C303.566 17.1937 304.039 19.4866 304.349 21.8043V21.8043Z" fill="black"/>
<path fill-rule="evenodd" clip-rule="evenodd" d="M281.719 16.514C281.518 14.0744 281.518 14.0744 283.894 13.543C285.865 13.1008 285.909 13.1011 285.925 15.1194C287.381 38.3276 278.476 31.4825 276.471 16.6405C276.528 15.9446 277.929 15.3365 278.568 15.529C279.061 15.6796 279.062 15.9354 279.414 16.9824C280.326 20.4071 284.038 31.38 281.719 16.514Z" fill="black"/>
<path fill-rule="evenodd" clip-rule="evenodd" d="M265.958 10.6575C265.894 10.1215 265.882 9.58043 265.924 9.04218C266.006 8.00006 266.482 7.56337 267.512 7.35006C269.645 6.90733 271.775 6.45124 273.897 5.95509C274.544 5.80311 274.83 5.79051 275.019 6.60344C275.238 7.29695 275.334 7.6813 275.487 8.22373C275.732 9.09787 275.505 9.50596 274.517 9.84386C273.47 10.2011 272.378 10.4158 271.298 10.6461C270.853 10.7422 270.732 10.8614 270.802 11.3346C270.998 13.1069 271.141 13.7789 271.256 15.0079C271.305 15.5134 271.319 15.6604 271.99 15.5197C272.171 15.481 273.031 15.322 273.22 15.3082C274.004 15.2566 274.155 14.8967 274.281 16.5864C274.342 17.1698 274.433 17.7497 274.552 18.3241C274.678 19.1265 274.694 19.2597 274.132 19.4595C273.538 19.6684 272.738 19.7459 272.128 19.8398C271.044 20.0084 271.139 20.2384 271.169 21.0561C271.275 23.8167 271.899 27.2948 272.104 30.0503C272.196 31.3042 271.85 31.7601 270.581 31.93C270.173 31.9912 269.759 32.0002 269.349 31.9568C267.723 31.7509 267.431 31.4279 267.299 29.7934C267.182 28.3012 266.283 13.3893 265.958 10.6575Z" fill="black"/>
<path fill-rule="evenodd" clip-rule="evenodd" d="M255.205 18.8351C256.619 20.3395 257.533 21.2974 256.177 22.3236C254.697 23.3996 253.443 24.5053 251.279 26.0397C250.812 26.3712 250.849 26.5553 251.188 26.895C252.551 28.63 254.129 27.4006 254.042 26.0433C253.782 24.7253 254.95 24.5713 255.73 24.1399C256.805 23.7088 256.879 24.2074 257.018 25.0328C257.235 26.3291 256.771 29.0497 255.126 30.1129C251.867 32.1986 248.396 30.498 247.315 26.6961C246.709 24.5652 246.894 22.6 247.968 20.7426C249.622 17.4723 253.411 17.2008 255.205 18.8351ZM250.003 24.2887C250.22 24.4797 252.828 22.298 253.107 21.8213C253.345 21.4167 252.295 20.4978 251.009 21.1326C249.623 22.1784 249.262 23.6321 250.007 24.2883L250.003 24.2887Z" fill="black"/>
<path fill-rule="evenodd" clip-rule="evenodd" d="M247.67 16.3269C247.638 16.4634 247.618 16.5878 247.581 16.7061C246.258 20.9151 245.262 25.2116 243.799 29.3757C243.625 29.8635 243.601 29.9762 242.855 30.3009C241.806 30.7003 241.695 30.7441 241.121 30.9862C240.76 31.1314 240.537 31.1596 240.31 30.7051C238.805 26.8306 238.107 24.7331 237.282 22.3754C237.101 22.0488 237.136 21.8292 237.481 21.6381C238.053 21.3217 238.613 20.9865 239.163 20.6326C239.426 20.4638 239.56 20.4188 239.697 20.7761C240.098 21.8237 240.081 21.9202 240.97 23.8901C241.203 24.4079 241.51 24.0418 241.545 23.863C241.877 22.6275 243.19 17.3143 243.715 15.9488C243.93 15.3875 244.191 15.1582 244.825 15.356C245.61 15.6032 246.425 15.7525 247.229 15.9383C247.454 15.9904 247.674 16.0353 247.67 16.3269Z" fill="black"/>
<path fill-rule="evenodd" clip-rule="evenodd" d="M224.267 26.3484C224.302 23.783 225.362 21.827 227.197 19.9245C228.262 18.819 229.768 18.7958 231.072 19.5888C231.283 19.7198 231.399 19.9235 231.746 19.7022C232.683 19.1027 233.313 19.3127 233.643 20.4497C234.326 22.8199 234.897 25.2358 235.479 27.6219C235.698 28.4622 236.009 28.9863 235.483 29.7156C234.893 30.5299 234.002 30.7312 233.144 31.002C232.718 31.1402 232.603 30.7334 232.539 30.4776C232.324 29.6263 231.889 29.7487 231.35 30.1386C231.258 30.205 231.152 30.2546 231.057 30.3184C227.964 32.2789 224.584 30.5287 224.267 26.3484ZM230.797 24.9802C230.66 24.0697 230.898 23.002 230.03 22.88C228.967 22.7301 228.167 23.6192 228.108 25.6206C228.112 26.9573 229.079 27.4845 230.274 26.8812C231.073 26.4737 230.838 25.8908 230.799 24.986L230.797 24.9802Z" fill="black"/>
<path fill-rule="evenodd" clip-rule="evenodd" d="M208.669 14.1801C208.644 12.1748 209.98 11.8849 211.908 12.0949C212.441 12.1524 212.836 12.6516 212.998 12.9978C213.469 14.9993 213.96 19.5274 214.18 20.51C214.307 21.8256 214.203 21.8008 215.817 21.6097C216.733 21.5013 217.181 21.7335 216.922 20.2823C216.719 19.1513 216.341 15.6978 216.27 15.1051C215.874 11.9426 215.92 11.9139 219.117 11.6755C219.827 11.6234 220.163 11.6893 220.486 12.5074C221.331 14.6454 223.491 27.1776 223.642 31.3252C223.697 32.8158 222.789 33.7532 220.794 34.0932C219.363 34.3393 218.845 33.9171 218.408 32.2045C217.956 30.4287 217.621 28.625 217.406 26.8053C217.33 26.1601 217.21 25.2844 216.086 25.4053C215.111 25.5104 215.101 26.0504 215.286 26.9576C215.648 30.2036 215.957 31.2487 216.467 34.9725C216.687 35.79 216.368 36.0768 215.721 36.3939C214.667 36.9378 213.544 37.3348 212.383 37.5741C211.244 37.7904 210.843 37.3128 210.735 36.3361C210.607 35.2356 208.696 16.3851 208.669 14.1801Z" fill="black"/>
<path fill-rule="evenodd" clip-rule="evenodd" d="M172.01 35.8297C172.486 36.7648 171.928 37.2428 170.866 37.4229C170.688 37.4688 170.513 37.5298 170.345 37.6051C168.135 38.3763 168.006 38.3419 167.849 35.9253C167.389 33.2442 167.104 31.7863 166.31 29.8206C165.621 28.1157 162.974 27.4316 161.605 28.6106C161.241 28.9259 161.43 29.321 161.538 29.6451C162.23 33.6575 162.752 35.7177 163.256 38.773C163.344 39.302 162.982 39.5037 162.585 39.6557C161.455 40.0876 160.251 40.0452 159.075 40.159C158.444 40.2202 158.287 39.6615 158.223 39.1816C157.813 35.8295 157.049 32.5389 156.49 29.2133C156.319 28.1912 156.062 27.1848 155.831 26.1745C155.71 25.6456 155.767 25.5099 156.443 25.3582C157.199 25.1896 157.712 25.0657 158.696 24.8584C159.512 24.6855 159.999 24.5232 160.201 25.394C160.379 26.1535 160.761 25.9545 161.153 25.6789C164.508 23.3159 169.458 25.0065 170.594 28.9681C171.227 31.2191 171.7 33.5121 172.01 35.8297V35.8297Z" fill="black"/>
<path fill-rule="evenodd" clip-rule="evenodd" d="M187.833 35.0547C188.31 35.9898 187.752 36.4678 186.69 36.6478C186.511 36.6938 186.337 36.7547 186.168 36.8301C183.958 37.6013 183.829 37.5669 183.672 35.1502C183.213 32.4691 182.928 31.0113 182.133 29.0456C181.444 27.3407 178.798 26.6566 177.428 27.8356C177.065 28.1508 177.253 28.546 177.362 28.8701C178.053 32.8824 178.575 34.9427 179.08 37.9979C179.167 38.527 178.805 38.7286 178.408 38.8807C177.278 39.3126 176.075 39.2701 174.898 39.384C174.267 39.4452 174.11 38.8865 174.047 38.4066C173.636 35.0545 172.872 31.7639 172.314 28.4383C172.142 27.4161 171.886 26.4098 171.655 25.3995C171.534 24.8706 171.59 24.7349 172.266 24.5832C173.022 24.4146 173.535 24.2907 174.519 24.0834C175.335 23.9105 175.822 23.7482 176.025 24.619C176.203 25.3785 176.585 25.1795 176.976 24.9039C180.331 22.5409 185.281 24.2314 186.418 28.1931C187.05 30.4441 187.523 32.737 187.833 35.0547V35.0547Z" fill="black"/>
<path fill-rule="evenodd" clip-rule="evenodd" d="M144.866 35.0967C144.9 32.5313 145.96 30.5752 147.796 28.6728C148.861 27.5673 150.367 27.5441 151.67 28.3371C151.881 28.468 151.998 28.6718 152.344 28.4505C153.281 27.851 153.912 28.061 154.241 29.198C154.925 31.5682 155.495 33.9841 156.077 36.3702C156.297 37.2105 156.608 37.7346 156.082 38.4639C155.491 39.2782 154.601 39.4795 153.743 39.7503C153.317 39.8885 153.202 39.4817 153.138 39.2259C152.922 38.3746 152.487 38.497 151.948 38.8869C151.856 38.9533 151.75 39.0029 151.655 39.0667C148.562 41.0272 145.182 39.277 144.866 35.0967ZM151.396 33.7285C151.259 32.818 151.496 31.7502 150.629 31.6283C149.565 31.4784 148.765 32.3675 148.706 34.3689C148.71 35.7056 149.677 36.2328 150.872 35.6295C151.672 35.222 151.437 34.6391 151.398 33.7343L151.396 33.7285Z" fill="black"/>
<path fill-rule="evenodd" clip-rule="evenodd" d="M188.759 30.2408C188.794 27.6754 189.854 25.7194 191.69 23.817C192.754 22.7115 194.26 22.6883 195.564 23.4812C195.775 23.6122 195.891 23.8159 196.238 23.5946C197.175 22.9951 197.805 23.2051 198.135 24.3422C198.819 26.7123 199.389 29.1283 199.971 31.5143C200.19 32.3547 200.501 32.8788 199.975 33.6081C199.385 34.4223 198.494 34.6236 197.636 34.8945C197.211 35.0326 197.096 34.6258 197.031 34.3701C196.816 33.5188 196.381 33.6412 195.842 34.031C195.75 34.0975 195.644 34.1471 195.549 34.2108C192.456 36.1714 189.076 34.4211 188.759 30.2408ZM195.289 28.8726C195.153 27.9622 195.39 26.8944 194.523 26.7725C193.459 26.6226 192.659 27.5117 192.6 29.5131C192.604 30.8498 193.571 31.377 194.766 30.7736C195.566 30.3661 195.33 29.7832 195.291 28.8785L195.289 28.8726Z" fill="black"/>
<path fill-rule="evenodd" clip-rule="evenodd" d="M135.985 38.2687C135.391 39.4664 135.189 40.5989 134.956 41.7161C134.621 43.3505 134.645 43.3437 132.957 43.4541C132.025 43.514 131.09 43.5804 130.169 43.724C129.453 43.8327 129.152 43.5091 128.959 42.8903C128.588 41.6968 126.344 27.5587 126.411 25.3461C126.44 24.4061 126.806 24.0178 127.761 23.8209C130.456 23.2571 130.526 23.4365 130.965 26.236C131.419 29.1279 131.622 29.982 131.917 31.8597C131.924 31.9332 132.126 32.9327 132.527 32.8696C132.928 32.8066 132.885 32.5215 132.982 32.1291C133.479 30.1126 133.822 28.5108 134.419 27.5823C135.105 26.6074 137.459 25.5921 139.079 30.0276C139.303 30.6585 139.306 30.687 139.616 31.5594C139.87 30.2402 141.382 22.8108 142.041 20.6393C142.288 19.8281 142.779 19.4898 143.632 19.7086C144.24 19.8647 144.861 19.9696 145.473 20.1133C147.262 20.5335 147.293 20.5426 146.808 22.3309C145.243 28.062 144.042 33.8744 142.859 39.6881C142.584 41.0396 142.187 41.6322 140.826 41.9412C138.455 42.4736 138.278 42.5134 137.037 40.3397C136.69 39.7161 136.398 39.0782 135.985 38.2687Z" fill="black"/>
<path fill-rule="evenodd" clip-rule="evenodd" d="M107.964 36.1596C107.938 35.6231 107.897 35.291 107.018 35.3639C106.933 35.3797 105.671 35.5277 105.593 35.5307C104.334 35.6148 104.59 35.1221 104.542 33.3611C104.531 32.9595 105.129 32.8849 105.549 32.8094C106.013 32.7206 107.088 32.565 107.559 32.5027C108.092 32.4935 107.964 32.2318 107.862 31.6345C107.707 30.7153 107.736 29.7691 107.557 28.8552C107.476 28.4376 107.667 28.2707 108.076 28.2129C108.933 28.089 109.802 28.017 110.667 27.9347C111.257 27.8776 111.232 28.2192 111.261 28.5177C111.354 29.4763 111.473 30.4339 111.522 31.3967C111.552 31.9904 111.596 32.1603 112.069 32.1493C114.771 32.0648 114.617 31.789 114.79 33.1244C114.831 34.8058 115.21 34.5813 112.918 34.9168C112.14 34.9922 112.157 35.1722 112.235 36.2534C112.333 38.7227 112.391 41.1973 112.778 43.6355C112.928 44.5734 112.365 44.9066 111.398 45.1319C111.186 45.1752 110.972 45.2066 110.756 45.2259C108.753 45.4623 108.653 45.3932 108.546 43.8379C108.462 42.6422 108.033 37.5249 107.964 36.1596Z" fill="black"/>
<path fill-rule="evenodd" clip-rule="evenodd" d="M102.211 46.234C99.9832 46.5617 98.4114 45.5919 97.1704 43.8935C96.9259 43.5583 96.8513 43.2884 97.1046 42.9171C97.5029 42.3395 97.7071 41.4763 98.2361 41.201C98.974 41.0024 99.3552 41.609 100.019 41.9778C101.908 42.9714 103.186 41.7438 101.027 40.3448C96.0947 36.9127 91.9107 29.2168 100.566 28.9375C102.528 28.7929 103.652 30.4557 103.771 30.7622C104.517 32.5797 104.314 33.096 102.594 34.056C102.201 34.2773 102.005 34.2221 101.848 33.8254C101.629 33.2969 101.364 31.395 100.149 31.82C98.122 32.7825 99.9607 33.678 100.822 34.5153C101.651 35.2617 102.776 36.4701 103.744 37.2804C106.311 39.6636 107.721 45.0448 102.211 46.234Z" fill="black"/>
<path fill-rule="evenodd" clip-rule="evenodd" d="M87.7806 33.93C87.5792 31.4905 87.5792 31.4905 89.9551 30.9591C91.9261 30.5169 91.9701 30.5172 91.9868 32.5355C93.4421 55.7436 84.5375 48.8985 82.5325 34.0566C82.5893 33.3606 83.9901 32.7526 84.6296 32.945C85.1227 33.0957 85.1232 33.3515 85.476 34.3985C86.3875 37.8232 90.0998 48.796 87.7806 33.93Z" fill="black"/>
<path fill-rule="evenodd" clip-rule="evenodd" d="M76.2119 29.4699C76.1328 28.7462 75.7293 28.3795 74.9617 28.5522C74.7305 28.6034 74.5 28.662 74.268 28.7057C73.4741 28.8568 72.6915 28.984 72.336 27.9707C71.8841 26.682 72.056 26.1581 73.2191 25.614C75.0066 24.7777 76.9334 24.4428 78.856 24.0946C79.0554 24.0586 79.2541 24.0469 79.4537 24.0125C81.0755 23.7328 81.029 24.0977 81.4575 24.9419C82.1418 26.2853 81.9321 26.9188 80.5232 27.3172C79.6271 27.5705 79.5728 27.9634 79.7925 28.8249C80.7733 32.6999 81.491 36.6398 81.6927 40.6312C83.0831 51.9722 72.1096 48.5726 71.0996 47.665C70.0896 46.7574 69.9898 46.1175 70.7029 45.0219C70.8858 44.7377 71.0592 44.4484 71.2471 44.1682C71.4945 43.799 71.7368 43.5969 72.2457 43.8641C73.6174 44.5822 74.2138 45.6131 76.5211 44.7659C78.0359 44.2104 77.9212 43.151 77.8913 42.0289C77.8614 40.9068 76.554 32.5649 76.2119 29.4699Z" fill="black"/>
<path fill-rule="evenodd" clip-rule="evenodd" d="M51.4603 52.2079C49.2328 52.5356 47.6611 51.5658 46.42 49.8674C46.1756 49.5322 46.101 49.2623 46.3542 48.891C46.7526 48.3134 46.9567 47.4502 47.4857 47.1749C48.2236 46.9762 48.6049 47.5829 49.269 47.9516C51.158 48.9453 52.4352 47.7177 50.2768 46.3186C45.3443 42.8866 41.1604 35.1907 49.8158 34.9113C51.7778 34.7668 52.9019 36.4296 53.0209 36.736C53.7662 38.5536 53.5633 39.0699 51.8438 40.0298C51.4503 40.2512 51.2542 40.1959 51.0977 39.7992C50.8784 39.2708 50.614 37.3688 49.3984 37.7939C47.3717 38.7563 49.2103 39.6519 50.0712 40.4892C50.9006 41.2356 52.026 42.444 52.9933 43.2543C55.5605 45.6374 56.9704 51.0187 51.4603 52.2079Z" fill="black"/>
<path fill-rule="evenodd" clip-rule="evenodd" d="M43.5904 51.5413C43.9158 53.9324 43.2293 54.3017 41.5588 54.7042C39.4248 55.2137 38.4745 54.8287 38.1157 52.9527C37.4453 49.4533 36.7107 34.9707 37.2252 29.7759C37.3299 28.7149 37.4376 27.4659 38.711 27.0444C39.5384 26.7704 41.0426 27.9814 41.2912 29.3912C41.9963 33.3899 43.4388 49.7254 43.5904 51.5413Z" fill="black"/>
<path fill-rule="evenodd" clip-rule="evenodd" d="M27.0392 42.8369C26.9731 42.1543 27.1838 41.8281 27.8821 41.8468C28.0675 41.853 28.8744 41.6947 29.9157 41.721C30.3711 41.733 30.1992 42.2569 30.3698 42.6734C30.6478 43.3551 30.5979 43.466 31.2099 43.0463C32.7533 41.7839 32.6919 41.7278 33.8781 40.7801C34.3525 40.504 34.5547 40.6056 34.8225 41.0415C35.6599 42.4019 36.143 42.9502 34.9456 43.955C33.9307 44.8104 32.8874 45.7488 31.817 46.658C31.5951 46.8269 31.4234 47.0531 31.3202 47.3122C31.2169 47.5714 31.1862 47.8537 31.2312 48.129C31.4212 49.8262 31.6368 50.7547 31.668 53.235C31.6768 53.92 31.5164 54.0931 30.9807 54.1904L30.8892 54.1992C27.7044 54.6166 28.3055 54.9915 27.786 51.8635C27.6774 51.1638 27.2013 44.4172 27.0392 42.8369Z" fill="black"/>
<path fill-rule="evenodd" clip-rule="evenodd" d="M23.2713 55.0191C21.0155 55.2741 19.8041 44.7452 19.7408 44.526C19.352 43.182 19.6383 42.5324 20.8093 42.1366C21.8624 41.7814 23.2232 42.39 23.5129 43.4667C23.9633 45.1357 25.2649 51.4095 25.7165 52.8013C26.015 53.7241 25.8445 54.2008 24.9714 54.5559C24.4167 54.782 23.8671 54.9721 23.2713 55.0191Z" fill="black"/>
<path fill-rule="evenodd" clip-rule="evenodd" d="M22.9095 39.1269C23.0095 40.3825 22.469 40.9339 21.0223 41.0524C19.7563 41.1567 18.963 40.6666 18.8833 39.7323C18.7726 38.399 19.5094 37.071 20.414 36.9737C21.4496 36.8616 22.8266 38.0485 22.9095 39.1269Z" fill="black"/>
<path fill-rule="evenodd" clip-rule="evenodd" d="M9.49284 51.2129C12.1642 51.1707 11.5731 49.835 11.7858 48.17C11.8296 47.6207 12.0902 47.2003 11.0808 47.2375C10.9118 47.2432 10.6062 47.2304 10.5921 47.1788C10.314 46.167 10.61 46.582 10.4534 45.4494C10.567 44.8237 11.1686 44.7973 11.8565 44.7397C13.6183 44.5934 15.3864 44.4949 17.1378 44.2874C18.1618 44.1671 18.0199 44.2959 18.0572 44.9312C17.9959 45.6745 18.0073 45.5417 17.9591 46.1702C17.9264 46.5988 17.9302 46.7786 17.0896 46.8858C16.7368 46.9321 15.6528 46.9643 15.7384 47.8176C15.565 51.0928 15.2651 52.3119 13.304 54.4505C10.9052 57.0736 5.93504 57.0339 3.97242 54.2942C1.90468 51.4071 1.53424 48.2693 2.00832 44.9559C2.43631 41.8545 3.0655 38.8137 4.94387 36.0079C6.07279 34.3284 7.45321 32.8381 9.47859 31.8319C11.2297 30.9644 12.961 31.2994 14.0466 32.6751C15.0826 33.992 15.1651 35.4542 14.7788 36.9694C14.539 37.9011 13.5778 38.2016 12.682 38.1127C11.6867 38.0138 11.6876 37.4913 11.6054 37.2055C11.3994 36.4851 11.5266 35.8293 10.9673 35.6351C10.3163 35.4483 10.1676 35.7731 9.47091 36.6158C5.06129 43.929 7.6525 51.2684 9.49284 51.2129Z" fill="black"/>
<path d="M308.339 24.5537C307.761 24.7142 306.979 24.7897 306.796 24.0911C307.038 23.5933 307.406 23.1626 307.865 22.8386C308.324 22.5146 308.861 22.3075 309.425 22.2364C311.271 22.9694 309.126 23.9697 308.339 24.5537Z" fill="black"/>
<path fill-rule="evenodd" clip-rule="evenodd" d="M178.468 63.4577C178.922 62.2024 179.959 61.513 181.221 61.256C182.751 60.9444 183.999 61.2823 185.175 62.5388C187.636 65.1774 187.354 68.0969 186.531 71.1671C186.39 71.6238 186.223 72.0718 186.03 72.5088C185.343 74.2334 184.003 75.0369 182.083 74.8806C179.946 74.7075 178.811 73.7105 177.994 71.741C177.084 69.0126 177.724 65.4983 178.468 63.4577ZM180.431 69.6561C180.59 70.9429 181.251 71.8662 181.861 71.9146C182.471 71.963 182.817 71.7161 182.953 71.2153C183.503 69.1739 183.443 67.6458 182.77 65.5048C182.65 65.2363 182.165 64.6911 181.782 64.6919C181.347 64.7007 180.93 65.2741 180.797 65.5853C180.23 66.9682 180.295 68.3034 180.426 69.655L180.431 69.6561Z" fill="black"/>
<path fill-rule="evenodd" clip-rule="evenodd" d="M164.095 56.6507C163.972 54.7352 164.146 54.6774 166.053 54.3656C181.971 55.259 178.723 73.6113 167.635 76.903C166.856 77.1299 166.442 77.0927 166.369 76.1172C166.296 75.1416 164.451 62.2018 164.095 56.6507ZM167.719 57.8291C167.719 57.8291 169.873 70.3179 170.12 70.2835C175.121 69.5933 172.77 56.9176 167.719 57.8291Z" fill="black"/>
<path fill-rule="evenodd" clip-rule="evenodd" d="M144.05 78.108C142.52 77.9906 142.58 77.9777 142.251 76.4337C141.588 73.3238 141.246 70.1825 140.909 67.0265C140.67 64.7737 140.45 62.5185 140.235 60.2624C140.174 59.6487 140.318 59.4194 141.111 59.3767C142.11 59.3225 142.233 59.3184 143.09 59.3164C143.948 59.3144 144.196 59.5143 144.251 60.2836C144.494 63.7276 144.48 67.1878 145.005 70.6125C145.354 72.8613 145.782 75.0856 146.343 77.2888C146.625 78.3829 146.556 78.469 145.403 78.3053C145.09 78.268 144.19 78.1179 144.05 78.108Z" fill="black"/>
<path fill-rule="evenodd" clip-rule="evenodd" d="M151.458 77.1515C149.925 77.1691 149.982 77.151 149.519 75.6419C148.585 72.6024 147.969 69.5032 147.356 66.3891C146.919 64.1661 146.502 61.939 146.089 59.7105C145.975 59.1045 146.097 58.8634 146.884 58.7511C147.874 58.6094 147.996 58.5945 148.85 58.5171C149.704 58.4397 149.969 58.6169 150.091 59.3785C150.636 62.7878 150.927 66.2358 151.75 69.6012C152.296 71.8104 152.918 73.9885 153.671 76.1338C154.047 77.1989 153.986 77.2908 152.824 77.2291C152.509 77.2194 151.599 77.1491 151.458 77.1515Z" fill="black"/>
<path fill-rule="evenodd" clip-rule="evenodd" d="M136.003 79.0543C135.004 79.2874 134.652 78.8914 134.56 77.8828C134.447 76.6385 134.11 75.4175 133.892 74.1834C133.815 73.7472 133.77 73.0354 132.709 73.1957C131.715 73.254 131.68 73.0894 131.428 74.2888C131.101 75.8527 130.638 77.3935 130.493 78.9868C130.436 79.61 130.263 80.0523 129.543 80.1295C129.093 80.1731 127.359 80.3561 126.916 80.4717C124.862 81.0098 125.527 80.6062 125.802 78.3418C126.159 75.3773 126.87 72.4392 127.65 69.5489C128.558 66.1874 129.236 62.7559 130.568 59.5124C131.571 56.9926 134.609 57.7947 135.166 59.4184C136.838 63.3114 137.818 67.4181 138.909 71.49C139.271 72.8403 139.562 73.8388 140.126 75.5027C140.816 78.0599 141.036 77.9613 138.854 78.4421C138.17 78.5417 136.674 78.9167 136.003 79.0543ZM133.148 66.7741C133.138 66.7226 133.111 66.6762 133.07 66.6431C133.029 66.6099 132.978 66.5921 132.926 66.5927C132.873 66.5933 132.822 66.6122 132.782 66.6463C132.742 66.6803 132.716 66.7273 132.707 66.779C132.631 67.392 132.482 68.5556 132.44 69.1502C132.414 69.4783 132.298 69.7696 132.606 69.761C132.889 69.7581 133.171 69.7349 133.451 69.6913C133.761 69.628 133.584 69.2575 133.53 69.031C133.396 68.4913 133.241 67.3253 133.144 66.776L133.148 66.7741Z" fill="black"/>
<path fill-rule="evenodd" clip-rule="evenodd" d="M113.407 69.6612C114.822 71.1656 115.735 72.1235 114.38 73.1497C112.9 74.2257 111.646 75.3314 109.482 76.8658C109.014 77.1973 109.052 77.3814 109.391 77.7211C110.753 79.4561 112.332 78.2267 112.244 76.8694C111.985 75.5514 113.153 75.3974 113.933 74.966C115.007 74.5349 115.081 75.0335 115.22 75.8589C115.438 77.1552 114.973 79.8758 113.329 80.939C110.069 83.0247 106.599 81.3242 105.518 77.5222C104.912 75.3913 105.097 73.4261 106.171 71.5687C107.824 68.2984 111.614 68.0269 113.407 69.6612ZM108.206 75.1148C108.422 75.3058 111.031 73.1242 111.31 72.6474C111.548 72.2428 110.497 71.3239 109.211 71.9587C107.826 73.0045 107.465 74.4582 108.21 75.1144L108.206 75.1148Z" fill="black"/>
<path fill-rule="evenodd" clip-rule="evenodd" d="M61.5831 88.4862C62.5368 88.4377 62.6238 88.2885 62.7561 89.655C62.789 90.745 62.965 91.0778 63.8259 91.1489C64.6867 91.2199 65.2957 90.6916 65.5543 89.9216C66.0541 88.406 65.9477 86.8386 66.13 85.2962C66.2135 84.5947 66.1917 83.8851 66.2052 83.1798C66.2151 82.6564 66.059 82.4369 65.377 82.6801C62.9258 83.5579 60.5482 82.2392 60.5254 79.9247C60.5042 77.86 60.9878 75.8645 62.5165 74.1857C63.7674 72.8124 64.6813 72.462 66.0594 73.1522C66.6954 73.4661 67.2688 72.9761 67.9584 73.0774C68.8878 73.2145 69.1547 73.5944 69.005 74.2373C69.1005 77.335 69.2339 78.2593 69.4885 81.1857C69.6911 84.6849 69.8891 88.1997 68.4237 91.6121C66.7737 96.0569 62.1985 95.3431 61.0272 94.1922C59.814 93 59.4274 91.5248 59.6323 89.9499C59.7993 88.6256 59.9118 88.5995 61.5831 88.4862ZM66.1741 76.1345C66.0601 75.708 66.2612 75.2358 65.6433 75.0625C65.2582 74.9483 64.939 74.9202 64.5944 75.1761C63.6061 75.9153 63.2556 78.5505 64.0366 79.4545C64.1791 79.628 64.368 79.7573 64.5812 79.8276C64.7944 79.8978 65.0232 79.906 65.2409 79.8512C65.6997 79.7583 65.8983 79.5105 65.9206 79.0526C65.957 78.0527 66.0866 77.0606 66.1733 76.127L66.1741 76.1345Z" fill="black"/>
<path fill-rule="evenodd" clip-rule="evenodd" d="M60.3782 83.8864C60.8548 84.8214 60.297 85.2994 59.2348 85.4795C59.0561 85.5255 58.8817 85.5864 58.7133 85.6617C56.5031 86.433 56.3741 86.3985 56.2173 83.9819C55.7578 81.3008 55.4728 79.843 54.6783 77.8772C53.9893 76.1723 51.3429 75.4883 49.9731 76.6672C49.6099 76.9825 49.7981 77.3777 49.9067 77.7018C50.5981 81.7141 51.1201 83.7744 51.6249 86.8296C51.7124 87.3587 51.3504 87.5603 50.9532 87.7123C49.8231 88.1443 48.6197 88.1018 47.4436 88.2157C46.812 88.2768 46.655 87.7182 46.5919 87.2382C46.181 83.8862 45.4172 80.5956 44.8589 77.2699C44.6873 76.2478 44.4309 75.2415 44.1998 74.2311C44.0789 73.7023 44.1354 73.5666 44.8112 73.4148C45.5671 73.2462 46.0806 73.1223 47.0644 72.915C47.8805 72.7421 48.3675 72.5799 48.5699 73.4506C48.7479 74.2102 49.1299 74.0112 49.5212 73.7356C52.8765 71.3726 57.8266 73.0631 58.9627 77.0248C59.5956 79.2758 60.0686 81.5687 60.3782 83.8864V83.8864Z" fill="black"/>
<path fill-rule="evenodd" clip-rule="evenodd" d="M34.7912 77.6726C35.2451 76.4173 36.2822 75.7279 37.5444 75.4709C39.0738 75.1593 40.3224 75.4972 41.498 76.7537C43.9597 79.3923 43.6776 82.3118 42.8543 85.3821C42.7135 85.8387 42.5461 86.2867 42.3528 86.7237C41.6658 88.4483 40.3263 89.2518 38.4063 89.0955C36.2697 88.9224 35.1344 87.9254 34.3168 85.9559C33.4076 83.2275 34.047 79.7132 34.7912 77.6726ZM36.7542 83.871C36.9136 85.1578 37.5739 86.0811 38.1842 86.1295C38.7946 86.1779 39.1401 85.931 39.2764 85.4302C39.8267 83.3888 39.7666 81.8607 39.0929 79.7197C38.973 79.4512 38.4887 78.9061 38.1057 78.9068C37.6704 78.9156 37.2535 79.489 37.1201 79.8002C36.553 81.1831 36.6186 82.5183 36.7495 83.8699L36.7542 83.871Z" fill="black"/>
<path fill-rule="evenodd" clip-rule="evenodd" d="M24.7523 78.6403C24.6862 77.9577 24.8969 77.6315 25.5952 77.6502C25.7806 77.6564 26.5874 77.4981 27.6287 77.5244C28.0841 77.5364 27.9123 78.0603 28.0828 78.4768C28.3608 79.1585 28.311 79.2694 28.923 78.8497C30.4664 77.5873 30.4049 77.5312 31.5912 76.5835C32.0656 76.3074 32.2678 76.409 32.5356 76.8449C33.3729 78.2053 33.8561 78.7536 32.6587 79.7584C31.6437 80.6138 30.6005 81.5522 29.5301 82.4614C29.3082 82.6303 29.1364 82.8565 29.0332 83.1156C28.93 83.3748 28.8992 83.6571 28.9442 83.9324C29.1343 85.6296 29.3499 86.5581 29.3811 89.0384C29.3899 89.7235 29.2295 89.8965 28.6938 89.9938L28.6023 90.0026C25.4174 90.42 26.0185 90.7949 25.4991 87.6669C25.3905 86.9672 24.9144 80.2206 24.7523 78.6403Z" fill="black"/>
<path fill-rule="evenodd" clip-rule="evenodd" d="M13.9308 86.5774C13.3366 87.775 13.1344 88.9075 12.9019 90.0247C12.5665 91.6591 12.5901 91.6523 10.9019 91.7628C9.9705 91.8227 9.03514 91.889 8.11483 92.0327C7.39858 92.1414 7.09773 91.8177 6.90457 91.199C6.53312 90.0055 4.28899 75.8674 4.35637 73.6548C4.38497 72.7147 4.75164 72.3264 5.70615 72.1295C8.40121 71.5658 8.47158 71.7452 8.91072 74.5447C9.36486 77.4366 9.56718 78.2906 9.86255 80.1683C9.86967 80.2418 10.0709 81.2414 10.4721 81.1783C10.8733 81.1152 10.8306 80.8302 10.9273 80.4377C11.424 78.4213 11.7671 76.8194 12.3646 75.8909C13.05 74.9161 15.4045 73.9008 17.0241 78.3363C17.2487 78.9671 17.2515 78.9956 17.5616 79.868C17.8154 78.5489 19.3278 71.1195 19.9867 68.948C20.2337 68.1367 20.7248 67.7985 21.5772 68.0172C22.1859 68.1733 22.8062 68.2783 23.4182 68.4219C25.2077 68.8422 25.2389 68.8513 24.7534 70.6395C23.1886 76.3706 21.9874 82.1831 20.8046 87.9968C20.5296 89.3482 20.1328 89.9408 18.7712 90.2498C16.4002 90.7822 16.2238 90.822 14.9823 88.6483C14.6357 88.0248 14.3438 87.3868 13.9308 86.5774Z" fill="black"/>
<path fill-rule="evenodd" clip-rule="evenodd" d="M95.2341 78.7049C94.6399 79.9025 94.4377 81.035 94.2052 82.1522C93.8698 83.7867 93.8934 83.7798 92.2052 83.8903C91.2738 83.9502 90.3384 84.0165 89.4181 84.1602C88.7019 84.2689 88.401 83.9452 88.2079 83.3265C87.8364 82.133 85.5923 67.9949 85.6597 65.7823C85.6883 64.8423 86.0549 64.4539 87.0094 64.257C89.7045 63.6933 89.7749 63.8727 90.214 66.6722C90.6681 69.5641 90.8705 70.4181 91.1658 72.2958C91.1729 72.3693 91.3742 73.3689 91.7754 73.3058C92.1766 73.2427 92.1339 72.9577 92.2306 72.5652C92.7273 70.5488 93.0704 68.9469 93.6679 68.0184C94.3532 67.0436 96.7078 66.0283 98.3274 70.4638C98.552 71.0946 98.5548 71.1231 98.8648 71.9955C99.1187 70.6764 100.631 63.247 101.29 61.0755C101.537 60.2642 102.028 59.926 102.881 60.1447C103.489 60.3008 104.11 60.4058 104.722 60.5494C106.511 60.9697 106.542 60.9788 106.057 62.767C104.492 68.4981 103.291 74.3106 102.108 80.1243C101.833 81.4757 101.436 82.0683 100.075 82.3773C97.7035 82.9097 97.5271 82.9495 96.2855 80.7758C95.939 80.1523 95.6471 79.5143 95.2341 78.7049Z" fill="black"/>
<path d="M74.1224 83.1847C74.6623 83.4467 75.299 83.907 74.974 84.5518C74.4633 84.7652 73.9028 84.8453 73.344 84.7848C72.7852 84.7243 72.2459 84.525 71.7755 84.2053C70.875 82.4347 73.146 83.1027 74.1224 83.1847Z" fill="black"/>
<path d="M190.48 73.9704C189.902 74.1308 189.12 74.2063 188.937 73.5077C189.179 73.0099 189.547 72.5792 190.006 72.2552C190.465 71.9312 191.002 71.7241 191.566 71.653C193.412 72.386 191.267 73.3863 190.48 73.9704Z" fill="black"/>
</svg>
