<svg width="161" height="49" viewBox="0 0 161 49" fill="none" xmlns="http://www.w3.org/2000/svg">
<g clip-path="url(#clip0_621_10765)">
<path d="M44.4671 35.6307H34.0945C34.4111 37.3715 35.8702 38.2784 37.7346 38.2784C39.0985 38.2568 40.389 37.6567 41.2844 36.6277L44.0872 39.4939C42.8117 41.0765 40.6925 42.235 37.2361 42.235C32.6259 42.235 29.2612 39.057 29.2612 34.3218C29.2612 29.7116 32.5008 26.4403 37.111 26.4403C41.4094 26.4403 44.5494 29.6499 44.5494 34.1651C44.5605 34.6035 44.4971 35.3189 44.4671 35.6307ZM34.1262 32.7297H39.8236C39.5071 31.2341 38.5164 30.3004 37.0525 30.3004C35.5585 30.3051 34.4364 31.2088 34.1262 32.7297ZM48.8272 34.105L43.7818 26.7236H49.264L51.5066 30.4919H51.5367L53.8426 26.7236H59.2931L54.2477 34.1367L59.3928 41.9533H54.1543L51.5683 38.1549H51.5367L48.9206 41.9533H43.6884L48.8272 34.105ZM58.141 34.3851C58.141 29.6198 61.3806 26.4419 66.2393 26.4419C68.5753 26.4419 71.1296 27.1905 72.812 29.0897L69.6657 32.2043C68.9288 31.2923 67.8169 30.7652 66.6445 30.772C64.5269 30.772 63.063 32.2043 63.063 34.3535C63.063 36.5027 64.557 37.9049 66.6729 37.9049C68.0435 37.9049 69.0469 37.4064 69.911 36.4805L72.9022 39.5951C71.5316 41.1778 69.289 42.2429 66.1111 42.2429C61.5057 42.235 58.141 39.0602 58.141 34.3851ZM73.9024 19.0289H78.761V28.436L78.8228 28.4677C80.0066 27.1272 81.6573 26.4419 83.5263 26.4419C86.6726 26.4419 89.0086 27.9692 89.0086 32.7724V41.9517H84.1499V33.98C84.1499 31.519 83.3079 30.772 81.5955 30.772C79.8831 30.772 78.761 31.8941 78.761 34.2538V41.9469H73.9024V19.0289ZM90.1291 34.3535C90.1291 29.6816 93.1503 26.4403 97.0752 26.4403C98.6889 26.4196 100.229 27.1151 101.28 28.3395L101.342 28.3078V26.7252H106.239V41.9548H101.592V40.3722L101.53 40.3406C100.533 41.6177 99.1564 42.2397 97.3253 42.2397C93.1503 42.235 90.1291 39.0602 90.1291 34.3535ZM101.56 34.3535C101.56 32.2676 100.16 30.7403 98.3524 30.7403C96.4833 30.7403 95.0827 32.1742 95.0827 34.3535C95.0827 36.5027 96.4216 37.9365 98.3524 37.9365C100.096 37.9365 101.56 36.528 101.56 34.3535ZM108.258 26.7236H113.117V28.4978H113.178C114.323 27.1653 116.001 26.4113 117.757 26.4403C120.903 26.4403 123.208 27.9976 123.208 32.8262V41.9517H118.349V34.0116C118.349 31.4889 117.509 30.772 115.92 30.772C114.237 30.772 113.117 31.9241 113.117 34.2918V41.9533H108.258V26.7236ZM125.919 46.937L127.009 42.9804C128.285 43.7274 129.967 44.3193 131.649 44.3193C134.297 44.3193 135.636 43.012 135.636 41.4231V40.0209L135.574 39.9908C134.546 41.0496 133.145 41.6715 131.369 41.6715C127.254 41.6715 124.33 38.4952 124.33 34.1651C124.33 29.6499 127.258 26.4403 131.089 26.4403C132.724 26.4127 134.299 27.0542 135.449 28.216H135.517V26.722H140.408V39.9591C140.408 44.9112 138.35 48.3993 132.178 48.3993C129.719 48.3977 127.788 47.9657 125.919 46.937ZM135.731 34.0433C135.731 32.1109 134.33 30.772 132.523 30.772C130.654 30.772 129.283 32.1109 129.283 34.0733C129.283 36.0358 130.685 37.3446 132.523 37.3446C134.36 37.3446 135.729 35.9741 135.729 34.0433H135.731ZM156.848 35.6307H146.475C146.792 37.3715 148.251 38.2784 150.115 38.2784C151.479 38.2568 152.77 37.6567 153.665 36.6277L156.47 39.4939C155.192 41.0765 153.075 42.235 149.617 42.235C145.007 42.235 141.644 39.057 141.644 34.3218C141.644 29.7116 144.882 26.4403 149.492 26.4403C153.79 26.4403 156.93 29.6499 156.93 34.1651C156.941 34.6035 156.883 35.3189 156.848 35.6307ZM146.507 32.7297H152.204C151.888 31.2341 150.897 30.3004 149.433 30.3004C147.939 30.3051 146.819 31.2088 146.507 32.7297ZM24.4484 18.6047C22.9196 18.6047 21.8118 17.3782 21.8118 15.7703C21.8118 14.118 22.8959 12.9342 24.4484 12.9342C25.9535 12.9342 27.0613 14.0927 27.0613 15.7703C27.0613 17.4209 25.9029 18.6047 24.4484 18.6047ZM70.8653 17.0459H60.5007C60.8172 18.7867 62.2764 19.6936 64.1407 19.6936C65.505 19.6734 66.796 19.0731 67.6906 18.0429L70.495 20.9091C69.2178 22.4917 67.0987 23.6502 63.6422 23.6502C59.032 23.6502 55.6673 20.4722 55.6673 15.737C55.6673 11.1268 58.907 7.85554 63.5172 7.85554C67.8156 7.85554 70.9555 11.0651 70.9555 15.5803C70.9587 16.0187 70.897 16.7357 70.8653 17.0459ZM60.5228 14.1496H66.2203C65.9038 12.6541 64.9131 11.7203 63.4491 11.7203C61.9567 11.7203 60.8346 12.6303 60.5228 14.1496ZM3.52608 0.444092H8.38475V9.85123L8.44805 9.88288C9.63186 8.5424 11.2825 7.85712 13.1516 7.85712C16.2979 7.85712 18.6338 9.38436 18.6338 14.1876V23.3764H13.7736V15.3952C13.7736 12.9342 12.9332 12.1872 11.2192 12.1872C9.50525 12.1872 8.38475 13.3093 8.38475 15.669V23.3637H3.52608V0.444092ZM49.0615 7.85712C52.271 7.85712 54.4503 9.69613 54.4614 14.4931V23.3685H49.6027V15.6136C49.6027 13.6116 49.0694 12.1872 47.387 12.1872C45.9864 12.1872 44.8327 13.3393 44.8327 15.7386V23.3685H39.9708V15.6136C39.9708 13.6116 39.3742 12.1872 37.7552 12.1872C36.2279 12.1872 35.1074 13.3393 35.1074 15.7386V23.3637H30.2472V21.5595C31.7728 20.1684 32.6749 18.1759 32.6749 15.7639C32.6749 13.352 31.7728 11.3342 30.2472 9.93986V8.13725H35.1074V9.94461H35.1375C36.3213 8.57405 37.8533 7.85712 39.4359 7.85712C41.3683 7.85712 42.9573 8.54873 43.8594 10.1314H43.9227C45.1365 8.6057 46.9439 7.85712 49.0615 7.85712Z" fill="black"/>
</g>
<defs>
<clipPath id="clip0_621_10765">
<rect width="160" height="48.1119" fill="white" transform="translate(0.169434 0.444092)"/>
</clipPath>
</defs>
</svg>
