<svg width="203" height="192" viewBox="0 0 203 192" fill="none" xmlns="http://www.w3.org/2000/svg">
<g clip-path="url(#clip0_413_3993)">
<path d="M99.2074 102.82L98.5909 102.037C94.7613 97.053 89.6794 94.1823 83.4975 93.2453C77.6878 92.3798 72.0606 93.0034 66.7196 95.579C64.2698 96.7344 62.1466 98.4822 60.5421 100.664C57.4918 104.821 57.3749 109.273 59.3779 113.846C60.7359 116.951 63.0703 119.32 65.686 121.396C68.8567 123.885 72.2962 126.011 75.9401 127.735C85.7181 132.442 95.528 137.085 105.323 141.75C107.939 142.998 110.603 144.161 113.178 145.501C115.022 146.46 116.713 147.674 118.479 148.775C118.797 148.971 119.103 149.193 119.432 149.369C120.35 149.844 120.889 149.685 121.327 148.742C121.58 148.219 121.769 147.668 121.89 147.1C122.232 145.639 122.828 144.248 123.65 142.992C127.37 136.881 131.17 130.817 134.375 124.405C137.621 117.912 140.356 111.228 141.956 104.126C143.207 98.584 143.657 92.9868 142.747 87.3349C142.04 82.4866 140.294 77.8483 137.628 73.737C135.794 70.9803 133.564 68.5787 130.532 67.0806C125.743 64.6921 120.866 64.8718 116.096 67.0249C112.084 68.8417 109.163 71.8839 106.895 75.6306C104.397 79.7764 102.803 84.2546 101.646 88.9064C100.621 93.0846 99.8571 97.3225 99.3587 101.596C99.3393 101.965 99.2816 102.271 99.2074 102.82ZM97.3918 109.531L97.4556 109.481C97.879 110.018 98.2648 110.59 98.7232 111.089C99.2237 111.647 99.7866 112.146 100.401 112.576C101.31 113.177 102.15 112.923 102.563 111.928C102.953 111.056 103.241 110.142 103.422 109.205C103.804 106.878 104.1 104.539 104.39 102.198C104.823 98.463 105.467 94.755 106.319 91.0923C107.152 87.6321 108.126 84.2251 109.715 81.0128C111.348 77.7448 113.341 74.8027 116.422 72.6412C118.745 70.9608 121.615 70.2178 124.461 70.5603C127.307 70.9029 129.919 72.3057 131.776 74.4891C134.553 77.7442 136.214 81.5033 137.226 85.6054C138.694 91.5246 138.298 97.4113 136.957 103.274C135.465 109.774 132.969 115.905 129.983 121.835C127.201 127.396 124.026 132.734 120.737 138.004C119.975 139.219 119.219 140.436 118.499 141.678C118.238 142.134 117.951 142.24 117.503 142.017C117.259 141.893 117.014 141.776 116.766 141.655C114.596 140.573 112.442 139.456 110.252 138.417C104.668 135.773 99.0505 133.182 93.4708 130.53C88.19 128.028 82.9191 125.518 77.6876 122.934C74.5167 121.406 71.5217 119.537 68.7553 117.36C66.8143 115.809 65.0642 114.058 64.0186 111.784C62.7557 109.083 62.6842 106.374 64.5094 103.82C65.5442 102.324 66.9426 101.115 68.5732 100.308C74.5033 97.4366 80.604 97.1583 86.7917 99.3047C89.9588 100.385 92.6898 102.464 94.5742 105.23C95.5627 106.65 96.4621 108.102 97.3918 109.531Z" fill="#303030"/>
<path d="M155.424 59.8452C160.133 65.9325 162.186 72.9043 162.199 80.4988C162.204 83.3642 161.967 86.2345 161.713 89.0906C161.164 95.1845 160.378 101.253 159.235 107.265C158.971 108.67 158.558 110.052 158.214 111.439L158.186 111.543C157.89 112.549 158.162 113.239 158.926 113.497C159.69 113.755 160.381 113.368 160.713 112.393C161.289 110.787 161.784 109.153 162.195 107.497C163.767 100.353 164.945 93.1281 165.723 85.8548C166.315 81.0636 166.074 76.206 165.008 71.4974C164.137 67.7661 162.627 64.2138 160.545 60.9974C153.227 49.7419 142.637 44.3364 129.402 43.8783C123.853 43.6248 118.324 44.6941 113.27 46.998C107.913 49.4773 103.336 52.9533 99.7988 57.7278C98.6245 59.3117 97.3532 60.8415 96.595 62.691C96.4254 62.9871 96.2231 63.2634 95.992 63.5146C95.3707 64.3634 95.4617 65.3423 96.2177 65.8734C96.9737 66.4045 97.876 66.1127 98.4946 65.2605C99.9694 63.2221 101.408 61.1519 102.976 59.2036C105.256 56.4701 107.98 54.1397 111.033 52.3103C119.537 46.9921 128.693 46.4887 138.169 48.891C143.272 50.1359 147.979 52.6457 151.857 56.1889C153.12 57.3221 154.239 58.6178 155.424 59.8452Z" fill="#303030"/>
<path d="M46.3549 133.373C51.2451 139.589 57.7654 144.324 65.1891 147.051C68.5147 148.3 71.8771 149.445 75.2354 150.598C76.0084 150.866 76.8102 151.041 77.6241 151.122C77.8032 151.151 77.9865 151.143 78.1618 151.096C78.3372 151.049 78.5007 150.966 78.6414 150.851C78.7822 150.737 78.8971 150.594 78.9784 150.432C79.0598 150.269 79.1058 150.092 79.1135 149.91C79.1733 149.226 78.8427 148.779 78.057 148.473C76.7852 147.978 75.506 147.495 74.2464 146.974C70.7441 145.52 67.2477 144.068 63.7623 142.573C59.0578 140.593 54.8261 137.638 51.3458 133.904C45.0294 127.118 41.7186 119.068 41.606 109.8C41.4588 103.99 43.5493 98.3456 47.4455 94.0334C49.4512 91.7861 51.8013 89.8717 54.4079 88.362C59.3207 85.5332 64.6536 83.5068 70.2053 82.3591C72.4783 81.8773 74.7976 81.649 77.1209 81.6782C78.009 81.6861 78.9008 81.6366 79.7712 81.5876C80.6417 81.5385 81.3064 81.042 81.3731 80.3253C81.3858 80.1444 81.3625 79.9629 81.3044 79.7912C81.2464 79.6195 81.1547 79.4609 81.0349 79.3249C80.915 79.1889 80.7694 79.0781 80.6063 78.9989C80.4433 78.9197 80.2661 78.8736 80.0851 78.8634C78.7807 78.6136 77.4563 78.4821 76.1282 78.4703C68.2411 78.6091 60.5198 80.7587 53.6956 84.7155C48.8164 87.5041 44.6259 91.0839 41.7314 95.9559C38.4074 101.547 37.4549 107.654 38.3454 114.034C39.0145 119.231 40.6941 124.247 43.2895 128.799C44.193 130.346 45.3113 131.827 46.3549 133.373Z" fill="#303030"/>
<path d="M29.8125 87.7105C32.7765 85.2863 36.1542 83.4178 39.7827 82.1949C40.3884 81.9708 40.9727 81.6927 41.5284 81.3637C41.7454 81.2535 41.9188 81.0731 42.0202 80.8518C42.1216 80.6306 42.1452 80.3815 42.0869 80.1451C42.0558 79.9023 41.9382 79.6789 41.7557 79.5158C41.5731 79.3526 41.3379 79.2608 41.0931 79.257C40.3137 79.2094 39.5314 79.2557 38.763 79.3948C35.8467 79.9869 33.0816 81.1673 30.6368 82.864C28.251 84.5752 25.8493 86.2664 23.5429 88.0784C20.1846 90.7246 17.7704 94.113 15.842 97.897C14.4321 100.68 13.6536 103.739 13.5617 106.858C13.4795 109.04 13.472 111.234 13.5728 113.414C13.8354 118.553 15.3451 123.551 17.9715 127.977C19.4881 130.592 21.1625 133.083 22.8571 135.558C23.9168 137.097 25.155 138.516 26.3369 139.974C26.6772 140.357 27.0706 140.688 27.5049 140.959C27.6454 141.073 27.807 141.157 27.9804 141.207C28.1537 141.257 28.3353 141.273 28.5146 141.252C28.6938 141.231 28.8672 141.175 29.0246 141.087C29.1819 140.998 29.3201 140.879 29.4311 140.737C29.5358 140.6 29.6117 140.443 29.6544 140.276C29.6971 140.109 29.7056 139.935 29.6795 139.764C29.6534 139.594 29.5932 139.43 29.5024 139.284C29.4117 139.137 29.2923 139.01 29.1514 138.911C28.1487 138.029 27.2882 136.997 26.6004 135.853C24.945 133.227 23.3882 130.54 21.7429 127.906C20.0059 125.122 18.9774 122.062 18.0595 118.942C17.5921 117.262 17.3564 115.527 17.359 113.784C17.3226 111.292 17.2809 108.793 17.4294 106.308C17.689 101.885 19.7224 98.1654 22.3195 94.6981C23.7093 92.9244 25.3016 91.319 27.0638 89.9146C27.9697 89.13 28.899 88.4303 29.8125 87.7105Z" fill="#303030"/>
<path d="M118.361 28.8232C118.161 28.9527 117.999 29.1324 117.891 29.3441C117.783 29.5559 117.733 29.7924 117.745 30.0298C117.757 30.2673 117.832 30.4972 117.961 30.6968C118.09 30.8963 118.27 31.0583 118.481 31.1666C118.781 31.3355 119.118 31.427 119.462 31.4327C119.806 31.4383 120.146 31.3581 120.45 31.1992C121.559 30.6791 122.669 30.1531 123.75 29.5841C127.418 27.6504 131.505 26.6473 135.651 26.6629C144.35 26.6502 151.827 29.7897 158.257 35.5665C160.778 37.8208 163 40.3894 164.867 43.2095C166.187 45.2018 167.586 47.1426 168.959 49.0926C169.126 49.3504 169.337 49.5765 169.583 49.7603C169.736 49.8882 169.924 49.9675 170.122 49.9883C170.321 50.009 170.521 49.9703 170.697 49.8769C170.873 49.7835 171.018 49.6398 171.112 49.464C171.207 49.2881 171.246 49.0882 171.227 48.8897C171.184 48.2802 171.016 47.6859 170.733 47.1445C169.975 45.6571 169.149 44.2014 168.346 42.7331C166.697 39.8153 164.722 37.0948 162.457 34.6244C157.213 28.7784 150.183 24.8309 142.462 23.397C138.633 22.6379 134.698 22.586 130.85 23.244C127.69 23.8185 124.651 24.925 121.861 26.5165C120.634 27.1839 119.521 28.0445 118.361 28.8232Z" fill="#303030"/>
<path d="M97.3918 109.531C96.4542 108.092 95.5626 106.65 94.59 105.25C92.7055 102.483 89.9735 100.402 86.8049 99.3215C80.6172 97.1751 74.5165 97.4534 68.5864 100.324C66.9558 101.132 65.5574 102.34 64.5226 103.837C62.6842 106.374 62.769 109.1 64.0318 111.801C65.0909 114.064 66.8275 115.826 68.7686 117.377C71.5349 119.554 74.5299 121.423 77.7008 122.951C82.9424 125.527 88.2133 128.037 93.4841 130.546C99.0803 133.213 104.688 135.784 110.265 138.433C112.455 139.473 114.609 140.59 116.78 141.672C117.027 141.793 117.272 141.91 117.516 142.033C117.965 142.257 118.251 142.151 118.512 141.695C119.232 140.453 119.988 139.236 120.75 138.021C124.039 132.751 127.214 127.413 129.996 121.851C132.972 115.908 135.468 109.777 136.97 103.291C138.328 97.4148 138.7 91.5313 137.239 85.6222C136.224 81.5227 134.564 77.7577 131.789 74.5059C129.932 72.3225 127.32 70.9196 124.474 70.577C121.628 70.2345 118.758 70.9776 116.435 72.6579C113.354 74.8194 111.353 77.7516 109.728 81.0296C108.128 84.2284 107.165 87.6489 106.332 91.1091C105.486 94.7635 104.846 98.4627 104.415 102.189C104.126 104.529 103.83 106.869 103.447 109.195C103.267 110.133 102.979 111.047 102.589 111.919C102.175 112.914 101.335 113.168 100.426 112.567C99.812 112.137 99.249 111.638 98.7485 111.08C98.28 110.589 97.9044 110.009 97.481 109.471L97.3918 109.531Z" fill="#E31A3E"/>
</g>
<defs>
<clipPath id="clip0_413_3993">
<rect width="172.256" height="108.434" fill="white" transform="matrix(-0.785451 0.618923 0.618923 0.785451 135.299 0)"/>
</clipPath>
</defs>
</svg>
