<svg width="203" height="193" viewBox="0 0 203 193" fill="none" xmlns="http://www.w3.org/2000/svg">
<g clip-path="url(#clip0_413_3986)">
<path d="M103.055 103.114L103.678 102.337C107.548 97.3841 112.654 94.5554 118.843 93.6693C124.66 92.8518 130.282 93.5218 135.601 96.1413C138.042 97.3169 140.15 99.0821 141.737 101.278C144.753 105.459 144.833 109.912 142.792 114.468C141.409 117.562 139.055 119.911 136.422 121.966C133.231 124.429 129.774 126.527 126.116 128.221C116.3 132.846 106.452 137.408 96.6186 141.993C93.9919 143.219 91.3193 144.359 88.7333 145.679C86.8815 146.622 85.1797 147.822 83.4046 148.909C83.0853 149.102 82.7779 149.322 82.4472 149.495C81.5253 149.962 80.9873 149.799 80.5574 148.852C80.3092 148.327 80.1247 147.775 80.0079 147.206C79.6778 145.742 79.0937 144.346 78.2821 143.083C74.6122 136.942 70.8622 130.846 67.7101 124.408C64.5187 117.889 61.8389 111.182 60.2973 104.067C59.0923 98.5155 58.6879 92.9148 59.6443 87.2706C60.3918 82.4283 62.1761 77.8045 64.8753 73.7154C66.7326 70.9739 68.9823 68.5907 72.0259 67.1177C76.8343 64.7688 81.71 64.9887 86.4624 67.1811C90.4592 69.0309 93.3551 72.097 95.5921 75.8624C98.0558 80.0286 99.6123 84.5198 100.731 89.181C101.722 93.3675 102.451 97.6116 102.914 101.889C102.93 102.258 102.985 102.565 103.055 103.114ZM104.815 109.84L104.752 109.789C104.324 110.323 103.934 110.892 103.471 111.387C102.966 111.941 102.399 112.435 101.781 112.86C100.867 113.453 100.029 113.193 99.6241 112.194C99.2414 111.319 98.9608 110.403 98.7879 109.464C98.4246 107.134 98.1482 104.792 97.8779 102.45C97.4751 98.711 96.8617 94.9979 96.0407 91.3282C95.2357 87.8613 94.2905 84.4464 92.7275 81.2211C91.1218 77.9398 89.1532 74.9813 86.0895 72.7945C83.7812 71.095 80.9171 70.3283 78.0685 70.6474C75.2199 70.9664 72.5964 72.3477 70.7213 74.5157C67.9173 77.7478 66.2253 81.493 65.18 85.5867C63.6624 91.4936 64.0105 97.3833 65.3028 103.257C66.7414 109.769 69.1866 115.92 72.1241 121.874C74.8596 127.459 77.9906 132.823 81.2359 138.119C81.988 139.341 82.7342 140.564 83.4435 141.812C83.7009 142.27 83.9866 142.378 84.4368 142.159C84.682 142.037 84.9278 141.922 85.1763 141.803C87.3554 140.739 89.5185 139.64 91.7176 138.619C97.3229 136.021 102.962 133.477 108.563 130.87C113.864 128.412 119.156 125.946 124.408 123.405C127.592 121.903 130.602 120.059 133.386 117.905C135.34 116.37 137.104 114.633 138.169 112.368C139.454 109.678 139.548 106.969 137.744 104.4C136.721 102.895 135.333 101.675 133.709 100.855C127.803 97.9347 121.704 97.6061 115.499 99.7014C112.323 100.756 109.575 102.812 107.668 105.562C106.668 106.974 105.757 108.419 104.815 109.84Z" fill="#303030"/>
<path d="M47.1952 59.6772C42.4355 65.7254 40.3247 72.6801 40.2493 80.2742C40.2214 83.1395 40.4346 86.0116 40.6645 88.8697C41.1633 94.968 41.8998 101.043 42.9923 107.064C43.2448 108.471 43.6469 109.857 43.9795 111.247L44.0061 111.35C44.2937 112.359 44.0167 113.046 43.2506 113.298C42.4845 113.55 41.7964 113.157 41.4727 112.18C40.9094 110.569 40.4283 108.931 40.0313 107.271C38.5178 100.115 37.3995 92.8805 36.6816 85.601C36.1286 80.8051 36.4106 75.9497 37.5148 71.25C38.4165 67.526 39.9558 63.9862 42.0646 60.7872C49.475 49.5923 60.1094 44.2744 73.3477 43.9254C78.8979 43.7177 84.4181 44.8326 89.4527 47.1781C94.7891 49.7014 99.3374 53.2151 102.835 58.0185C103.997 59.6121 105.255 61.1523 105.998 63.008C106.165 63.3055 106.365 63.5835 106.594 63.8365C107.209 64.6904 107.11 65.6686 106.349 66.1934C105.589 66.7183 104.689 66.419 104.077 65.5618C102.62 63.5112 101.198 61.4293 99.6464 59.4681C97.389 56.7159 94.6845 54.3632 91.6463 52.5086C83.1867 47.1205 74.0345 46.5415 64.5392 48.8656C59.4263 50.0684 54.6986 52.5393 50.7921 56.0505C49.5198 57.1732 48.3901 58.4596 47.1952 59.6772Z" fill="#303030"/>
<path d="M155.654 134.102C150.712 140.277 144.153 144.958 136.707 147.624C133.372 148.846 130 149.963 126.632 151.089C125.857 151.349 125.054 151.519 124.239 151.593C124.06 151.621 123.877 151.61 123.702 151.562C123.527 151.514 123.364 151.429 123.224 151.313C123.084 151.198 122.971 151.054 122.891 150.891C122.811 150.728 122.766 150.55 122.76 150.369C122.706 149.684 123.04 149.24 123.828 148.94C125.104 148.456 126.387 147.983 127.651 147.472C131.165 146.048 134.673 144.624 138.171 143.159C142.892 141.217 147.148 138.297 150.659 134.592C157.031 127.858 160.408 119.836 160.597 110.568C160.792 104.76 158.748 99.0988 154.888 94.7547C152.9 92.4909 150.566 90.5572 147.972 89.0261C143.083 86.1569 137.767 84.0865 132.225 82.8931C129.956 82.3926 127.638 82.1451 125.315 82.1552C124.427 82.1558 123.536 82.0989 122.666 82.0427C121.796 81.9865 121.135 81.4845 121.074 80.7673C121.063 80.5863 121.088 80.405 121.147 80.2338C121.207 80.0625 121.3 79.9048 121.421 79.7697C121.542 79.6347 121.688 79.5251 121.852 79.4472C122.015 79.3694 122.193 79.3247 122.374 79.3161C123.681 79.077 125.006 78.9564 126.334 78.9556C134.22 79.1594 141.923 81.3726 148.715 85.3855C153.571 88.2143 157.731 91.8285 160.586 96.7242C163.863 102.343 164.765 108.457 163.822 114.83C163.11 120.021 161.39 125.023 158.757 129.553C157.841 131.093 156.71 132.565 155.654 134.102Z" fill="#303030"/>
<path d="M172.572 88.5774C169.628 86.1288 166.266 84.2325 162.648 82.9797C162.044 82.7507 161.462 82.4677 160.909 82.1341C160.693 82.0222 160.521 81.8404 160.421 81.6183C160.322 81.3962 160.3 81.1469 160.36 80.911C160.394 80.6685 160.513 80.446 160.697 80.2844C160.881 80.1228 161.117 80.0329 161.362 80.0311C162.141 79.99 162.923 80.0427 163.69 80.1881C166.602 80.8042 169.357 82.0074 171.788 83.7242C174.159 85.4551 176.547 87.1659 178.838 88.9969C182.175 91.6708 184.561 95.079 186.458 98.8787C187.845 101.673 188.598 104.739 188.664 107.858C188.729 110.041 188.718 112.235 188.599 114.414C188.294 119.551 186.743 124.536 184.081 128.94C182.543 131.543 180.848 134.02 179.133 136.481C178.06 138.01 176.81 139.419 175.617 140.868C175.273 141.248 174.877 141.576 174.441 141.843C174.299 141.955 174.137 142.038 173.963 142.087C173.789 142.136 173.608 142.15 173.428 142.128C173.249 142.105 173.076 142.048 172.92 141.958C172.763 141.868 172.626 141.749 172.516 141.605C172.413 141.467 172.338 141.31 172.297 141.142C172.255 140.975 172.248 140.801 172.276 140.631C172.303 140.46 172.365 140.297 172.457 140.151C172.549 140.005 172.669 139.88 172.811 139.781C173.821 138.908 174.69 137.883 175.387 136.745C177.064 134.133 178.643 131.458 180.31 128.838C182.07 126.068 183.124 123.017 184.067 119.905C184.548 118.229 184.798 116.495 184.81 114.752C184.867 112.261 184.929 109.763 184.801 107.277C184.578 102.851 182.576 99.1151 180.007 95.6265C178.632 93.8414 177.053 92.2229 175.303 90.804C174.403 90.0119 173.48 89.3047 172.572 88.5774Z" fill="#303030"/>
<path d="M84.5127 28.9619C84.711 29.093 84.8713 29.274 84.9776 29.4867C85.0838 29.6993 85.1323 29.9362 85.118 30.1735C85.1038 30.4109 85.0275 30.6402 84.8966 30.8387C84.7657 31.0372 84.5849 31.1977 84.3724 31.3042C84.0715 31.4706 83.7338 31.5593 83.3899 31.5622C83.046 31.565 82.7068 31.482 82.4032 31.3205C81.2985 30.7914 80.1932 30.2562 79.1167 29.6784C75.4651 27.7145 71.387 26.6776 67.2409 26.6591C58.5417 26.5747 51.0395 29.6524 44.5621 35.3759C42.0221 37.6094 39.7793 40.1596 37.8888 42.9642C36.5529 44.9456 35.1383 46.8748 33.749 48.8134C33.5801 49.0698 33.3669 49.2941 33.1194 49.4759C32.9652 49.6025 32.7768 49.6803 32.5782 49.6994C32.3796 49.7185 32.1798 49.6782 32.0042 49.5833C31.8287 49.4885 31.6854 49.3435 31.5925 49.167C31.4997 48.9904 31.4615 48.7901 31.4829 48.5917C31.5302 47.9826 31.7031 47.3898 31.9906 46.8507C32.7611 45.3696 33.599 43.9208 34.4143 42.4591C36.0868 39.555 38.0848 36.851 40.3696 34.3993C45.6615 28.5967 52.724 24.7073 60.4569 23.3372C64.2919 22.6097 68.2276 22.5902 72.0696 23.2799C75.2246 23.8804 78.2548 25.012 81.0311 26.6264C82.2525 27.3039 83.3582 28.1736 84.5127 28.9619Z" fill="#303030"/>
<path d="M104.815 109.84C105.765 108.409 106.668 106.974 107.652 105.582C109.559 102.83 112.309 100.773 115.486 99.718C121.691 97.6228 127.789 97.9513 133.696 100.871C135.319 101.692 136.708 102.912 137.73 104.417C139.548 106.969 139.44 109.694 138.155 112.385C137.078 114.639 135.327 116.386 133.373 117.922C130.589 120.075 127.578 121.92 124.395 123.422C119.132 125.955 113.841 128.421 108.549 130.887C102.931 133.507 97.3029 136.032 91.7043 138.635C89.5052 139.656 87.3421 140.755 85.163 141.82C84.9145 141.938 84.6686 142.054 84.4235 142.175C83.9732 142.395 83.6875 142.287 83.4302 141.828C82.7208 140.58 81.9747 139.358 81.2225 138.136C77.9773 132.839 74.8463 127.475 72.1107 121.891C69.1839 115.924 66.7387 109.772 65.2894 103.274C63.9805 97.3866 63.6571 91.5001 65.1667 85.6033C66.2153 81.5123 67.9066 77.7611 70.7079 74.5324C72.583 72.3644 75.2066 70.983 78.0552 70.6639C80.9038 70.3449 83.7679 71.1116 86.0762 72.811C89.1399 74.9979 91.1164 77.9464 92.7141 81.2378C94.2878 84.4496 95.2224 87.8779 96.0273 91.3449C96.8434 95.0062 97.4527 98.7105 97.8525 102.44C98.1229 104.783 98.3993 107.125 98.7625 109.454C98.9354 110.394 99.216 111.31 99.5988 112.185C100.004 113.183 100.842 113.444 101.756 112.85C102.374 112.426 102.941 111.932 103.446 111.378C103.918 110.891 104.299 110.313 104.726 109.78L104.815 109.84Z" fill="#E31A3E"/>
</g>
<defs>
<clipPath id="clip0_413_3986">
<rect width="172.256" height="108.434" fill="white" transform="translate(67.8125) rotate(38.71)"/>
</clipPath>
</defs>
</svg>
