<svg width="143" height="31" viewBox="0 0 143 31" fill="none" xmlns="http://www.w3.org/2000/svg">
<path d="M16.5413 7.84492C15.949 6.87741 14.486 7.40997 13.4628 7.22357C12.5653 6.46909 13.391 5.19092 12.1435 4.56071C10.5549 4.35655 11.587 6.28269 10.9946 7.22357L8.30208 7.56976C8.52885 6.84297 8.66744 6.09208 8.71493 5.33293C8.57642 5.09839 8.38708 4.89714 8.1605 4.74366C7.93391 4.59018 7.67573 4.48828 7.40455 4.44531C6.63269 5.57259 6.50704 7.16143 5.72619 8.15556L0 9.61127C0.233356 13.4635 3.74265 9.8243 5.70823 10.4989L5.49283 13.6056C5.80696 15.5761 3.00669 14.1026 2.54896 15.2476C2.54896 16.4726 4.00294 16.8187 5.24152 16.8631C5.43 17.9549 4.94533 19.8189 6.38137 19.9432C6.57673 19.6623 6.70076 19.3389 6.74294 19.0005C6.78513 18.6621 6.74424 18.3187 6.62371 17.9993C6.0134 15.514 9.07396 16.5613 10.3125 15.6649C10.492 17.0495 10.2497 18.9934 10.3125 20.4491C10.2639 20.632 10.2676 20.8247 10.3232 21.0056C10.3788 21.1866 10.4841 21.3487 10.6275 21.4739C10.7708 21.5991 10.9465 21.6824 11.135 21.7146C11.3234 21.7468 11.5172 21.7267 11.6947 21.6563L12.5204 15.3098C14.2526 14.1381 16.7119 14.218 18.0582 12.6469L17.385 11.6794C15.9112 12.0753 14.4119 12.3719 12.8974 12.5671L13.2025 9.30946C14.3823 8.98921 15.5814 8.74318 16.7926 8.57277C16.6041 8.13784 16.7747 7.99581 16.5413 7.84492ZM9.44192 13.6056L7.26993 14.0405L7.84433 9.85095L10.8959 9.45151C10.6625 11.1114 11.3716 13.0996 9.44192 13.6056Z" fill="black"/>
<path fill-rule="evenodd" clip-rule="evenodd" d="M138.041 19.1934C135.761 19.7005 134.072 18.4442 133.977 16.2512C133.881 14.0801 134.365 11.9815 135.154 9.96823C135.339 9.49339 135.533 8.69249 136.396 9.20226C137.092 9.61371 138.563 9.2786 137.933 10.9671C137.524 12.0643 137.166 13.2132 137.136 14.4152C137.126 14.8111 136.92 15.3649 137.487 15.4826C137.935 15.5745 138.365 15.3028 138.622 14.8719C138.914 14.3563 139.14 13.806 139.296 13.2339C139.461 12.6685 139.78 12.1406 139.895 11.5687C140.099 10.5582 140.482 10.2503 141.564 10.6164C142.772 11.0266 143.133 11.2336 142.959 12.5042C142.253 17.6368 141.041 22.6298 138.462 27.1842C137.557 28.7821 136.522 30.2764 134.467 30.6309C131.824 31.0864 129.446 29.0085 129.662 26.3328C129.698 25.8774 129.783 25.2084 130.298 25.2809C130.984 25.3779 131.916 25.2369 132.261 26.1051C132.449 26.5773 132.346 27.1932 133.037 27.3148C133.336 27.3699 133.645 27.3325 133.923 27.2077C134.2 27.0829 134.433 26.8766 134.59 26.6162C136.072 24.3099 137.232 21.8127 138.041 19.1934Z" fill="black"/>
<path fill-rule="evenodd" clip-rule="evenodd" d="M123.827 15.9203C124.069 13.7311 125.137 12.1474 126.863 10.6737C127.864 9.81718 129.153 9.92199 130.201 10.7074C130.37 10.8367 130.453 11.0205 130.767 10.86C131.617 10.4253 132.139 10.6569 132.326 11.6557C132.715 13.7375 133.002 15.8491 133.302 17.9361C133.42 18.6723 133.642 19.1458 133.133 19.7255C132.561 20.3724 131.783 20.4707 131.027 20.6312C130.652 20.714 130.588 20.3569 130.554 20.133C130.44 19.3878 130.058 19.4563 129.565 19.7449C129.481 19.794 129.387 19.8277 129.3 19.8743C126.495 21.2936 123.752 19.5184 123.827 15.9203ZM129.52 15.2914C129.479 14.5022 129.77 13.6095 129.039 13.4335C128.142 13.2174 127.385 13.9109 127.169 15.6162C127.062 16.7587 127.845 17.2891 128.916 16.8725C129.633 16.5905 129.48 16.0729 129.521 15.2966L129.52 15.2914Z" fill="black"/>
<path fill-rule="evenodd" clip-rule="evenodd" d="M113.375 3.71305C113.428 2.06598 113.582 2.03105 115.237 1.92236C128.765 4.00287 124.471 19.4165 114.725 21.3119C114.04 21.4413 113.69 21.3753 113.708 20.5356C113.726 19.6959 113.22 8.48605 113.375 3.71305ZM116.374 5.01983C116.374 5.01983 117.182 15.87 117.395 15.861C121.726 15.685 120.766 4.65884 116.374 5.01983Z" fill="black"/>
<path fill-rule="evenodd" clip-rule="evenodd" d="M100.007 19.5603C98.6916 19.6095 98.7407 19.5927 98.3099 18.3079C97.4404 15.7202 96.8427 13.0743 96.2475 10.4154C95.8231 8.51737 95.4155 6.61541 95.0119 4.71217C94.9006 4.19463 95.0002 3.98502 95.673 3.87117C96.5192 3.72755 96.624 3.71202 97.355 3.62663C98.086 3.54123 98.3176 3.68744 98.4393 4.33824C98.9827 7.25198 99.3087 10.2045 100.09 13.0743C100.608 14.9581 101.19 16.8135 101.883 18.6378C102.23 19.5435 102.18 19.6237 101.181 19.5966C100.911 19.5953 100.128 19.5552 100.007 19.5603Z" fill="black"/>
<path fill-rule="evenodd" clip-rule="evenodd" d="M88.7259 23.033C89.5428 22.9631 89.613 22.8325 89.7671 24.0011C89.8276 24.9353 89.9886 25.2156 90.7293 25.251C91.47 25.2865 91.9768 24.8151 92.1758 24.1468C92.5597 22.8316 92.4219 21.4899 92.5325 20.1611C92.5833 19.5567 92.5436 18.9486 92.5342 18.343C92.5272 17.8936 92.3868 17.7099 91.8088 17.9388C89.7318 18.7647 87.6526 17.7038 87.5644 15.7187C87.4849 13.9478 87.8406 12.2213 89.1024 10.7355C90.135 9.52009 90.9087 9.19229 92.1116 9.74363C92.6666 9.9941 93.144 9.5566 93.7387 9.62304C94.5402 9.71312 94.7805 10.0312 94.6711 10.5872C94.845 13.2422 94.9869 14.0313 95.2921 16.5346C95.5698 19.5309 95.844 22.5408 94.688 25.5121C93.4042 29.3747 89.4575 28.898 88.4183 27.9453C87.342 26.9583 86.9666 25.7041 87.0956 24.3468C87.1996 23.2055 87.2954 23.1799 88.7259 23.033ZM92.2984 12.2991C92.188 11.9365 92.3465 11.5254 91.8112 11.395C91.4775 11.3085 91.2028 11.2938 90.9146 11.5236C90.0886 12.1872 89.8661 14.4586 90.563 15.2111C90.6905 15.3556 90.8563 15.461 91.0414 15.515C91.2264 15.5689 91.4229 15.5691 91.6081 15.5157C91.999 15.4224 92.162 15.2038 92.1676 14.8103C92.1692 13.9513 92.2509 13.0962 92.2976 12.2926L92.2984 12.2991Z" fill="black"/>
<path fill-rule="evenodd" clip-rule="evenodd" d="M86.6798 17.9963C87.0122 18.8337 86.4971 19.1976 85.5748 19.2664C85.4184 19.2913 85.2645 19.3294 85.1145 19.3803C83.1636 19.8624 83.056 19.8226 83.1157 17.7445C82.9379 15.4161 82.8111 14.1472 82.2896 12.4034C81.8373 10.891 79.6301 10.0942 78.3649 10.9921C78.0292 11.2325 78.1584 11.5853 78.2252 11.871C78.4946 15.3558 78.7757 17.1586 78.9623 19.8105C78.9947 20.2697 78.6691 20.413 78.3175 20.5111C77.3169 20.7897 76.2917 20.657 75.2774 20.6601C74.7327 20.6617 74.6432 20.1716 74.6277 19.7563C74.5451 16.8584 74.156 13.9846 73.9454 11.0974C73.8806 10.21 73.7421 9.32928 73.6256 8.44722C73.5646 7.9855 73.6238 7.87405 74.2136 7.79851C74.8732 7.715 75.322 7.65023 76.1795 7.55188C76.8909 7.46951 77.3201 7.36987 77.4233 8.13034C77.5146 8.79381 77.8571 8.65434 78.2136 8.45012C81.2708 6.69931 85.3663 8.54096 86.0199 12.0181C86.3804 13.9928 86.6009 15.9906 86.6798 17.9963V17.9963Z" fill="black"/>
<path fill-rule="evenodd" clip-rule="evenodd" d="M70.7954 20.8335C68.6509 20.868 68.4705 10.8569 68.431 10.6451C68.1878 9.34586 68.5161 8.76109 69.6533 8.49556C70.6758 8.2574 71.9001 8.95365 72.0744 9.99245C72.346 11.6029 72.9987 17.6208 73.2967 18.9707C73.4933 19.8656 73.2896 20.2984 72.4362 20.5528C71.894 20.7149 71.3599 20.8436 70.7954 20.8335Z" fill="black"/>
<path fill-rule="evenodd" clip-rule="evenodd" d="M71.9021 5.85649C71.8819 7.0463 71.3234 7.51553 69.9522 7.49526C68.7523 7.47803 68.0509 6.94495 68.0611 6.05918C68.0783 4.79539 68.8921 3.61369 69.7515 3.60457C70.7356 3.59342 71.9224 4.83491 71.9021 5.85649Z" fill="black"/>
<path fill-rule="evenodd" clip-rule="evenodd" d="M62.3765 0.515694C65.0379 0.515694 67.1133 2.74111 66.958 5.26152C66.9257 5.77906 66.9476 5.85928 66.1817 6.10899C65.5348 6.2125 65.113 6.27978 64.5799 6.38458C64.0468 6.48938 63.7881 6.25519 63.6574 5.77647C63.6367 5.70143 63.6186 5.62509 63.5953 5.55134C62.9018 3.29617 61.6351 3.82277 60.5457 4.98076C59.7797 5.79459 58.7589 7.52317 60.4681 8.99168C61.7995 9.87075 63.1773 10.6776 64.5954 11.4086C72.2511 16.1648 64.0248 22.4063 59.2635 20.4526C58.002 19.8173 56.8763 19.0565 56.3743 17.6242C55.9344 16.3679 56.1156 15.9422 57.3693 15.5864C57.6915 15.4946 58.046 15.4958 58.3552 15.3729C59.2402 15.021 59.8535 15.2435 60.3736 16.0587C60.7618 16.6551 62.0064 16.9165 62.6702 16.6771C63.5565 16.3576 63.8346 15.5528 63.2977 14.7195C62.8125 13.9626 62.0466 13.5551 61.2405 13.2303C59.8535 12.6688 58.5571 12.0038 57.544 10.8341C55.9512 8.99944 54.7777 4.37653 60.0385 1.07981C60.8213 0.645077 61.6235 0.436769 62.3765 0.515694Z" fill="black"/>
<path fill-rule="evenodd" clip-rule="evenodd" d="M54.8817 8.82554C55.966 10.2281 56.6672 11.1221 55.4239 11.8868C54.0705 12.6838 52.9073 13.5248 50.9316 14.6569C50.5047 14.9014 50.5215 15.0619 50.7828 15.3802C51.8037 16.9755 53.2541 16.0556 53.2916 14.8885C53.179 13.7409 54.1895 13.7059 54.8921 13.4019C55.8457 13.1224 55.8677 13.5545 55.9181 14.2713C55.997 15.397 55.3747 17.6832 53.8816 18.4556C50.9239 19.9681 48.0994 18.2279 47.49 14.8898C47.1484 13.0189 47.4693 11.355 48.5406 9.85673C50.2239 7.19917 53.4844 7.28068 54.8817 8.82554ZM49.9858 13.0551C50.1553 13.2363 52.5645 11.5879 52.8426 11.2036C53.0794 10.8776 52.2578 10.0055 51.1063 10.4416C49.8357 11.2204 49.4075 12.4328 49.9897 13.0551H49.9858Z" fill="black"/>
<path fill-rule="evenodd" clip-rule="evenodd" d="M110 9.47226C111.084 10.8748 111.785 11.7688 110.542 12.5335C109.188 13.3305 108.025 14.1715 106.049 15.3036C105.623 15.5482 105.639 15.7086 105.901 16.0269C106.922 17.6222 108.372 16.7023 108.409 15.5352C108.297 14.3876 109.307 14.3527 110.01 14.0486C110.964 13.7691 110.986 14.2013 111.036 14.9181C111.115 16.0437 110.493 18.3299 108.999 19.1024C106.042 20.6149 103.217 18.8746 102.608 15.5365C102.266 13.6656 102.587 12.0017 103.658 10.5035C105.342 7.8459 108.602 7.92741 110 9.47226ZM105.104 13.7018C105.273 13.883 107.682 12.2346 107.96 11.8504C108.197 11.5243 107.376 10.6523 106.224 11.0883C104.954 11.8672 104.525 13.0795 105.108 13.7018H105.104Z" fill="black"/>
<path fill-rule="evenodd" clip-rule="evenodd" d="M47.2055 18.275C47.5355 19.1134 47.0192 19.4757 46.0967 19.5417C45.9403 19.5661 45.7862 19.6038 45.6361 19.6542C43.6837 20.1304 43.5763 20.0903 43.6423 18.0123C43.4715 15.6834 43.3486 14.4142 42.8323 12.6688C42.3847 11.155 40.1799 10.3515 38.912 11.2455C38.5756 11.4849 38.7037 11.8381 38.7697 12.124C39.0284 15.6097 39.304 17.4133 39.4826 20.0657C39.5136 20.525 39.1876 20.6673 38.8356 20.7644C37.8342 21.0399 36.8095 20.9041 35.7951 20.9041C35.2504 20.9041 35.1624 20.4137 35.1482 19.9984C35.0744 17.1002 34.694 14.2253 34.4922 11.3374C34.4301 10.4498 34.2942 9.5687 34.1804 8.6863C34.1209 8.2244 34.1804 8.11312 34.7704 8.03937C35.4302 7.95786 35.8792 7.89446 36.737 7.79871C37.4486 7.7185 37.8782 7.62016 37.9791 8.38094C38.0684 9.04469 38.4113 8.90625 38.7684 8.70312C41.8309 6.9616 45.9207 8.81568 46.5638 12.2948C46.9183 14.2706 47.1327 16.269 47.2055 18.275V18.275Z" fill="black"/>
<path fill-rule="evenodd" clip-rule="evenodd" d="M22 11.5455C22.6599 3.93893 27.2349 1.19468 28.2105 0.769007C29.5871 0.168662 30.5717 0.639626 31.5538 1.50133C33.2707 3.00348 33.9267 4.99471 34.0638 7.17096C34.2911 10.3931 33.7237 13.6217 32.4116 16.5733C31.7427 18.069 30.7878 19.3991 29.3529 20.2725C27.2918 21.5275 24.9538 20.944 23.6354 18.9294C22.3066 16.8903 21.9987 14.6119 22 11.5455ZM26.2697 12.7668C26.3305 14.3492 26.4418 14.9832 26.7406 16.0675C26.9192 16.7144 27.3565 16.99 27.9478 17.0223C28.5391 17.0547 28.6232 16.5539 28.7241 16.1166C28.825 15.6793 28.9247 15.2627 28.9945 14.8318C29.4733 11.8754 30.247 8.93318 29.8174 5.91464C29.7566 5.48378 29.6156 4.92096 29.1291 4.76829C28.5844 4.59621 28.213 5.05035 27.8935 5.44239C27.5739 5.83442 25.9721 7.9615 26.2658 12.7668H26.2697Z" fill="black"/>
</svg>
