<svg width="77" height="104" viewBox="0 0 77 104" fill="none" xmlns="http://www.w3.org/2000/svg">
<g clip-path="url(#clip0_413_3839)">
<path d="M15.9601 87.0844C15.959 86.9798 15.9998 86.8236 15.9462 86.7734C15.7702 86.6434 15.5865 86.5245 15.3961 86.4174C10.304 83.007 7.63751 78.1941 7.45854 72.0466C7.32607 67.4413 8.85679 63.4213 12.0936 60.1457C14.3749 57.8027 17.3858 56.3283 20.6202 55.9704C20.739 55.9568 20.8584 55.9338 20.9764 55.9125C20.9977 55.9101 21.015 55.8862 21.075 55.8434C21.0982 55.1686 21.1102 54.4623 21.1452 53.7549C21.414 48.527 22.4867 43.4573 24.1663 38.5245C28.347 26.241 34.9265 15.4684 44.0867 6.3533C45.3967 5.05008 46.8116 3.85364 48.2129 2.64629C49.6141 1.43894 50.6832 1.45907 52.0791 2.7048C52.7154 3.27453 53.3382 3.86143 53.638 4.71501C53.8911 5.43013 53.7829 6.1052 53.3005 6.63862C50.7282 9.43343 49.22 12.8132 48.1815 16.4253C47.0529 20.3306 46.5545 24.3328 46.4305 28.3954C46.3161 32.2016 46.5642 36.0111 47.1713 39.7712C48.1016 45.5499 49.7231 51.1074 52.5696 56.253C52.8397 56.7395 53.1418 57.2083 53.4484 57.7157C53.6807 57.5063 53.8612 57.3559 54.0364 57.1874C55.5216 55.7968 57.3837 54.8869 59.3852 54.574C61.2682 54.2878 63.1943 54.589 64.9073 55.4374C67.521 56.6941 69.4245 58.7212 70.8413 61.2306C72.4464 64.0781 73.2418 67.1618 73.4034 70.4274C73.555 72.9818 73.2507 75.5416 72.5053 77.9843C71.9258 79.9125 71.0096 81.7191 69.8001 83.3187C69.7236 83.4196 69.7607 83.6092 69.7453 83.7579C69.564 83.8599 69.336 83.9187 69.2062 84.0664C68.1008 85.3713 66.7138 86.4013 65.1519 87.0775C63.8999 87.605 62.6204 88.0138 61.2281 87.8665C60.9385 87.8448 60.6493 87.911 60.3976 88.0567C59.0756 88.8643 57.6364 89.4575 56.1322 89.8148C54.9766 90.0663 53.7916 90.1543 52.6112 90.0764C50.8708 89.9884 49.1605 89.5749 47.5672 88.8567C46.1824 88.2717 44.877 87.5094 43.6831 86.5885C42.7763 85.8668 41.9861 84.9911 41.1659 84.1626C40.7224 83.713 40.5952 83.7213 40.2483 84.2393C39.9659 84.691 39.6347 85.1095 39.2608 85.4869C37.7525 86.9579 35.7334 87.7709 33.636 87.752C32.6717 87.7768 31.7086 87.6572 30.778 87.397C30.5739 87.3279 30.3584 87.3005 30.144 87.3161C29.9295 87.3317 29.7204 87.3902 29.5287 87.4881C27.5361 88.452 25.4226 88.831 23.2122 88.7928C20.9869 88.7409 18.7976 88.2023 16.7947 87.2142C16.5513 87.0966 16.238 87.1246 15.9601 87.0844ZM49.5587 58.6681C47.2762 58.7162 45.0971 59.1153 43.142 60.339C38.9768 62.9344 37.251 66.8814 37.191 71.6806C37.1553 74.8953 38.055 77.8921 39.6821 80.6479C41.8307 84.2929 44.7919 87.0105 48.7948 88.4132C52.6402 89.762 56.3734 89.5888 59.8731 87.3038C60.2438 87.0649 60.6817 86.955 61.1203 86.991C63.3839 87.1153 65.3529 86.3371 67.1149 84.9634C69.3176 83.2441 70.7159 80.9569 71.6199 78.3293C73.0115 74.2939 73.0769 70.1911 71.9704 66.0863C71.1392 63.0004 69.6766 60.2523 67.2882 58.0759C63.5464 54.6738 58.6468 54.327 54.6796 57.736C54.4251 57.9542 54.1866 58.1909 53.9043 58.4498C54.2804 58.9446 54.6185 59.3905 54.9579 59.8347C55.3863 60.3953 55.4321 60.8637 55.02 61.4454C54.7838 61.7845 54.4939 62.0817 54.1618 62.325C53.2351 62.9842 52.1486 63.1224 51.0487 63.1699C50.9557 63.1805 50.8237 63.1737 50.7708 63.1156C50.6416 62.9602 50.5237 62.7956 50.4181 62.6229C50.5744 62.5457 50.7263 62.4158 50.8909 62.397C51.4182 62.3367 51.9573 62.3533 52.476 62.2581C52.8254 62.1947 53.2239 62.1289 53.4735 61.719C53.2138 61.7327 52.9553 61.7622 52.6993 61.8074C51.9275 61.9972 51.4117 61.7263 51.0223 61.0205C50.5725 60.2185 50.0448 59.4503 49.5556 58.6684L49.5587 58.6681ZM37.2803 66.0574C36.8256 66.2263 36.3623 66.371 35.8926 66.4911C35.4431 66.5758 34.9865 66.6159 34.5292 66.6109C34.4243 66.6119 34.2382 66.4018 34.2322 66.2822C34.2263 66.1625 34.4038 66.0406 34.5185 65.9368C34.5634 65.8973 34.6603 65.9206 34.7291 65.9018C35.3385 65.7494 35.9553 65.6211 36.5532 65.4356C37.3495 65.1858 38.0176 64.6318 38.4161 63.891C38.6985 63.3769 39.0366 62.8963 39.4242 62.4581C39.8706 61.9741 39.9636 61.4367 39.8803 60.8429C39.8497 60.477 39.7639 60.1178 39.6259 59.7778C38.9416 58.3695 38.048 57.1289 36.6602 56.3324C34.5506 55.1229 32.3136 55.1096 30.0229 55.5855C28.2256 55.9612 26.4621 56.5519 24.5871 56.4238C24.5505 56.4279 24.5094 56.4733 24.4135 56.539C24.4133 56.9563 24.4146 57.4141 24.421 57.9558C24.5832 57.8458 24.7571 57.7547 24.9395 57.684C25.0808 57.6507 25.2915 57.6438 25.3834 57.7177C25.5772 57.8878 25.4361 58.0712 25.2955 58.2185C25.2442 58.2697 25.1808 58.3098 25.1261 58.3582C23.6906 59.6164 21.7617 59.557 20.2872 58.7985C20.1576 58.7321 19.9945 58.6554 19.9489 58.5402C19.8754 58.3757 19.8608 58.1905 19.9076 58.0166C19.9293 57.95 20.205 57.917 20.3424 57.9575C20.6301 58.0635 20.911 58.1881 21.1831 58.3304C21.1598 57.775 21.1395 57.3272 21.1176 56.8248C20.8662 56.8536 20.7001 56.8725 20.5355 56.8913C16.9463 57.4202 13.9629 59.0897 11.7106 61.9417C8.56231 65.9246 7.62862 70.4813 8.72751 75.4514C9.6609 79.662 11.8935 83.0427 15.4552 85.4212C19.7238 88.2722 24.2858 88.7717 29.0299 86.7714C29.7016 86.4883 30.2822 86.422 30.9752 86.6367C32.6574 87.1672 34.4615 87.1401 36.1243 86.5595C37.7734 85.9944 39.063 84.9858 39.8042 83.3381C39.8892 83.1797 39.928 83 39.9162 82.8198C39.9044 82.6397 39.8423 82.4665 39.7373 82.3203C39.1125 81.2975 38.5182 80.2573 37.9896 79.1844C37.9217 79.0188 37.8093 78.8756 37.6653 78.7711C37.5213 78.6665 37.3514 78.6048 37.1748 78.5929C36.429 78.5104 35.6881 78.3863 34.9555 78.2212C33.9884 77.9701 33.1199 77.4249 32.4673 76.6592C31.8146 75.8935 31.4094 74.9442 31.3062 73.9395C31.2314 73.2267 31.3728 72.5083 31.7117 71.8801C32.0506 71.2519 32.5709 70.7437 33.2032 70.4231C33.8753 70.0701 34.6553 69.9883 35.3862 70.194C35.7921 69.6928 36.164 69.2455 36.5261 68.793C36.5843 68.7163 36.6267 68.6285 36.651 68.5349C36.8334 67.7403 37.0369 66.9668 37.2697 66.0586L37.2803 66.0574ZM45.7898 10.4634L45.655 10.4053C45.5151 10.5323 45.3559 10.6521 45.2236 10.7907C43.8171 12.2769 42.3406 13.7038 41.0232 15.2674C36.0957 21.1213 32.3578 27.7132 29.4613 34.806C27.0283 40.7657 25.2877 46.9215 24.6213 53.3578C24.5489 54.0757 24.5064 54.798 24.4506 55.5265C25.9323 55.7121 27.2484 55.3272 28.5584 54.9963C30.3366 54.5477 32.1135 54.2775 33.9516 54.4614C37.4742 54.8092 40.3851 57.856 40.7645 60.6903C40.7708 60.7459 40.8229 60.7962 40.8731 60.8842C42.0063 59.9069 43.2969 59.1336 44.6891 58.5976C46.0925 58.0574 47.5742 57.9053 49.1179 57.7962C45.412 50.3713 43.6781 42.5321 43.1359 34.4082C42.5937 26.2843 43.2046 18.2537 45.7791 10.4646L45.7898 10.4634ZM49.2347 3.46896C49.381 4.64175 50.6438 5.81675 51.945 5.96351C52.2688 5.99999 52.6538 6.09979 52.8822 5.76108C53.1106 5.42237 52.9434 5.05382 52.8072 4.713C52.7734 4.62085 52.7218 4.53641 52.6553 4.46464C52.1013 3.92615 51.5635 3.36706 50.9741 2.87012C50.8128 2.73823 50.6229 2.64704 50.4202 2.60415C50.2174 2.56126 50.0076 2.56788 49.8081 2.62348C49.3363 2.73678 49.1637 2.98314 49.224 3.47018L49.2347 3.46896ZM36.4169 73.9589C35.0545 74.0474 34.0318 75.446 34.4183 76.7351C34.4754 76.924 34.6222 77.1682 34.7838 77.231C35.5834 77.55 36.4363 77.7085 37.2948 77.6976C36.9798 76.4128 36.6931 75.1872 36.4062 73.9602L36.4169 73.9589ZM53.8208 61.6105C53.8009 61.5987 53.7777 61.5717 53.7612 61.5751C53.7193 61.5909 53.6786 61.6096 53.6394 61.6312C53.658 61.6447 53.6815 61.6749 53.6964 61.6701C53.7397 61.6545 53.7814 61.6345 53.8208 61.6105Z" fill="#303030"/>
<path d="M15.9594 87.0853C16.2403 87.1251 16.5536 87.0971 16.7986 87.2145C18.8015 88.2026 20.9907 88.7411 23.216 88.7931C25.4265 88.8313 27.5403 88.4554 29.5325 87.4884C29.7243 87.3905 29.9334 87.332 30.1478 87.3164C30.3622 87.3007 30.5777 87.3282 30.7819 87.3972C31.7124 87.6575 32.6755 87.7771 33.6399 87.7522C35.7362 87.7705 37.754 86.9576 39.2616 85.4875C39.6355 85.1101 39.9667 84.6916 40.2491 84.2399C40.5945 83.7222 40.722 83.7169 41.1667 84.1632C41.9869 84.9917 42.7771 85.8674 43.6839 86.5891C44.8778 87.51 46.1832 88.2724 47.568 88.8573C49.1613 89.5755 50.8716 89.9891 52.6121 90.077C53.7925 90.155 54.9774 90.0669 56.133 89.8154C57.6372 89.4581 59.0764 88.8649 60.3984 88.0574C60.6501 87.9117 60.9393 87.8454 61.2289 87.8671C62.6265 88.02 63.9053 87.6051 65.1527 87.0781C66.7147 86.402 68.1017 85.3719 69.207 84.0671C69.3368 83.9194 69.5648 83.8605 69.7461 83.7585C71.1294 85.0557 71.5597 86.8494 70.9155 88.5893C70.5542 89.5042 70.0098 90.3332 69.3164 91.0243C67.9376 92.4683 66.2796 93.5237 64.5305 94.4425C61.7008 95.9303 58.7026 96.97 55.6315 97.8038C50.9404 99.06 46.138 99.8484 41.2927 100.158C35.8581 100.533 30.4362 100.412 25.0576 99.3992C22.907 98.9931 20.7977 98.4353 18.7791 97.5639C17.6274 97.0972 16.5483 96.4639 15.5755 95.6838C15.1993 95.3737 14.8503 95.0313 14.5323 94.6604C13.1827 93.0639 12.9994 91.2295 14.0061 89.4061C14.4828 88.4977 15.1493 87.7058 15.9594 87.0853Z" fill="#303030"/>
<path d="M49.5549 58.6694C50.044 59.4513 50.5718 60.2194 51.0196 61.0311C51.409 61.7369 51.9247 62.0077 52.6965 61.818C52.9526 61.7728 53.2111 61.7432 53.4707 61.7295C53.2211 62.1394 52.8226 62.2053 52.4732 62.2686C51.9546 62.3638 51.4151 62.3442 50.8882 62.4075C50.7236 62.4263 50.5717 62.5562 50.4153 62.6335C50.521 62.8061 50.6389 62.9708 50.768 63.1262C50.821 63.1842 50.9523 63.1849 51.0459 63.1804C52.1459 63.1329 53.2324 62.9947 54.159 62.3355C54.4911 62.0922 54.7811 61.795 55.0172 61.4559C55.4294 60.8742 55.3836 60.4059 54.9552 59.8452C54.6157 59.401 54.2777 58.9551 53.9016 58.4603C54.1804 58.1987 54.422 57.9617 54.6768 57.7465C58.644 54.3375 63.5436 54.6844 67.2855 58.0864C69.673 60.2552 71.1365 63.0109 71.9676 66.0968C73.0743 70.2032 73.0118 74.3041 71.6172 78.3398C70.7125 80.9613 69.3149 83.2545 67.1122 84.9739C65.3501 86.3475 63.3804 87.1197 61.1176 87.0015C60.6789 86.9655 60.241 87.0754 59.8704 87.3144C56.3696 89.59 52.6365 89.7648 48.792 88.4237C44.7892 87.021 41.828 84.3034 39.6794 80.6584C38.0553 77.9022 37.1526 74.9058 37.1883 71.6912C37.2437 66.8925 38.968 62.9456 43.1392 60.3496C45.0933 59.1166 47.2724 58.7175 49.5549 58.6694ZM69.2891 67.4079C69.1226 66.8017 68.967 66.102 68.7475 65.4378C68.0827 63.4161 66.7441 61.8746 65.1964 60.5024C64.6775 60.0221 64.107 59.6022 63.4957 59.2509C62.9855 58.9751 62.4259 58.8062 61.8503 58.7543C60.9808 58.6832 60.4669 59.3609 60.6281 60.2178C60.7367 60.8306 61.0922 61.2933 61.503 61.7138C61.8263 62.0441 62.1919 62.3384 62.5355 62.6431C63.6383 63.594 64.4108 64.7609 64.7176 66.203C64.9108 67.1109 65.0273 68.0355 65.2011 68.9488C65.3593 69.7795 65.6142 70.5647 66.343 71.0926C67.0718 71.6205 67.8413 71.5591 68.4522 70.947C68.9295 70.4832 69.2198 69.8564 69.267 69.1876C69.2921 68.6236 69.2725 68.06 69.2891 67.4079Z" fill="#E31A3E"/>
<path d="M37.2689 66.0596C37.0354 66.9616 36.8327 67.7413 36.6237 68.5201C36.5995 68.6138 36.557 68.7015 36.4988 68.7783C36.1368 69.2307 35.7679 69.6777 35.359 70.1793C34.6281 69.9736 33.8481 70.0554 33.1759 70.4083C32.5436 70.729 32.0234 71.2372 31.6845 71.8654C31.3456 72.4936 31.2041 73.212 31.2789 73.9248C31.3821 74.9295 31.7874 75.8788 32.44 76.6445C33.0926 77.4102 33.9612 77.9554 34.9283 78.2065C35.6608 78.3716 36.4017 78.4957 37.1476 78.5781C37.3242 78.5901 37.4941 78.6518 37.6381 78.7564C37.7821 78.8609 37.8944 79.0041 37.9623 79.1697C38.4986 80.2416 39.0933 81.2851 39.7101 82.3056C39.8151 82.4518 39.8771 82.625 39.8889 82.8051C39.9008 82.9852 39.8619 83.1649 39.7769 83.3233C39.0388 84.9707 37.7461 85.9797 36.0971 86.5448C34.4342 87.1254 32.6301 87.1524 30.9479 86.6219C30.2549 86.4073 29.6743 86.4736 29.0027 86.7566C24.2585 88.757 19.6966 88.2575 15.4279 85.4064C11.8663 83.0279 9.63364 79.6473 8.70025 75.4367C7.60136 70.4666 8.5381 65.9095 11.6833 61.9269C13.9357 59.0749 16.9191 57.4055 20.5082 56.8766C20.6728 56.8578 20.8389 56.8388 21.0904 56.8101C21.1123 57.3125 21.1326 57.7603 21.1559 58.3157C20.8837 58.1734 20.6029 58.0488 20.3151 57.9428C20.1792 57.9021 19.902 57.9353 19.8803 58.0019C19.8336 58.1758 19.8482 58.3609 19.9216 58.5255C19.9733 58.6399 20.1364 58.7166 20.2599 58.7838C21.736 59.5421 23.6626 59.5955 25.0989 58.3435C25.1536 58.2951 25.2169 58.255 25.2682 58.2038C25.4058 58.0568 25.55 57.8731 25.3561 57.7029C25.2636 57.6229 25.0536 57.6359 24.9123 57.6692C24.7299 57.7399 24.5559 57.8311 24.3937 57.9411C24.392 57.3989 24.3906 56.9411 24.3862 56.5242C24.4822 56.4585 24.527 56.405 24.5599 56.409C26.4272 56.538 28.1983 55.9465 29.9956 55.5707C32.2858 55.0903 34.5233 55.1082 36.633 56.3177C38.0208 57.1142 38.9144 58.3548 39.5986 59.7631C39.7366 60.103 39.8224 60.4622 39.8531 60.8282C39.937 61.4282 39.8441 61.9656 39.3969 62.4434C39.0094 62.8816 38.6713 63.3621 38.3888 63.8762C37.9904 64.6171 37.3222 65.171 36.5259 65.4208C35.9295 65.6062 35.3113 65.7346 34.7019 65.8871C34.6328 65.9043 34.5362 65.8826 34.4913 65.9221C34.3764 66.0243 34.1997 66.1539 34.205 66.2674C34.2102 66.3809 34.397 66.5972 34.5019 66.5961C34.9593 66.6011 35.4159 66.561 35.8653 66.4763C36.3401 66.3624 36.8086 66.2233 37.2689 66.0596ZM11.2876 70.355C11.3881 71.2344 11.6438 72.054 11.9713 72.5011C12.6128 73.3735 13.6217 73.3536 14.1796 72.4395C14.3584 72.1486 14.5016 71.8367 14.6061 71.5108C14.7994 70.9056 14.9559 70.2891 15.1141 69.6739C15.5133 68.1137 16.2164 66.7548 17.5585 65.7996C17.7944 65.6277 18.012 65.4315 18.2079 65.2143C18.7755 64.6008 18.7293 63.9261 18.1199 63.3486C17.4533 62.7167 16.7045 62.6897 15.8885 62.9658C12.7767 64.0247 10.9223 66.9954 11.2876 70.355ZM27.4067 70.4219C29.1221 70.154 30.511 69.3248 31.7278 68.151C31.822 68.0741 31.8941 67.9731 31.9367 67.8583C31.9556 67.7931 31.9614 67.7247 31.9537 67.6571C31.9459 67.5895 31.9249 67.5241 31.8917 67.4649C31.8389 67.421 31.7771 67.3895 31.7108 67.3728C31.6446 67.356 31.5755 67.3544 31.5086 67.368C31.3731 67.4165 31.2528 67.5004 31.1597 67.611C29.5203 69.2614 27.5836 69.9437 25.2848 69.4701C25.146 69.4295 24.9992 69.4269 24.8593 69.4625C24.7952 69.4862 24.7372 69.524 24.6894 69.5733C24.6416 69.6225 24.6053 69.682 24.5831 69.7473C24.5861 69.8159 24.6037 69.8831 24.6347 69.9443C24.6657 70.0055 24.7093 70.0592 24.7626 70.1019C24.8844 70.1813 25.0249 70.2263 25.1696 70.232C25.92 70.301 26.6632 70.3599 27.4067 70.4219Z" fill="#E31A3E"/>
<path d="M49.2233 3.471C49.1676 2.98343 49.3355 2.73759 49.7965 2.62397C49.996 2.56837 50.2058 2.56176 50.4086 2.60465C50.6113 2.64753 50.8012 2.73872 50.9625 2.87062C51.5519 3.36755 52.0897 3.92664 52.6437 4.46513C52.7101 4.53691 52.7618 4.62134 52.7956 4.71349C52.9318 5.05432 53.1013 5.41634 52.8706 5.76157C52.6398 6.1068 52.2572 6.00048 51.9334 5.964C50.6324 5.81878 49.3696 4.64379 49.2233 3.471Z" fill="white"/>
<path d="M36.4055 73.961C36.6999 75.1872 36.979 76.4136 37.2803 77.7C36.4218 77.7109 35.5689 77.5524 34.7693 77.2334C34.6077 77.1706 34.4609 76.9263 34.4038 76.7375C34.0203 75.448 35.0431 74.0494 36.4055 73.961Z" fill="white"/>
<path d="M53.8203 61.6116C53.7809 61.6356 53.7391 61.6556 53.6957 61.6712C53.6804 61.673 53.6572 61.6459 53.6387 61.6323C53.678 61.6107 53.7187 61.5919 53.7606 61.5761C53.7779 61.5788 53.8066 61.6131 53.8203 61.6116Z" fill="#E31A3E"/>
<path d="M69.2891 67.4078C69.2802 68.059 69.2998 68.6226 69.2585 69.1807C69.2113 69.8495 68.921 70.4762 68.4437 70.94C67.8328 71.5522 67.0397 71.5959 66.3345 71.0856C65.6293 70.5754 65.3508 69.7725 65.1926 68.9418C65.0183 68.0239 64.9018 67.0994 64.7091 66.196C64.4023 64.754 63.6298 63.5871 62.527 62.6361C62.1834 62.3315 61.8179 62.0372 61.4945 61.7068C61.0835 61.2848 60.7277 60.819 60.6196 60.2108C60.466 59.3531 60.9799 58.6754 61.8419 58.7473C62.4174 58.7993 62.977 58.9682 63.4872 59.2439C64.0986 59.5953 64.6691 60.0151 65.1879 60.4955C66.7341 61.8678 68.0743 63.4091 68.7391 65.4308C68.9594 66.1028 69.1141 66.7947 69.2891 67.4078ZM68.5304 67.6586C68.3807 67.0505 68.273 66.4188 68.0659 65.8219C67.184 63.2654 65.3765 61.4837 63.2429 59.9971C62.8545 59.7534 62.4143 59.6075 61.9592 59.5717C61.3545 59.5079 61.1367 59.872 61.4684 60.3968C61.7606 60.8762 62.1303 61.3027 62.5619 61.6583C64.5071 63.1852 65.474 65.2161 65.7544 67.6428C65.8291 68.2517 65.9495 68.854 66.1146 69.4445C66.3069 70.1416 66.8949 70.6668 67.3551 70.6408C67.7709 70.6183 68.3018 70.0356 68.415 69.3646C68.4898 68.8168 68.4836 68.2485 68.5228 67.6595L68.5304 67.6586Z" fill="#303030"/>
<path d="M11.2876 70.3549C10.9223 66.9953 12.7767 64.0246 15.889 62.9703C16.7051 62.6942 17.4538 62.7212 18.1204 63.3532C18.7298 63.9307 18.776 64.6053 18.2085 65.2188C18.0125 65.4361 17.7949 65.6322 17.559 65.8041C16.2164 66.7547 15.5072 68.1143 15.1147 69.6785C14.9565 70.2936 14.8 70.9102 14.6066 71.5153C14.5021 71.8413 14.3589 72.1531 14.1801 72.444C13.6223 73.3581 12.6133 73.378 11.9718 72.5056C11.6442 72.057 11.382 71.235 11.2876 70.3549ZM12.0981 70.2872C12.107 70.5074 12.1321 70.7265 12.173 70.943C12.2546 71.2742 12.3654 71.5974 12.5041 71.9087C12.7259 72.3772 13.3475 72.5345 13.5926 71.8828C13.6891 71.6326 13.8202 71.3879 13.8949 71.137C14.0444 70.6213 14.1763 70.0999 14.2988 69.5779C14.7256 67.7597 15.5342 66.1886 17.0988 65.1002C17.2724 64.967 17.4358 64.8209 17.5876 64.6629C17.8353 64.4252 17.79 64.1912 17.5622 63.9671C17.3343 63.7431 17.0989 63.6012 16.7832 63.6622C16.4735 63.7052 16.1686 63.7772 15.8722 63.8773C13.2387 64.9331 11.7957 67.3832 12.0979 70.2857L12.0981 70.2872Z" fill="#303030"/>
<path d="M27.4067 70.4217C26.6632 70.3598 25.92 70.3008 25.1772 70.231C25.0326 70.2252 24.892 70.1803 24.7702 70.1008C24.7169 70.0582 24.6733 70.0044 24.6423 69.9432C24.6114 69.882 24.5938 69.8148 24.5907 69.7462C24.613 69.6809 24.6493 69.6215 24.6971 69.5722C24.7448 69.5229 24.8029 69.4851 24.867 69.4614C25.0068 69.4258 25.1536 69.4284 25.2924 69.4691C27.5912 69.9427 29.528 69.2603 31.1673 67.61C31.2604 67.4993 31.3808 67.4154 31.5162 67.3669C31.5831 67.3533 31.6522 67.3549 31.7185 67.3717C31.7847 67.3884 31.8465 67.4199 31.8994 67.4638C31.9325 67.523 31.9536 67.5884 31.9613 67.656C31.969 67.7236 31.9632 67.792 31.9443 67.8572C31.9018 67.972 31.8296 68.0731 31.7354 68.15C30.511 69.3246 29.1221 70.1539 27.4067 70.4217Z" fill="#303030"/>
<path d="M68.5228 67.6594C68.4836 68.2485 68.4898 68.8168 68.3983 69.3665C68.285 70.0375 67.7541 70.6202 67.3383 70.6427C66.8781 70.6687 66.2894 70.1373 66.0978 69.4464C65.9327 68.8559 65.8123 68.2535 65.7376 67.6447C65.4603 65.2177 64.4904 63.187 62.5452 61.6602C62.1135 61.3045 61.7438 60.8781 61.4516 60.3987C61.1199 59.8739 61.3377 59.5098 61.9424 59.5736C62.3975 59.6094 62.8377 59.7553 63.2261 59.999C65.3597 61.4856 67.168 63.2735 68.0491 65.8238C68.2654 66.4196 68.3732 67.0528 68.5228 67.6594Z" fill="white"/>
<path d="M12.098 70.2857C11.7956 67.3817 13.2386 64.9316 15.8782 63.8751C16.1746 63.7749 16.4795 63.703 16.7892 63.66C17.1049 63.5989 17.3509 63.7522 17.5682 63.9649C17.7854 64.1777 17.8413 64.423 17.5936 64.6607C17.4417 64.8186 17.2783 64.9648 17.1048 65.0979C15.5402 66.1864 14.7316 67.7575 14.3048 69.5756C14.1823 70.0976 14.0504 70.6191 13.9009 71.1348C13.8268 71.3918 13.6947 71.6273 13.5986 71.8806C13.3522 72.5339 12.7289 72.3754 12.5101 71.9064C12.3714 71.5952 12.2605 71.272 12.179 70.9408C12.136 70.7247 12.1089 70.5057 12.098 70.2857Z" fill="white"/>
</g>
<defs>
<clipPath id="clip0_413_3839">
<rect width="65.8298" height="96.8638" fill="white" transform="translate(0 7.47217) rotate(-6.51759)"/>
</clipPath>
</defs>
</svg>
