<svg width="315" height="69" viewBox="0 0 315 69" fill="none" xmlns="http://www.w3.org/2000/svg">
<path fill-rule="evenodd" clip-rule="evenodd" d="M304.241 43.0833C299.295 44.1836 295.632 41.458 295.424 36.7002C295.216 31.99 296.266 27.4371 297.979 23.0694C298.38 22.0392 298.801 20.3017 300.673 21.4076C302.183 22.3002 305.375 21.5732 304.008 25.2364C303.121 27.6167 302.343 30.1093 302.279 32.717C302.256 33.576 301.81 34.7773 303.04 35.0328C304.011 35.2321 304.946 34.6426 305.501 33.7079C306.136 32.5892 306.627 31.3953 306.964 30.1542C307.323 28.9276 308.014 27.7823 308.263 26.5416C308.707 24.3494 309.538 23.6813 311.884 24.4757C314.506 25.3655 315.289 25.8146 314.91 28.5711C313.381 39.7064 310.75 50.5386 305.156 60.4193C303.191 63.8859 300.946 67.128 296.488 67.8971C290.753 68.8851 285.594 64.3771 286.063 58.5722C286.141 57.5842 286.327 56.133 287.444 56.2902C288.932 56.5007 290.953 56.1947 291.702 58.0782C292.109 59.1028 291.887 60.4389 293.386 60.7027C294.035 60.8222 294.705 60.7412 295.307 60.4704C295.909 60.1996 296.414 59.7519 296.755 59.187C299.969 54.1835 302.488 48.7659 304.241 43.0833Z" fill="black"/>
<path fill-rule="evenodd" clip-rule="evenodd" d="M264.667 22.7253C264.667 21.4481 265.116 20.8811 266.407 21.0411C266.75 21.086 268.274 20.9372 270.2 21.173C271.042 21.2769 270.629 22.2172 270.871 23.02C271.264 24.3337 271.151 24.5302 272.361 23.8621C275.449 21.799 275.345 21.6839 277.714 20.14C278.643 19.7134 279 19.9379 279.418 20.7941C280.726 23.4663 281.523 24.5695 279.123 26.2172C277.088 27.6207 274.986 29.173 272.838 30.6663C272.397 30.9397 272.038 31.3281 271.8 31.7899C271.562 32.2518 271.454 32.7696 271.488 33.288C271.536 36.4683 271.769 38.2283 271.381 42.8318C271.275 44.1034 270.946 44.3953 269.936 44.4795H269.765C263.786 44.6816 264.833 45.4844 264.431 39.5925C264.356 38.276 264.684 25.6838 264.667 22.7253Z" fill="black"/>
<path fill-rule="evenodd" clip-rule="evenodd" d="M281.788 19.9183C281.788 18.6411 282.237 18.0741 283.529 18.2341C283.871 18.279 285.395 18.1302 287.321 18.366C288.163 18.4699 287.75 19.4102 287.992 20.213C288.385 21.5267 288.272 21.7232 289.482 21.0551C292.57 18.992 292.466 18.8769 294.835 17.333C295.764 16.9064 296.121 17.1309 296.539 17.9871C297.847 20.6593 298.644 21.7625 296.244 23.4102C294.209 24.8137 292.107 26.3659 289.959 27.8593C289.518 28.1327 289.159 28.5211 288.921 28.9829C288.683 29.4448 288.575 29.9626 288.609 30.481C288.657 33.6613 288.89 35.4213 288.503 40.0248C288.396 41.2964 288.067 41.5883 287.057 41.6725H286.886C280.907 41.8746 281.954 42.6774 281.552 36.7855C281.477 35.469 281.805 22.8768 281.788 19.9183Z" fill="black"/>
<path fill-rule="evenodd" clip-rule="evenodd" d="M246.679 21.6107C247.746 19.3651 249.792 18.2732 252.178 18.0234C255.069 17.7202 257.323 18.5707 259.277 21.1111C263.366 26.4444 262.319 31.8057 260.242 37.3495C259.899 38.1708 259.508 38.9712 259.072 39.7467C257.489 42.8204 254.861 44.0695 251.33 43.4351C247.4 42.7306 245.475 40.6786 244.313 36.8808C243.117 31.6598 244.933 25.2598 246.679 21.6107ZM249.205 33.4534C249.27 35.8674 250.328 37.6976 251.451 37.8969C252.574 38.0962 253.258 37.7004 253.601 36.7966C254.988 33.111 255.15 30.2675 254.286 26.1777C254.112 25.6584 253.312 24.5609 252.602 24.4935C251.793 24.4318 250.917 25.4198 250.614 25.9728C249.315 28.4345 249.197 30.9215 249.197 33.4506L249.205 33.4534Z" fill="black"/>
<path fill-rule="evenodd" clip-rule="evenodd" d="M231.595 2.84264C237.369 2.84264 241.872 7.67067 241.535 13.1387C241.465 14.2615 241.513 14.4355 239.851 14.9773C238.447 15.2018 237.532 15.3478 236.376 15.5752C235.219 15.8025 234.658 15.2945 234.374 14.2559C234.329 14.0931 234.29 13.9275 234.24 13.7675C232.735 8.87487 229.987 10.0173 227.623 12.5296C225.962 14.2952 223.747 18.0453 227.455 21.2313C230.344 23.1384 233.333 24.8888 236.409 26.4747C253.018 36.7933 235.171 50.3342 224.842 46.0956C222.105 44.7174 219.663 43.0669 218.574 39.9595C217.619 37.234 218.012 36.3105 220.732 35.5385C221.431 35.3392 222.2 35.342 222.871 35.0754C224.791 34.3119 226.122 34.7947 227.25 36.5631C228.092 37.8571 230.793 38.4241 232.233 37.9048C234.155 37.2115 234.759 35.4656 233.594 33.6579C232.541 32.0158 230.88 31.1316 229.131 30.427C226.122 29.2088 223.309 27.766 221.111 25.2284C217.656 21.2481 215.11 11.2187 226.523 4.06649C228.221 3.12334 229.962 2.67142 231.595 2.84264Z" fill="black"/>
<path fill-rule="evenodd" clip-rule="evenodd" d="M185.717 26.8373C185.764 25.838 185.748 25.2149 184.105 25.1924C183.945 25.2065 181.579 25.2542 181.433 25.2458C179.084 25.1756 179.648 24.3082 179.875 21.0353C179.926 20.2886 181.049 20.2577 181.84 20.1932C182.716 20.1118 184.737 20.0163 185.621 19.9854C186.612 20.064 186.421 19.556 186.34 18.4304C186.216 16.6985 186.441 14.9497 186.272 13.2234C186.197 12.4346 186.581 12.1595 187.35 12.1259C188.962 12.0501 190.584 12.0725 192.204 12.0753C193.307 12.0753 193.2 12.7041 193.2 13.2627C193.2 15.0564 193.248 16.8528 193.166 18.6465C193.116 19.7525 193.166 20.0753 194.045 20.1398C199.07 20.4683 198.834 19.9293 198.915 22.436C198.688 25.5601 199.432 25.2121 195.123 25.4226C193.666 25.4226 193.666 25.7594 193.616 27.7777C193.355 32.3727 193.018 36.9706 193.298 41.56C193.408 43.3256 192.305 43.8421 190.472 44.0863C190.071 44.1285 189.668 44.1482 189.265 44.1453C185.509 44.2239 185.335 44.0779 185.416 41.1755C185.475 38.9439 185.599 29.3805 185.717 26.8373Z" fill="black"/>
<path fill-rule="evenodd" clip-rule="evenodd" d="M164.153 22.1721C165.22 19.9265 167.266 18.8346 169.652 18.5847C172.544 18.2816 174.798 19.1321 176.751 21.6724C180.841 27.0057 179.794 32.3671 177.717 37.9109C177.374 38.7322 176.983 39.5326 176.546 40.3081C174.963 43.3817 172.336 44.6309 168.805 43.9965C164.875 43.2919 162.949 41.24 161.787 37.4422C160.591 32.2211 162.408 25.8212 164.153 22.1721ZM166.68 34.0148C166.744 36.4288 167.803 38.259 168.925 38.4583C170.048 38.6576 170.733 38.2618 171.076 37.3579C172.462 33.6723 172.625 30.8289 171.76 26.7391C171.586 26.2198 170.786 25.1222 170.076 25.0549C169.268 24.9931 168.392 25.9812 168.089 26.5342C166.789 28.9959 166.671 31.4829 166.671 34.012L166.68 34.0148Z" fill="black"/>
<path fill-rule="evenodd" clip-rule="evenodd" d="M149.416 22.013C151.081 22.1028 152.223 6.73172 152.543 0.935272C152.597 -0.0247211 153.15 -0.117352 153.995 0.0931728C155.794 0.547906 157.624 0.88754 159.432 1.30859C161.026 1.68192 161.823 2.48472 161.719 4.3626C161.439 9.4152 156.754 45.3447 156.167 45.384C153.251 45.5216 152.628 45.6647 150.722 45.8023C149.599 45.8837 149.254 45.937 148.673 44.9602C146.584 41.516 143.957 33.9848 142.654 32.295C142.214 37.6788 142.129 41.0585 142.017 45.4093C141.978 46.8549 141.324 47.0402 140.195 46.7539C137.074 46.5321 137.074 46.4282 134.904 45.9398C133.697 45.923 133.203 45.3784 133.36 44.2949C134.514 36.2136 136.198 13.2131 136.535 9.84748C136.72 7.96118 137.231 6.70645 139.55 6.52399C143.707 6.19838 144.007 6.26294 145.341 10.2096C146.674 14.1562 148.033 18.013 149.416 22.013Z" fill="black"/>
<path fill-rule="evenodd" clip-rule="evenodd" d="M115.687 23.9584C118.039 27.0011 119.561 28.9408 116.863 30.5997C113.927 32.3288 111.403 34.1534 107.117 36.6095C106.191 37.14 106.227 37.4881 106.794 38.1786C109.009 41.6396 112.156 39.6439 112.237 37.1119C111.993 34.6221 114.185 34.5463 115.709 33.8867C117.778 33.2804 117.826 34.2179 117.935 35.773C118.107 38.2151 116.756 43.1751 113.517 44.8508C107.1 48.1322 100.973 44.3568 99.6506 37.1147C98.9095 33.0558 99.6057 29.446 101.93 26.1955C105.582 20.43 112.655 20.6068 115.687 23.9584ZM105.065 33.1344C105.433 33.5274 110.66 29.9513 111.263 29.1176C111.777 28.4103 109.994 26.5183 107.496 27.4643C104.74 29.1541 103.811 31.7843 105.074 33.1344H105.065Z" fill="black"/>
<path fill-rule="evenodd" clip-rule="evenodd" d="M95.4126 44.7214C92.5579 44.828 92.6645 44.7915 91.7298 42.0042C89.8435 36.3902 88.5467 30.6499 87.2554 24.8815C86.3347 20.7636 85.4505 16.6373 84.5748 12.5083C84.3334 11.3855 84.5495 10.9307 86.0091 10.6837C87.8449 10.3721 88.0723 10.3384 89.6582 10.1532C91.2442 9.96792 91.7466 10.2851 92.0105 11.697C93.1894 18.0184 93.8968 24.424 95.5922 30.6499C96.715 34.7369 97.9782 38.7621 99.4827 42.72C100.235 44.6849 100.126 44.8589 97.9585 44.8C97.3719 44.7971 95.6736 44.7101 95.4126 44.7214Z" fill="black"/>
<path fill-rule="evenodd" clip-rule="evenodd" d="M67.8821 52.9233C69.6589 53.0047 69.847 52.7437 69.847 55.3009C69.7122 57.3275 69.9789 57.9759 71.562 58.2623C73.1452 58.5486 74.369 57.6784 74.9866 56.2974C76.1852 53.5774 76.2694 50.6525 76.8841 47.8258C77.1648 46.5402 77.2518 45.2209 77.4034 43.9157C77.5157 42.9473 77.2659 42.5122 75.9578 42.8406C71.2561 44.028 67.0849 41.1564 67.4582 36.8617C67.7894 33.0302 69.0442 29.4176 72.1796 26.5797C74.7452 24.2583 76.5024 23.7727 78.9332 25.2997C80.056 25.9958 81.2069 25.1902 82.4672 25.5018C84.1655 25.9228 84.5921 26.6751 84.1992 27.84C83.8202 33.6 83.9016 35.3375 83.8483 40.8084C83.5956 47.3318 83.3318 53.8833 80.0027 59.9464C76.1459 67.8902 67.7923 65.7457 65.8274 63.4019C63.7923 60.9738 63.3404 58.1696 64.0028 55.2868C64.5502 52.8616 64.7635 52.8335 67.8821 52.9233ZM78.6104 30.8491C78.4757 30.0379 78.9332 29.1986 77.8189 28.7663C77.1255 28.4856 76.5389 28.3762 75.854 28.7888C73.8891 29.9818 72.7663 34.8042 74.0519 36.6203C74.285 36.9674 74.6119 37.2411 74.9945 37.4096C75.3772 37.5781 75.7998 37.6344 76.2132 37.5719C77.0806 37.4821 77.4932 37.0582 77.6167 36.2133C77.8638 34.3663 78.282 32.5502 78.6104 30.8351V30.8491Z" fill="black"/>
<path fill-rule="evenodd" clip-rule="evenodd" d="M65.2052 43.2924C65.8605 44.9515 64.8352 45.6683 63.0029 45.7989C62.6922 45.8473 62.3862 45.9218 62.0881 46.0216C58.2102 46.9638 57.9969 46.8844 58.128 42.7727C57.7888 38.1644 57.5446 35.6528 56.5193 32.1991C55.6301 29.2037 51.2512 27.6138 48.7328 29.3829C48.0646 29.8565 48.319 30.5554 48.4501 31.1212C48.9641 38.0184 49.5114 41.5873 49.8661 46.8358C49.9277 47.7446 49.2801 48.0263 48.5812 48.2183C46.5921 48.7636 44.5568 48.4948 42.5421 48.4948C41.4602 48.4948 41.2855 47.5245 41.2572 46.7026C41.1107 40.9678 40.3552 35.279 39.9543 29.5647C39.831 27.8084 39.5611 26.0649 39.335 24.3188C39.2168 23.4048 39.335 23.1846 40.5068 23.0387C41.8174 22.8774 42.7091 22.752 44.4129 22.5625C45.8263 22.4038 46.6795 22.2092 46.8799 23.7146C47.0573 25.028 47.7383 24.754 48.4475 24.3521C54.5303 20.9061 62.6534 24.5748 63.9306 31.4592C64.6347 35.3688 65.0607 39.323 65.2052 43.2924V43.2924Z" fill="black"/>
<path fill-rule="evenodd" clip-rule="evenodd" d="M32.3374 48.281C28.1097 48.349 27.7541 28.6132 27.6761 28.1956C27.1966 25.6342 27.844 24.4814 30.0857 23.958C32.1016 23.4884 34.5151 24.861 34.8588 26.9089C35.3942 30.0837 36.6809 41.9475 37.2683 44.6088C37.6559 46.373 37.2543 47.2261 35.5721 47.7276C34.5032 48.0473 33.4502 48.301 32.3374 48.281Z" fill="black"/>
<path fill-rule="evenodd" clip-rule="evenodd" d="M34.5197 18.7553C34.4798 21.1009 33.3789 22.0259 30.6757 21.986C28.3101 21.952 26.9275 20.9011 26.9475 19.1549C26.9814 16.6634 28.5858 14.3338 30.2801 14.3158C32.2201 14.2938 34.5597 16.7413 34.5197 18.7553Z" fill="black"/>
<path fill-rule="evenodd" clip-rule="evenodd" d="M13.4919 2.84264C19.2659 2.84264 23.7683 7.67067 23.4314 13.1387C23.3613 14.2615 23.409 14.4355 21.7473 14.9773C20.3438 15.2018 19.4287 15.3478 18.2722 15.5752C17.1157 15.8025 16.5543 15.2945 16.2708 14.2559C16.2259 14.0931 16.1866 13.9275 16.1361 13.7675C14.6315 8.87487 11.8835 10.0173 9.51998 12.5296C7.85824 14.2952 5.64351 18.0453 9.35155 21.2313C12.2401 23.1384 15.2292 24.8888 18.3059 26.4747C34.9149 36.7933 17.068 50.3342 6.73823 46.0956C4.00141 44.7174 1.55934 43.0669 0.470225 39.9595C-0.484154 37.234 -0.0911738 36.3105 2.62881 35.5385C3.32775 35.3392 4.09686 35.342 4.76773 35.0754C6.68772 34.3119 8.01823 34.7947 9.14664 36.5631C9.98874 37.8571 12.6891 38.4241 14.1291 37.9048C16.0519 37.2115 16.6554 35.4656 15.4904 33.6579C14.4378 32.0158 12.7761 31.1316 11.0273 30.427C8.01823 29.2088 5.20562 27.766 3.00774 25.2284C-0.447669 21.2481 -2.99362 11.2187 8.41962 4.06649C10.1179 3.12334 11.8582 2.67142 13.4919 2.84264Z" fill="black"/>
</svg>
