<svg width="176" height="176" viewBox="0 0 176 176" fill="none" xmlns="http://www.w3.org/2000/svg">
<path d="M35.7583 55.0069L28.1013 26.0696L56.7674 34.6866L58.7353 35.2782L59.2734 33.295L67.1109 4.40606L87.628 26.2017L89.0365 27.6979L90.494 26.2494L111.726 5.14966L118.596 34.2837L119.068 36.2838L121.055 35.7581L149.992 28.1012L141.375 56.7672L140.783 58.7352L142.767 59.2732L171.656 67.1108L149.86 87.6278L148.364 89.0363L149.812 90.4939L170.912 111.726L141.778 118.596L139.778 119.068L140.303 121.055L147.96 149.992L119.294 141.375L117.326 140.783L116.788 142.766L108.951 171.655L88.4338 149.86L87.0253 148.364L85.5677 149.812L64.3358 170.912L57.4653 141.778L56.9936 139.778L55.0071 140.303L26.0698 147.96L34.6868 119.294L35.2784 117.326L33.2951 116.788L4.40622 108.951L26.2018 88.4337L27.6981 87.0252L26.2496 85.5676L5.14983 64.3356L34.2839 57.4651L36.2839 56.9935L35.7583 55.0069Z" fill="white" stroke="#303030" stroke-width="4"/>
</svg>
