<svg width="109" height="92" viewBox="0 0 109 92" fill="none" xmlns="http://www.w3.org/2000/svg">
<g clip-path="url(#clip0_412_3761)">
<path d="M0 76.3248C0.344524 74.1502 0.627393 71.9756 1.0517 69.8372C1.22135 68.8791 1.63372 67.9803 2.24951 67.2266C2.86531 66.4728 3.664 65.8893 4.56946 65.5315C10.2994 63.0863 16.0427 60.6701 21.7993 58.2829C22.7571 57.9206 23.7559 57.6771 24.7731 57.558C26.3579 57.3297 27.7178 57.9204 28.3996 59.3702C29.7487 62.1537 31.0059 64.9818 32.1712 67.8547C32.8032 69.5456 33.3336 71.2726 33.7597 73.0266C34.2539 74.6586 34.1642 76.4117 33.5058 77.9847C32.6717 79.9165 31.9754 81.9244 30.9672 83.7619C29.1104 87.1434 26.0351 88.923 22.3433 89.7493C19.442 90.4017 16.5408 91.1048 13.6214 91.7173C11.4843 92.1737 9.26945 92.1165 7.15883 91.5506C3.95295 90.6844 2.12516 88.4409 1.22577 85.3168C0.398913 82.3702 0.108797 79.3873 0 76.3248ZM2.66915 77.0931C2.79245 79.9093 3.10796 82.6456 4.02911 85.3023C4.90674 87.8393 6.75628 89.0172 9.33477 89.2383C11.8396 89.4218 14.357 89.1579 16.7692 88.459C19.4384 87.7342 22.0277 86.6795 24.7114 86.0271C26.3615 85.6248 27.5728 84.7659 28.3017 83.414C29.3963 81.3444 30.3534 79.2051 31.1667 77.0098C31.5293 76.0609 31.6332 75.0328 31.4677 74.0306C30.5574 69.3842 28.5664 65.1147 26.4848 60.9033C26.3491 60.5769 26.0987 60.3113 25.7808 60.1565C25.4629 60.0017 25.0994 59.9682 24.7585 60.0624C23.8939 60.1772 23.0433 60.38 22.22 60.6677C16.8236 62.9909 11.4636 65.3793 6.06723 67.7134C5.37286 67.9757 4.76336 68.4226 4.30447 69.0057C3.84559 69.5889 3.55476 70.2862 3.46336 71.0224C3.1406 73.0339 2.92663 75.0671 2.66915 77.0931Z" fill="#303030"/>
<path d="M83.1607 55.6008C83.5597 58.1378 83.9368 60.5118 84.3031 62.8857C84.3939 63.3577 84.4436 63.8367 84.4518 64.3173C84.4518 65.0929 83.7555 65.9374 83.0955 66.0352C82.265 66.1549 81.7536 65.6438 81.4853 64.9806C80.9784 63.7595 80.5449 62.5093 80.187 61.2366C79.7808 59.7362 79.5124 58.1958 79.1715 56.612C78.2903 56.6917 77.4888 56.7751 76.6873 56.8294C76.2663 56.8675 75.8427 56.8675 75.4217 56.8294C74.6492 56.7461 74.0182 56.4308 73.8622 55.5827C73.7208 54.8324 74.1451 54.1873 75.0336 53.8937C75.7154 53.669 76.4335 53.5313 77.137 53.3863C77.4997 53.303 77.8913 53.2341 78.3302 53.1471C78.0255 51.3567 77.7209 49.6134 77.4308 47.8701C77.3737 47.5753 77.3542 47.2745 77.3727 46.9749C77.4562 46.1775 77.7354 45.4708 78.6312 45.3149C79.0108 45.2365 79.4061 45.3013 79.7408 45.4966C80.0756 45.692 80.3262 46.0043 80.4444 46.3732C81.1009 48.1455 81.6376 49.9577 82.2215 51.7554C82.294 51.9801 82.3448 52.212 82.4173 52.4802C83.7192 52.3208 84.9958 52.1504 86.2723 52.0127C86.7818 51.959 87.2949 51.9469 87.8064 51.9765C88.5063 52.02 89.0503 52.3389 89.0938 53.1C89.1373 53.8611 88.6296 54.1511 88.0058 54.3178L83.1607 55.6008Z" fill="#303030"/>
<path d="M2.66913 77.0932C2.92661 75.0672 3.14058 73.034 3.44884 71.0152C3.54243 70.279 3.83545 69.5824 4.29627 69.0005C4.75708 68.4186 5.36818 67.9736 6.0636 67.7134C11.4599 65.3866 16.82 63.0018 22.2163 60.6677C23.0397 60.3801 23.8903 60.1773 24.7549 60.0625C25.0957 59.9683 25.4593 60.0017 25.7772 60.1566C26.0951 60.3114 26.3454 60.577 26.4811 60.9033C28.5809 65.1148 30.5538 69.3843 31.464 74.0306C31.6295 75.0328 31.5257 76.061 31.163 77.0098C30.3498 79.2051 29.3927 81.3445 28.2981 83.414C27.5727 84.7659 26.3578 85.6249 24.7078 86.0272C22.0241 86.6796 19.4347 87.7306 16.7656 88.4591C14.3534 89.158 11.8359 89.4219 9.33112 89.2383C6.75264 89.0172 4.90309 87.8285 4.02546 85.3023C3.10069 82.6457 2.79243 79.9093 2.66913 77.0932ZM5.66467 77.0932C5.88589 78.8583 5.96931 80.308 6.26668 81.7142C6.71638 83.8526 7.92039 84.7514 10.0891 84.5448C12.3792 84.3483 14.6065 83.6939 16.6386 82.6203C17.2158 82.242 17.8323 81.9273 18.4773 81.6816C20.5356 81.0657 22.4168 79.9672 23.9643 78.4777C25.2881 77.3101 26.1351 75.6959 26.3433 73.9437C26.6298 71.5806 26.0532 69.4024 25.0704 67.3003C24.3451 65.7309 23.4856 65.2815 21.7376 65.4881C21.2011 65.5576 20.6711 65.6703 20.1528 65.8252C16.0004 66.9705 12.2324 69.0146 8.46075 71.0116C7.64053 71.4532 6.99005 72.1543 6.6112 73.005C6.08535 74.3895 5.92216 75.9044 5.66467 77.086V77.0932Z" fill="white"/>
<path d="M5.66473 77.0859C5.92222 75.9044 6.08541 74.3894 6.61126 73.0122C6.99011 72.1615 7.64059 71.4604 8.46081 71.0188C12.2324 69.0218 16.0004 66.9777 20.1529 65.8324C20.6712 65.6775 21.2012 65.5648 21.7377 65.4953C23.4857 65.296 24.3343 65.7454 25.0705 67.3075C26.0533 69.4096 26.6299 71.5878 26.3434 73.9509C26.1351 75.7031 25.2882 77.3173 23.9644 78.4849C22.4168 79.9744 20.5356 81.0729 18.4774 81.6888C17.8327 81.9322 17.2162 82.2445 16.6387 82.6203C14.605 83.6863 12.3778 84.3333 10.0891 84.523C7.9132 84.7296 6.71644 83.8308 6.26674 81.6924C5.96937 80.3007 5.88595 78.851 5.66473 77.0859Z" fill="#303030"/>
</g>
<defs>
<clipPath id="clip0_412_3761">
<rect width="109" height="92" fill="white"/>
</clipPath>
</defs>
</svg>
