<svg viewBox="0 0 1200 1200" class="sun-moon">
  <g transform="matrix(0.8810799717903137,0,0,0.8810799717903137,761.4895629882812,669.521484375)">
    <g opacity="1"
      transform="matrix(1.1128499507904053,0,0,1.1128499507904053,-187.83299255371094,-49.301998138427734)">
      <path fill="rgb(255,255,255)" fill-opacity="1"
        d=" M0,-262.16650390625 C144.689697265625,-262.16650390625 262.16650390625,-144.689697265625 262.16650390625,0 C262.16650390625,144.689697265625 144.689697265625,262.16650390625 0,262.16650390625 C-144.689697265625,262.16650390625 -262.16650390625,144.689697265625 -262.16650390625,0 C-262.16650390625,-144.689697265625 -144.689697265625,-262.16650390625 0,-262.16650390625z">
      </path>
      <path stroke-linecap="butt" stroke-linejoin="miter" fill-opacity="0" stroke-miterlimit="4"
        stroke="rgb(255,255,255)" stroke-opacity="1" stroke-width="0"
        d=" M0,-262.16650390625 C144.689697265625,-262.16650390625 262.16650390625,-144.689697265625 262.16650390625,0 C262.16650390625,144.689697265625 144.689697265625,262.16650390625 0,262.16650390625 C-144.689697265625,262.16650390625 -262.16650390625,144.689697265625 -262.16650390625,0 C-262.16650390625,-144.689697265625 -144.689697265625,-262.16650390625 0,-262.16650390625z">
      </path>
    </g>
  </g>
  <g transform="matrix(2.4625399112701416,0,0,2.4625399112701416,107.49200439453125,107.49200439453125)">
    <g opacity="1" transform="matrix(1,0,0,1,196.42599487304688,210.07699584960938)">
      <path fill="rgb(255,255,255)" fill-opacity="1"
        d=" M80.51200103759766,20.197999954223633 C71.5989990234375,53.970001220703125 42.40599822998047,84.4280014038086 6.34499979019165,86.5260009765625 C2.6679999828338623,86.7249984741211 -1.0180000066757202,86.65799713134766 -4.683000087738037,86.32599639892578 C-15.866999626159668,85.26200103759766 -26.733999252319336,82.03700256347656 -36.6870002746582,76.82499694824219 C-63.36800003051758,62.875999450683594 -81.56700134277344,36.185001373291016 -83.7249984741211,7.574999809265137 C-84.09500122070312,2.7730000019073486 -84.00199890136719,-2.053999900817871 -83.4469985961914,-6.8420000076293945 C-79.2770004272461,-38.85100173950195 -57.130001068115234,-69.18299865722656 -27.04400062561035,-80.9260025024414 C-22.913000106811523,-82.56400299072266 -18.649999618530273,-83.84400177001953 -14.303000450134277,-84.75 C-9.609999656677246,-85.76399993896484 -4.8379998207092285,-86.36299896240234 -0.04399999976158142,-86.54100036621094 C4.796000003814697,-86.7249984741211 9.640000343322754,-86.46700286865234 14.430999755859375,-85.7699966430664 C19.256999969482422,-85.14199829101562 24.018999099731445,-84.09500122070312 28.663999557495117,-82.64099884033203 C48.5989990234375,-77.71299743652344 63.26599884033203,-64.3030014038086 72.49400329589844,-47.33399963378906 C74.81099700927734,-43.066001892089844 76.78399658203125,-38.61800003051758 78.39399719238281,-34.03300094604492 C83.54199981689453,-20.409000396728516 84.09500122070312,-5.6539998054504395 82.625,8.630000114440918 C82.17400360107422,12.527000427246094 81.46900177001953,16.39299964904785 80.51200103759766,20.197999954223633z">
      </path>
    </g>
    <g opacity="1" transform="matrix(1,0,0,1,197.89999389648438,213.24200439453125)">
      <path fill="rgb(48,48,48)" fill-opacity="1"
        d=" M14.157999992370605,42.58300018310547 C11.616999626159668,41.172000885009766 8.006999969482422,39.69900131225586 9.947999954223633,36.189998626708984 C10.791999816894531,34.90599822998047 11.638999938964844,33.62300109863281 13.164999961853027,33.527000427246094 C17.02899932861328,34.058998107910156 19.417999267578125,38.224998474121094 24,37.941001892089844 C20.71299934387207,31.520000457763672 15.092000007629395,24.474000930786133 19.100000381469727,16.983999252319336 C20.197999954223633,14.758999824523926 22.711999893188477,18.457000732421875 24.579999923706055,18.95800018310547 C28.444000244140625,19.488000869750977 28.768999099731445,14.538999557495117 29.992000579833984,11.843999862670898 C27.240999221801758,14.633000373840332 23.808000564575195,16.231000900268555 19.604000091552734,15.104000091552734 C17.621999740600586,14.291999816894531 16.003000259399414,12.78499984741211 15.045000076293945,10.862000465393066 C14.088000297546387,8.937999725341797 13.855999946594238,6.728000164031982 14.395000457763672,4.64300012588501 C15.402999877929688,0.8830000162124634 19.770999908447266,-0.46399998664855957 22.150999069213867,-3.3519999980926514 C23.715999603271484,-4.8520002365112305 25.198999404907227,-6.446000099182129 26.628999710083008,-8.071999549865723 C28.176000595092773,-9.883000373840332 29.2810001373291,-12.029999732971191 29.85300064086914,-14.343999862670898 C30.34600067138672,-16.180999755859375 30.773000717163086,-18.03700065612793 31.132999420166016,-19.90399932861328 C31.204999923706055,-20.322999954223633 31.365999221801758,-20.724000930786133 31.604999542236328,-21.076000213623047 C31.8439998626709,-21.42799949645996 32.154998779296875,-21.725000381469727 32.516998291015625,-21.94700050354004 C34.19300079345703,-23.024999618530273 36.1870002746582,-23.489999771118164 38.1619987487793,-23.263999938964844 C41.45500183105469,-23.094999313354492 44.66600036621094,-22.179000854492188 47.551998138427734,-20.58300018310547 C48.24300003051758,-20.187000274658203 48.99700164794922,-19.898000717163086 49.87799835205078,-19.486000061035156 C49.07500076293945,-21.851999282836914 48.2140007019043,-24.00200080871582 46.72600173950195,-25.83099937438965 C46.542999267578125,-26.079999923706055 46.303001403808594,-26.27899932861328 46.02799987792969,-26.415000915527344 C45.750999450683594,-26.552000045776367 45.44499969482422,-26.618999481201172 45.13800048828125,-26.613000869750977 C42.67100143432617,-26.614999771118164 40.20500183105469,-26.672000885009766 37.737998962402344,-26.749000549316406 C36.70000076293945,-26.780000686645508 35.65800094604492,-26.87299919128418 34.62699890136719,-27.007999420166016 C34.17900085449219,-27.03700065612793 33.75600051879883,-27.22800064086914 33.43899917602539,-27.548999786376953 C33.12300109863281,-27.868999481201172 32.93299865722656,-28.297000885009766 32.90700149536133,-28.749000549316406 C32.80099868774414,-29.97599983215332 32.83100128173828,-31.215999603271484 32.827999114990234,-32.45199966430664 C32.8129997253418,-34.62099838256836 32.946998596191406,-36.801998138427734 32.79499816894531,-38.9630012512207 C32.52399826049805,-42.8129997253418 31.05500030517578,-46.263999938964844 28.954999923706055,-49.45100021362305 C27.613000869750977,-51.487998962402344 26.292999267578125,-53.54899978637695 24.820999145507812,-55.494998931884766 C22.506999969482422,-58.45100021362305 19.81999969482422,-61.09000015258789 16.826000213623047,-63.347999572753906 C12.73900032043457,-66.55400085449219 8.196999549865723,-69.0199966430664 3.7109999656677246,-71.58699798583984 C3.0309998989105225,-71.9520034790039 2.315000057220459,-72.24800109863281 1.5750000476837158,-72.47100067138672 C-2.4159998893737793,-73.81300354003906 -6.394000053405762,-75.18599700927734 -10.413000106811523,-76.44400024414062 C-14.114999771118164,-77.55699920654297 -17.90399932861328,-78.35600280761719 -21.740999221801758,-78.83100128173828 C-24.44300079345703,-79.28199768066406 -27.179000854492188,-79.49299621582031 -29.91900062561035,-79.46099853515625 C-32.659000396728516,-79.49500274658203 -35.625,-77.7699966430664 -37.457000732421875,-80.2760009765625 C-37.79800033569336,-80.87100219726562 -38.01300048828125,-81.93599700927734 -37.41999816894531,-82.28099822998047 C-35.17399978637695,-83.19000244140625 -33.053001403808594,-83.62899780273438 -31.086000442504883,-84.2249984741211 C-25.20800018310547,-86.39199829101562 -19.14699935913086,-87.66999816894531 -12.984000205993652,-88.6780014038086 C-8.036999702453613,-89.49800109863281 -3.0869998931884766,-90.3479995727539 1.9299999475479126,-90.62999725341797 C7.13700008392334,-90.99199676513672 12.366000175476074,-90.60900115966797 17.46299934387207,-89.49099731445312 C20.763999938964844,-88.73300170898438 24.117000579833984,-88.03500366210938 27.34600067138672,-87.00399780273438 C32.25600051879883,-85.375 37.02899932861328,-83.36000061035156 41.62300109863281,-80.97699737548828 C45.04899978637695,-79.29000091552734 48.32600021362305,-77.31900024414062 51.426998138427734,-75.08599853515625 C55.90299987792969,-71.76499938964844 59.83300018310547,-67.75900268554688 63.07600021362305,-63.21500015258789 C64.21399688720703,-61.645999908447266 65.32099914550781,-60.06100082397461 66.49500274658203,-58.516998291015625 C69.24199676513672,-55.005001068115234 71.61699676513672,-51.2130012512207 73.58300018310547,-47.20399856567383 C76.79499816894531,-40.61899948120117 79.28900146484375,-33.70199966430664 81.02400207519531,-26.573999404907227 C81.28800201416016,-25.520999908447266 81.63400268554688,-24.490999221801758 82.05500030517578,-23.492000579833984 C82.7979965209961,-21.655000686645508 83.24199676513672,-19.70800018310547 83.37000274658203,-17.729999542236328 C83.58200073242188,-14.442999839782715 84.11499786376953,-11.168000221252441 83.97799682617188,-7.864999771118164 C83.97899627685547,-7.320000171661377 84.02999877929688,-6.7779998779296875 84.12799835205078,-6.243000030517578 C84.65799713134766,-2.4709999561309814 84.61599731445312,1.3619999885559082 84.0009994506836,5.125999927520752 C83.9000015258789,6.209000110626221 83.74299621582031,7.2870001792907715 83.5270004272461,8.354000091552734 C83.18900299072266,9.708000183105469 82.74400329589844,11.034000396728516 82.19999694824219,12.319999694824219 C80.36599731445312,16.440000534057617 78.98200225830078,20.749000549316406 78.07599639892578,25.16699981689453 C77.4749984741211,28.621999740600586 76.37699890136719,31.972999572753906 74.81500244140625,35.111000061035156 C73.6259994506836,37.382999420166016 72.62300109863281,39.74399948120117 71.50499725341797,42.04800033569336 C70.22799682617188,44.625 68.64199829101562,47.03799819946289 66.78099822998047,49.22800064086914 C63.18899917602539,53.55500030517578 59.590999603271484,57.87799835205078 55.94499969482422,62.1609992980957 C53.52299880981445,65.0530014038086 50.702999114990234,67.58200073242188 47.569000244140625,69.6729965209961 C43.45000076293945,72.37100219726562 39.38999938964844,75.1729965209961 34.9640007019043,77.3759994506836 C14.550999641418457,86.28700256347656 -9.241999626159668,90.99199676513672 -30.1560001373291,79.34400177001953 C-45.03200149536133,71.33000183105469 -61.6879997253418,64.3479995727539 -70.21900177001953,49.470001220703125 C-76.02100372314453,39.35200119018555 -82.28900146484375,29.110000610351562 -84.65799713134766,17.395000457763672 C-84.53199768066406,16.924999237060547 -84.24299621582031,13.979999542236328 -82.41100311279297,16.486000061035156 C-74.00599670410156,31.833999633789062 -61.91600036621094,44.643001556396484 -46.06800079345703,50.904998779296875 C-29.070999145507812,58.481998443603516 -2.799999952316284,59.474998474121094 9.371000289916992,42.084999084472656 C9.96399974822998,41.74100112915039 10.897000312805176,41.992000579833984 11.984000205993652,42.40399932861328 C12.663999557495117,42.71699905395508 13.4350004196167,42.78200149536133 14.157999992370605,42.58300018310547z M5.616000175476074,-83.23200225830078 C5.616000175476074,-83.23200225830078 2.940999984741211,-83.68099975585938 2.940999984741211,-83.68099975585938 C2.940999984741211,-83.68099975585938 2.9010000228881836,-83.52999877929688 2.9010000228881836,-83.52999877929688 C2.9010000228881836,-83.52999877929688 5.488999843597412,-82.83599853515625 5.488999843597412,-82.83599853515625 C9.583999633789062,-81.82099914550781 13.46399974822998,-80.08200073242188 16.945999145507812,-77.6969985961914 C21.472999572753906,-74.51499938964844 26.53700065612793,-72.18099975585938 31.89299964904785,-70.80599975585938 C33.729000091552734,-70.33499908447266 35.516998291015625,-69.6969985961914 37.236000061035156,-68.9000015258789 C42.665000915527344,-66.43800354003906 46.970001220703125,-62.69499969482422 49.82400131225586,-57.37200164794922 C50.52199935913086,-56.071998596191406 51.263999938964844,-54.801998138427734 51.939998626708984,-53.492000579833984 C52.9119987487793,-51.6349983215332 54.040000915527344,-49.867000579833984 55.314998626708984,-48.20600128173828 C57.19300079345703,-45.6870002746582 59.20000076293945,-43.290000915527344 60.77399826049805,-40.55099868774414 C62.130001068115234,-38.275001525878906 62.744998931884766,-35.62799835205078 62.53200149536133,-32.97999954223633 C62.12099838256836,-27.452999114990234 63.12300109863281,-22.242000579833984 65.98100280761719,-17.44700050354004 C66.69200134277344,-16.290000915527344 67.322998046875,-15.086000442504883 67.86799621582031,-13.84000015258789 C68.72000122070312,-11.972999572753906 69.44100189208984,-10.048999786376953 70.02400207519531,-8.079000473022461 C70.552001953125,-6.26200008392334 70.63700103759766,-4.341000080108643 70.2750015258789,-2.4800000190734863 C69.91300201416016,-0.6179999709129333 69.11399841308594,1.1319999694824219 67.94400024414062,2.621999979019165 C66.74299621582031,4.144999980926514 65.44000244140625,5.581999778747559 64.0459976196289,6.926000118255615 C62.45800018310547,8.515000343322754 60.70000076293945,9.942000389099121 59.138999938964844,11.559000015258789 C57.78200149536133,12.939000129699707 56.5359992980957,14.427000045776367 55.415000915527344,16.006000518798828 C53.71799850463867,18.447999954223633 53.060001373291016,21.315000534057617 52.58599853515625,24.209999084472656 C52.27299880981445,26.139999389648438 52.034000396728516,28.131000518798828 51.715999603271484,30.09000015258789 C51.08700180053711,33.90399932861328 49.54899978637695,37.51100158691406 47.231998443603516,40.599998474121094 C45.36399841308594,43.047000885009766 43.0629997253418,45.13100051879883 40.448001861572266,46.74599838256836 C33.020999908447266,50.9370002746582 28.076000213623047,58.17300033569336 21.049999237060547,63.845001220703125 C5.5920000076293945,74.81500244140625 -15.880999565124512,74.60099792480469 -32.4109992980957,67.1500015258789 C-17.229999542236328,77.76699829101562 4.695000171661377,72.55999755859375 22.03700065612793,67.63700103759766 C28.992000579833984,65.9749984741211 31.815000534057617,59.17499923706055 35.446998596191406,53.09600067138672 C36.41600036621094,51.34199905395508 38.53799819946289,50.902000427246094 40.14899826049805,50.1349983215332 C45.68000030517578,47.5890007019043 49.8390007019043,43.51900100708008 53.25699996948242,38.597999572753906 C54.5989990234375,36.72200012207031 55.43299865722656,34.53099822998047 55.676998138427734,32.236000061035156 C56.119998931884766,27.670000076293945 56.92499923706055,23.145999908447266 58.08399963378906,18.70599937438965 C58.96500015258789,15.223999977111816 60.71799850463867,12.02400016784668 63.17399978637695,9.413000106811523 C64.56700134277344,7.956999778747559 66.08999633789062,6.626999855041504 67.5459976196289,5.229000091552734 C68.27100372314453,4.535999774932861 69.01100158691406,3.8489999771118164 69.68699645996094,3.1040000915527344 C71.65699768066406,0.9259999990463257 72.55599975585938,-1.7400000095367432 73.13099670410156,-4.535999774932861 C73.625,-6.923999786376953 73.71499633789062,-9.336000442504883 72.86100006103516,-11.66100025177002 C72.28800201416016,-13.255999565124512 71.5739974975586,-14.817000389099121 70.83399963378906,-16.350000381469727 C69.60199737548828,-18.895000457763672 68.28700256347656,-21.402999877929688 67.03900146484375,-23.94300079345703 C66.22000122070312,-25.702999114990234 65.76000213623047,-27.611000061035156 65.69000244140625,-29.55500030517578 C65.62100219726562,-30.680999755859375 65.55999755859375,-31.805999755859375 65.50700378417969,-32.928001403808594 C65.4280014038086,-34.90999984741211 65.0530014038086,-36.86800003051758 64.39299774169922,-38.736000061035156 C63.4379997253418,-41.36600112915039 62.1609992980957,-43.86600112915039 60.595001220703125,-46.18000030517578 C56.361000061035156,-52.391998291015625 51.64500045776367,-58.25899887084961 46.49399948120117,-63.724998474121094 C45.02899932861328,-65.26899719238281 43.45399856567383,-66.69999694824219 41.77899932861328,-68.01000213623047 C39.185001373291016,-70.08000183105469 36.11600112915039,-71.31600189208984 33.04999923706055,-72.46900177001953 C28.70599937438965,-74.10199737548828 24.499000549316406,-76.05999755859375 20.334999084472656,-78.0469970703125 C15.651000022888184,-80.35299682617188 10.708999633789062,-82.09400177001953 5.616000175476074,-83.23200225830078z M40.777000427246094,0.31299999356269836 C41.2400016784668,-0.06700000166893005 41.606998443603516,-0.41100001335144043 42.000999450683594,-0.7080000042915344 C44.54499816894531,-2.625 47.1150016784668,-1.4019999504089355 48.29199981689453,0.3179999887943268 C48.435001373291016,0.5270000100135803 48.59199905395508,0.7260000109672546 48.84700012207031,1.065999984741211 C48.99599838256836,-0.7020000219345093 50.37799835205078,-1.340000033378601 51.362998962402344,-2.2899999618530273 C51.29100036621094,-2.3399999141693115 51.266998291015625,-2.375999927520752 51.23099899291992,-2.375999927520752 C51.00699996948242,-2.3949999809265137 50.777000427246094,-2.4170000553131104 50.553001403808594,-2.4210000038146973 C48.60499954223633,-2.438999891281128 46.672000885009766,-2.6050000190734863 44.90999984741211,-3.490000009536743 C41.99399948120117,-4.900000095367432 39.21799850463867,-6.585999965667725 36.62099838256836,-8.527000427246094 C36.388999938964844,-8.704000473022461 36.12900161743164,-8.854000091552734 35.90299987792969,-9.00100040435791 C35.49700164794922,-8.182999610900879 35.04499816894531,-7.390999794006348 34.54600143432617,-6.630000114440918 C33.95100021362305,-5.921999931335449 33.316001892089844,-5.250999927520752 32.641998291015625,-4.622000217437744 C32.97100067138672,-4.6579999923706055 33.189998626708984,-4.671999931335449 33.39899826049805,-4.705999851226807 C34.619998931884766,-4.90500020980835 35.86800003051758,-4.867000102996826 37.07500076293945,-4.5920000076293945 C37.941001892089844,-4.456999778747559 38.7400016784668,-4.047999858856201 39.356998443603516,-3.4240000247955322 C39.97600173950195,-2.799999952316284 40.37900161743164,-1.99399995803833 40.51100158691406,-1.121999979019165 C40.60200119018555,-0.675000011920929 40.67399978637695,-0.2329999953508377 40.777000427246094,0.31299999356269836z">
      </path>
    </g>
    <g opacity="1" transform="matrix(1,0,0,1,168.2169952392578,200.51300048828125)">
      <path fill="rgb(48,48,48)" fill-opacity="1"
        d=" M19.191999435424805,34.694000244140625 C26.19099998474121,39.2760009765625 33.28799819946289,42.68899917602539 41.770999908447266,40.93000030517578 C43.42399978637695,40.36600112915039 43.85499954223633,42.49700164794922 43.0099983215332,43.78099822998047 C42.03900146484375,45.53499984741211 38.85900115966797,46.19599914550781 38.948001861572266,47.729000091552734 C37.66899871826172,59.97999954223633 23.166000366210938,63.64899826049805 13.407999992370605,64.55899810791016 C-1.0579999685287476,66.2249984741211 -15.791999816894531,63.284000396728516 -27.954999923706055,54.48500061035156 C-48.112998962402344,40.016998291015625 -60.88100051879883,12.920999526977539 -51.47100067138672,-11.82699966430664 C-49.965999603271484,-17.229000091552734 -48.07899856567383,-22.517000198364258 -45.82400131225586,-27.649999618530273 C-36.66299819946289,-48.36600112915039 -20.966999053955078,-66.22599792480469 1.9830000400543213,-64.47899627685547 C5.423999786376953,-64.375 8.836000442504883,-63.821998596191406 12.131999969482422,-62.83300018310547 C14.996000289916992,-61.91400146484375 17.777000427246094,-60.744998931884766 20.570999145507812,-59.624000549316406 C22.68199920654297,-58.7760009765625 24.780000686645508,-57.88199996948242 26.860000610351562,-56.93199920654297 C29.20599937438965,-55.84000015258789 31.47800064086914,-54.60200119018555 33.82400131225586,-53.529998779296875 C38.573001861572266,-51.35499954223633 42.71500015258789,-48.3120002746582 46.617000579833984,-44.87799835205078 C50.236000061035156,-41.696998596191406 53.04800033569336,-37.87699890136719 55.46699905395508,-33.74300003051758 C56.42300033569336,-32.10599899291992 57.28099822998047,-30.4060001373291 58.12200164794922,-28.704999923706055 C60.2760009765625,-24.391000747680664 60.880001068115234,-19.785999298095703 60.53099822998047,-15.008999824523926 C60.19599914550781,-11.482999801635742 59.314998626708984,-8.029000282287598 57.91699981689453,-4.7729997634887695 C57.22999954223633,-3.0889999866485596 56.43199920654297,-1.4529999494552612 55.52799987792969,0.12600000202655792 C54.96900177001953,1.062999963760376 54.28900146484375,1.9240000247955322 53.50600051879883,2.681999921798706 C43.178001403808594,9.574999809265137 39.941001892089844,19.788999557495117 45.70500183105469,31.910999298095703 C47.96799850463867,36.54600143432617 37.492000579833984,38.27399826049805 33.41299819946289,36.67599868774414 C29.674999237060547,35.67399978637695 26.31599998474121,33.26300048828125 21.75,34.604000091552734 C20.934999465942383,34.65800094604492 20.12700080871582,34.66299819946289 19.191999435424805,34.694000244140625z M-13.317000389099121,-2.2769999504089355 C-20.409000396728516,-5.447999954223633 -29.610000610351562,-2.875999927520752 -32.685001373291016,4.86299991607666 C-34.5369987487793,9.906000137329102 -35.11399841308594,15.79699993133545 -31.91699981689453,20.68199920654297 C-26.33099937438965,29.735000610351562 -13.501999855041504,34.18000030517578 -5.843999862670898,26.156999588012695 C-0.21799999475479126,20.111000061035156 -0.16099999845027924,10.555000305175781 -4.5329999923706055,3.7929999828338623 C-6.728000164031982,0.8659999966621399 -9.8100004196167,-1.2649999856948853 -13.317000389099121,-2.2769999504089355z M-8.741999626159668,-25.274999618530273 C-8.741999626159668,-25.274999618530273 -8.661999702453613,-25.011999130249023 -8.661999702453613,-25.011999130249023 C-8.293999671936035,-25.07900047302246 -7.927000045776367,-25.156999588012695 -7.559999942779541,-25.219999313354492 C-1.7910000085830688,-26.19300079345703 3.947000026702881,-27.05299949645996 9.789999961853027,-25.986000061035156 C11.755999565124512,-25.593000411987305 13.692000389099121,-25.062999725341797 15.583999633789062,-24.402999877929688 C17.792999267578125,-23.674999237060547 19.707000732421875,-22.336000442504883 21.68600082397461,-21.141000747680664 C22.211999893188477,-20.820999145507812 22.760000228881836,-20.538000106811523 23.326000213623047,-20.29400062561035 C23.833999633789062,-20.07699966430664 24.274999618530273,-20.211000442504883 24.398000717163086,-20.797000885009766 C24.652000427246094,-22.048999786376953 24.905000686645508,-23.305999755859375 25.07699966430664,-24.569000244140625 C25.125999450683594,-24.902999877929688 25.05900001525879,-25.243000030517578 24.885000228881836,-25.531999588012695 C24.71299934387207,-25.820999145507812 24.445999145507812,-26.040000915527344 24.1299991607666,-26.152999877929688 C23.393999099731445,-26.496999740600586 22.63800048828125,-26.79400062561035 21.864999771118164,-27.04199981689453 C18.6200008392334,-28.011999130249023 15.234999656677246,-28.461000442504883 11.878000259399414,-29.01300048828125 C7.914999961853027,-29.645999908447266 3.881999969482422,-29.72599983215332 -0.10599999874830246,-29.25200080871582 C-1.2230000495910645,-29.1560001373291 -2.316999912261963,-28.868000030517578 -3.3380000591278076,-28.399999618530273 C-5.179999828338623,-27.468000411987305 -6.938000202178955,-26.327999114990234 -8.741999626159668,-25.274999618530273z M-6.188000202178955,-16.249000549316406 C-2.1670000553131104,-8.119999885559082 8.45199966430664,-4.771999835968018 15.99899959564209,-6.7789998054504395 C18.71299934387207,-7.561999797821045 19.038000106811523,-12.51200008392334 17.332000732421875,-15.48799991607666 C16.361000061035156,-13.732999801635742 17.259000778198242,-11.477999687194824 15.479000091552734,-10.442999839782715 C9.925999641418457,-8.406000137329102 3.385999917984009,-10.157999992370605 -1.246000051498413,-13.166999816894531 C-2.9179999828338623,-14.104000091552734 -4.5,-15.187000274658203 -6.188000202178955,-16.249000549316406z M19.757999420166016,19.090999603271484 C19.386999130249023,19.822999954223633 19.47599983215332,21.35700035095215 19.94300079345703,21.482999801635742 C25.082000732421875,22.860000610351562 28.22599983215332,24.20599937438965 33.112998962402344,26.52199935913086 C34.85599899291992,27.493999481201172 37.69599914550781,26.239999771118164 39.13399887084961,24.611000061035156 C37.138999938964844,24.579999923706055 34.64099884033203,26.42799949645996 32.55799865722656,24.86199951171875 C30.131999969482422,22.70199966430664 27.579999923706055,21.01099967956543 24.18400001525879,20.604000091552734 C21.722999572753906,20.448999404907227 24.006000518798828,17.53499984741211 22.388999938964844,16.0939998626709 C22.111000061035156,16.06999969482422 21.832000732421875,16.121000289916992 21.577999114990234,16.238000869750977 C21.325000762939453,16.356000900268555 21.106000900268555,16.53700065612793 20.941999435424805,16.764999389648438 C20.45199966430664,17.65999984741211 20.014999389648438,18.579999923706055 19.757999420166016,19.090999603271484z M10.10099983215332,-0.9300000071525574 C12.017000198364258,-0.21400000154972076 14.20199966430664,-0.7070000171661377 14.876999855041504,-1.9359999895095825 C14.876999855041504,-1.9359999895095825 10.10099983215332,-0.9300000071525574 10.10099983215332,-0.9300000071525574z M24.773000717163086,11.116000175476074 C25.77899932861328,10.956999778747559 27.395999908447266,12.39900016784668 27.898000717163086,10.520000457763672 C27.898000717163086,10.520000457763672 27.43199920654297,10.392999649047852 27.663000106811523,10.3149995803833 C26.76799964904785,9.651000022888184 25.69700050354004,9.932999610900879 24.76799964904785,11.100000381469727 C24.76799964904785,11.100000381469727 24.773000717163086,11.116000175476074 24.773000717163086,11.116000175476074z">
      </path>
    </g>
    <g opacity="1" transform="matrix(1,0,0,1,218.58299255371094,210.51400756835938)">
      <path fill="rgb(250,250,250)" fill-opacity="1"
        d=" M-15.067999839782715,-80.50399780273438 C-9.975000381469727,-79.36499786376953 -5.0329999923706055,-77.62300109863281 -0.35100001096725464,-75.31500244140625 C3.8239998817443848,-73.32599639892578 8.020000457763672,-71.37000274658203 12.36400032043457,-69.73699951171875 C15.430000305175781,-68.58300018310547 18.5,-67.3489990234375 21.094999313354492,-65.27899932861328 C22.770000457763672,-63.96900177001953 24.344999313354492,-62.5359992980957 25.809999465942383,-60.99300003051758 C30.961000442504883,-55.527000427246094 35.676998138427734,-49.6609992980957 39.9109992980957,-43.44900131225586 C41.47700119018555,-41.1349983215332 42.75199890136719,-38.63399887084961 43.70899963378906,-36.00400161743164 C44.367000579833984,-34.141998291015625 44.74399948120117,-32.191001892089844 44.82699966430664,-30.21500015258789 C44.882999420166016,-29.090999603271484 44.944000244140625,-27.965999603271484 45.0099983215332,-26.84000015258789 C45.08700180053711,-24.893999099731445 45.551998138427734,-22.985000610351562 46.37900161743164,-21.22599983215332 C47.625,-18.684999465942383 48.94200134277344,-16.177000045776367 50.172000885009766,-13.630000114440918 C50.91299819946289,-12.097999572753906 51.617000579833984,-10.538999557495117 52.20100021362305,-8.942000389099121 C53.055999755859375,-6.623000144958496 52.9640007019043,-4.204999923706055 52.470001220703125,-1.8179999589920044 C51.88999938964844,0.9980000257492065 51,3.6659998893737793 49.025001525878906,5.822000026702881 C48.349998474121094,6.566999912261963 47.61000061035156,7.255000114440918 46.882999420166016,7.947000026702881 C45.426998138427734,9.345999717712402 43.90399932861328,10.675999641418457 42.513999938964844,12.131999969482422 C40.04999923706055,14.739999771118164 38.29199981689453,17.940000534057617 37.40599822998047,21.42099952697754 C36.24300003051758,25.86400032043457 35.43600082397461,30.392000198364258 34.99300003051758,34.96200180053711 C34.76100158691406,37.25699996948242 33.939998626708984,39.452999114990234 32.60900115966797,41.33599853515625 C29.16900062561035,46.25199890136719 25.0049991607666,50.3380012512207 19.503000259399414,52.874000549316406 C17.892000198364258,53.63999938964844 15.770000457763672,54.08100128173828 14.798999786376953,55.834999084472656 C11.168999671936035,61.91400146484375 8.345999717712402,68.71199798583984 1.3910000324249268,70.3740005493164 C-15.95199966430664,75.2979965209961 -37.875999450683594,80.50299835205078 -53.05699920654297,69.88800048828125 C-37.46200180053711,77.08799743652344 -17.85700035095215,76.8010025024414 -2.687000036239624,68.7770004272461 C6.208000183105469,63.60599899291992 10.720000267028809,54.23699951171875 19.79800033569336,49.49300003051758 C22.415000915527344,47.87799835205078 24.714000701904297,45.79399871826172 26.58300018310547,43.34700012207031 C28.899999618530273,40.25600051879883 30.43899917602539,36.6510009765625 31.06599998474121,32.83700180053711 C31.38599967956543,30.878000259399414 31.618000030517578,28.90999984741211 31.93600082397461,26.954999923706055 C32.4119987487793,24.06100082397461 33.064998626708984,21.214000701904297 34.76499938964844,18.753000259399414 C35.887001037597656,17.173999786376953 37.132999420166016,15.687000274658203 38.49100112915039,14.307000160217285 C40.04499816894531,12.708000183105469 41.810001373291016,11.26099967956543 43.395999908447266,9.67300033569336 C44.792999267578125,8.329000473022461 46.095001220703125,6.888999938964844 47.29399871826172,5.368000030517578 C48.4640007019043,3.878000020980835 49.263999938964844,2.130000114440918 49.625,0.26899999380111694 C49.98699951171875,-1.5920000076293945 49.902000427246094,-3.5139999389648438 49.375999450683594,-5.331999778747559 C48.790000915527344,-7.302000045776367 48.06800079345703,-9.227999687194824 47.2140007019043,-11.093999862670898 C46.66999816894531,-12.340999603271484 46.03900146484375,-13.543999671936035 45.32600021362305,-14.70199966430664 C42.470001220703125,-19.496999740600586 41.470001220703125,-24.716999053955078 41.87699890136719,-30.233999252319336 C42.09199905395508,-32.882999420166016 41.47700119018555,-35.529998779296875 40.12099838256836,-37.80699920654297 C38.54199981689453,-40.547000885009766 36.53900146484375,-42.957000732421875 34.65999984741211,-45.459999084472656 C33.387001037597656,-47.12099838256836 32.25600051879883,-48.888999938964844 31.28499984741211,-50.744998931884766 C30.634000778198242,-52.04899978637695 29.868999481201172,-53.32600021362305 29.17099952697754,-54.625999450683594 C26.30900001525879,-59.92599868774414 22.011999130249023,-63.696998596191406 16.582000732421875,-66.15399932861328 C14.86400032043457,-66.95099639892578 13.074999809265137,-67.58999633789062 11.23900032043457,-68.05999755859375 C5.883999824523926,-69.43499755859375 0.8199999928474426,-71.76899719238281 -3.7079999446868896,-74.9520034790039 C-7.190999984741211,-77.33599853515625 -11.069000244140625,-79.07499694824219 -15.163999557495117,-80.08999633789062 C-15.14900016784668,-80.21800231933594 -15.107999801635742,-80.3740005493164 -15.067999839782715,-80.50399780273438z">
      </path>
    </g>
    <g opacity="1" transform="matrix(1,0,0,1,239.8979949951172,209.28900146484375)">
      <path fill="rgb(249,249,250)" fill-opacity="1"
        d=" M-1.222000002861023,4.265999794006348 C-1.3289999961853027,3.7339999675750732 -1.3969999551773071,3.2769999504089355 -1.4919999837875366,2.8440001010894775 C-1.6239999532699585,1.9730000495910645 -2.0269999504089355,1.1690000295639038 -2.6449999809265137,0.5450000166893005 C-3.26200008392334,-0.07900000363588333 -4.061999797821045,-0.4880000054836273 -4.927999973297119,-0.6259999871253967 C-6.133999824523926,-0.8989999890327454 -7.381999969482422,-0.9369999766349792 -8.602999687194824,-0.7379999756813049 C-8.812999725341797,-0.703000009059906 -9.031999588012695,-0.6919999718666077 -9.361000061035156,-0.6539999842643738 C-8.687999725341797,-1.284000039100647 -8.052000045776367,-1.9550000429153442 -7.456999778747559,-2.6619999408721924 C-6.956999778747559,-3.424999952316284 -6.505000114440918,-4.216000080108643 -6.099999904632568,-5.0329999923706055 C-5.874000072479248,-4.88700008392334 -5.613999843597412,-4.736999988555908 -5.381999969482422,-4.559000015258789 C-2.7850000858306885,-2.619999885559082 -0.00800000037997961,-0.9330000281333923 2.9070000648498535,0.4779999852180481 C4.672999858856201,1.3639999628067017 6.607999801635742,1.5049999952316284 8.550000190734863,1.5470000505447388 C8.774999618530273,1.5499999523162842 9.003999710083008,1.5720000267028809 9.229000091552734,1.5920000076293945 C9.26099967956543,1.6009999513626099 9.293999671936035,1.6089999675750732 9.361000061035156,1.6779999732971191 C8.375,2.63100004196167 6.991000175476074,3.2690000534057617 6.84499979019165,5.033999919891357 C6.590000152587891,4.693999767303467 6.432000160217285,4.494999885559082 6.289000034332275,4.284999847412109 C5.111999988555908,2.565000057220459 2.5420000553131104,1.3420000076293945 -0.0010000000474974513,3.259999990463257 C-0.3919999897480011,3.5420000553131104 -0.7570000290870667,3.877000093460083 -1.222000002861023,4.265999794006348z">
      </path>
    </g>
    <g opacity="1" transform="matrix(1,0,0,1,202.16799926757812,129.98899841308594)">
      <path fill="rgb(157,158,159)" fill-opacity="1"
        d=" M1.3480000495910645,0.02199999988079071 C1.312000036239624,0.15399999916553497 1.274999976158142,0.28999999165534973 1.2380000352859497,0.421999990940094 C1.2380000352859497,0.421999990940094 -1.3480000495910645,-0.2720000147819519 -1.3480000495910645,-0.2720000147819519 C-1.3480000495910645,-0.2720000147819519 -1.3079999685287476,-0.421999990940094 -1.3079999685287476,-0.421999990940094 C-1.3079999685287476,-0.421999990940094 1.3480000495910645,0.02199999988079071 1.3480000495910645,0.02199999988079071z">
      </path>
    </g>
    <g opacity="1" transform="matrix(1,0,0,1,150.5030059814453,215.61300659179688)">
      <path fill="rgb(254,254,254)" fill-opacity="1"
        d=" M4.3979997634887695,-17.37700080871582 C6.771999835968018,-16.82900047302246 8.977999687194824,-15.713000297546387 10.82800006866455,-14.123000144958496 C12.678000450134277,-12.532999992370605 14.118000030517578,-10.517000198364258 15.02400016784668,-8.244999885559082 C17.250999450683594,-1.6030000448226929 17.229999542236328,5.946000099182129 12.322999954223633,11.178999900817871 C2.88700008392334,20.23699951171875 -11.432999610900879,13.880999565124512 -15.92199993133545,2.6040000915527344 C-17.250999450683594,-1.781999945640564 -16.584999084472656,-6.136000156402588 -14.984000205993652,-10.241999626159668 C-12.286999702453613,-16.56999969482422 -5.296000003814697,-20.23699951171875 1.6929999589920044,-17.860000610351562 C2.5950000286102295,-17.75 3.4590001106262207,-17.554000854492188 4.3979997634887695,-17.37700080871582z">
      </path>
    </g>
    <g opacity="1" transform="matrix(1,0,0,1,176.42100524902344,175.6179962158203)">
      <path fill="rgb(251,252,252)" fill-opacity="1"
        d=" M-16.94499969482422,-0.3799999952316284 C-15.159000396728516,-1.437999963760376 -13.383999824523926,-2.572999954223633 -11.519000053405762,-3.497999906539917 C-10.496999740600586,-3.9660000801086426 -9.404000282287598,-4.254000186920166 -8.28600025177002,-4.349999904632568 C-4.297999858856201,-4.823999881744385 -0.26600000262260437,-4.74399995803833 3.697000026702881,-4.111000061035156 C7.053999900817871,-3.559000015258789 10.439000129699707,-3.109999895095825 13.684000015258789,-2.140000104904175 C14.456999778747559,-1.8919999599456787 15.21399974822998,-1.5950000286102295 15.949000358581543,-1.2510000467300415 C16.264999389648438,-1.1380000114440918 16.534000396728516,-0.9190000295639038 16.70599937438965,-0.6299999952316284 C16.878999710083008,-0.3409999907016754 16.94499969482422,-0.0010000000474974513 16.895999908447266,0.3330000042915344 C16.722999572753906,1.5959999561309814 16.47100067138672,2.8529999256134033 16.216999053955078,4.105000019073486 C16.0939998626709,4.690999984741211 15.652999877929688,4.824999809265137 15.145000457763672,4.607999801635742 C14.579999923706055,4.363999843597412 14.031999588012695,4.080999851226807 13.505000114440918,3.760999917984009 C11.527000427246094,2.565999984741211 9.616999626159668,1.2079999446868896 7.4039998054504395,0.49900001287460327 C5.511000156402588,-0.16200000047683716 3.575000047683716,-0.6899999976158142 1.6089999675750732,-1.0839999914169312 C-4.216000080108643,-2.1410000324249268 -9.986000061035156,-1.3140000104904175 -15.741000175476074,-0.3179999887943268 C-16.107999801635742,-0.2549999952316284 -16.472999572753906,-0.1770000010728836 -16.841999053955078,-0.10999999940395355 C-16.841999053955078,-0.10999999940395355 -16.94499969482422,-0.3799999952316284 -16.94499969482422,-0.3799999952316284z">
      </path>
    </g>
    <g opacity="1" transform="matrix(1,0,0,1,174.87600708007812,189.89300537109375)">
      <path fill="rgb(250,250,250)" fill-opacity="1"
        d=" M-12.845999717712402,-5.630000114440918 C-6.289999961853027,-1.3550000190734863 1.0219999551773071,3.122999906539917 8.821999549865723,0.1770000010728836 C10.60099983215332,-0.8569999933242798 9.70199966430664,-3.11299991607666 10.67300033569336,-4.868000030517578 C12.845999717712402,-1.7669999599456787 12.053999900817871,3.056999921798706 9.340999603271484,3.8399999141693115 C2.8529999256134033,5.629000186920166 -4.495999813079834,3.1570000648498535 -9.729000091552734,-1.6050000190734863 C-10.968999862670898,-2.7760000228881836 -12.020000457763672,-4.135000228881836 -12.845999717712402,-5.630000114440918z">
      </path>
    </g>
    <g opacity="1" transform="matrix(1,0,0,1,197.26400756835938,222.4010009765625)">
      <path fill="rgb(246,247,248)" fill-opacity="1"
        d=" M-9.288000106811523,-2.796999931335449 C-8.220999717712402,-3.694000005722046 -8.527000427246094,-6.295000076293945 -6.6579999923706055,-5.794000148773193 C-4.915999889373779,-4.822999954223633 -7.198999881744385,-1.909000039100647 -4.98799991607666,-0.8130000233650208 C-3.5869998931884766,-0.43799999356269836 -1.9329999685287476,-1.003000020980835 -1.125,-0.2809999883174896 C2.2339999675750732,2.130000114440918 5.593999862670898,4.540999889373779 10.086999893188477,2.7230000495910645 C7.714000225067139,4.10099983215332 4.624000072479248,6.295000076293945 2.1989998817443848,4.133999824523926 C-0.35199999809265137,2.443000078201294 -2.4000000953674316,-1.128000020980835 -6.190999984741211,1.0950000286102295 C-8.595000267028809,1.6959999799728394 -10.086999893188477,0.09099999815225601 -9.288000106811523,-2.796999931335449z">
      </path>
    </g>
    <g opacity="1" transform="matrix(1,0,0,1,180.69700622558594,199.43499755859375)">
      <path fill="rgb(228,230,232)" fill-opacity="1"
        d=" M-2.388000011444092,0.1459999978542328 C-2.388000011444092,0.1459999978542328 2.388000011444092,-0.8600000143051147 2.388000011444092,-0.8600000143051147 C1.7130000591278076,0.36899998784065247 -0.47200000286102295,0.8600000143051147 -2.388000011444092,0.1459999978542328z">
      </path>
    </g>
    <g opacity="1" transform="matrix(1,0,0,1,194.36199951171875,210.7270050048828)">
      <path fill="rgb(236,238,240)" fill-opacity="1"
        d=" M-1.3760000467300415,0.8849999904632568 C-1.1790000200271606,0.006000000052154064 1.0670000314712524,-0.9039999842643738 1.3760000467300415,0.8519999980926514 C0.47699999809265137,0.902999997138977 -0.4300000071525574,0.8920000195503235 -1.3760000467300415,0.8849999904632568z">
      </path>
    </g>
  </g>
</svg>