<svg width="14" height="20" viewBox="0 0 14 20" fill="none" xmlns="http://www.w3.org/2000/svg">
<path d="M12.0963 14.7592L11.9636 14.9336C11.3642 15.6854 10.6049 16.2923 9.7415 16.7096C8.87815 17.127 7.93276 17.3442 6.97495 17.3452C6.05106 17.3493 5.13751 17.1496 4.29857 16.7602C3.45963 16.3708 2.71567 15.8011 2.11905 15.0913C2.06743 15.03 1.9771 14.915 1.91073 14.8297C1.90012 14.8156 1.88663 14.804 1.87116 14.7957C1.85568 14.7874 1.83861 14.7825 1.8211 14.7815C1.80358 14.7804 1.78606 14.7832 1.76971 14.7896C1.75336 14.796 1.73857 14.8059 1.72638 14.8186L0.0358492 16.5197C0.0127893 16.545 0 16.5781 0 16.6124C0 16.6468 0.0127893 16.6799 0.0358492 16.7052C0.877633 17.7398 1.93816 18.5724 3.14017 19.1423C4.34218 19.7123 5.6554 20.0052 6.98416 19.9999C8.3213 19.997 9.6412 19.6961 10.849 19.1187C12.0568 18.5413 13.1224 17.7019 13.9694 16.6607C13.991 16.634 14.0018 16.6001 13.9998 16.5658C13.9977 16.5314 13.9829 16.4991 13.9583 16.4752L12.2401 14.7536C12.2309 14.7434 12.2196 14.7354 12.2069 14.73C12.1943 14.7247 12.1806 14.7222 12.1669 14.7227C12.1532 14.7233 12.1398 14.7268 12.1276 14.7331C12.1154 14.7394 12.1047 14.7483 12.0963 14.7592Z" fill="#303030"/>
<path d="M9.99078 0.160009V7.81554C9.99078 9.37304 8.85026 10.7354 7.31854 10.8804C6.90859 10.9202 6.49494 10.873 6.10405 10.7418C5.71316 10.6105 5.35365 10.3982 5.04852 10.1182C4.7434 9.83833 4.49937 9.49703 4.33207 9.1162C4.16477 8.73537 4.07788 8.32338 4.07696 7.90661V0.137707C4.07696 0.120134 4.07354 0.10273 4.06689 0.0864946C4.06025 0.070259 4.05051 0.0555076 4.03823 0.0430814C4.02595 0.0306552 4.01137 0.0208 3.99533 0.014075C3.97928 0.00734996 3.96208 0.00388811 3.94472 0.00388811H1.33859C1.32122 0.00388811 1.30403 0.00734996 1.28799 0.014075C1.27195 0.0208 1.25737 0.0306552 1.24509 0.0430814C1.23281 0.0555076 1.22307 0.070259 1.21643 0.0864946C1.20978 0.10273 1.20636 0.120134 1.20636 0.137707V7.62782C1.20636 10.8227 3.65454 13.5456 6.80797 13.6664C7.59215 13.6974 8.37445 13.5679 9.10803 13.2858C9.84161 13.0036 10.5114 12.5746 11.0773 12.0243C11.6431 11.4741 12.0935 10.8139 12.4013 10.0834C12.7091 9.35285 12.8681 8.56697 12.8687 7.77279V0.160009C12.8682 0.117447 12.8512 0.0767936 12.8213 0.0468703C12.7914 0.016947 12.751 0.000170161 12.7089 0.000172973H10.1561C10.1347 -0.000833125 10.1134 0.00255766 10.0934 0.0101386C10.0734 0.0177196 10.0551 0.0293287 10.0396 0.0442725C10.0242 0.0592164 10.0119 0.0771793 10.0035 0.0970729C9.99508 0.116966 9.99076 0.138378 9.99078 0.160009Z" fill="#303030"/>
</svg>
