<svg width="160" height="38" viewBox="0 0 160 38" fill="none" xmlns="http://www.w3.org/2000/svg">
<g clip-path="url(#clip0_1_71)">
<path d="M28.0307 6.84484C24.655 6.84484 22.2337 9.4837 22.2337 9.4837V1.56999C22.2338 1.53989 22.2272 1.51015 22.2146 1.48287C22.2019 1.4556 22.1835 1.43145 22.1605 1.41216C22.1375 1.39287 22.1106 1.3789 22.0816 1.37124C22.0527 1.36359 22.0224 1.36244 21.993 1.36787L17.9801 2.11369C17.9331 2.12237 17.8906 2.14736 17.8601 2.1843C17.8295 2.22124 17.8129 2.26778 17.813 2.31581V27.5628C17.813 27.6172 17.8345 27.6693 17.8727 27.7078C17.9109 27.7462 17.9628 27.7678 18.0169 27.7678H22.0298C22.0839 27.7678 22.1357 27.7462 22.174 27.7078C22.2122 27.6693 22.2337 27.6172 22.2337 27.5628V13.5288C22.2337 13.5288 23.964 11.075 27.048 11.075C29.4297 11.075 31.3639 12.9082 31.3639 15.1599V27.5628C31.3639 27.6172 31.3854 27.6693 31.4236 27.7078C31.4619 27.7462 31.5137 27.7678 31.5678 27.7678H35.575C35.6291 27.7678 35.681 27.7462 35.7192 27.7078C35.7575 27.6693 35.7789 27.6172 35.7789 27.5628V15.0375C35.7789 10.5199 32.2362 6.84484 28.0307 6.84484Z" fill="black"/>
<path d="M13.1969 23.2701C12.2846 23.7647 11.2655 24.0266 10.229 24.033C8.15604 24.033 8.1079 21.7984 8.10507 21.713V11.3142H14.2617C14.3158 11.3142 14.3677 11.2926 14.4059 11.2541C14.4442 11.2157 14.4656 11.1636 14.4656 11.1092V7.4484C14.4656 7.39405 14.4442 7.34191 14.4059 7.30347C14.3677 7.26504 14.3158 7.24344 14.2617 7.24344H8.10507V2.24186C8.10514 2.21177 8.09862 2.18202 8.08598 2.15474C8.07333 2.12747 8.05486 2.10333 8.03188 2.08403C8.0089 2.06474 7.98198 2.05077 7.95302 2.04312C7.92407 2.03546 7.8938 2.03431 7.86435 2.03975L3.8458 2.77418C3.79928 2.78385 3.75742 2.80912 3.72706 2.84584C3.6967 2.88256 3.67966 2.92856 3.67871 2.9763V7.24344H0.203901C0.149823 7.24344 0.0979604 7.26504 0.0597215 7.30347C0.0214826 7.34191 0 7.39405 0 7.4484V11.1007C0 11.155 0.0214826 11.2072 0.0597215 11.2456C0.0979604 11.284 0.149823 11.3056 0.203901 11.3056H3.67871V21.7016C3.67871 26.4869 7.07707 28.1835 9.96283 28.1835C12.2964 28.1835 14.2759 27.079 15.0207 26.6036L15.4908 26.3018C15.5342 26.2746 15.5659 26.232 15.5796 26.1825C15.5932 26.1329 15.5878 26.08 15.5644 26.0342L14.0324 23.0424C14.0196 23.0179 14.002 22.9962 13.9808 22.9785C13.9596 22.9609 13.935 22.9478 13.9086 22.9398C13.8823 22.9318 13.8546 22.9293 13.8272 22.9322C13.7998 22.9352 13.7733 22.9436 13.7492 22.957L13.1969 23.2701Z" fill="black"/>
<path d="M83.0528 15.5442C80.6287 14.8638 79.1561 14.2661 79.1561 13.0676C79.1561 11.6073 80.909 11.0749 82.2712 11.0749C83.5737 11.0768 84.8494 11.4467 85.9528 12.1424L86.4682 12.4755C86.4913 12.4899 86.5171 12.4994 86.544 12.5036C86.5709 12.5078 86.5983 12.5065 86.6247 12.4999C86.6511 12.4933 86.6759 12.4814 86.6976 12.465C86.7194 12.4486 86.7377 12.428 86.7514 12.4043L88.5667 9.2417C88.5906 9.19886 88.5989 9.14894 88.5901 9.10059C88.5813 9.05224 88.556 9.00851 88.5185 8.97696L88.2042 8.72076C87.5132 8.15143 85.5534 6.84766 82.257 6.84766C78.1932 6.84766 74.6306 9.80818 74.6306 13.1872C74.6306 17.4572 78.3943 18.5247 81.4273 19.39C83.9761 20.1131 85.5081 20.6511 85.5081 22.0289C85.5081 23.8109 82.8065 23.9504 81.9767 23.9504C79.7678 23.9504 78.1252 22.732 77.522 22.2111L77.0462 21.7983C77.005 21.7647 76.9524 21.7485 76.8995 21.7533C76.8466 21.7581 76.7976 21.7834 76.7631 21.8239L74.3587 24.7816C74.3259 24.8229 74.3097 24.8751 74.3134 24.9278C74.3171 24.9806 74.3403 25.03 74.3785 25.0663L74.8118 25.462C75.5142 26.1025 78.1451 28.1948 82.5261 28.1948C86.774 28.1948 90.1044 25.4762 90.1044 22.0061C90.0959 17.5141 86.1906 16.421 83.0528 15.5442Z" fill="black"/>
<path d="M108.515 9.41823C106.726 7.77507 104.391 6.86158 101.967 6.85624C96.4253 6.85055 91.8942 11.6358 91.8942 17.517C91.8942 23.3982 96.4253 28.1834 101.97 28.1834C104.394 28.1781 106.728 27.2646 108.518 25.6214L109.311 27.6454C109.326 27.6831 109.353 27.7154 109.386 27.7382C109.42 27.761 109.46 27.7733 109.5 27.7735H112.737C112.792 27.7735 112.844 27.752 112.883 27.7136C112.921 27.6753 112.943 27.6232 112.944 27.5685V0.257685C112.944 0.227462 112.937 0.197676 112.924 0.170408C112.911 0.14314 112.892 0.119044 112.869 0.0998017C112.846 0.0805591 112.819 0.0666324 112.79 0.0589931C112.761 0.0513537 112.73 0.0501858 112.701 0.0555703L108.685 0.801398C108.638 0.810579 108.596 0.835707 108.566 0.872534C108.535 0.909362 108.518 0.955627 108.518 1.00351L108.515 9.41823ZM108.515 17.5426C108.515 21.1095 105.788 24.0074 102.446 24.0074C99.1043 24.0074 96.3772 21.1038 96.3772 17.5341C96.3772 13.9644 99.0987 11.0608 102.446 11.0608C105.793 11.0608 108.509 13.9615 108.515 17.5255V17.5426Z" fill="black"/>
<path d="M136.684 27.5629V7.45693C136.684 7.40257 136.663 7.35044 136.625 7.312C136.587 7.27356 136.535 7.25197 136.481 7.25197H133.317C133.277 7.25178 133.238 7.2636 133.205 7.28591C133.171 7.30823 133.146 7.34002 133.13 7.37723L132.258 9.42112C130.469 7.77773 128.134 6.86419 125.711 6.85913C120.154 6.85913 115.635 11.6444 115.635 17.5256C115.635 23.4068 120.166 28.192 125.711 28.192C128.135 28.1883 130.47 27.2746 132.258 25.63L133.026 27.654C133.04 27.6929 133.066 27.7265 133.1 27.75C133.134 27.7734 133.174 27.7857 133.215 27.7849H136.481C136.509 27.785 136.537 27.7792 136.563 27.7679C136.589 27.7565 136.612 27.7399 136.631 27.719C136.65 27.6981 136.665 27.6735 136.674 27.6466C136.683 27.6197 136.687 27.5912 136.684 27.5629ZM126.189 24.0074C122.842 24.0074 120.12 21.1038 120.12 17.5341C120.12 13.9644 122.842 11.0608 126.189 11.0608C129.537 11.0608 132.255 13.9644 132.255 17.5341C132.255 21.1038 129.534 24.0074 126.189 24.0074Z" fill="black"/>
<path d="M52.918 21.5052C52.3684 22.2701 51.6445 22.8915 50.8069 23.3175C49.9693 23.7434 49.0423 23.9614 48.1037 23.9533C45.722 23.9533 43.7878 22.12 43.7878 19.8683V7.45691C43.787 7.40229 43.7649 7.35017 43.7262 7.31181C43.6875 7.27345 43.6354 7.25195 43.581 7.25195H39.5766C39.5226 7.25195 39.4707 7.27355 39.4325 7.31198C39.3942 7.35042 39.3727 7.40255 39.3727 7.45691V19.9822C39.3727 24.497 42.4879 28.172 47.002 28.172C50.5731 28.172 52.9492 25.6101 52.9492 25.6101L53.6798 27.6226C53.695 27.6617 53.7215 27.6952 53.7558 27.7191C53.7901 27.7429 53.8307 27.7559 53.8724 27.7564H57.1489C57.203 27.7564 57.2549 27.7348 57.2931 27.6964C57.3314 27.658 57.3528 27.6058 57.3528 27.5515V7.45691C57.3528 7.40255 57.3314 7.35042 57.2931 7.31198C57.2549 7.27355 57.203 7.25195 57.1489 7.25195H53.1219C53.0678 7.25195 53.016 7.27355 52.9777 7.31198C52.9395 7.35042 52.918 7.40255 52.918 7.45691V21.5052Z" fill="black"/>
<path d="M157.091 29.9001L156.888 30.1677C155.967 31.3212 154.8 32.2525 153.474 32.893C152.148 33.5335 150.696 33.8667 149.224 33.8683C147.805 33.8746 146.402 33.5681 145.113 32.9706C143.824 32.373 142.681 31.4989 141.765 30.4096C141.686 30.3157 141.547 30.1392 141.445 30.0082C141.429 29.9867 141.408 29.9689 141.384 29.9561C141.36 29.9433 141.334 29.9359 141.307 29.9343C141.28 29.9327 141.253 29.9369 141.228 29.9467C141.203 29.9565 141.18 29.9717 141.162 29.9912L138.565 32.6015C138.529 32.6404 138.51 32.6912 138.51 32.7439C138.51 32.7966 138.529 32.8474 138.565 32.8862C139.858 34.4738 141.487 35.7514 143.334 36.626C145.18 37.5006 147.197 37.9501 149.238 37.9419C151.293 37.9375 153.32 37.4757 155.175 36.5897C157.031 35.7037 158.668 34.4156 159.969 32.8179C160.002 32.7769 160.019 32.7249 160.015 32.6722C160.012 32.6195 159.99 32.5699 159.952 32.5332L157.312 29.8915C157.298 29.8759 157.281 29.8635 157.261 29.8553C157.242 29.8471 157.221 29.8433 157.2 29.8441C157.179 29.8449 157.158 29.8504 157.14 29.86C157.121 29.8697 157.104 29.8834 157.091 29.9001Z" fill="black"/>
<path d="M70.6375 6.86206C67.7801 6.86206 65.3644 9.42405 65.3644 9.42405V7.4684C65.3637 7.41378 65.3415 7.36165 65.3029 7.3233C65.2642 7.28494 65.212 7.26344 65.1577 7.26344H61.142C61.1152 7.26344 61.0887 7.26874 61.0639 7.27904C61.0392 7.28934 61.0167 7.30445 60.9978 7.32348C60.9788 7.34251 60.9638 7.3651 60.9536 7.38997C60.9433 7.41484 60.938 7.44148 60.938 7.4684V27.5744C60.938 27.6287 60.9595 27.6809 60.9978 27.7193C61.036 27.7577 61.0879 27.7793 61.142 27.7793H65.1577C65.212 27.7793 65.2642 27.7578 65.3029 27.7195C65.3415 27.6811 65.3637 27.629 65.3644 27.5744V13.8762C65.3644 13.8762 66.8427 11.0979 70.1787 11.0979C70.9621 11.1155 71.7403 11.2312 72.4953 11.4423C72.5255 11.4508 72.5573 11.452 72.5881 11.4459C72.6189 11.4398 72.6478 11.4265 72.6726 11.4072C72.6973 11.3878 72.7173 11.3629 72.7307 11.3344C72.7442 11.3059 72.7508 11.2746 72.7501 11.2431V7.40008C72.7506 7.35754 72.7378 7.31593 72.7133 7.28117C72.6889 7.24641 72.6543 7.22029 72.6142 7.20651C71.979 6.98195 71.3109 6.86553 70.6375 6.86206Z" fill="black"/>
<path d="M153.942 7.33163V19.1452C153.942 21.5486 152.157 23.6509 149.76 23.8746C149.119 23.9361 148.471 23.8632 147.859 23.6607C147.248 23.4582 146.685 23.1305 146.207 22.6985C145.73 22.2666 145.348 21.7399 145.086 21.1523C144.824 20.5646 144.688 19.9288 144.687 19.2857V7.29722C144.687 7.2701 144.682 7.24324 144.671 7.21819C144.661 7.19314 144.645 7.17037 144.626 7.1512C144.607 7.13202 144.584 7.11681 144.559 7.10644C144.534 7.09606 144.507 7.09072 144.48 7.09072H140.401C140.374 7.09072 140.347 7.09606 140.322 7.10644C140.297 7.11681 140.274 7.13202 140.255 7.1512C140.236 7.17037 140.22 7.19314 140.21 7.21819C140.2 7.24324 140.194 7.2701 140.194 7.29722V18.8555C140.194 23.7857 144.026 27.9874 148.961 28.1738C150.188 28.2217 151.413 28.0219 152.561 27.5865C153.709 27.1511 154.757 26.489 155.643 25.6399C156.528 24.7908 157.233 23.7721 157.715 22.6447C158.197 21.5174 158.446 20.3047 158.447 19.0792V7.33163C158.446 7.26595 158.419 7.20322 158.372 7.15704C158.326 7.11087 158.262 7.08498 158.197 7.08498H154.201C154.168 7.08343 154.134 7.08866 154.103 7.10036C154.072 7.11206 154.043 7.12997 154.019 7.15304C153.995 7.1761 153.975 7.20381 153.962 7.23451C153.949 7.26521 153.942 7.29825 153.942 7.33163Z" fill="black"/>
</g>
<defs>
<clipPath id="clip0_1_71">
<rect width="160" height="38" fill="white"/>
</clipPath>
</defs>
</svg>
