<svg width="95" height="39" viewBox="0 0 95 39" fill="none" xmlns="http://www.w3.org/2000/svg">
<path d="M7.74467 2.12451C10.3996 10.1156 13.6388 17.5926 18.3671 24.5937C18.7446 25.1528 23.173 31.8394 23.7087 31.4857" stroke="black" stroke-width="3.2489" stroke-linecap="round"/>
<path d="M24.3932 11.3664C16.9083 14.8639 8.52623 19.1933 2.74487 25.2469C2.35826 25.6517 2.13684 26.1673 2.02735 26.7023" stroke="black" stroke-width="3.2489" stroke-linecap="round"/>
<path d="M36.3814 14.8525C32.7246 16.5047 30.865 19.0826 30.8322 23.1394C30.7874 28.6713 35.8634 30.8921 40.6724 28.8348C46.5163 26.3347 44.7081 20.7114 41.3351 16.7438C39.5309 14.6217 36.2373 9.97812 33.2323 9.36306C32.0948 9.13023 31.4649 10.0533 30.7273 10.6052" stroke="black" stroke-width="3.2489" stroke-linecap="round"/>
<path d="M49.57 15.835C55.7235 21.0993 62.4757 26.2282 67.5882 32.5506C68.7325 33.9658 69.9532 35.8408 71.377 36.7786" stroke="black" stroke-width="3.2489" stroke-linecap="round"/>
<path d="M69.2834 18.4963C62.8519 21.9436 55.0094 25.1819 49.9663 30.6794" stroke="black" stroke-width="3.2489" stroke-linecap="round"/>
<path d="M81.4692 20.2106C78.523 21.5268 74.1484 23.0566 75.8599 27.2072C77.3953 30.9308 83.9296 31.7871 87.1908 30.6518C92.9382 28.6508 94.1046 24.6132 90.3103 19.8838C88.4823 17.6054 85.7231 14.5557 82.5484 14.938" stroke="black" stroke-width="3.2489" stroke-linecap="round"/>
</svg>
