<svg width="95" height="39" viewBox="0 0 95 39" fill="none" xmlns="http://www.w3.org/2000/svg">
<path d="M7.74471 2.12451C10.3996 10.1156 13.6388 17.5926 18.3671 24.5937C18.7446 25.1528 23.173 31.8394 23.7088 31.4857" stroke="#303030" stroke-width="3.2489" stroke-linecap="round"/>
<path d="M24.3932 11.3664C16.9083 14.8639 8.52626 19.1933 2.7449 25.2469C2.35829 25.6517 2.13687 26.1673 2.02738 26.7023" stroke="#303030" stroke-width="3.2489" stroke-linecap="round"/>
<path d="M36.3814 14.8522C32.7247 16.5044 30.8651 19.0823 30.8323 23.1392C30.7875 28.6711 35.8634 30.8919 40.6724 28.8346C46.5164 26.3345 44.7082 20.7111 41.3351 16.7436C39.531 14.6215 36.2374 9.97788 33.2323 9.36281C32.0948 9.12999 31.465 10.0531 30.7273 10.6049" stroke="#303030" stroke-width="3.2489" stroke-linecap="round"/>
<path d="M49.57 15.8351C55.7236 21.0994 62.4757 26.2283 67.5882 32.5508C68.7326 33.9659 69.9532 35.841 71.377 36.7787" stroke="#303030" stroke-width="3.2489" stroke-linecap="round"/>
<path d="M69.2835 18.4966C62.8519 21.9438 55.0094 25.1821 49.9663 30.6797" stroke="#303030" stroke-width="3.2489" stroke-linecap="round"/>
<path d="M81.4692 20.2106C78.5231 21.5268 74.1484 23.0566 75.8599 27.2072C77.3954 30.9308 83.9296 31.7871 87.1908 30.6518C92.9382 28.6508 94.1047 24.6132 90.3103 19.8838C88.4823 17.6054 85.7231 14.5557 82.5484 14.938" stroke="#303030" stroke-width="3.2489" stroke-linecap="round"/>
</svg>
