<svg width="121" height="41" viewBox="0 0 121 41" fill="none" xmlns="http://www.w3.org/2000/svg">
<g clip-path="url(#clip0_621_10757)">
<path d="M0.779633 9.24585L30.5208 9.25501L28.6198 11.9755H0.779633V9.24585Z" fill="url(#paint0_linear_621_10757)"/>
<path d="M6.92981 14.7051L26.715 14.7141L24.8145 17.4348H6.92981V14.7051Z" fill="url(#paint1_linear_621_10757)"/>
<path d="M13.0162 19.9983L22.9093 20.0074L21.0088 22.728H13.0162V19.9983Z" fill="url(#paint2_linear_621_10757)"/>
<path d="M53.7027 29.5031C52.9908 29.3408 52.2984 29.1023 51.6374 28.7918C50.9778 28.4814 50.3515 28.1044 49.7684 27.6668C49.1787 27.2242 48.6332 26.7256 48.1396 26.1779C47.6367 25.619 47.1869 25.0144 46.7962 24.3721C46.3956 23.7136 46.0561 23.0199 45.7816 22.2997C45.499 21.5572 45.2843 20.7906 45.1403 20.0094C44.8423 18.3837 44.8423 16.7173 45.1403 15.0916C45.2843 14.3103 45.4989 13.5438 45.7815 12.8014C46.056 12.0811 46.3955 11.3874 46.7961 10.7288C47.1869 10.0865 47.6367 9.4819 48.1396 8.92298C48.6331 8.37499 49.1785 7.87607 49.7681 7.43324C50.3512 6.99562 50.9774 6.61868 51.6371 6.30828C52.2982 5.99801 52.9907 5.75979 53.7027 5.59772C55.1624 5.2674 56.6774 5.2674 58.1371 5.59772C58.8491 5.76009 59.5415 5.99859 60.2025 6.3091C60.7891 6.5847 61.3493 6.91313 61.8764 7.2903V6.75578C61.8764 6.2512 62.0769 5.76729 62.4337 5.4105C62.7906 5.05371 63.2746 4.85327 63.7792 4.85327H66.9229C67.4275 4.85327 67.9115 5.05371 68.2683 5.4105C68.6251 5.76729 68.8257 6.2512 68.8257 6.75578V27.4352C68.8257 27.9398 68.6251 28.4237 68.2683 28.7805C67.9115 29.1373 67.4275 29.3377 66.9229 29.3377H63.7792C63.3356 29.3376 62.9059 29.1827 62.5645 28.8996C62.223 28.6166 61.9912 28.2231 61.909 27.7872C61.3726 28.1744 60.8015 28.5109 60.2029 28.7925C59.5418 29.1028 58.8491 29.3411 58.1371 29.5031C56.6772 29.8336 55.1619 29.8336 53.7021 29.5031H53.7027ZM54.9805 12.7706C53.8421 13.2497 52.9225 14.1347 52.3999 15.2536C51.8774 16.3727 51.7895 17.6459 52.1531 18.8261C52.5167 20.0063 53.3059 21.0094 54.3675 21.6405C55.4292 22.2716 56.6875 22.4857 57.8982 22.2413C59.1089 21.9969 60.1856 21.3114 60.9192 20.318C61.6529 19.3245 61.9911 18.0938 61.8683 16.865C61.7454 15.6362 61.1703 14.4968 60.2546 13.6681C59.3388 12.8395 58.1478 12.3806 56.9127 12.3806C56.2491 12.3803 55.5921 12.5129 54.9805 12.7706Z" fill="#303030"/>
<path d="M76.354 4.85327C76.8587 4.85327 77.3427 5.05371 77.6995 5.4105C78.0564 5.76729 78.2568 6.2512 78.2568 6.75578V7.29021C78.7837 6.91284 79.3439 6.58419 79.9304 6.30836C80.5916 5.99811 81.2841 5.75986 81.9962 5.59772C83.456 5.26728 84.9713 5.26728 86.4311 5.59772C87.1431 5.7601 87.8356 5.9986 88.4965 6.3091C89.1562 6.6195 89.7823 6.99644 90.3654 7.43406C90.9548 7.87666 91.5005 8.37529 91.9939 8.92298C92.4961 9.4819 92.9459 10.0863 93.337 10.7287C93.7379 11.3871 94.0774 12.0809 94.3512 12.8011C94.6339 13.5436 94.849 14.3102 94.993 15.0915C95.2908 16.7172 95.2908 18.3836 94.993 20.0093C94.849 20.7905 94.6348 21.5571 94.3521 22.2995C94.0774 23.0198 93.7379 23.7135 93.337 24.372C92.9468 25.0143 92.4961 25.619 91.9939 26.1779C91.5005 26.7258 90.9548 27.2247 90.3654 27.6676C89.7823 28.1052 89.1557 28.4821 88.4961 28.7925C87.835 29.1029 87.1425 29.3411 86.4304 29.5031C84.9708 29.8335 83.4558 29.8335 81.9962 29.5031C81.2842 29.3408 80.5917 29.1023 79.9308 28.7918C79.3442 28.5162 78.7838 28.1878 78.2568 27.8106V38.1885C78.2568 38.6931 78.0564 39.177 77.6995 39.5338C77.3427 39.8906 76.8587 40.091 76.354 40.091H73.2103C72.7057 40.091 72.2217 39.8906 71.8649 39.5338C71.508 39.177 71.3076 38.6931 71.3076 38.1885V6.75578C71.3076 6.2512 71.508 5.76729 71.8649 5.4105C72.2217 5.05371 72.7057 4.85327 73.2103 4.85327H76.354ZM85.1527 21.9167C86.2911 21.4375 87.2108 20.5527 87.7332 19.4336C88.2557 18.3146 88.3437 17.0414 87.9802 15.8612C87.6165 14.6809 86.8273 13.6779 85.7657 13.0468C84.704 12.4158 83.4457 12.2015 82.235 12.446C81.0243 12.6903 79.9476 13.3759 79.214 14.3694C78.4804 15.3628 78.1421 16.5935 78.265 17.8223C78.3877 19.0511 78.9628 20.1904 79.8787 21.0191C80.7944 21.8479 81.9854 22.3067 83.2205 22.3067C83.8842 22.3071 84.5412 22.1745 85.1527 21.9167Z" fill="#303030"/>
<path d="M25.2271 29.3376C24.7225 29.3376 24.2387 29.1373 23.8818 28.7805C23.525 28.4237 23.3243 27.9398 23.3243 27.4351V24.7882C23.3243 24.6673 23.3357 24.5468 23.3584 24.4281C23.3871 24.0947 23.5035 23.7749 23.6958 23.5011L35.5967 6.50765H25.4753C24.9707 6.50765 24.4868 6.30722 24.1299 5.95043C23.7731 5.59365 23.5725 5.10972 23.5725 4.60514V1.95817C23.5725 1.45359 23.7731 0.969664 24.1299 0.612877C24.4868 0.256088 24.9707 0.0556641 25.4753 0.0556641H43.0966C43.6012 0.0556641 44.0852 0.256088 44.442 0.612877C44.7989 0.969664 44.9994 1.45359 44.9994 1.95817V4.36239C45.0374 4.69438 44.9871 5.03048 44.8535 5.33676C44.7808 5.51081 44.6826 5.6731 44.5621 5.81828L32.6105 22.8857H42.8487C43.3534 22.8857 43.8374 23.0861 44.1942 23.4429C44.551 23.7997 44.7515 24.2836 44.7515 24.7882V27.4351C44.7515 27.9398 44.551 28.4237 44.1942 28.7805C43.8374 29.1373 43.3534 29.3376 42.8487 29.3376H25.2271Z" fill="#303030"/>
<path d="M101.917 4.85327C102.422 4.85327 102.906 5.05371 103.263 5.4105C103.62 5.76729 103.821 6.2512 103.821 6.75578V7.29021C104.347 6.91284 104.908 6.58419 105.493 6.30836C106.155 5.99811 106.847 5.75986 107.559 5.59772C109.02 5.26728 110.534 5.26728 111.995 5.59772C112.707 5.7601 113.399 5.9986 114.06 6.3091C114.719 6.6195 115.346 6.99644 115.929 7.43406C116.518 7.87666 117.063 8.37529 117.557 8.92298C118.06 9.4819 118.509 10.0863 118.901 10.7287C119.301 11.3871 119.64 12.0809 119.915 12.8011C120.197 13.5436 120.413 14.3102 120.557 15.0915C120.854 16.7172 120.854 18.3836 120.557 20.0093C120.413 20.7905 120.197 21.5571 119.915 22.2995C119.641 23.0198 119.301 23.7135 118.901 24.372C118.509 25.0143 118.06 25.619 117.557 26.1779C117.063 26.7258 116.518 27.2247 115.928 27.6676C115.345 28.1052 114.719 28.4821 114.06 28.7925C113.398 29.1029 112.706 29.3411 111.994 29.5031C110.534 29.8335 109.019 29.8335 107.559 29.5031C106.847 29.3408 106.155 29.1023 105.494 28.7918C104.908 28.5162 104.347 28.1878 103.821 27.8106V38.1885C103.821 38.6931 103.62 39.177 103.263 39.5338C102.906 39.8906 102.422 40.091 101.917 40.091H98.7734C98.2685 40.091 97.785 39.8906 97.4285 39.5338C97.0712 39.177 96.8712 38.6931 96.8712 38.1885V6.75578C96.8712 6.2512 97.0712 5.76729 97.4285 5.4105C97.785 5.05371 98.2685 4.85327 98.7734 4.85327H101.917ZM110.716 21.9167C111.854 21.4375 112.774 20.5527 113.297 19.4336C113.819 18.3146 113.907 17.0414 113.543 15.8612C113.18 14.6809 112.39 13.6779 111.329 13.0468C110.268 12.4158 109.009 12.2015 107.798 12.446C106.588 12.6903 105.511 13.3759 104.777 14.3694C104.044 15.3628 103.706 16.5935 103.829 17.8223C103.951 19.0511 104.526 20.1904 105.442 21.0191C106.357 21.8479 107.549 22.3067 108.784 22.3067C109.447 22.3071 110.104 22.1745 110.716 21.9167Z" fill="#303030"/>
</g>
<defs>
<linearGradient id="paint0_linear_621_10757" x1="0.779633" y1="10.6106" x2="29.6285" y2="10.6106" gradientUnits="userSpaceOnUse">
<stop stop-color="#303030" stop-opacity="0"/>
<stop offset="0.133" stop-color="#303030" stop-opacity="0"/>
<stop offset="0.512" stop-color="#303030" stop-opacity="0.69"/>
<stop offset="1" stop-color="#303030"/>
</linearGradient>
<linearGradient id="paint1_linear_621_10757" x1="6.92981" y1="16.0699" x2="26.1214" y2="16.0699" gradientUnits="userSpaceOnUse">
<stop stop-color="#303030" stop-opacity="0"/>
<stop offset="0.133" stop-color="#303030" stop-opacity="0"/>
<stop offset="0.512" stop-color="#303030" stop-opacity="0.69"/>
<stop offset="1" stop-color="#303030"/>
</linearGradient>
<linearGradient id="paint2_linear_621_10757" x1="13.0162" y1="21.3631" x2="22.6125" y2="21.3631" gradientUnits="userSpaceOnUse">
<stop stop-color="#303030" stop-opacity="0"/>
<stop offset="0.133" stop-color="#303030" stop-opacity="0"/>
<stop offset="0.512" stop-color="#303030" stop-opacity="0.69"/>
<stop offset="1" stop-color="#303030"/>
</linearGradient>
<clipPath id="clip0_621_10757">
<rect width="120" height="40.8889" fill="white" transform="translate(0.779633 0.0556641)"/>
</clipPath>
</defs>
</svg>
